<?xml version="1.0" encoding="utf-8"?>
<!-- Generator: Adobe Illustrator 17.1.0, SVG Export Plug-In . SVG Version: 6.00 Build 0)  -->
<!DOCTYPE svg PUBLIC "-//W3C//DTD SVG 1.1//EN" "http://www.w3.org/Graphics/SVG/1.1/DTD/svg11.dtd">
<svg version="1.1" id="Слой_1" xmlns="http://www.w3.org/2000/svg" xmlns:xlink="http://www.w3.org/1999/xlink" x="0px" y="0px"
	 viewBox="0 0 310.9 81" enable-background="new 0 0 310.9 81" xml:space="preserve" width="282" height="81">
<g>
	<g>
		<path fill="#00598e" d="M38.1,40.7c0.8,0,1.4,0.7,1.4,1.4c0,0.5-0.3,1-0.7,1.1v3.3L36.5,49v4.6c0,0.4-0.4,0.8-0.8,0.8
			c-0.4,0-0.8-0.4-0.8-0.8v-4.9l0,0l0,0c0-0.1,0-0.1,0-0.2l0,0l0,0l0,0l0,0l0,0l0,0l0,0l0,0l0,0l0,0l0,0l0,0l0,0l0,0l0,0l0,0l0,0
			l0,0l0,0l0,0l0,0l0,0l0,0l0,0c0,0,0,0,0.1-0.1l0,0l0,0l0,0l0,0l0,0l0,0l2.1-2.1v-2.8c-0.4-0.3-0.7-0.7-0.7-1.1
			C36.7,41.3,37.4,40.7,38.1,40.7L38.1,40.7z M30.5,0.1c-3.4,1.2-6.7,3-9.4,5.4c-2.9,2.6-5.3,5.8-6.8,9.4c-1,2.3-1.6,4.7-1.9,7.1
			c-0.7,6.7,2,12.6,7.1,17c0.8,0.7,1.5,1.3,2.2,2c0.5,0.6,1,1,1.2,1.8c0,0,0,0.1,0.1,0.1c-0.3,0.4-0.6,0.8-0.9,1
			c0-0.3-0.1-0.6-0.2-0.8c-0.2-0.6-0.6-1-1-1.4c-0.7-0.7-1.4-1.3-2.2-1.9c-5.4-4.7-8.2-10.8-7.5-18c0.3-2.6,1-5,1.9-7.4
			C15.7,8.9,19.1,5,24.4,2C17.3,4.3,6.2,11.4,4.3,21.3c-0.1-0.2-0.4-0.7-0.6-1c-2.8,6.2-4.1,16-1,21c-0.5-0.2-0.9-0.4-1-0.7
			c0.8,3.7,2.1,10.2,7.6,10.1c-1.3,0.3-2.8,0.3-3.7,0.1c1.3,2.4,3.5,5.7,6.7,5.5c-0.5,0.4-1.5,0.7-2.1,0.8c1,1.1,2.9,3.4,6,3
			c-0.4,0.4-1,0.6-1.9,0.7c1.4,1.1,2.9,2.1,4.6,2.9c0.2,0.5,0.5,1,0.7,1.5c-2.6-1.2-5-2.9-7.2-4.8c0.3,0,0.5,0,0.7-0.1
			c-2.4-0.9-3.5-2.6-4.6-3.8c0.3,0,0.5,0,0.7-0.1c-2.5-1.2-4.2-4.6-5.3-6.7c0.3,0.1,0.8,0.1,1,0c-2.9-2.8-3.9-7.3-4.5-11
			c0.2,0.1,0.3,0.2,0.4,0.2c-1.2-5.4-1-12.6,2.9-20.6c0.1,0.2,0.2,0.3,0.4,0.4C7.8,8.1,19,1,30.5,0.1L30.5,0.1z M45.3,75.5
			c-0.6,0.4-1.1,0.8-1.3,1.5c-0.9,0.5-1.5,0.8-2.8,1c1.2,0.2,2.4,0.1,3.6-0.2C44.8,77,45,76.1,45.3,75.5L45.3,75.5z M48.1,72.1
			c0,0.4,0,0.9,0,1.1c-0.4,0.3-1.1,0.6-1.8,0.7c1.2,0.2,2.4,0.1,3.4-0.4C49,73.2,48.6,72.9,48.1,72.1L48.1,72.1z M45.6,74.9
			c1.9,0.6,4.1,0.6,6.2-1c-1.8-1-3.3-2.5-4.3-4.3l0.9-0.8c1,2.2,2.9,3.8,5.3,4.8c-1.5,1.9-4,2.9-6.1,2.8c-0.8,0.9-1,2.5-0.3,3.5
			c-3.9,0.5-6.2,1.1-8.8-1l0.2-1.2c1,0.7,1.6,1.2,2.8,1.4c0.8,0.1,1.6,0.1,2.4,0c0.7-0.1,1.2-0.2,1.9-0.2c-0.1-1,0.1-2.2,0.8-2.9
			C46.2,75.5,45.8,75.3,45.6,74.9L45.6,74.9z M24.3,75.5c0.6,0.4,1.1,0.8,1.3,1.5c0.9,0.5,1.5,0.8,2.8,1c-1.2,0.2-2.4,0.1-3.6-0.2
			C24.8,77,24.6,76.1,24.3,75.5L24.3,75.5z M21.5,72.1c0,0.4,0,0.9,0,1.1c0.4,0.3,1.1,0.6,1.8,0.7c-1.2,0.2-2.4,0.1-3.4-0.4
			C20.6,73.2,21,72.9,21.5,72.1L21.5,72.1z M24,74.9c-1.9,0.6-4.1,0.6-6.2-1c1.8-1,3.3-2.5,4.3-4.3l-0.9-0.8c-1,2.2-2.9,3.8-5.3,4.8
			c1.5,1.9,4,2.9,6.1,2.8c0.8,0.9,1,2.5,0.3,3.5c3.9,0.5,6.2,1.1,8.8-1l-0.2-1.2c-1,0.7-1.6,1.2-2.8,1.4c-0.8,0.1-1.6,0.1-2.4,0
			c-0.7-0.1-1.2-0.2-1.9-0.2c0.1-1-0.1-2.2-0.8-2.9C23.5,75.5,23.8,75.3,24,74.9L24,74.9z M46.6,42.9c0.3,0.4,0.6,0.8,0.9,1
			c0-0.3,0.1-0.6,0.2-0.8c0.2-0.6,0.6-1,1-1.4c0.7-0.7,1.4-1.3,2.2-1.9c5.4-4.7,8.2-10.8,7.5-18c-0.3-2.6-1-5-1.9-7.4
			C53.9,8.8,50.5,4.9,45.2,2c7.1,2.3,18.3,9.3,20.2,19.2c0.1-0.2,0.4-0.7,0.6-1c2.8,6.2,4,16.1,1,21c0.5-0.2,0.9-0.4,1-0.7
			c-0.8,3.7-2.1,10.2-7.6,10.1c1.3,0.3,2.8,0.3,3.7,0.1c-1.3,2.4-3.5,5.7-6.7,5.5c0.5,0.4,1.5,0.7,2.1,0.8c-1,1.1-2.9,3.4-6,3
			c0.4,0.4,1,0.6,1.9,0.7c-1.4,1.1-2.9,2.1-4.6,2.9c-0.2,0.5-0.5,1-0.7,1.5c2.6-1.2,5-2.9,7.2-4.8c-0.3,0-0.5,0-0.7-0.1
			c2.4-0.9,3.5-2.6,4.6-3.8c-0.3,0-0.5,0-0.7-0.1c2.5-1.2,4.2-4.6,5.3-6.7c-0.3,0.1-0.8,0.1-1,0c2.9-2.8,3.9-7.3,4.5-11
			c-0.2,0.1-0.3,0.2-0.4,0.2c1.2-5.4,1-12.6-2.9-20.6c-0.1,0.2-0.2,0.3-0.4,0.4C61.9,8.1,50.7,1,39.1,0.1c3.4,1.2,6.7,3,9.4,5.4
			c2.9,2.6,5.3,5.8,6.8,9.4c1,2.3,1.6,4.7,1.9,7.1c0.7,6.7-2,12.6-7.1,17c-0.8,0.7-1.5,1.3-2.2,2C47.4,41.6,47,42.1,46.6,42.9
			C46.7,42.8,46.7,42.8,46.6,42.9L46.6,42.9z M33.6,35c-1.1-0.4-1.5-1.5-1-2.8c0,0.9,0.3,1.5,1,1.8c0.7-0.5,0.9-1.1,0.7-2
			C34.8,33.3,34.6,34.6,33.6,35L33.6,35z M41.8,29.7c-0.6-0.3-1.1-0.4-1.7-0.4c-0.3,0-0.6-0.2-0.5-0.8c-0.6,1.3-0.8,2.1-2.5,1.7
			c-1-0.2-1.4,0.6-1.2,1.4c0.1,0.5,0.3,1.2-0.2,1.7c-0.2-0.8-0.7-1.1-1.1-1.4c0.9,1.2,0.5,2,0.3,2.4c2-0.4,2,1.2,1.7,2
			c0.5,0,1,0.1,1.3,0.1c-0.5-1.6-0.9-3.2-1-4.9c0-0.3,0-0.4,0.2-0.3c1.1,0.2,2.2,0,2.9-1c1.1-0.1,2,0.3,2.9,0.9
			c0.2-1.8,0.3-3.5-1.9-4.2c-0.3-1-1.1-1.4-2.2-1.3c-1.4-2.2-6.5,0.1-8.5-1.3c-0.7-0.5-0.9-1.3-1-2.1c-0.7,0.7-1.2,1.1-1.5,2.1
			c-0.5,1.3-0.2,2.9,0.7,4.1c0.6,0.8,1.4,1.3,2.3,1.5c-0.1,0.1-0.2,0.2-0.2,0.3c-1.1,1.8-1,4.5-1,6.6c0.3-0.1,0.7-0.1,1-0.2
			c-0.3-1,0-2.1,1.4-2.2c-0.2-0.4-0.5-1.1,0.3-2.4c-0.5,0.2-1,0.7-1.1,1.4c-0.4-0.6-0.4-1.1-0.2-1.6c0.1-0.3,0.2-0.5,0.3-0.7V31
			c1-1.9,4.4-0.7,5.3-3.6c-0.3,0.4-0.7,0.7-1,0.9c-0.6,0.3-1-0.9-1.8-0.9c0.3,0.2,0.4,0.6,0.4,1c-0.1,0.4-0.3,0.5-0.6,0.2
			c-0.3-0.3-0.5-0.9-1-1c0.3,0.3,0.3,0.7,0.2,1c-0.1,0.4-0.4,0.6-0.7,0.2c-0.2-0.2-0.3-0.6-0.6-0.8c0.1,0.5-0.4,1-1,0.7
			c-0.9-0.4-1.4-1-1.8-1.8c-0.3-0.9-0.3-1.8,0.1-2.6c0,0,0,0,0-0.1c1.8,3.3,8.3,0.1,9.1,2.2l0.1,0.4h0.4c0.7-0.1,1.4-0.1,1.5,0.8
			v0.4l0.3,0.1C41.3,28.1,41.8,28.8,41.8,29.7L41.8,29.7z M31.5,36.5c0.2-0.4,0.5-0.6,0.7-0.8c-0.1,0.3-0.2,0.5-0.3,0.8
			C31.7,36.5,31.7,36.5,31.5,36.5L31.5,36.5z M35.5,36.4c-0.1-0.3-0.4-0.7-0.7-1c0.5,0.1,1,0.4,1.3,1C35.9,36.4,35.6,36.4,35.5,36.4
			L35.5,36.4z M32.5,36.4c0-0.2,0.1-0.4,0.1-0.6c0,0.2,0,0.4,0.1,0.5L32.5,36.4L32.5,36.4z M34.5,36.4c0-0.2-0.1-0.5-0.1-0.8
			c0.2,0.3,0.3,0.5,0.4,0.8H34.5L34.5,36.4z M10.4,25.5c-0.2,6.2,2.4,11.4,7.8,16.4c1.1,1.2,1.2,2.6,1.6,3.8
			c0.2-0.1,0.4-0.2,0.6-0.4c-0.1-0.6-0.1-1-0.2-1.4c0.3,0.2,0.5,0.6,0.7,1.1c0.2-0.1,0.3-0.3,0.5-0.4c0-0.2-0.1-0.4-0.1-0.6
			s-0.1-0.5-0.2-0.7c-0.4-1-2.1-2.3-2.9-2.9C13.6,36.6,10.7,31.4,10.4,25.5L10.4,25.5z M10.6,34.8C4.1,29,5.7,18.8,10.7,14.6
			c-0.6,2.4-0.7,4.8-0.4,7.2c0.3-2.7,1-5.2,2-7.7c1.2-2.9,3-5.7,5.3-8.2c-4.9,3.1-10,7.9-11.9,13.3C4.2,24.1,4.9,31.3,10.6,34.8
			L10.6,34.8z M3.4,24.3c-2.8,9-1.9,20.1,6.7,17.7c-5.3,0.2-7.2-3.1-6.7-10.5c1.3,3.2,4.2,4.9,6.8,5.8C6.1,34.4,3.6,31.1,3.4,24.3
			L3.4,24.3z M3.3,43.2c1.3,6.7,5.7,7,8.3,4.6c-3,1.6-5.1,0.2-6.1-2.1c2.5,0.2,3.7-0.5,4.9-1.5C8.3,44.8,6,44.9,3.3,43.2L3.3,43.2z
			 M7.5,52.1c3.1,4.8,6.4,2.5,7.2,0.8c-1.4,1.2-3.5,1.4-4.6,0.1c1.3-0.6,2.3-1.6,2.8-2.7C11.3,51.6,9.5,52.1,7.5,52.1L7.5,52.1z
			 M15.9,54.1C15,55.9,13.7,57,12,57.5c1.6,1.8,4.2,2.1,5.2,0.7c0-0.3-0.1-0.5-0.1-0.8c-0.7,0.8-1.7,1-2.8,0.3
			C15.2,56.6,15.7,55.5,15.9,54.1L15.9,54.1z M18.1,61.5c-0.1-0.4-0.2-0.8-0.3-1c-0.4,0.5-0.8,0.7-1.3,0.8
			C17.2,61.7,17.8,61.7,18.1,61.5L18.1,61.5z M11.1,36.8c-1.1,6.1,1.9,5.4,3.7,5.2c-1.7-0.3-3.1-1-3-2.8c0.9,0.6,2.1,0.8,3,0.8
			C12.6,39.1,11.6,37.4,11.1,36.8L11.1,36.8z M11.2,42.9c-0.1,5.4,3.2,4.1,4.4,2.9c-1.6,0.6-2.9,0.3-3-1.2c1.3,0.1,2.2-0.5,2.8-1
			C12.8,44.3,11.8,43.4,11.2,42.9L11.2,42.9z M12.5,48.3c1.5,3.8,3.2,2.8,4.2,1.4c0-0.2,0-0.3,0-0.5c-1,0.9-2,1-2.4,0.1
			c1.2-0.6,1.7-1.5,1.9-2.3C14.4,48.7,13.1,48.4,12.5,48.3L12.5,48.3z M14.8,52.1c0.8,1.1,1.4,1.7,1.9,2c-0.1-0.8-0.1-1.6-0.1-2.4
			C15.9,52.2,15.2,52.1,14.8,52.1L14.8,52.1z M15.6,42c0.1,4,2,3.2,3,2.8c-1,0.1-2.1-0.1-2.1-1.3c0.7,0.2,1.2,0.1,1.8,0
			C16.8,43.2,15.9,42.3,15.6,42L15.6,42z M16.3,45.9c0.2,0.7,0.4,1.1,0.6,1.5v-0.3l0.5-0.2c0-0.1,0-0.1-0.1-0.2
			c0.9-0.2,1.2-0.7,1.5-1.1C17.4,46.4,16.6,46.1,16.3,45.9L16.3,45.9z M8.8,19.4c-1.6,3-1.9,9.1,1.7,13.4c-0.9-1.1-2.1-5.1-1.6-8.4
			C8.5,23.1,8.4,21.3,8.8,19.4L8.8,19.4z M4.8,36.4c0.6,2.7,2,4.3,4.6,4.4c-1-0.5-1.9-1-2.4-1.7c0.7,0.1,1.4,0.1,2.2-0.2
			C7.4,38.6,6,37.6,4.8,36.4L4.8,36.4z M8.4,46.8c0.7,0.6,1.5,0.7,2.4,0.3c-0.3,0-0.6-0.1-0.8-0.3c0.2-0.2,0.3-0.5,0.3-0.7
			C9.8,46.6,9,46.8,8.4,46.8L8.4,46.8z M12,52.8c0.7,0.1,1.4,0.2,2-0.5c-0.3,0.1-0.5,0.1-0.7,0c0.1-0.3,0.1-0.6,0-0.9
			C13.1,52,12.6,52.5,12,52.8L12,52.8z M15.7,57c0.5-0.1,1-0.3,1.2-0.7c0-0.1,0-0.2,0-0.4c-0.1,0-0.2,0.1-0.3,0
			c0-0.2-0.2-0.6-0.4-0.8C16.3,55.9,16.1,56.5,15.7,57L15.7,57z M59.3,25.5c0.2,6.2-2.4,11.4-7.8,16.4c-1.1,1.2-1.2,2.6-1.6,3.8
			c-0.2-0.1-0.4-0.2-0.6-0.4c0.1-0.6,0.1-1,0.2-1.4c-0.3,0.2-0.5,0.6-0.7,1.1c-0.2-0.1-0.3-0.3-0.5-0.4c0-0.2,0.1-0.4,0.1-0.6
			s0.1-0.5,0.2-0.7c0.4-1,2.1-2.3,2.9-2.9C56.1,36.6,58.8,31.4,59.3,25.5L59.3,25.5z M58.9,34.8c6.6-5.9,4.9-16.1-0.1-20.3
			c0.6,2.4,0.7,4.8,0.4,7.2c-0.3-2.7-1-5.2-2-7.7c-1.2-2.9-3-5.7-5.3-8.2c4.9,3.1,10,7.9,11.9,13.3C65.5,24.1,64.7,31.3,58.9,34.8
			L58.9,34.8z M66.2,24.3c2.8,9,1.9,20.1-6.7,17.7c5.3,0.2,7.2-3.1,6.7-10.5c-1.3,3.2-4.2,4.9-6.8,5.8C63.5,34.4,66,31.1,66.2,24.3
			L66.2,24.3z M66.3,43.2c-1.3,6.7-5.7,7-8.3,4.6c3,1.6,5.1,0.2,6.1-2.1c-2.5,0.2-3.7-0.5-4.9-1.5C61.4,44.8,63.7,44.9,66.3,43.2
			L66.3,43.2z M62.1,52.1c-3.1,4.8-6.4,2.5-7.2,0.8c1.4,1.2,3.5,1.4,4.6,0.1c-1.3-0.6-2.3-1.6-2.8-2.7
			C58.4,51.6,60.2,52.1,62.1,52.1L62.1,52.1z M53.8,54.1c0.9,1.7,2.2,2.9,3.9,3.3c-1.6,1.8-4.2,2.1-5.2,0.7c0-0.3,0.1-0.5,0.1-0.8
			c0.7,0.8,1.7,1,2.8,0.3C54.5,56.6,54,55.5,53.8,54.1L53.8,54.1z M51.6,61.5c0.1-0.4,0.2-0.8,0.3-1c0.4,0.5,0.8,0.7,1.3,0.8
			C52.4,61.7,51.9,61.7,51.6,61.5L51.6,61.5z M58.5,36.8c1.1,6.1-1.9,5.4-3.7,5.2c1.7-0.3,3.1-1,3-2.8C57,39.9,55.7,40,54.8,40
			C57,39.1,58,37.4,58.5,36.8L58.5,36.8z M58.4,42.9c0.1,5.4-3.2,4.1-4.4,2.9c1.6,0.6,2.9,0.3,3-1.2c-1.3,0.1-2.2-0.5-2.8-1
			C56.7,44.3,57.9,43.4,58.4,42.9L58.4,42.9z M57.1,48.3c-1.5,3.8-3.2,2.8-4.2,1.4c0-0.2,0-0.3,0-0.5c1,0.9,2,1,2.4,0.1
			c-1.2-0.6-1.7-1.5-1.9-2.3C55.1,48.7,56.5,48.4,57.1,48.3L57.1,48.3z M54.8,52.1c-0.8,1.1-1.4,1.7-1.9,2c0.1-0.8,0.1-1.6,0.1-2.4
			C53.7,52.2,54.4,52.1,54.8,52.1L54.8,52.1z M54.1,42c-0.1,4-2,3.2-3,2.8c1,0.1,2.1-0.1,2.1-1.3c-0.7,0.2-1.2,0.1-1.8,0
			C52.9,43.2,53.7,42.3,54.1,42L54.1,42z M53.4,45.9c-0.2,0.7-0.4,1.1-0.6,1.5v-0.3l-0.6-0.2c0-0.1,0-0.1,0.1-0.2
			c-0.9-0.2-1.2-0.7-1.5-1.1C52.2,46.4,53,46.1,53.4,45.9L53.4,45.9z M60.7,19.4c1.6,3,1.9,9.1-1.7,13.4c0.9-1.1,2.1-5.1,1.6-8.4
			C61.1,23.1,61.3,21.3,60.7,19.4L60.7,19.4z M64.7,36.4c-0.6,2.7-2,4.3-4.6,4.4c1-0.5,1.9-1,2.4-1.7c-0.7,0.1-1.4,0.1-2.2-0.2
			C62.3,38.6,63.7,37.6,64.7,36.4L64.7,36.4z M61.3,46.8c-0.7,0.6-1.5,0.7-2.4,0.3c0.3,0,0.6-0.1,0.8-0.3c-0.2-0.2-0.3-0.5-0.3-0.7
			C59.9,46.6,60.6,46.8,61.3,46.8L61.3,46.8z M57.7,52.8c-0.7,0.1-1.4,0.2-2-0.5c0.3,0.1,0.5,0.1,0.7,0c-0.1-0.3-0.1-0.6,0-0.9
			C56.5,52,57,52.5,57.7,52.8L57.7,52.8z M54,57c-0.5-0.1-1-0.3-1.2-0.7c0-0.1,0-0.2,0-0.4c0.1,0,0.2,0.1,0.3,0
			c0-0.2,0.2-0.6,0.4-0.8C53.3,55.9,53.5,56.5,54,57L54,57z M34.9,26.2c1.3,0.7,2.3,0.1,3,0.5c0.6,0.3,0.9,1.4,0.1,1.6
			c0-0.6-0.5-0.5-0.8-0.5c-0.3,0-0.6-0.3-0.6-0.6c0-0.1,0-0.2,0.1-0.3C36.1,27,35.4,26.9,34.9,26.2L34.9,26.2z M29.5,25.9
			c-0.1,1,0.3,1.7,1.1,2.2c-0.2-0.4-0.3-0.8-0.4-1.2c1.4,0.2,2.9-0.1,4.2-0.7C32.5,26.7,30.9,26.5,29.5,25.9L29.5,25.9z M45.8,60.2
			c0.8,0.4,1.5,0.4,2.3,0.2c0.8-0.2,1.4-0.6,1.9-1.2c0.7-0.8,0.9-1.7,0.8-2.6c-0.1-0.7-0.4-1.4-0.9-2c0.2-0.4,0.3-0.8,0.4-1.2
			c0.1-0.8,0.1-1.5-0.2-2.2c-0.3-0.7-0.7-1.2-1.2-1.8c-0.6-0.5-1.3-0.8-2-1c-0.8-0.1-1.5,0-2.2,0.2c-0.5,0.2-1,0.5-1.3,0.8
			c-0.7-0.4-1.3-0.5-2-0.4c-0.9,0.1-1.8,0.5-2.4,1.2c-0.5,0.6-0.8,1.3-0.9,2.1c0,0.8,0.2,1.5,0.7,2.2c0.2,0.4,0.7,0.4,1,0.2
			c0.4-0.2,0.4-0.7,0.2-1c-0.3-0.4-0.4-0.9-0.4-1.2c0-0.5,0.2-0.9,0.5-1.2c0.4-0.5,0.9-0.7,1.4-0.8c0.3,0,0.7,0,1,0.1
			c-0.2,0.4-0.4,0.9-0.5,1.2c-0.1,0.4,0.2,0.8,0.6,0.9c0.4,0.1,0.8-0.2,0.9-0.6c0.1-0.5,0.3-1,0.6-1.2c0.3-0.4,0.8-0.7,1.1-0.9
			c0.5-0.2,1-0.2,1.4-0.1c0.5,0.1,0.9,0.3,1.2,0.6c0.4,0.3,0.7,0.8,0.9,1.1c0.2,0.5,0.2,1,0.1,1.4c-0.1,0.5-0.3,1-0.6,1.3
			s-0.7,0.7-1.1,0.8c-0.4,0.1-0.6,0.6-0.5,1s0.6,0.6,1,0.5c0.6-0.2,1-0.5,1.3-0.9c0.2,0.3,0.3,0.6,0.3,0.9c0.1,0.6-0.1,1-0.5,1.5
			c-0.3,0.4-0.7,0.6-1.1,0.7c-0.5,0.1-0.9,0.1-1.3-0.1c-0.4-0.2-0.9,0-1,0.4C45.2,59.7,45.4,60.1,45.8,60.2L45.8,60.2z M45.1,61.7
			c0,0.3,0,0.5,0,0.8v0.3l-2.2,1L42.8,64c-0.1,0.3-0.2,0.6-0.3,0.9c-0.1,0.3-0.3,0.6-0.4,0.9L41.9,66l0.9,2.2
			c-0.2,0.3-0.5,0.6-0.7,0.8c-0.3,0.3-0.5,0.5-0.8,0.7l-2.2-0.9L38.9,69c-0.3,0.1-0.6,0.3-0.9,0.4c-0.3,0.1-0.6,0.2-0.9,0.3
			l-0.4,0.1l-1,2.2h-0.3c-0.2,0-0.5,0-0.8,0c-0.3,0-0.5,0-0.8,0h-0.3l-1-2.2l-0.4-0.1c-0.3-0.1-0.6-0.2-0.9-0.3
			c-0.3-0.1-0.6-0.3-0.9-0.4l-0.3-0.2l-2.2,0.9c-0.3-0.2-0.6-0.5-0.8-0.7c-0.3-0.3-0.5-0.5-0.7-0.8l0.9-2.2l-0.1-0.2
			c-0.1-0.3-0.3-0.6-0.4-0.9c-0.1-0.3-0.2-0.6-0.3-0.9l-0.1-0.4l-2.2-1v-0.3c0-0.2,0-0.5,0-0.8c0-0.4-0.4-0.8-0.8-0.8
			s-0.8,0.4-0.8,0.8c0,0.3,0,0.6,0,0.9c0,0.3,0.1,0.6,0.1,0.9l0.1,0.4l2.3,1c0.1,0.2,0.2,0.5,0.3,0.7c0.1,0.2,0.2,0.5,0.3,0.7
			l-1,2.3l0.3,0.4c0.4,0.5,0.7,0.9,1.1,1.2c0.4,0.4,0.9,0.8,1.2,1.1l0.3,0.3l2.4-1c0.2,0.1,0.5,0.2,0.7,0.3c0.2,0.1,0.5,0.2,0.7,0.3
			l1,2.3l0.4,0.1c0.3,0,0.6,0.1,0.9,0.1s0.6,0,0.9,0s0.6,0,0.9,0s0.6-0.1,0.9-0.1l0.4-0.1l1-2.3c0.2-0.1,0.5-0.2,0.7-0.3
			c0.2-0.1,0.5-0.2,0.7-0.3l2.3,1l0.4-0.3c0.5-0.4,0.9-0.7,1.2-1.1c0.4-0.4,0.8-0.9,1.1-1.2l0.3-0.3l-1-2.4c0.1-0.2,0.2-0.5,0.3-0.7
			c0.1-0.2,0.2-0.5,0.3-0.7l2.3-1l0.1-0.4c0-0.3,0.1-0.6,0.1-0.9c0-0.3,0-0.6,0-0.9c0-0.4-0.4-0.8-0.8-0.8
			C45.4,61.1,45.1,61.4,45.1,61.7L45.1,61.7z M24.5,54c1.2-4.2-1.8-3.9-2.8-5.8C22.6,50.2,20.4,52.3,24.5,54L24.5,54z M43.4,55.1
			c-0.3,0.4-0.6,0.8-0.8,1c-0.1,0.2-0.3,0.4-0.4,0.5c-0.3-0.2-0.5-0.3-0.8-0.5c-0.5-0.2-1-0.4-1.6-0.5c-0.4-0.1-0.8,0.2-0.9,0.6
			c-0.1,0.4,0.2,0.8,0.6,0.9c0.4,0.1,0.9,0.2,1.2,0.4c0.2,0.1,0.3,0.2,0.5,0.3c-1.3,1.5-2.9,2.9-4.6,4.2c-0.7,0.6-1.4,1-2.2,1.5
			c-0.2-0.1-0.4-0.3-0.6-0.4c-0.4-0.2-0.8-0.2-1,0.2c-0.2,0.4-0.2,0.8,0.2,1c-0.8,0.5-1.6,0.9-2.5,1.2c-0.4,0.2-0.6,0.6-0.4,1
			c0.2,0.4,0.6,0.6,1,0.4c1.1-0.5,2.2-1,3.2-1.6c0.4,0.2,0.8,0.5,1.1,0.7c0.9,0.5,1.7,1,2.7,1.3c0.4,0.2,0.9,0,1-0.4
			c0.2-0.4,0-0.9-0.4-1c-0.9-0.4-1.7-0.8-2.6-1.2c-0.1-0.1-0.3-0.2-0.4-0.2c0.6-0.4,1.1-0.8,1.7-1.1c1.7-1.3,3.3-2.9,4.8-4.5
			c0.1,0.1,0.2,0.3,0.4,0.4c0.3,0.4,0.5,0.8,0.6,1.1s0.6,0.6,1,0.5c0.4-0.1,0.6-0.6,0.5-1c-0.2-0.5-0.5-1-0.8-1.4
			c-0.2-0.3-0.4-0.5-0.6-0.8c0.2-0.2,0.3-0.4,0.5-0.6c0.3-0.4,0.6-0.8,0.9-1.1c0.2-0.4,0.2-0.8-0.2-1C44.2,54.7,43.7,54.7,43.4,55.1
			L43.4,55.1z M33.1,58.5c1.8,2.8-0.4,3-0.6,4.6C31.3,60.4,32.9,60,33.1,58.5L33.1,58.5z M26.7,62.5c2.9,2.7,3.6,0.2,5.4,0.3
			C29.4,60.8,28.5,62.6,26.7,62.5L26.7,62.5z M24.2,59.7c2.6,3.4,3.8,1,5.7,1.4C27.4,58.3,26.1,60.1,24.2,59.7L24.2,59.7z
			 M29.6,54.9c-0.1,1.7-1.9,2.3-0.3,5.2C29.4,58.4,31.8,57.9,29.6,54.9L29.6,54.9z M28.2,52.4c-0.2,1.8-2.2,2.3-0.7,5.5
			C27.9,56.1,30.4,55.9,28.2,52.4L28.2,52.4z M22.3,56.9c2.2,3.7,3.7,1.3,5.6,2C25.6,55.9,24.1,57.6,22.3,56.9L22.3,56.9z
			 M20.7,53.9c1.6,4,3.5,1.9,5.2,2.8C24.1,53.4,22.4,54.8,20.7,53.9L20.7,53.9z M26.2,50.1c-0.1,2-2.1,2.7-0.2,5.9
			C26,54,28.8,53.6,26.2,50.1L26.2,50.1z M31.6,56.5c-0.2,1.7-2.1,2.2-0.6,5.2C31.2,59.9,33.6,59.7,31.6,56.5L31.6,56.5z M31.8,51.6
			v3.7l4.2,4.2c0.3,0.3,0.8,0.3,1,0c0.3-0.3,0.3-0.8,0-1l-3.7-3.7v-6.8l2.4-2.4v-2.2c0.4-0.3,0.7-0.7,0.7-1.1c0-0.8-0.7-1.4-1.4-1.4
			s-1.4,0.7-1.4,1.4c0,0.5,0.3,1,0.7,1.1v1.6l-2.4,2.4v2.2l-1.7-1.7v-4.5c0.4-0.3,0.7-0.7,0.7-1.1c0-0.8-0.7-1.4-1.4-1.4
			s-1.4,0.7-1.4,1.4c0,0.5,0.3,1,0.7,1.1v5.1L31.8,51.6L31.8,51.6z M38.1,41.7c-0.3,0-0.5,0.2-0.5,0.5s0.2,0.5,0.5,0.5
			c0.3,0,0.5-0.2,0.5-0.5S38.3,41.7,38.1,41.7L38.1,41.7z M34.9,41.7c-0.3,0-0.5,0.2-0.5,0.5s0.2,0.5,0.5,0.5c0.3,0,0.5-0.2,0.5-0.5
			S35.2,41.7,34.9,41.7L34.9,41.7z M29.4,41.7c-0.3,0-0.5,0.2-0.5,0.5s0.2,0.5,0.5,0.5c0.3,0,0.5-0.2,0.5-0.5S29.7,41.7,29.4,41.7z"
			/>
		<path fill="#6CAF60" d="M34.8,80.9c13.7-6.6,21.4-17.3,19.3-35c-4.8-1.2-7.7-4.1-8.1-8.9c-3.3-1.4-7.1-2.2-11.2-2.2
			s-7.9,0.7-11.2,2.2c-0.5,4.8-3.3,7.7-8.1,8.9C13.4,63.6,21.1,74.4,34.8,80.9L34.8,80.9z M25.8,38.6c2.9-1,6-1.5,9.1-1.5
			c3,0,6.2,0.5,9.1,1.5c0.9,4.6,3.8,7.5,8.1,9C53.3,62,47.7,71.9,35,78.4C22.2,71.9,16.5,62,17.9,47.7C22,46.2,24.9,43.2,25.8,38.6z
			"/>
	</g>
</g>
<g>
	<path fill-rule="evenodd" clip-rule="evenodd" fill="#00598e" d="M84.8,22.2l-0.9,2.3l-1.1,2.7h-0.6L81,24.5l-0.9-2.3h-0.1v7.7
		h-1.3V18.8h1.3l1.3,3.4l1,2.7h0l1-2.8l1.3-3.4h1.3v11.1h-1.3L84.8,22.2L84.8,22.2L84.8,22.2z M120.1,23.4l1.4-4.6h1.3l-2.2,6.4v4.7
		h-1.3v-4.7l-2.2-6.4h1.3l0.8,2.6L120.1,23.4L120.1,23.4L120.1,23.4z M115.9,29.9l-1.6-4.8h-1.2v4.8h-1.3V18.8h2.4
		c0.9,0,1.6,0.3,2,0.8c0.4,0.5,0.6,1.3,0.6,2.4c0,0.6-0.1,1.2-0.3,1.7c-0.2,0.5-0.6,0.9-1.1,1.1l1.7,5.1H115.9L115.9,29.9z
		 M115.6,22c0-0.3,0-0.6-0.1-0.8c0-0.2-0.1-0.5-0.2-0.6c-0.1-0.2-0.3-0.3-0.5-0.4c-0.2-0.1-0.5-0.1-0.8-0.1h-1v3.9h1.1
		c0.3,0,0.5,0,0.7-0.1c0.2-0.1,0.3-0.2,0.5-0.4c0.1-0.2,0.2-0.4,0.2-0.6C115.6,22.5,115.6,22.3,115.6,22L115.6,22z M109.1,20v9.9
		h-1.3V20H106v-1.2h5V20H109.1L109.1,20z M105.7,26.9c0,0.5,0,0.9-0.1,1.3c-0.1,0.4-0.2,0.7-0.4,1c-0.2,0.3-0.5,0.5-0.8,0.6
		c-0.3,0.1-0.7,0.2-1.2,0.2c-0.4,0-0.8-0.1-1.2-0.2c-0.3-0.1-0.6-0.3-0.8-0.5c-0.2-0.2-0.4-0.5-0.5-0.8c-0.1-0.3-0.2-0.6-0.2-1
		l1.3-0.3c0,0.2,0,0.4,0.1,0.6c0,0.2,0.1,0.4,0.2,0.5c0.1,0.1,0.2,0.3,0.4,0.3c0.2,0.1,0.4,0.1,0.6,0.1c0.3,0,0.6-0.1,0.8-0.2
		c0.2-0.1,0.3-0.2,0.4-0.4c0.1-0.2,0.1-0.4,0.2-0.6c0-0.2,0-0.5,0-0.7c0-0.3,0-0.6,0-0.8c0-0.2-0.1-0.4-0.2-0.5
		c-0.1-0.2-0.3-0.3-0.5-0.4c-0.2-0.1-0.5-0.2-0.8-0.4c-0.5-0.2-0.9-0.4-1.2-0.7c-0.3-0.2-0.6-0.5-0.7-0.7c-0.2-0.2-0.3-0.5-0.3-0.8
		c-0.1-0.3-0.1-0.6-0.1-0.9c0-0.4,0.1-0.8,0.2-1.2c0.1-0.4,0.3-0.7,0.5-0.9c0.2-0.3,0.5-0.5,0.8-0.6c0.3-0.1,0.7-0.2,1.1-0.2
		c0.5,0,0.9,0.1,1.2,0.2c0.3,0.1,0.6,0.3,0.8,0.6c0.2,0.2,0.3,0.5,0.4,0.8c0.1,0.3,0.1,0.6,0.1,0.8l-1.3,0.3c0-0.5-0.1-0.9-0.3-1.2
		c-0.2-0.3-0.5-0.4-1-0.4c-0.3,0-0.5,0.1-0.7,0.2c-0.2,0.1-0.3,0.2-0.4,0.4c-0.1,0.2-0.2,0.3-0.2,0.5c0,0.2,0,0.4,0,0.6
		c0,0.2,0,0.4,0,0.6c0,0.2,0.1,0.3,0.2,0.5c0.1,0.2,0.3,0.3,0.5,0.5c0.2,0.1,0.6,0.3,1,0.5c0.5,0.2,0.9,0.4,1.1,0.6
		c0.3,0.2,0.5,0.4,0.6,0.7c0.2,0.3,0.2,0.5,0.3,0.9C105.6,26.1,105.7,26.5,105.7,26.9L105.7,26.9z M98.1,29.9V18.8h1.3v11.1H98.1
		L98.1,29.9z M92,22.3v7.6h-1.3V18.8H92l2.3,5.6l0.8,2l0.1,0v-7.6h1.3v11.1h-1.2l-2.3-5.6L92,22.3L92,22.3L92,22.3z M87.8,29.9V18.8
		H89v11.1H87.8z"/>
	<path fill-rule="evenodd" clip-rule="evenodd" fill="#00598e" d="M82.8,38.5c0-0.4-0.1-0.7-0.2-1c-0.2-0.3-0.4-0.4-0.9-0.4
		c-0.2,0-0.4,0.1-0.6,0.2c-0.1,0.1-0.3,0.2-0.3,0.4c-0.1,0.2-0.1,0.3-0.2,0.5c0,0.2,0,0.4,0,0.5v6.4c0,0.3,0.1,0.6,0.2,0.9
		c0.2,0.3,0.4,0.4,0.9,0.4c0.4,0,0.7-0.1,0.9-0.4c0.2-0.3,0.3-0.6,0.3-1V38.5L82.8,38.5z M310.9,44.5c0,0.6-0.1,1.1-0.2,1.6
		c-0.1,0.5-0.3,0.9-0.5,1.2c-0.2,0.3-0.6,0.6-1,0.8c-0.4,0.2-0.9,0.3-1.5,0.3c-0.6,0-1-0.1-1.4-0.2c-0.4-0.2-0.7-0.4-1-0.7
		c-0.3-0.3-0.4-0.6-0.6-1c-0.1-0.4-0.2-0.8-0.2-1.2l2-0.4c0,0.5,0.1,0.9,0.3,1.2c0.2,0.3,0.5,0.4,0.9,0.4c0.3,0,0.5-0.1,0.6-0.2
		c0.2-0.1,0.3-0.2,0.4-0.4c0.1-0.2,0.1-0.4,0.1-0.6c0-0.2,0-0.5,0-0.7c0-0.3,0-0.6-0.1-0.8c0-0.2-0.1-0.4-0.2-0.5
		c-0.1-0.1-0.3-0.3-0.4-0.4c-0.2-0.1-0.4-0.2-0.7-0.4c-0.6-0.3-1.1-0.5-1.5-0.8c-0.4-0.3-0.7-0.6-0.9-0.9c-0.2-0.3-0.3-0.6-0.4-1
		c-0.1-0.3-0.1-0.7-0.1-1.1c0-0.5,0.1-1,0.2-1.4c0.1-0.4,0.3-0.8,0.6-1.1c0.3-0.3,0.6-0.6,1-0.7c0.4-0.2,0.9-0.3,1.4-0.3
		c0.6,0,1.1,0.1,1.5,0.3c0.4,0.2,0.7,0.4,0.9,0.7c0.2,0.3,0.4,0.6,0.5,1c0.1,0.4,0.1,0.7,0.1,1l-2,0.5c0-0.5-0.1-0.8-0.2-1.1
		c-0.2-0.3-0.5-0.4-0.9-0.4c-0.2,0-0.4,0-0.6,0.1c-0.1,0.1-0.3,0.2-0.3,0.4c-0.1,0.2-0.1,0.3-0.2,0.5c0,0.2,0,0.4,0,0.6
		c0,0.2,0,0.4,0,0.6c0,0.2,0.1,0.3,0.2,0.5c0.1,0.1,0.3,0.3,0.5,0.4c0.2,0.1,0.6,0.3,1,0.5c0.6,0.2,1,0.5,1.3,0.7
		c0.3,0.3,0.6,0.5,0.8,0.8c0.2,0.3,0.3,0.6,0.3,1C310.8,43.6,310.9,44,310.9,44.5L310.9,44.5z M298.2,40.7v7.4h-2V35.3h1.8l1.5,3.8
		c0.1,0.3,0.2,0.6,0.4,0.9c0.1,0.3,0.3,0.6,0.4,0.9l0.6,1.8c0,0,0,0,0,0c0,0,0,0,0,0v-7.4h1.9v12.8h-1.7l-1.5-3.8
		c-0.2-0.6-0.5-1.2-0.7-1.8C298.8,41.9,298.5,41.3,298.2,40.7L298.2,40.7L298.2,40.7z M292.5,38.5c0-0.4-0.1-0.7-0.2-1
		c-0.2-0.3-0.4-0.4-0.9-0.4c-0.2,0-0.4,0.1-0.6,0.2c-0.1,0.1-0.3,0.2-0.3,0.4c-0.1,0.2-0.1,0.3-0.2,0.5c0,0.2,0,0.4,0,0.5v6.4
		c0,0.3,0.1,0.6,0.2,0.9c0.2,0.3,0.4,0.4,0.9,0.4c0.4,0,0.7-0.1,0.9-0.4c0.2-0.3,0.3-0.6,0.3-1V38.5L292.5,38.5z M294.5,44.8
		c0,1.1-0.3,2-0.7,2.5c-0.5,0.6-1.3,0.9-2.4,0.9c-1.1,0-1.9-0.3-2.3-0.8c-0.5-0.5-0.7-1.3-0.7-2.4v-6.4c0-0.5,0.1-1,0.2-1.4
		c0.1-0.4,0.3-0.8,0.5-1.1c0.2-0.3,0.6-0.5,1-0.7c0.4-0.2,0.9-0.2,1.4-0.2c0.6,0,1.1,0.1,1.5,0.2c0.4,0.2,0.7,0.4,1,0.7
		c0.2,0.3,0.4,0.6,0.5,1.1c0.1,0.4,0.2,0.9,0.2,1.4V44.8L294.5,44.8z M284.5,48.1V35.3h2v12.8H284.5L284.5,48.1z M281.3,37.2v10.9
		h-2V37.2h-2.1v-1.9h6.1v1.9H281.3L281.3,37.2z M275.6,48.1h2L275,35.3h-2.2c-0.4,2.1-0.9,4.3-1.3,6.4c-0.4,2.1-0.9,4.2-1.3,6.4h2
		c0.1-0.4,0.1-0.9,0.2-1.3c0.1-0.4,0.2-0.9,0.2-1.3h2.4L275.6,48.1L275.6,48.1z M273.8,38.3L273.8,38.3l0.9,5.3H273
		c0.2-0.9,0.3-1.8,0.4-2.7C273.6,40.1,273.7,39.2,273.8,38.3L273.8,38.3z M264.4,48.1V35.3h2v10.9h3.5v1.9H264.4L264.4,48.1z
		 M257.4,48.1V35.3h5.7v1.9h-3.7v3.5h3.2v1.9h-3.2v3.7h3.7v1.9H257.4L257.4,48.1z M252.4,35.3c1,0,1.9,0.3,2.4,0.9
		c0.6,0.6,0.9,1.5,0.9,2.8c0,0.8-0.1,1.5-0.3,2s-0.6,1-1.2,1.3l1.9,5.7h-2l-1.7-5.3h-0.9v5.3h-2V35.3H252.4L252.4,35.3z M251.5,37.2
		v3.7h0.8c0.5,0,0.9-0.1,1.1-0.4c0.2-0.3,0.4-0.8,0.4-1.4c0-0.6-0.1-1-0.4-1.4c-0.2-0.3-0.6-0.5-1.2-0.5H251.5L251.5,37.2z
		 M240.8,35.3c1,0,1.9,0.3,2.4,0.9c0.6,0.6,0.9,1.5,0.9,2.8c0,0.8-0.1,1.5-0.3,2c-0.2,0.6-0.6,1-1.2,1.3l1.9,5.7h-2l-1.7-5.3h-0.9
		v5.3h-2V35.3H240.8L240.8,35.3z M239.8,37.2v3.7h0.8c0.5,0,0.9-0.1,1.1-0.4c0.2-0.3,0.4-0.8,0.4-1.4c0-0.6-0.1-1-0.4-1.4
		c-0.2-0.3-0.6-0.5-1.2-0.5H239.8L239.8,37.2z M234,38.5c0-0.4-0.1-0.7-0.2-1c-0.2-0.3-0.4-0.4-0.9-0.4c-0.2,0-0.4,0.1-0.6,0.2
		c-0.1,0.1-0.3,0.2-0.3,0.4c-0.1,0.2-0.1,0.3-0.2,0.5c0,0.2,0,0.4,0,0.5v6.4c0,0.3,0.1,0.6,0.2,0.9c0.2,0.3,0.4,0.4,0.9,0.4
		c0.4,0,0.7-0.1,0.9-0.4c0.2-0.3,0.3-0.6,0.3-1V38.5L234,38.5z M236,44.8c0,1.1-0.3,2-0.7,2.5c-0.5,0.6-1.3,0.9-2.4,0.9
		c-1.1,0-1.9-0.3-2.3-0.8c-0.5-0.5-0.7-1.3-0.7-2.4v-6.4c0-0.5,0.1-1,0.2-1.4c0.1-0.4,0.3-0.8,0.5-1.1c0.2-0.3,0.6-0.5,1-0.7
		c0.4-0.2,0.9-0.2,1.4-0.2c0.6,0,1.1,0.1,1.5,0.2c0.4,0.2,0.7,0.4,1,0.7c0.2,0.3,0.4,0.6,0.5,1.1c0.1,0.4,0.2,0.9,0.2,1.4V44.8
		L236,44.8z M226.2,38.8c0-0.6-0.1-1-0.3-1.3c-0.2-0.3-0.6-0.4-1.2-0.4H224v3.3h0.6c0.5,0,0.9-0.1,1.1-0.4
		C226,39.8,226.2,39.4,226.2,38.8L226.2,38.8z M226.3,44.1c0-0.6-0.1-1-0.3-1.3c-0.2-0.3-0.6-0.4-1.2-0.4H224v4h0.8
		c0.3,0,0.6-0.1,0.8-0.2c0.2-0.1,0.3-0.3,0.4-0.5c0.1-0.2,0.2-0.4,0.2-0.7C226.3,44.7,226.3,44.4,226.3,44.1L226.3,44.1z
		 M226.7,41.4c0.6,0.2,0.9,0.5,1.2,1c0.2,0.5,0.3,1.1,0.3,1.8c0,1.3-0.3,2.3-0.9,2.9c-0.6,0.6-1.4,0.9-2.6,0.9h-2.6V35.3h2.8
		c1.1,0,1.9,0.3,2.5,0.9c0.5,0.6,0.8,1.5,0.8,2.6c0,0.6-0.1,1.1-0.3,1.5C227.6,40.8,227.2,41.1,226.7,41.4L226.7,41.4L226.7,41.4z
		 M218.9,48.1l-0.5-2.7H216c-0.1,0.4-0.2,0.9-0.2,1.3c-0.1,0.4-0.2,0.9-0.2,1.3h-2c0.4-2.1,0.9-4.3,1.3-6.4c0.4-2.1,0.9-4.2,1.3-6.4
		h2.2l2.6,12.8H218.9L218.9,48.1z M217.2,38.3c-0.1,0.9-0.3,1.8-0.4,2.6c-0.1,0.9-0.3,1.8-0.4,2.7h1.7L217.2,38.3L217.2,38.3
		L217.2,38.3z M207.7,48.1V35.3h2v10.9h3.5v1.9H207.7L207.7,48.1z M200.1,38.7c0-0.5-0.1-0.8-0.3-1.1c-0.2-0.3-0.5-0.4-1-0.4h-0.8
		v9.1h0.8c0.5,0,0.8-0.1,1-0.4c0.2-0.3,0.3-0.6,0.3-1.1V38.7L200.1,38.7z M199.1,35.3c0.8,0,1.4,0.1,1.8,0.4
		c0.4,0.3,0.7,0.7,0.9,1.3c0.1,0.5,0.2,1.1,0.2,1.9c0,0.8,0,1.7,0,2.8c0,1.1,0,2,0,2.7c0,0.8-0.1,1.4-0.2,1.8
		c-0.2,0.7-0.6,1.2-1.1,1.5c-0.5,0.3-1.1,0.4-1.7,0.4h-3V35.3H199.1L199.1,35.3z M189.3,40.7v7.4h-2V35.3h1.8l1.5,3.8
		c0.1,0.3,0.2,0.6,0.4,0.9c0.1,0.3,0.3,0.6,0.4,0.9l0.6,1.8c0,0,0,0,0,0c0,0,0,0,0,0v-7.4h1.9v12.8h-1.7l-1.5-3.8
		c-0.2-0.6-0.5-1.2-0.7-1.8C189.9,41.9,189.6,41.3,189.3,40.7L189.3,40.7L189.3,40.7z M184.2,48.1l-0.5-2.7h-2.4
		c-0.1,0.4-0.2,0.9-0.2,1.3c-0.1,0.4-0.2,0.9-0.2,1.3h-2c0.4-2.1,0.9-4.3,1.3-6.4c0.4-2.1,0.9-4.2,1.3-6.4h2.2l2.6,12.8H184.2
		L184.2,48.1z M182.5,38.3c-0.1,0.9-0.3,1.8-0.4,2.6c-0.1,0.9-0.3,1.8-0.4,2.7h1.7L182.5,38.3L182.5,38.3L182.5,38.3z M172.8,37.2
		v10.9h-2V37.2h-2.1v-1.9h6.1v1.9H172.8L172.8,37.2z M163,40.7v7.4h-2V35.3h1.8l1.5,3.8c0.1,0.3,0.2,0.6,0.4,0.9
		c0.1,0.3,0.3,0.6,0.4,0.9l0.6,1.8c0,0,0,0,0,0c0,0,0,0,0,0v-7.4h1.9v12.8H166l-1.5-3.8c-0.2-0.6-0.5-1.2-0.7-1.8
		C163.6,41.9,163.3,41.3,163,40.7L163,40.7L163,40.7z M154.1,48.1V35.3h5.7v1.9h-3.7v3.5h3.2v1.9h-3.2v3.7h3.7v1.9H154.1L154.1,48.1
		z M147.3,45.3l-0.9-2.4l-0.8-2.2h-0.1v7.4h-2V35.3h1.9l1.4,3.6l1,2.8h0.1l1-2.8l1.4-3.6h1.9v12.8h-2v-7.4h-0.1l-0.8,2.3l-0.9,2.3
		H147.3L147.3,45.3z M139.1,40.3l0.6-2.3l0.7-2.7h2.1l-2.5,7.5v5.3h-2v-5.3l-2.5-7.5h2.1l0.8,2.8L139.1,40.3L139.1,40.3L139.1,40.3z
		 M133.1,38.5c0-0.4-0.1-0.7-0.2-1c-0.2-0.3-0.4-0.4-0.9-0.4c-0.2,0-0.4,0.1-0.6,0.2c-0.1,0.1-0.3,0.2-0.3,0.4
		c-0.1,0.2-0.1,0.3-0.2,0.5c0,0.2,0,0.4,0,0.5v6.4c0,0.3,0.1,0.6,0.2,0.9c0.2,0.3,0.4,0.4,0.9,0.4c0.4,0,0.7-0.1,0.9-0.4
		c0.2-0.3,0.3-0.6,0.3-1V38.5L133.1,38.5z M135.1,44.8c0,1.1-0.3,2-0.7,2.5c-0.5,0.6-1.3,0.9-2.4,0.9c-1.1,0-1.9-0.3-2.3-0.8
		c-0.5-0.5-0.7-1.3-0.7-2.4v-6.4c0-0.5,0.1-1,0.2-1.4c0.1-0.4,0.3-0.8,0.5-1.1c0.2-0.3,0.6-0.5,1-0.7c0.4-0.2,0.9-0.2,1.4-0.2
		c0.6,0,1.1,0.1,1.5,0.2c0.4,0.2,0.7,0.4,1,0.7c0.2,0.3,0.4,0.6,0.5,1.1c0.1,0.4,0.2,0.9,0.2,1.4V44.8L135.1,44.8z M122.4,48.1V35.3
		h2v10.9h3.5v1.9H122.4L122.4,48.1z M117.7,35.3c1.2,0,2,0.3,2.6,0.9c0.5,0.6,0.8,1.6,0.8,3c0,0.6-0.1,1.1-0.2,1.6
		c-0.1,0.5-0.3,0.9-0.6,1.3c-0.3,0.3-0.6,0.6-1.1,0.8c-0.4,0.2-1,0.3-1.6,0.3h-0.8v4.9h-2V35.3H117.7L117.7,35.3z M116.8,37.2v4.1
		h0.7c0.6,0,1-0.2,1.3-0.5c0.2-0.3,0.4-0.9,0.4-1.6c0-0.6-0.1-1.1-0.3-1.5c-0.2-0.4-0.6-0.5-1.3-0.5H116.8L116.8,37.2z M108,45.3
		l-0.9-2.4l-0.8-2.2h-0.1v7.4h-2V35.3h1.9l1.4,3.6l1,2.8h0.1l1-2.8l1.4-3.6h1.9v12.8h-2v-7.4h-0.1l-0.8,2.3l-0.9,2.3H108L108,45.3z
		 M97.3,48.1V35.3h5.7v1.9h-3.7v3.5h3.2v1.9h-3.2v3.7h3.7v1.9H97.3L97.3,48.1z M88.6,37.2v3.5h3.2v1.9h-3.2v5.5h-2V35.3h5.7v1.9
		H88.6L88.6,37.2z M84.8,44.8c0,1.1-0.3,2-0.7,2.5c-0.5,0.6-1.3,0.9-2.4,0.9c-1.1,0-1.9-0.3-2.3-0.8c-0.5-0.5-0.7-1.3-0.7-2.4v-6.4
		c0-0.5,0.1-1,0.2-1.4c0.1-0.4,0.3-0.8,0.5-1.1c0.2-0.3,0.6-0.5,1-0.7c0.4-0.2,0.9-0.2,1.4-0.2c0.6,0,1.1,0.1,1.5,0.2
		c0.4,0.2,0.7,0.4,1,0.7c0.2,0.3,0.4,0.6,0.5,1.1c0.1,0.4,0.2,0.9,0.2,1.4V44.8z"/>
	<path fill-rule="evenodd" clip-rule="evenodd" fill="#00598e" d="M83.6,61.6c0,1-0.2,1.7-0.6,2.3c-0.4,0.5-1,0.8-2,0.8
		c-0.9,0-1.6-0.2-1.9-0.7c-0.4-0.5-0.6-1.2-0.6-2v-5.4c0-0.4,0-0.8,0.1-1.1c0.1-0.4,0.2-0.7,0.4-1c0.2-0.3,0.4-0.5,0.8-0.7
		c0.3-0.2,0.8-0.3,1.3-0.3c0.6,0,1,0.1,1.3,0.2c0.3,0.2,0.6,0.4,0.8,0.6c0.2,0.3,0.3,0.6,0.4,1s0.1,0.8,0.1,1.2V61.6L83.6,61.6z
		 M231.8,57.1v7.6h-1.3V53.6h1.2l2.3,5.6l0.8,2l0.1,0v-7.6h1.3v11.1h-1.2l-2.3-5.6L231.8,57.1L231.8,57.1L231.8,57.1z M228.3,64.6
		l-0.5-2.5h-2.5l-0.5,2.5h-1.2l2.3-11.1h1.2l2.4,11.1H228.3L228.3,64.6z M226.6,55.8l-0.5,2.6l-0.5,2.6h2l-0.5-2.6L226.6,55.8
		L226.6,55.8L226.6,55.8z M222.2,54.7h1.9v-1.2h-5v1.2h1.9v9.9h1.3V54.7L222.2,54.7z M218.5,61.6c0,0.5,0,0.9-0.1,1.3
		c-0.1,0.4-0.2,0.7-0.4,1c-0.2,0.3-0.5,0.5-0.8,0.6c-0.3,0.1-0.7,0.2-1.2,0.2c-0.4,0-0.8-0.1-1.2-0.2c-0.3-0.1-0.6-0.3-0.8-0.5
		c-0.2-0.2-0.4-0.5-0.5-0.8s-0.2-0.6-0.2-1l1.3-0.3c0,0.2,0,0.4,0.1,0.6c0,0.2,0.1,0.4,0.2,0.5c0.1,0.1,0.2,0.3,0.4,0.3
		c0.2,0.1,0.4,0.1,0.6,0.1c0.3,0,0.6-0.1,0.8-0.2c0.2-0.1,0.3-0.2,0.4-0.4c0.1-0.2,0.1-0.4,0.2-0.6c0-0.2,0-0.5,0-0.7
		c0-0.3,0-0.6,0-0.8c0-0.2-0.1-0.4-0.2-0.5c-0.1-0.2-0.3-0.3-0.5-0.4c-0.2-0.1-0.5-0.2-0.8-0.4c-0.5-0.2-0.9-0.4-1.2-0.7
		c-0.3-0.2-0.6-0.5-0.7-0.7c-0.2-0.2-0.3-0.5-0.3-0.8c-0.1-0.3-0.1-0.6-0.1-0.9c0-0.4,0.1-0.8,0.2-1.2c0.1-0.4,0.3-0.7,0.5-0.9
		c0.2-0.3,0.5-0.5,0.8-0.6c0.3-0.1,0.7-0.2,1.1-0.2c0.5,0,0.9,0.1,1.2,0.2c0.3,0.1,0.6,0.3,0.8,0.6c0.2,0.2,0.3,0.5,0.4,0.8
		c0.1,0.3,0.1,0.6,0.1,0.8l-1.3,0.3c0-0.5-0.1-0.9-0.3-1.2c-0.2-0.3-0.5-0.4-1-0.4c-0.3,0-0.5,0.1-0.7,0.2c-0.2,0.1-0.3,0.2-0.4,0.4
		c-0.1,0.2-0.2,0.3-0.2,0.5c0,0.2,0,0.4,0,0.6c0,0.2,0,0.4,0,0.6c0,0.2,0.1,0.3,0.2,0.5c0.1,0.2,0.3,0.3,0.5,0.5
		c0.2,0.1,0.6,0.3,1,0.5c0.5,0.2,0.9,0.4,1.1,0.6c0.3,0.2,0.5,0.4,0.6,0.7c0.2,0.3,0.2,0.5,0.3,0.9
		C218.5,60.8,218.5,61.2,218.5,61.6L218.5,61.6z M210.6,64.6V53.6h1.3v11.1H210.6L210.6,64.6z M208.3,64.6l-2-5.3l-1.1,2.1v3.2H204
		V53.6h1.3v5.5h0l2.7-5.5h1.3l-2.1,4.4l2.5,6.7H208.3L208.3,64.6z M198.2,64.6V53.6h4.7v1.2h-3.5v3.7h3v1.2h-3v3.9h3.5v1.2H198.2
		L198.2,64.6z M195.4,58.8c0.5,0.1,0.8,0.4,1,0.9c0.2,0.4,0.3,1,0.3,1.6c0,1.1-0.2,2-0.7,2.5c-0.5,0.5-1.2,0.8-2.2,0.8h-2.1V53.6
		h2.3c1,0,1.6,0.3,2,0.8c0.4,0.5,0.6,1.2,0.6,2.2c0,0.6-0.1,1-0.3,1.4C196.1,58.2,195.8,58.5,195.4,58.8L195.4,58.8L195.4,58.8z
		 M195.4,61.2c0-0.6-0.1-1.1-0.3-1.4c-0.2-0.3-0.7-0.5-1.3-0.5h-0.9v4.1h1c0.3,0,0.6-0.1,0.8-0.2c0.2-0.1,0.4-0.3,0.5-0.5
		c0.1-0.2,0.2-0.4,0.2-0.7C195.4,61.8,195.4,61.5,195.4,61.2L195.4,61.2z M195.3,56.5c0-0.6-0.1-1-0.4-1.3c-0.2-0.3-0.7-0.4-1.2-0.4
		h-0.9v3.5h0.8c0.6,0,1-0.2,1.3-0.5C195.2,57.5,195.3,57,195.3,56.5L195.3,56.5z M190.5,54.7l-3.2,8.8h3.2v1.2H186v-1.1l3.2-8.8
		h-3.1v-1.2h4.3V54.7L190.5,54.7z M184.9,53.6v8.1c0,1-0.2,1.7-0.6,2.3c-0.4,0.5-1,0.8-2,0.8c-0.9,0-1.6-0.2-2-0.7
		c-0.4-0.5-0.6-1.2-0.6-2v-8.4h1.3V62c0,0.2,0,0.3,0,0.5c0,0.2,0.1,0.3,0.2,0.5c0.1,0.2,0.2,0.3,0.4,0.4c0.2,0.1,0.4,0.2,0.6,0.2
		c0.3,0,0.5-0.1,0.7-0.2c0.2-0.1,0.3-0.2,0.4-0.4c0.1-0.2,0.2-0.3,0.2-0.6c0-0.2,0.1-0.4,0.1-0.7v-8.2H184.9L184.9,53.6z
		 M170.9,64.6V53.6h4.7v1.2h-3.5v3.7h3v1.2h-3v5H170.9L170.9,64.6z M169.3,61.6c0,1-0.2,1.7-0.6,2.3c-0.4,0.5-1,0.8-2,0.8
		c-0.9,0-1.6-0.2-1.9-0.7c-0.4-0.5-0.6-1.2-0.6-2v-5.4c0-0.4,0-0.8,0.1-1.1c0.1-0.4,0.2-0.7,0.4-1s0.4-0.5,0.8-0.7
		c0.3-0.2,0.8-0.3,1.3-0.3c0.6,0,1,0.1,1.3,0.2c0.3,0.2,0.6,0.4,0.8,0.6c0.2,0.3,0.3,0.6,0.4,1c0.1,0.4,0.1,0.8,0.1,1.2V61.6
		L169.3,61.6z M168.1,56.3c0-0.2,0-0.4,0-0.6c0-0.2-0.1-0.4-0.2-0.5c-0.1-0.2-0.2-0.3-0.4-0.4c-0.2-0.1-0.4-0.2-0.7-0.2
		c-0.3,0-0.6,0.1-0.7,0.2c-0.2,0.2-0.3,0.3-0.4,0.5c-0.1,0.2-0.1,0.4-0.2,0.7c0,0.2,0,0.4,0,0.6V62c0,0.2,0,0.3,0,0.5
		c0,0.2,0.1,0.3,0.2,0.5c0.1,0.2,0.2,0.3,0.4,0.4c0.2,0.1,0.4,0.2,0.6,0.2c0.3,0,0.5-0.1,0.7-0.2c0.2-0.1,0.3-0.2,0.4-0.4
		c0.1-0.2,0.2-0.4,0.2-0.6c0-0.2,0.1-0.4,0.1-0.7V56.3L168.1,56.3z M157.6,53.5c0.9,0,1.5,0.2,1.9,0.7c0.4,0.5,0.6,1.1,0.6,1.8
		l-1.3,0.2c0-0.5-0.1-0.9-0.3-1.2c-0.2-0.3-0.5-0.4-0.9-0.4c-0.3,0-0.5,0.1-0.6,0.2c-0.2,0.1-0.3,0.3-0.4,0.4
		c-0.1,0.2-0.2,0.4-0.2,0.6c0,0.2,0,0.4,0,0.6V62c0,0.2,0,0.3,0,0.5c0,0.2,0.1,0.4,0.2,0.5c0.1,0.2,0.2,0.3,0.4,0.4
		c0.2,0.1,0.4,0.2,0.6,0.2c0.4,0,0.7-0.1,0.9-0.4c0.2-0.3,0.3-0.7,0.3-1.2l1.3,0.2c0,0.8-0.2,1.4-0.6,1.9c-0.4,0.4-1,0.7-1.8,0.7
		c-0.8,0-1.5-0.2-1.9-0.7c-0.4-0.5-0.6-1.1-0.6-2v-5.5c0-0.4,0-0.8,0.1-1.2c0.1-0.4,0.2-0.7,0.4-1c0.2-0.3,0.4-0.5,0.8-0.7
		C156.6,53.6,157.1,53.5,157.6,53.5L157.6,53.5z M152.2,64.6V53.6h1.3v11.1H152.2L152.2,64.6z M146.7,64.6V53.6h1.3v9.9h3.2v1.2
		H146.7L146.7,64.6z M143.9,58.8c0.5,0.1,0.8,0.4,1,0.9c0.2,0.4,0.3,1,0.3,1.6c0,1.1-0.2,2-0.7,2.5c-0.5,0.5-1.2,0.8-2.2,0.8h-2.1
		V53.6h2.3c1,0,1.6,0.3,2,0.8c0.4,0.5,0.6,1.2,0.6,2.2c0,0.6-0.1,1-0.3,1.4C144.7,58.2,144.4,58.5,143.9,58.8L143.9,58.8L143.9,58.8
		z M144,61.2c0-0.6-0.1-1.1-0.3-1.4c-0.2-0.3-0.7-0.5-1.3-0.5h-0.9v4.1h1c0.3,0,0.6-0.1,0.8-0.2c0.2-0.1,0.4-0.3,0.5-0.5
		c0.1-0.2,0.2-0.4,0.2-0.7C144,61.8,144,61.5,144,61.2L144,61.2z M143.9,56.5c0-0.6-0.1-1-0.4-1.3c-0.2-0.3-0.7-0.4-1.2-0.4h-0.9
		v3.5h0.8c0.6,0,1-0.2,1.3-0.5C143.7,57.5,143.9,57,143.9,56.5L143.9,56.5z M138.5,53.6v8.1c0,1-0.2,1.7-0.6,2.3
		c-0.4,0.5-1,0.8-2,0.8c-0.9,0-1.6-0.2-2-0.7c-0.4-0.5-0.6-1.2-0.6-2v-8.4h1.3V62c0,0.2,0,0.3,0,0.5c0,0.2,0.1,0.3,0.2,0.5
		c0.1,0.2,0.2,0.3,0.4,0.4c0.2,0.1,0.4,0.2,0.6,0.2c0.3,0,0.5-0.1,0.7-0.2c0.2-0.1,0.3-0.2,0.4-0.4c0.1-0.2,0.2-0.3,0.2-0.6
		c0-0.2,0.1-0.4,0.1-0.7v-8.2H138.5L138.5,53.6z M129.5,53.6c0.6,0,1,0.1,1.4,0.2c0.4,0.1,0.6,0.4,0.9,0.6c0.2,0.3,0.4,0.6,0.4,1
		c0.1,0.4,0.1,0.9,0.1,1.4c0,0.5,0,0.9-0.1,1.3c-0.1,0.4-0.2,0.8-0.4,1.1c-0.2,0.3-0.5,0.5-0.9,0.7c-0.4,0.2-0.9,0.3-1.5,0.3h-0.9
		v4.4h-1.3V53.6H129.5L129.5,53.6z M128.5,59h0.9c0.4,0,0.7-0.1,0.9-0.2c0.2-0.1,0.4-0.3,0.5-0.5c0.1-0.2,0.2-0.4,0.2-0.7
		c0-0.3,0-0.5,0-0.8c0-0.3,0-0.6-0.1-0.8c0-0.3-0.1-0.5-0.2-0.7c-0.1-0.2-0.3-0.4-0.5-0.5c-0.2-0.1-0.5-0.2-0.9-0.2h-0.9V59
		L128.5,59z M121.4,64.6V53.6h4.7v1.2h-3.5v3.7h3v1.2h-3v3.9h3.5v1.2H121.4L121.4,64.6z M118.8,64.6l-1.6-4.8h-1.2v4.8h-1.3V53.6
		h2.4c0.9,0,1.6,0.3,2,0.8c0.4,0.5,0.6,1.3,0.6,2.4c0,0.6-0.1,1.2-0.3,1.7c-0.2,0.5-0.6,0.9-1.1,1.1l1.7,5.1H118.8L118.8,64.6z
		 M118.6,56.7c0-0.3,0-0.6-0.1-0.8c0-0.2-0.1-0.5-0.2-0.6c-0.1-0.2-0.3-0.3-0.5-0.4c-0.2-0.1-0.5-0.1-0.8-0.1h-1v3.9h1.1
		c0.3,0,0.5,0,0.7-0.1c0.2-0.1,0.3-0.2,0.5-0.4c0.1-0.2,0.2-0.4,0.2-0.6C118.6,57.3,118.6,57,118.6,56.7L118.6,56.7z M105.9,64.6
		V53.6h4.7v1.2h-3.5v3.7h3v1.2h-3v3.9h3.5v1.2H105.9L105.9,64.6z M103,64.6v-5.1h-2.6v5.1h-1.3V53.6h1.3v4.9h2.6v-4.9h1.3v11.1H103
		L103,64.6z M96.4,54.7v9.9h-1.3v-9.9h-1.9v-1.2h5v1.2H96.4L96.4,54.7z M85.1,64.6V53.6h4.7v1.2h-3.5v3.7h3v1.2h-3v5H85.1L85.1,64.6
		z M82.3,56.3c0-0.2,0-0.4,0-0.6c0-0.2-0.1-0.4-0.2-0.5c-0.1-0.2-0.2-0.3-0.4-0.4s-0.4-0.2-0.7-0.2c-0.3,0-0.6,0.1-0.7,0.2
		c-0.2,0.2-0.3,0.3-0.4,0.5c-0.1,0.2-0.1,0.4-0.2,0.7c0,0.2,0,0.4,0,0.6V62c0,0.2,0,0.3,0,0.5c0,0.2,0.1,0.3,0.2,0.5
		c0.1,0.2,0.2,0.3,0.4,0.4c0.2,0.1,0.4,0.2,0.6,0.2c0.3,0,0.5-0.1,0.7-0.2c0.2-0.1,0.3-0.2,0.4-0.4c0.1-0.2,0.2-0.4,0.2-0.6
		c0-0.2,0.1-0.4,0.1-0.7V56.3z"/>
</g>
</svg>
