<?xml version="1.0" encoding="utf-8"?>
<!-- Generator: Adobe Illustrator 17.1.0, SVG Export Plug-In . SVG Version: 6.00 Build 0)  -->
<!DOCTYPE svg PUBLIC "-//W3C//DTD SVG 1.1//EN" "http://www.w3.org/Graphics/SVG/1.1/DTD/svg11.dtd">
<svg version="1.1" id="Слой_1" xmlns="http://www.w3.org/2000/svg" xmlns:xlink="http://www.w3.org/1999/xlink" x="0px" y="0px"
	 viewBox="0 0.1 282 80.9" enable-background="new 0 0.1 282 80.9" xml:space="preserve" width="282" height="81">
<g>
	<g>
		<path fill="#00598e" d="M38.1,40.7c0.8,0,1.4,0.7,1.4,1.4c0,0.5-0.3,1-0.7,1.1v3.3L36.5,49v4.6c0,0.4-0.4,0.8-0.8,0.8
			c-0.4,0-0.8-0.4-0.8-0.8v-4.9l0,0l0,0c0-0.1,0-0.1,0-0.2l0,0l0,0l0,0l0,0l0,0l0,0l0,0l0,0l0,0l0,0l0,0l0,0l0,0l0,0l0,0l0,0l0,0
			l0,0l0,0l0,0l0,0l0,0l0,0l0,0c0,0,0,0,0.1-0.1l0,0l0,0l0,0l0,0l0,0l0,0l2.1-2.1v-2.8c-0.4-0.3-0.7-0.7-0.7-1.1
			C36.7,41.3,37.4,40.7,38.1,40.7L38.1,40.7z M30.5,0.1c-3.4,1.2-6.7,3-9.4,5.4c-2.9,2.6-5.3,5.8-6.8,9.4c-1,2.3-1.6,4.7-1.9,7.1
			c-0.7,6.7,2,12.6,7.1,17c0.8,0.7,1.5,1.3,2.2,2c0.5,0.6,1,1,1.2,1.8c0,0,0,0.1,0.1,0.1c-0.3,0.4-0.6,0.8-0.9,1
			c0-0.3-0.1-0.6-0.2-0.8c-0.2-0.6-0.6-1-1-1.4c-0.7-0.7-1.4-1.3-2.2-1.9c-5.4-4.7-8.2-10.8-7.5-18c0.3-2.6,1-5,1.9-7.4
			C15.7,8.9,19.1,5,24.4,2C17.3,4.3,6.2,11.4,4.3,21.3c-0.1-0.2-0.4-0.7-0.6-1c-2.8,6.2-4.1,16-1,21c-0.5-0.2-0.9-0.4-1-0.7
			c0.8,3.7,2.1,10.2,7.6,10.1c-1.3,0.3-2.8,0.3-3.7,0.1c1.3,2.4,3.5,5.7,6.7,5.5c-0.5,0.4-1.5,0.7-2.1,0.8c1,1.1,2.9,3.4,6,3
			c-0.4,0.4-1,0.6-1.9,0.7c1.4,1.1,2.9,2.1,4.6,2.9c0.2,0.5,0.5,1,0.7,1.5c-2.6-1.2-5-2.9-7.2-4.8c0.3,0,0.5,0,0.7-0.1
			c-2.4-0.9-3.5-2.6-4.6-3.8c0.3,0,0.5,0,0.7-0.1c-2.5-1.2-4.2-4.6-5.3-6.7c0.3,0.1,0.8,0.1,1,0c-2.9-2.8-3.9-7.3-4.5-11
			c0.2,0.1,0.3,0.2,0.4,0.2c-1.2-5.4-1-12.6,2.9-20.6c0.1,0.2,0.2,0.3,0.4,0.4C7.8,8.1,19,1,30.5,0.1L30.5,0.1z M45.3,75.5
			c-0.6,0.4-1.1,0.8-1.3,1.5c-0.9,0.5-1.5,0.8-2.8,1c1.2,0.2,2.4,0.1,3.6-0.2C44.8,77,45,76.1,45.3,75.5L45.3,75.5z M48.1,72.1
			c0,0.4,0,0.9,0,1.1c-0.4,0.3-1.1,0.6-1.8,0.7c1.2,0.2,2.4,0.1,3.4-0.4C49,73.2,48.6,72.9,48.1,72.1L48.1,72.1z M45.6,74.9
			c1.9,0.6,4.1,0.6,6.2-1c-1.8-1-3.3-2.5-4.3-4.3l0.9-0.8c1,2.2,2.9,3.8,5.3,4.8c-1.5,1.9-4,2.9-6.1,2.8c-0.8,0.9-1,2.5-0.3,3.5
			c-3.9,0.5-6.2,1.1-8.8-1l0.2-1.2c1,0.7,1.6,1.2,2.8,1.4c0.8,0.1,1.6,0.1,2.4,0c0.7-0.1,1.2-0.2,1.9-0.2c-0.1-1,0.1-2.2,0.8-2.9
			C46.2,75.5,45.8,75.3,45.6,74.9L45.6,74.9z M24.3,75.5c0.6,0.4,1.1,0.8,1.3,1.5c0.9,0.5,1.5,0.8,2.8,1c-1.2,0.2-2.4,0.1-3.6-0.2
			C24.8,77,24.6,76.1,24.3,75.5L24.3,75.5z M21.5,72.1c0,0.4,0,0.9,0,1.1c0.4,0.3,1.1,0.6,1.8,0.7c-1.2,0.2-2.4,0.1-3.4-0.4
			C20.6,73.2,21,72.9,21.5,72.1L21.5,72.1z M24,74.9c-1.9,0.6-4.1,0.6-6.2-1c1.8-1,3.3-2.5,4.3-4.3l-0.9-0.8c-1,2.2-2.9,3.8-5.3,4.8
			c1.5,1.9,4,2.9,6.1,2.8c0.8,0.9,1,2.5,0.3,3.5c3.9,0.5,6.2,1.1,8.8-1l-0.2-1.2c-1,0.7-1.6,1.2-2.8,1.4c-0.8,0.1-1.6,0.1-2.4,0
			c-0.7-0.1-1.2-0.2-1.9-0.2c0.1-1-0.1-2.2-0.8-2.9C23.5,75.5,23.8,75.3,24,74.9L24,74.9z M46.6,42.9c0.3,0.4,0.6,0.8,0.9,1
			c0-0.3,0.1-0.6,0.2-0.8c0.2-0.6,0.6-1,1-1.4c0.7-0.7,1.4-1.3,2.2-1.9c5.4-4.7,8.2-10.8,7.5-18c-0.3-2.6-1-5-1.9-7.4
			C53.9,8.8,50.5,4.9,45.2,2c7.1,2.3,18.3,9.3,20.2,19.2c0.1-0.2,0.4-0.7,0.6-1c2.8,6.2,4,16.1,1,21c0.5-0.2,0.9-0.4,1-0.7
			c-0.8,3.7-2.1,10.2-7.6,10.1c1.3,0.3,2.8,0.3,3.7,0.1c-1.3,2.4-3.5,5.7-6.7,5.5c0.5,0.4,1.5,0.7,2.1,0.8c-1,1.1-2.9,3.4-6,3
			c0.4,0.4,1,0.6,1.9,0.7c-1.4,1.1-2.9,2.1-4.6,2.9c-0.2,0.5-0.5,1-0.7,1.5c2.6-1.2,5-2.9,7.2-4.8c-0.3,0-0.5,0-0.7-0.1
			c2.4-0.9,3.5-2.6,4.6-3.8c-0.3,0-0.5,0-0.7-0.1c2.5-1.2,4.2-4.6,5.3-6.7c-0.3,0.1-0.8,0.1-1,0c2.9-2.8,3.9-7.3,4.5-11
			c-0.2,0.1-0.3,0.2-0.4,0.2c1.2-5.4,1-12.6-2.9-20.6c-0.1,0.2-0.2,0.3-0.4,0.4C61.9,8.1,50.7,1,39.1,0.1c3.4,1.2,6.7,3,9.4,5.4
			c2.9,2.6,5.3,5.8,6.8,9.4c1,2.3,1.6,4.7,1.9,7.1c0.7,6.7-2,12.6-7.1,17c-0.8,0.7-1.5,1.3-2.2,2C47.4,41.6,47,42.1,46.6,42.9
			C46.7,42.8,46.7,42.8,46.6,42.9L46.6,42.9z M33.6,35c-1.1-0.4-1.5-1.5-1-2.8c0,0.9,0.3,1.5,1,1.8c0.7-0.5,0.9-1.1,0.7-2
			C34.8,33.3,34.6,34.6,33.6,35L33.6,35z M41.8,29.7c-0.6-0.3-1.1-0.4-1.7-0.4c-0.3,0-0.6-0.2-0.5-0.8c-0.6,1.3-0.8,2.1-2.5,1.7
			c-1-0.2-1.4,0.6-1.2,1.4c0.1,0.5,0.3,1.2-0.2,1.7c-0.2-0.8-0.7-1.1-1.1-1.4c0.9,1.2,0.5,2,0.3,2.4c2-0.4,2,1.2,1.7,2
			c0.5,0,1,0.1,1.3,0.1c-0.5-1.6-0.9-3.2-1-4.9c0-0.3,0-0.4,0.2-0.3c1.1,0.2,2.2,0,2.9-1c1.1-0.1,2,0.3,2.9,0.9
			c0.2-1.8,0.3-3.5-1.9-4.2c-0.3-1-1.1-1.4-2.2-1.3c-1.4-2.2-6.5,0.1-8.5-1.3c-0.7-0.5-0.9-1.3-1-2.1c-0.7,0.7-1.2,1.1-1.5,2.1
			c-0.5,1.3-0.2,2.9,0.7,4.1c0.6,0.8,1.4,1.3,2.3,1.5c-0.1,0.1-0.2,0.2-0.2,0.3c-1.1,1.8-1,4.5-1,6.6c0.3-0.1,0.7-0.1,1-0.2
			c-0.3-1,0-2.1,1.4-2.2c-0.2-0.4-0.5-1.1,0.3-2.4c-0.5,0.2-1,0.7-1.1,1.4c-0.4-0.6-0.4-1.1-0.2-1.6c0.1-0.3,0.2-0.5,0.3-0.7V31
			c1-1.9,4.4-0.7,5.3-3.6c-0.3,0.4-0.7,0.7-1,0.9c-0.6,0.3-1-0.9-1.8-0.9c0.3,0.2,0.4,0.6,0.4,1c-0.1,0.4-0.3,0.5-0.6,0.2
			c-0.3-0.3-0.5-0.9-1-1c0.3,0.3,0.3,0.7,0.2,1c-0.1,0.4-0.4,0.6-0.7,0.2c-0.2-0.2-0.3-0.6-0.6-0.8c0.1,0.5-0.4,1-1,0.7
			c-0.9-0.4-1.4-1-1.8-1.8c-0.3-0.9-0.3-1.8,0.1-2.6c0,0,0,0,0-0.1c1.8,3.3,8.3,0.1,9.1,2.2l0.1,0.4h0.4c0.7-0.1,1.4-0.1,1.5,0.8
			v0.4l0.3,0.1C41.3,28.1,41.8,28.8,41.8,29.7L41.8,29.7z M31.5,36.5c0.2-0.4,0.5-0.6,0.7-0.8c-0.1,0.3-0.2,0.5-0.3,0.8
			C31.7,36.5,31.7,36.5,31.5,36.5L31.5,36.5z M35.5,36.4c-0.1-0.3-0.4-0.7-0.7-1c0.5,0.1,1,0.4,1.3,1C35.9,36.4,35.6,36.4,35.5,36.4
			L35.5,36.4z M32.5,36.4c0-0.2,0.1-0.4,0.1-0.6c0,0.2,0,0.4,0.1,0.5L32.5,36.4L32.5,36.4z M34.5,36.4c0-0.2-0.1-0.5-0.1-0.8
			c0.2,0.3,0.3,0.5,0.4,0.8H34.5L34.5,36.4z M10.4,25.5c-0.2,6.2,2.4,11.4,7.8,16.4c1.1,1.2,1.2,2.6,1.6,3.8
			c0.2-0.1,0.4-0.2,0.6-0.4c-0.1-0.6-0.1-1-0.2-1.4c0.3,0.2,0.5,0.6,0.7,1.1c0.2-0.1,0.3-0.3,0.5-0.4c0-0.2-0.1-0.4-0.1-0.6
			s-0.1-0.5-0.2-0.7c-0.4-1-2.1-2.3-2.9-2.9C13.6,36.6,10.7,31.4,10.4,25.5L10.4,25.5z M10.6,34.8C4.1,29,5.7,18.8,10.7,14.6
			c-0.6,2.4-0.7,4.8-0.4,7.2c0.3-2.7,1-5.2,2-7.7c1.2-2.9,3-5.7,5.3-8.2c-4.9,3.1-10,7.9-11.9,13.3C4.2,24.1,4.9,31.3,10.6,34.8
			L10.6,34.8z M3.4,24.3c-2.8,9-1.9,20.1,6.7,17.7c-5.3,0.2-7.2-3.1-6.7-10.5c1.3,3.2,4.2,4.9,6.8,5.8C6.1,34.4,3.6,31.1,3.4,24.3
			L3.4,24.3z M3.3,43.2c1.3,6.7,5.7,7,8.3,4.6c-3,1.6-5.1,0.2-6.1-2.1c2.5,0.2,3.7-0.5,4.9-1.5C8.3,44.8,6,44.9,3.3,43.2L3.3,43.2z
			 M7.5,52.1c3.1,4.8,6.4,2.5,7.2,0.8c-1.4,1.2-3.5,1.4-4.6,0.1c1.3-0.6,2.3-1.6,2.8-2.7C11.3,51.6,9.5,52.1,7.5,52.1L7.5,52.1z
			 M15.9,54.1C15,55.9,13.7,57,12,57.5c1.6,1.8,4.2,2.1,5.2,0.7c0-0.3-0.1-0.5-0.1-0.8c-0.7,0.8-1.7,1-2.8,0.3
			C15.2,56.6,15.7,55.5,15.9,54.1L15.9,54.1z M18.1,61.5c-0.1-0.4-0.2-0.8-0.3-1c-0.4,0.5-0.8,0.7-1.3,0.8
			C17.2,61.7,17.8,61.7,18.1,61.5L18.1,61.5z M11.1,36.8c-1.1,6.1,1.9,5.4,3.7,5.2c-1.7-0.3-3.1-1-3-2.8c0.9,0.6,2.1,0.8,3,0.8
			C12.6,39.1,11.6,37.4,11.1,36.8L11.1,36.8z M11.2,42.9c-0.1,5.4,3.2,4.1,4.4,2.9c-1.6,0.6-2.9,0.3-3-1.2c1.3,0.1,2.2-0.5,2.8-1
			C12.8,44.3,11.8,43.4,11.2,42.9L11.2,42.9z M12.5,48.3c1.5,3.8,3.2,2.8,4.2,1.4c0-0.2,0-0.3,0-0.5c-1,0.9-2,1-2.4,0.1
			c1.2-0.6,1.7-1.5,1.9-2.3C14.4,48.7,13.1,48.4,12.5,48.3L12.5,48.3z M14.8,52.1c0.8,1.1,1.4,1.7,1.9,2c-0.1-0.8-0.1-1.6-0.1-2.4
			C15.9,52.2,15.2,52.1,14.8,52.1L14.8,52.1z M15.6,42c0.1,4,2,3.2,3,2.8c-1,0.1-2.1-0.1-2.1-1.3c0.7,0.2,1.2,0.1,1.8,0
			C16.8,43.2,15.9,42.3,15.6,42L15.6,42z M16.3,45.9c0.2,0.7,0.4,1.1,0.6,1.5v-0.3l0.5-0.2c0-0.1,0-0.1-0.1-0.2
			c0.9-0.2,1.2-0.7,1.5-1.1C17.4,46.4,16.6,46.1,16.3,45.9L16.3,45.9z M8.8,19.4c-1.6,3-1.9,9.1,1.7,13.4c-0.9-1.1-2.1-5.1-1.6-8.4
			C8.5,23.1,8.4,21.3,8.8,19.4L8.8,19.4z M4.8,36.4c0.6,2.7,2,4.3,4.6,4.4c-1-0.5-1.9-1-2.4-1.7c0.7,0.1,1.4,0.1,2.2-0.2
			C7.4,38.6,6,37.6,4.8,36.4L4.8,36.4z M8.4,46.8c0.7,0.6,1.5,0.7,2.4,0.3c-0.3,0-0.6-0.1-0.8-0.3c0.2-0.2,0.3-0.5,0.3-0.7
			C9.8,46.6,9,46.8,8.4,46.8L8.4,46.8z M12,52.8c0.7,0.1,1.4,0.2,2-0.5c-0.3,0.1-0.5,0.1-0.7,0c0.1-0.3,0.1-0.6,0-0.9
			C13.1,52,12.6,52.5,12,52.8L12,52.8z M15.7,57c0.5-0.1,1-0.3,1.2-0.7c0-0.1,0-0.2,0-0.4c-0.1,0-0.2,0.1-0.3,0
			c0-0.2-0.2-0.6-0.4-0.8C16.3,55.9,16.1,56.5,15.7,57L15.7,57z M59.3,25.5c0.2,6.2-2.4,11.4-7.8,16.4c-1.1,1.2-1.2,2.6-1.6,3.8
			c-0.2-0.1-0.4-0.2-0.6-0.4c0.1-0.6,0.1-1,0.2-1.4c-0.3,0.2-0.5,0.6-0.7,1.1c-0.2-0.1-0.3-0.3-0.5-0.4c0-0.2,0.1-0.4,0.1-0.6
			s0.1-0.5,0.2-0.7c0.4-1,2.1-2.3,2.9-2.9C56.1,36.6,58.8,31.4,59.3,25.5L59.3,25.5z M58.9,34.8c6.6-5.9,4.9-16.1-0.1-20.3
			c0.6,2.4,0.7,4.8,0.4,7.2c-0.3-2.7-1-5.2-2-7.7c-1.2-2.9-3-5.7-5.3-8.2c4.9,3.1,10,7.9,11.9,13.3C65.5,24.1,64.7,31.3,58.9,34.8
			L58.9,34.8z M66.2,24.3c2.8,9,1.9,20.1-6.7,17.7c5.3,0.2,7.2-3.1,6.7-10.5c-1.3,3.2-4.2,4.9-6.8,5.8C63.5,34.4,66,31.1,66.2,24.3
			L66.2,24.3z M66.3,43.2c-1.3,6.7-5.7,7-8.3,4.6c3,1.6,5.1,0.2,6.1-2.1c-2.5,0.2-3.7-0.5-4.9-1.5C61.4,44.8,63.7,44.9,66.3,43.2
			L66.3,43.2z M62.1,52.1c-3.1,4.8-6.4,2.5-7.2,0.8c1.4,1.2,3.5,1.4,4.6,0.1c-1.3-0.6-2.3-1.6-2.8-2.7
			C58.4,51.6,60.2,52.1,62.1,52.1L62.1,52.1z M53.8,54.1c0.9,1.7,2.2,2.9,3.9,3.3c-1.6,1.8-4.2,2.1-5.2,0.7c0-0.3,0.1-0.5,0.1-0.8
			c0.7,0.8,1.7,1,2.8,0.3C54.5,56.6,54,55.5,53.8,54.1L53.8,54.1z M51.6,61.5c0.1-0.4,0.2-0.8,0.3-1c0.4,0.5,0.8,0.7,1.3,0.8
			C52.4,61.7,51.9,61.7,51.6,61.5L51.6,61.5z M58.5,36.8c1.1,6.1-1.9,5.4-3.7,5.2c1.7-0.3,3.1-1,3-2.8C57,39.9,55.7,40,54.8,40
			C57,39.1,58,37.4,58.5,36.8L58.5,36.8z M58.4,42.9c0.1,5.4-3.2,4.1-4.4,2.9c1.6,0.6,2.9,0.3,3-1.2c-1.3,0.1-2.2-0.5-2.8-1
			C56.7,44.3,57.9,43.4,58.4,42.9L58.4,42.9z M57.1,48.3c-1.5,3.8-3.2,2.8-4.2,1.4c0-0.2,0-0.3,0-0.5c1,0.9,2,1,2.4,0.1
			c-1.2-0.6-1.7-1.5-1.9-2.3C55.1,48.7,56.5,48.4,57.1,48.3L57.1,48.3z M54.8,52.1c-0.8,1.1-1.4,1.7-1.9,2c0.1-0.8,0.1-1.6,0.1-2.4
			C53.7,52.2,54.4,52.1,54.8,52.1L54.8,52.1z M54.1,42c-0.1,4-2,3.2-3,2.8c1,0.1,2.1-0.1,2.1-1.3c-0.7,0.2-1.2,0.1-1.8,0
			C52.9,43.2,53.7,42.3,54.1,42L54.1,42z M53.4,45.9c-0.2,0.7-0.4,1.1-0.6,1.5v-0.3l-0.6-0.2c0-0.1,0-0.1,0.1-0.2
			c-0.9-0.2-1.2-0.7-1.5-1.1C52.2,46.4,53,46.1,53.4,45.9L53.4,45.9z M60.7,19.4c1.6,3,1.9,9.1-1.7,13.4c0.9-1.1,2.1-5.1,1.6-8.4
			C61.1,23.1,61.3,21.3,60.7,19.4L60.7,19.4z M64.7,36.4c-0.6,2.7-2,4.3-4.6,4.4c1-0.5,1.9-1,2.4-1.7c-0.7,0.1-1.4,0.1-2.2-0.2
			C62.3,38.6,63.7,37.6,64.7,36.4L64.7,36.4z M61.3,46.8c-0.7,0.6-1.5,0.7-2.4,0.3c0.3,0,0.6-0.1,0.8-0.3c-0.2-0.2-0.3-0.5-0.3-0.7
			C59.9,46.6,60.6,46.8,61.3,46.8L61.3,46.8z M57.7,52.8c-0.7,0.1-1.4,0.2-2-0.5c0.3,0.1,0.5,0.1,0.7,0c-0.1-0.3-0.1-0.6,0-0.9
			C56.5,52,57,52.5,57.7,52.8L57.7,52.8z M54,57c-0.5-0.1-1-0.3-1.2-0.7c0-0.1,0-0.2,0-0.4c0.1,0,0.2,0.1,0.3,0
			c0-0.2,0.2-0.6,0.4-0.8C53.3,55.9,53.5,56.5,54,57L54,57z M34.9,26.2c1.3,0.7,2.3,0.1,3,0.5c0.6,0.3,0.9,1.4,0.1,1.6
			c0-0.6-0.5-0.5-0.8-0.5c-0.3,0-0.6-0.3-0.6-0.6c0-0.1,0-0.2,0.1-0.3C36.1,27,35.4,26.9,34.9,26.2L34.9,26.2z M29.5,25.9
			c-0.1,1,0.3,1.7,1.1,2.2c-0.2-0.4-0.3-0.8-0.4-1.2c1.4,0.2,2.9-0.1,4.2-0.7C32.5,26.7,30.9,26.5,29.5,25.9L29.5,25.9z M45.8,60.2
			c0.8,0.4,1.5,0.4,2.3,0.2c0.8-0.2,1.4-0.6,1.9-1.2c0.7-0.8,0.9-1.7,0.8-2.6c-0.1-0.7-0.4-1.4-0.9-2c0.2-0.4,0.3-0.8,0.4-1.2
			c0.1-0.8,0.1-1.5-0.2-2.2c-0.3-0.7-0.7-1.2-1.2-1.8c-0.6-0.5-1.3-0.8-2-1c-0.8-0.1-1.5,0-2.2,0.2c-0.5,0.2-1,0.5-1.3,0.8
			c-0.7-0.4-1.3-0.5-2-0.4c-0.9,0.1-1.8,0.5-2.4,1.2c-0.5,0.6-0.8,1.3-0.9,2.1c0,0.8,0.2,1.5,0.7,2.2c0.2,0.4,0.7,0.4,1,0.2
			c0.4-0.2,0.4-0.7,0.2-1c-0.3-0.4-0.4-0.9-0.4-1.2c0-0.5,0.2-0.9,0.5-1.2c0.4-0.5,0.9-0.7,1.4-0.8c0.3,0,0.7,0,1,0.1
			c-0.2,0.4-0.4,0.9-0.5,1.2c-0.1,0.4,0.2,0.8,0.6,0.9c0.4,0.1,0.8-0.2,0.9-0.6c0.1-0.5,0.3-1,0.6-1.2c0.3-0.4,0.8-0.7,1.1-0.9
			c0.5-0.2,1-0.2,1.4-0.1c0.5,0.1,0.9,0.3,1.2,0.6c0.4,0.3,0.7,0.8,0.9,1.1c0.2,0.5,0.2,1,0.1,1.4c-0.1,0.5-0.3,1-0.6,1.3
			s-0.7,0.7-1.1,0.8c-0.4,0.1-0.6,0.6-0.5,1s0.6,0.6,1,0.5c0.6-0.2,1-0.5,1.3-0.9c0.2,0.3,0.3,0.6,0.3,0.9c0.1,0.6-0.1,1-0.5,1.5
			c-0.3,0.4-0.7,0.6-1.1,0.7c-0.5,0.1-0.9,0.1-1.3-0.1c-0.4-0.2-0.9,0-1,0.4C45.2,59.7,45.4,60.1,45.8,60.2L45.8,60.2z M45.1,61.7
			c0,0.3,0,0.5,0,0.8v0.3l-2.2,1L42.8,64c-0.1,0.3-0.2,0.6-0.3,0.9c-0.1,0.3-0.3,0.6-0.4,0.9L41.9,66l0.9,2.2
			c-0.2,0.3-0.5,0.6-0.7,0.8c-0.3,0.3-0.5,0.5-0.8,0.7l-2.2-0.9L38.9,69c-0.3,0.1-0.6,0.3-0.9,0.4c-0.3,0.1-0.6,0.2-0.9,0.3
			l-0.4,0.1l-1,2.2h-0.3c-0.2,0-0.5,0-0.8,0c-0.3,0-0.5,0-0.8,0h-0.3l-1-2.2l-0.4-0.1c-0.3-0.1-0.6-0.2-0.9-0.3
			c-0.3-0.1-0.6-0.3-0.9-0.4l-0.3-0.2l-2.2,0.9c-0.3-0.2-0.6-0.5-0.8-0.7c-0.3-0.3-0.5-0.5-0.7-0.8l0.9-2.2l-0.1-0.2
			c-0.1-0.3-0.3-0.6-0.4-0.9c-0.1-0.3-0.2-0.6-0.3-0.9l-0.1-0.4l-2.2-1v-0.3c0-0.2,0-0.5,0-0.8c0-0.4-0.4-0.8-0.8-0.8
			s-0.8,0.4-0.8,0.8c0,0.3,0,0.6,0,0.9c0,0.3,0.1,0.6,0.1,0.9l0.1,0.4l2.3,1c0.1,0.2,0.2,0.5,0.3,0.7c0.1,0.2,0.2,0.5,0.3,0.7
			l-1,2.3l0.3,0.4c0.4,0.5,0.7,0.9,1.1,1.2c0.4,0.4,0.9,0.8,1.2,1.1l0.3,0.3l2.4-1c0.2,0.1,0.5,0.2,0.7,0.3c0.2,0.1,0.5,0.2,0.7,0.3
			l1,2.3l0.4,0.1c0.3,0,0.6,0.1,0.9,0.1s0.6,0,0.9,0s0.6,0,0.9,0s0.6-0.1,0.9-0.1l0.4-0.1l1-2.3c0.2-0.1,0.5-0.2,0.7-0.3
			c0.2-0.1,0.5-0.2,0.7-0.3l2.3,1l0.4-0.3c0.5-0.4,0.9-0.7,1.2-1.1c0.4-0.4,0.8-0.9,1.1-1.2l0.3-0.3l-1-2.4c0.1-0.2,0.2-0.5,0.3-0.7
			c0.1-0.2,0.2-0.5,0.3-0.7l2.3-1l0.1-0.4c0-0.3,0.1-0.6,0.1-0.9c0-0.3,0-0.6,0-0.9c0-0.4-0.4-0.8-0.8-0.8
			C45.4,61.1,45.1,61.4,45.1,61.7L45.1,61.7z M24.5,54c1.2-4.2-1.8-3.9-2.8-5.8C22.6,50.2,20.4,52.3,24.5,54L24.5,54z M43.4,55.1
			c-0.3,0.4-0.6,0.8-0.8,1c-0.1,0.2-0.3,0.4-0.4,0.5c-0.3-0.2-0.5-0.3-0.8-0.5c-0.5-0.2-1-0.4-1.6-0.5c-0.4-0.1-0.8,0.2-0.9,0.6
			c-0.1,0.4,0.2,0.8,0.6,0.9c0.4,0.1,0.9,0.2,1.2,0.4c0.2,0.1,0.3,0.2,0.5,0.3c-1.3,1.5-2.9,2.9-4.6,4.2c-0.7,0.6-1.4,1-2.2,1.5
			c-0.2-0.1-0.4-0.3-0.6-0.4c-0.4-0.2-0.8-0.2-1,0.2c-0.2,0.4-0.2,0.8,0.2,1c-0.8,0.5-1.6,0.9-2.5,1.2c-0.4,0.2-0.6,0.6-0.4,1
			c0.2,0.4,0.6,0.6,1,0.4c1.1-0.5,2.2-1,3.2-1.6c0.4,0.2,0.8,0.5,1.1,0.7c0.9,0.5,1.7,1,2.7,1.3c0.4,0.2,0.9,0,1-0.4
			c0.2-0.4,0-0.9-0.4-1c-0.9-0.4-1.7-0.8-2.6-1.2c-0.1-0.1-0.3-0.2-0.4-0.2c0.6-0.4,1.1-0.8,1.7-1.1c1.7-1.3,3.3-2.9,4.8-4.5
			c0.1,0.1,0.2,0.3,0.4,0.4c0.3,0.4,0.5,0.8,0.6,1.1s0.6,0.6,1,0.5c0.4-0.1,0.6-0.6,0.5-1c-0.2-0.5-0.5-1-0.8-1.4
			c-0.2-0.3-0.4-0.5-0.6-0.8c0.2-0.2,0.3-0.4,0.5-0.6c0.3-0.4,0.6-0.8,0.9-1.1c0.2-0.4,0.2-0.8-0.2-1C44.2,54.7,43.7,54.7,43.4,55.1
			L43.4,55.1z M33.1,58.5c1.8,2.8-0.4,3-0.6,4.6C31.3,60.4,32.9,60,33.1,58.5L33.1,58.5z M26.7,62.5c2.9,2.7,3.6,0.2,5.4,0.3
			C29.4,60.8,28.5,62.6,26.7,62.5L26.7,62.5z M24.2,59.7c2.6,3.4,3.8,1,5.7,1.4C27.4,58.3,26.1,60.1,24.2,59.7L24.2,59.7z
			 M29.6,54.9c-0.1,1.7-1.9,2.3-0.3,5.2C29.4,58.4,31.8,57.9,29.6,54.9L29.6,54.9z M28.2,52.4c-0.2,1.8-2.2,2.3-0.7,5.5
			C27.9,56.1,30.4,55.9,28.2,52.4L28.2,52.4z M22.3,56.9c2.2,3.7,3.7,1.3,5.6,2C25.6,55.9,24.1,57.6,22.3,56.9L22.3,56.9z
			 M20.7,53.9c1.6,4,3.5,1.9,5.2,2.8C24.1,53.4,22.4,54.8,20.7,53.9L20.7,53.9z M26.2,50.1c-0.1,2-2.1,2.7-0.2,5.9
			C26,54,28.8,53.6,26.2,50.1L26.2,50.1z M31.6,56.5c-0.2,1.7-2.1,2.2-0.6,5.2C31.2,59.9,33.6,59.7,31.6,56.5L31.6,56.5z M31.8,51.6
			v3.7l4.2,4.2c0.3,0.3,0.8,0.3,1,0c0.3-0.3,0.3-0.8,0-1l-3.7-3.7v-6.8l2.4-2.4v-2.2c0.4-0.3,0.7-0.7,0.7-1.1c0-0.8-0.7-1.4-1.4-1.4
			s-1.4,0.7-1.4,1.4c0,0.5,0.3,1,0.7,1.1v1.6l-2.4,2.4v2.2l-1.7-1.7v-4.5c0.4-0.3,0.7-0.7,0.7-1.1c0-0.8-0.7-1.4-1.4-1.4
			s-1.4,0.7-1.4,1.4c0,0.5,0.3,1,0.7,1.1v5.1L31.8,51.6L31.8,51.6z M38.1,41.7c-0.3,0-0.5,0.2-0.5,0.5s0.2,0.5,0.5,0.5
			c0.3,0,0.5-0.2,0.5-0.5S38.3,41.7,38.1,41.7L38.1,41.7z M34.9,41.7c-0.3,0-0.5,0.2-0.5,0.5s0.2,0.5,0.5,0.5c0.3,0,0.5-0.2,0.5-0.5
			S35.2,41.7,34.9,41.7L34.9,41.7z M29.4,41.7c-0.3,0-0.5,0.2-0.5,0.5s0.2,0.5,0.5,0.5c0.3,0,0.5-0.2,0.5-0.5S29.7,41.7,29.4,41.7z"
			/>
		<path fill="#6CAF60" d="M34.8,80.9c13.7-6.6,21.4-17.3,19.3-35c-4.8-1.2-7.7-4.1-8.1-8.9c-3.3-1.4-7.1-2.2-11.2-2.2
			s-7.9,0.7-11.2,2.2c-0.5,4.8-3.3,7.7-8.1,8.9C13.4,63.6,21.1,74.4,34.8,80.9L34.8,80.9z M25.8,38.6c2.9-1,6-1.5,9.1-1.5
			c3,0,6.2,0.5,9.1,1.5c0.9,4.6,3.8,7.5,8.1,9C53.3,62,47.7,71.9,35,78.4C22.2,71.9,16.5,62,17.9,47.7C22,46.2,24.9,43.2,25.8,38.6z
			"/>
	</g>
</g>
<g>
	<path fill-rule="evenodd" clip-rule="evenodd" fill="#00598e" d="M83.3,26.8c0,1-0.2,1.7-0.6,2.2c-0.4,0.5-1,0.8-1.9,0.8
		c-0.9,0-1.5-0.2-1.9-0.7c-0.4-0.5-0.6-1.1-0.6-1.9v-5.3c0-0.4,0-0.7,0.1-1.1c0.1-0.4,0.2-0.7,0.4-1c0.2-0.3,0.4-0.5,0.7-0.7
		c0.3-0.2,0.7-0.3,1.2-0.3c0.5,0,1,0.1,1.3,0.2c0.3,0.1,0.6,0.4,0.7,0.6c0.2,0.3,0.3,0.6,0.3,0.9c0.1,0.4,0.1,0.8,0.1,1.2V26.8
		L83.3,26.8z M144.5,29.7L143,25h-1.1v4.7h-1.2V19h2.3c0.9,0,1.5,0.3,1.9,0.8c0.4,0.5,0.6,1.3,0.6,2.3c0,0.6-0.1,1.2-0.3,1.6
		c-0.2,0.5-0.6,0.8-1.1,1.1l1.6,4.9H144.5L144.5,29.7z M201.4,29.7V19h1.2v10.7H201.4L201.4,29.7z M200.4,26.8c0,0.5,0,0.9-0.1,1.2
		c-0.1,0.4-0.2,0.7-0.4,1c-0.2,0.3-0.5,0.5-0.8,0.6c-0.3,0.1-0.7,0.2-1.2,0.2c-0.4,0-0.8-0.1-1.1-0.2c-0.3-0.1-0.6-0.3-0.8-0.5
		c-0.2-0.2-0.4-0.5-0.5-0.8c-0.1-0.3-0.1-0.6-0.1-1l1.2-0.2c0,0.2,0,0.4,0.1,0.6c0,0.2,0.1,0.3,0.2,0.5c0.1,0.1,0.2,0.3,0.4,0.3
		c0.2,0.1,0.4,0.1,0.6,0.1c0.3,0,0.6,0,0.7-0.1c0.2-0.1,0.3-0.2,0.4-0.4c0.1-0.2,0.1-0.4,0.2-0.6c0-0.2,0-0.5,0-0.7
		c0-0.3,0-0.6,0-0.8c0-0.2-0.1-0.4-0.2-0.5c-0.1-0.1-0.2-0.3-0.4-0.4c-0.2-0.1-0.4-0.2-0.8-0.4c-0.5-0.2-0.9-0.4-1.2-0.7
		c-0.3-0.2-0.5-0.5-0.7-0.7c-0.2-0.2-0.3-0.5-0.3-0.8c-0.1-0.3-0.1-0.6-0.1-0.9c0-0.4,0.1-0.8,0.2-1.1c0.1-0.3,0.3-0.6,0.5-0.9
		c0.2-0.3,0.5-0.4,0.8-0.6c0.3-0.1,0.7-0.2,1.1-0.2c0.5,0,0.9,0.1,1.2,0.2c0.3,0.1,0.6,0.3,0.8,0.6c0.2,0.2,0.3,0.5,0.4,0.8
		c0.1,0.3,0.1,0.5,0.1,0.8l-1.2,0.3c0-0.5-0.1-0.9-0.3-1.1c-0.2-0.3-0.5-0.4-1-0.4c-0.3,0-0.5,0.1-0.6,0.2c-0.2,0.1-0.3,0.2-0.4,0.4
		c-0.1,0.2-0.2,0.3-0.2,0.5c0,0.2,0,0.4,0,0.6c0,0.2,0,0.4,0,0.6c0,0.2,0.1,0.3,0.2,0.5c0.1,0.1,0.3,0.3,0.5,0.4
		c0.2,0.1,0.5,0.3,0.9,0.4c0.5,0.2,0.8,0.4,1.1,0.6c0.3,0.2,0.5,0.4,0.6,0.7c0.1,0.2,0.2,0.5,0.3,0.8
		C200.4,26.1,200.4,26.4,200.4,26.8L200.4,26.8z M194,29.7l-0.5-2.4h-2.4l-0.5,2.4h-1.2l2.3-10.7h1.1l2.3,10.7H194L194,29.7z
		 M192.3,21.2l-0.4,2.5l-0.5,2.5h2l-0.5-2.5L192.3,21.2L192.3,21.2L192.3,21.2z M188,29.7l-1.9-5.1l-1,2v3.1h-1.2V19h1.2v5.3h0
		l2.6-5.3h1.2l-2.1,4.2l2.5,6.5H188L188,29.7z M181.3,29.7V19h1.2v10.7H181.3L181.3,29.7z M176,29.7V19h1.2v9.6h3.1v1.1H176
		L176,29.7z M173.7,24.1c0.5,0.1,0.8,0.4,1,0.9c0.2,0.4,0.3,1,0.3,1.6c0,1.1-0.2,1.9-0.7,2.4c-0.5,0.5-1.2,0.7-2.1,0.7h-2.1V19h2.3
		c0.9,0,1.6,0.2,2,0.7c0.4,0.5,0.6,1.2,0.6,2.1c0,0.6-0.1,1-0.2,1.3C174.4,23.5,174.2,23.8,173.7,24.1L173.7,24.1L173.7,24.1z
		 M173.8,26.4c0-0.6-0.1-1-0.3-1.4c-0.2-0.3-0.6-0.5-1.3-0.5h-0.9v4h1c0.3,0,0.6-0.1,0.8-0.2c0.2-0.1,0.4-0.3,0.5-0.5
		c0.1-0.2,0.2-0.4,0.2-0.7C173.8,27,173.8,26.7,173.8,26.4L173.8,26.4z M173.7,21.8c0-0.6-0.1-1-0.4-1.3c-0.2-0.3-0.6-0.4-1.2-0.4
		h-0.8v3.4h0.8c0.6,0,1-0.1,1.2-0.4C173.6,22.8,173.7,22.4,173.7,21.8L173.7,21.8z M168.7,19v7.8c0,1-0.2,1.7-0.6,2.2
		c-0.4,0.5-1,0.8-1.9,0.8c-0.9,0-1.5-0.2-1.9-0.7c-0.4-0.5-0.6-1.1-0.6-1.9V19h1.2v8.2c0,0.2,0,0.3,0,0.5c0,0.2,0.1,0.3,0.2,0.5
		c0.1,0.2,0.2,0.3,0.4,0.4c0.2,0.1,0.4,0.1,0.6,0.1c0.3,0,0.5-0.1,0.6-0.2c0.2-0.1,0.3-0.2,0.4-0.4c0.1-0.2,0.2-0.3,0.2-0.5
		c0-0.2,0.1-0.4,0.1-0.6v-8H168.7L168.7,19z M160.3,19c0.5,0,1,0.1,1.3,0.2c0.3,0.1,0.6,0.4,0.8,0.6c0.2,0.3,0.3,0.6,0.4,1
		c0.1,0.4,0.1,0.8,0.1,1.3c0,0.5,0,0.9-0.1,1.3c-0.1,0.4-0.2,0.7-0.4,1c-0.2,0.3-0.5,0.5-0.9,0.7c-0.4,0.2-0.8,0.2-1.4,0.2h-0.9v4.3
		h-1.2V19H160.3L160.3,19z M159.3,24.3h0.8c0.4,0,0.7-0.1,0.9-0.2c0.2-0.1,0.4-0.3,0.5-0.4c0.1-0.2,0.2-0.4,0.2-0.6
		c0-0.2,0-0.5,0-0.8c0-0.3,0-0.6-0.1-0.8c0-0.3-0.1-0.5-0.2-0.7c-0.1-0.2-0.3-0.3-0.5-0.4c-0.2-0.1-0.5-0.2-0.9-0.2h-0.9V24.3
		L159.3,24.3z M157,26.8c0,0.5,0,0.9-0.1,1.2c-0.1,0.4-0.2,0.7-0.4,1c-0.2,0.3-0.5,0.5-0.8,0.6c-0.3,0.1-0.7,0.2-1.2,0.2
		c-0.4,0-0.8-0.1-1.1-0.2c-0.3-0.1-0.6-0.3-0.8-0.5c-0.2-0.2-0.4-0.5-0.5-0.8c-0.1-0.3-0.1-0.6-0.1-1l1.2-0.2c0,0.2,0,0.4,0.1,0.6
		c0,0.2,0.1,0.3,0.2,0.5c0.1,0.1,0.2,0.3,0.4,0.3c0.2,0.1,0.4,0.1,0.6,0.1c0.3,0,0.6,0,0.7-0.1c0.2-0.1,0.3-0.2,0.4-0.4
		c0.1-0.2,0.1-0.4,0.2-0.6c0-0.2,0-0.5,0-0.7c0-0.3,0-0.6,0-0.8c0-0.2-0.1-0.4-0.2-0.5c-0.1-0.1-0.2-0.3-0.4-0.4
		c-0.2-0.1-0.4-0.2-0.8-0.4c-0.5-0.2-0.9-0.4-1.2-0.7c-0.3-0.2-0.5-0.5-0.7-0.7c-0.2-0.2-0.3-0.5-0.3-0.8c-0.1-0.3-0.1-0.6-0.1-0.9
		c0-0.4,0.1-0.8,0.2-1.1c0.1-0.3,0.3-0.6,0.5-0.9c0.2-0.3,0.5-0.4,0.8-0.6c0.3-0.1,0.7-0.2,1.1-0.2c0.5,0,0.9,0.1,1.2,0.2
		c0.3,0.1,0.6,0.3,0.8,0.6c0.2,0.2,0.3,0.5,0.4,0.8c0.1,0.3,0.1,0.5,0.1,0.8l-1.2,0.3c0-0.5-0.1-0.9-0.3-1.1c-0.2-0.3-0.5-0.4-1-0.4
		c-0.3,0-0.5,0.1-0.6,0.2c-0.2,0.1-0.3,0.2-0.4,0.4c-0.1,0.2-0.2,0.3-0.2,0.5c0,0.2,0,0.4,0,0.6c0,0.2,0,0.4,0,0.6
		c0,0.2,0.1,0.3,0.2,0.5c0.1,0.1,0.3,0.3,0.5,0.4c0.2,0.1,0.5,0.3,0.9,0.4c0.5,0.2,0.8,0.4,1.1,0.6c0.3,0.2,0.5,0.4,0.6,0.7
		c0.1,0.2,0.2,0.5,0.3,0.8C157,26.1,157,26.4,157,26.8L157,26.8z M146.7,29.7V19h4.6v1.1h-3.4v3.6h2.9v1.1h-2.9v3.8h3.4v1.1H146.7
		L146.7,29.7z M144.3,22.1c0-0.3,0-0.5-0.1-0.8c0-0.2-0.1-0.4-0.2-0.6c-0.1-0.2-0.3-0.3-0.5-0.4c-0.2-0.1-0.4-0.1-0.8-0.1h-0.9v3.8
		h1c0.3,0,0.5,0,0.7-0.1c0.2-0.1,0.3-0.2,0.4-0.4c0.1-0.2,0.2-0.4,0.2-0.6C144.3,22.6,144.3,22.3,144.3,22.1L144.3,22.1z
		 M130.7,22.4v7.3h-1.2V19h1.2l2.2,5.4l0.7,2l0.1,0V19h1.2v10.7h-1.1l-2.2-5.4L130.7,22.4L130.7,22.4L130.7,22.4z M128.3,26.8
		c0,1-0.2,1.7-0.6,2.2c-0.4,0.5-1,0.8-1.9,0.8c-0.9,0-1.5-0.2-1.9-0.7c-0.4-0.5-0.6-1.1-0.6-1.9v-5.3c0-0.4,0-0.7,0.1-1.1
		c0.1-0.4,0.2-0.7,0.4-1c0.2-0.3,0.4-0.5,0.7-0.7c0.3-0.2,0.7-0.3,1.2-0.3c0.5,0,1,0.1,1.3,0.2c0.3,0.1,0.6,0.4,0.7,0.6
		c0.2,0.3,0.3,0.6,0.3,0.9c0.1,0.4,0.1,0.8,0.1,1.2V26.8L128.3,26.8z M127.1,21.7c0-0.2,0-0.4,0-0.6c0-0.2-0.1-0.4-0.2-0.5
		c-0.1-0.2-0.2-0.3-0.4-0.4c-0.2-0.1-0.4-0.2-0.7-0.2c-0.3,0-0.5,0.1-0.7,0.2c-0.2,0.1-0.3,0.3-0.4,0.5c-0.1,0.2-0.1,0.4-0.1,0.7
		c0,0.2,0,0.4,0,0.6v5.2c0,0.2,0,0.3,0,0.5c0,0.2,0.1,0.3,0.2,0.5c0.1,0.2,0.2,0.3,0.4,0.4c0.2,0.1,0.4,0.1,0.6,0.1
		c0.3,0,0.5-0.1,0.6-0.2c0.2-0.1,0.3-0.2,0.4-0.4c0.1-0.2,0.2-0.3,0.2-0.5c0-0.2,0.1-0.4,0.1-0.6V21.7L127.1,21.7z M121,20.1v9.6
		h-1.2v-9.6H118V19h4.8v1.1H121L121,20.1z M117.4,26.8c0,0.5,0,0.9-0.1,1.2c-0.1,0.4-0.2,0.7-0.4,1c-0.2,0.3-0.5,0.5-0.8,0.6
		c-0.3,0.1-0.7,0.2-1.2,0.2c-0.4,0-0.8-0.1-1.1-0.2c-0.3-0.1-0.6-0.3-0.8-0.5c-0.2-0.2-0.4-0.5-0.5-0.8c-0.1-0.3-0.1-0.6-0.1-1
		l1.2-0.2c0,0.2,0,0.4,0.1,0.6c0,0.2,0.1,0.3,0.2,0.5c0.1,0.1,0.2,0.3,0.4,0.3c0.2,0.1,0.4,0.1,0.6,0.1c0.3,0,0.6,0,0.7-0.1
		c0.2-0.1,0.3-0.2,0.4-0.4c0.1-0.2,0.1-0.4,0.2-0.6c0-0.2,0-0.5,0-0.7c0-0.3,0-0.6,0-0.8c0-0.2-0.1-0.4-0.2-0.5
		c-0.1-0.1-0.2-0.3-0.4-0.4c-0.2-0.1-0.4-0.2-0.8-0.4c-0.5-0.2-0.9-0.4-1.2-0.7c-0.3-0.2-0.5-0.5-0.7-0.7c-0.2-0.2-0.3-0.5-0.3-0.8
		c-0.1-0.3-0.1-0.6-0.1-0.9c0-0.4,0.1-0.8,0.2-1.1c0.1-0.3,0.3-0.6,0.5-0.9c0.2-0.3,0.5-0.4,0.8-0.6c0.3-0.1,0.7-0.2,1.1-0.2
		c0.5,0,0.9,0.1,1.2,0.2c0.3,0.1,0.6,0.3,0.8,0.6c0.2,0.2,0.3,0.5,0.4,0.8c0.1,0.3,0.1,0.5,0.1,0.8l-1.2,0.3c0-0.5-0.1-0.9-0.3-1.1
		c-0.2-0.3-0.5-0.4-1-0.4c-0.3,0-0.5,0.1-0.6,0.2c-0.2,0.1-0.3,0.2-0.4,0.4c-0.1,0.2-0.2,0.3-0.2,0.5c0,0.2,0,0.4,0,0.6
		c0,0.2,0,0.4,0,0.6c0,0.2,0.1,0.3,0.2,0.5c0.1,0.1,0.3,0.3,0.5,0.4c0.2,0.1,0.5,0.3,0.9,0.4c0.5,0.2,0.8,0.4,1.1,0.6
		c0.3,0.2,0.5,0.4,0.6,0.7c0.1,0.2,0.2,0.5,0.3,0.8C117.4,26.1,117.4,26.4,117.4,26.8L117.4,26.8z M110.1,29.7V19h1.2v10.7H110.1
		L110.1,29.7z M107.9,29.7l-1.9-5.1l-1,2v3.1h-1.2V19h1.2v5.3h0l2.6-5.3h1.2l-2.1,4.2l2.5,6.5H107.9L107.9,29.7z M98,29.7V19h4.6
		v1.1h-3.4v3.6h2.9v1.1h-2.9v3.8h3.4v1.1H98L98,29.7z M95.7,24.1c0.5,0.1,0.8,0.4,1,0.9c0.2,0.4,0.3,1,0.3,1.6
		c0,1.1-0.2,1.9-0.7,2.4c-0.5,0.5-1.2,0.7-2.1,0.7H92V19h2.3c0.9,0,1.6,0.2,2,0.7c0.4,0.5,0.6,1.2,0.6,2.1c0,0.6-0.1,1-0.2,1.3
		C96.4,23.5,96.1,23.8,95.7,24.1L95.7,24.1L95.7,24.1z M95.7,26.4c0-0.6-0.1-1-0.3-1.4c-0.2-0.3-0.6-0.5-1.3-0.5h-0.9v4h1
		c0.3,0,0.6-0.1,0.8-0.2c0.2-0.1,0.4-0.3,0.5-0.5c0.1-0.2,0.2-0.4,0.2-0.7C95.7,27,95.7,26.7,95.7,26.4L95.7,26.4z M95.6,21.8
		c0-0.6-0.1-1-0.4-1.3c-0.2-0.3-0.6-0.4-1.2-0.4h-0.8v3.4H94c0.6,0,1-0.1,1.2-0.4C95.5,22.8,95.6,22.4,95.6,21.8L95.6,21.8z
		 M90.9,20.1l-3.1,8.5h3.1v1.1h-4.3v-1.1l3.1-8.5h-3V19h4.2V20.1L90.9,20.1z M84.9,18.9h0.7l-0.4,1.7h0.3v1.5h-1.3v-1.5L84.9,18.9
		L84.9,18.9z M82.1,21.7c0-0.2,0-0.4,0-0.6c0-0.2-0.1-0.4-0.2-0.5c-0.1-0.2-0.2-0.3-0.4-0.4c-0.2-0.1-0.4-0.2-0.7-0.2
		c-0.3,0-0.5,0.1-0.7,0.2c-0.2,0.1-0.3,0.3-0.4,0.5c-0.1,0.2-0.1,0.4-0.1,0.7c0,0.2,0,0.4,0,0.6v5.2c0,0.2,0,0.3,0,0.5
		c0,0.2,0.1,0.3,0.2,0.5c0.1,0.2,0.2,0.3,0.4,0.4c0.2,0.1,0.4,0.1,0.6,0.1c0.3,0,0.5-0.1,0.6-0.2c0.2-0.1,0.3-0.2,0.4-0.4
		c0.1-0.2,0.2-0.3,0.2-0.5c0-0.2,0.1-0.4,0.1-0.6V21.7z"/>
	<path fill-rule="evenodd" clip-rule="evenodd" fill="#00598e" d="M117.6,64.7V54h1.2v10.7H117.6L117.6,64.7z M114.1,64.8
		c-0.8,0-1.4-0.2-1.8-0.7c-0.4-0.5-0.6-1.1-0.6-1.9v-5.3c0-0.4,0-0.8,0.1-1.1c0.1-0.4,0.2-0.7,0.4-1c0.2-0.3,0.4-0.5,0.7-0.7
		c0.3-0.2,0.7-0.3,1.2-0.3c0.8,0,1.4,0.2,1.8,0.6c0.4,0.4,0.6,1,0.6,1.7l-1.2,0.3c0-0.5-0.1-0.8-0.3-1.1c-0.2-0.3-0.5-0.4-0.9-0.4
		c-0.2,0-0.4,0.1-0.6,0.2c-0.2,0.1-0.3,0.3-0.4,0.4c-0.1,0.2-0.1,0.4-0.2,0.6c0,0.2,0,0.4,0,0.6v5.4c0,0.2,0,0.3,0,0.5
		c0,0.2,0.1,0.3,0.2,0.5c0.1,0.1,0.2,0.3,0.4,0.4c0.1,0.1,0.3,0.2,0.6,0.2h0c0.4,0,0.7-0.1,0.9-0.3c0.2-0.2,0.3-0.5,0.3-0.8V60h-1.2
		v-1.1h2.5v3.5c0,0.4-0.1,0.8-0.2,1.1c-0.1,0.3-0.3,0.6-0.5,0.8c-0.2,0.2-0.5,0.4-0.8,0.5C114.8,64.8,114.5,64.8,114.1,64.8
		L114.1,64.8z M109.3,64.7V54h1.2v10.7H109.3L109.3,64.7z M104.2,64.7V54h1.2v9.6h3.1v1.1H104.2L104.2,64.7z M101.8,64.7l-1.5-4.7
		h-1.1v4.7h-1.2V54h2.3c0.9,0,1.5,0.3,1.9,0.8c0.4,0.5,0.6,1.3,0.6,2.3c0,0.6-0.1,1.2-0.3,1.6c-0.2,0.5-0.6,0.8-1.1,1.1l1.6,4.9
		H101.8L101.8,64.7z M101.5,57.1c0-0.3,0-0.5-0.1-0.8c0-0.2-0.1-0.4-0.2-0.6c-0.1-0.2-0.3-0.3-0.5-0.4c-0.2-0.1-0.4-0.1-0.8-0.1
		h-0.9v3.8h1c0.3,0,0.5,0,0.7-0.1c0.2-0.1,0.3-0.2,0.4-0.4c0.1-0.2,0.2-0.4,0.2-0.6C101.5,57.6,101.5,57.3,101.5,57.1L101.5,57.1z
		 M95.3,64.7V54h1.2v10.7H95.3L95.3,64.7z M94.1,55.1L91,63.6H94v1.1h-4.3v-1.1l3.1-8.5h-3V54h4.2V55.1L94.1,55.1z M87.9,64.7
		l-0.5-2.4H85l-0.5,2.4h-1.2L85.7,54h1.1l2.3,10.7H87.9L87.9,64.7z M86.2,56.2l-0.4,2.5l-0.5,2.5h2l-0.5-2.5L86.2,56.2L86.2,56.2
		L86.2,56.2z M81.7,64.7l2-10.7h-1.2l-0.8,4.5l-0.6,3.8h0l-0.6-3.7L79.7,54h-1.2l2,10.7H81.7z"/>
	<path fill-rule="evenodd" clip-rule="evenodd" fill="#00598e" d="M82.4,39.2c0-0.6-0.1-1-0.3-1.2c-0.2-0.3-0.6-0.4-1.1-0.4h-0.6
		v3.2H81c0.5,0,0.9-0.1,1.1-0.4C82.3,40.1,82.4,39.7,82.4,39.2L82.4,39.2z M196.5,45.5l-0.9-2.3l-0.8-2.2h-0.1v7.2h-1.9V35.8h1.9
		l1.3,3.5l1,2.7h0.1l1-2.8l1.3-3.5h1.9v12.4h-1.9v-7.2h-0.1l-0.8,2.2l-0.9,2.2H196.5L196.5,45.5z M280.1,48.2V35.8h1.9v12.4H280.1
		L280.1,48.2z M275.7,35.8c1,0,1.8,0.3,2.4,0.8c0.6,0.6,0.9,1.5,0.9,2.8c0,0.8-0.1,1.4-0.3,2c-0.2,0.5-0.6,1-1.2,1.3l1.8,5.5h-2
		l-1.6-5.1h-0.9v5.1h-1.9V35.8H275.7L275.7,35.8z M274.8,37.6v3.6h0.8c0.5,0,0.9-0.1,1.1-0.4c0.2-0.3,0.4-0.8,0.4-1.4
		c0-0.6-0.1-1-0.3-1.3c-0.2-0.3-0.6-0.5-1.2-0.5H274.8L274.8,37.6z M270,48.2l-0.5-2.6h-2.3c-0.1,0.4-0.2,0.9-0.2,1.3
		c-0.1,0.4-0.2,0.9-0.2,1.3h-2c0.4-2.1,0.8-4.2,1.2-6.2c0.4-2.1,0.8-4.1,1.2-6.2h2.1l2.5,12.4H270L270,48.2z M268.3,38.7
		c-0.1,0.9-0.2,1.7-0.4,2.6c-0.1,0.9-0.3,1.7-0.4,2.6h1.7L268.3,38.7L268.3,38.7L268.3,38.7z M259.1,48.2V35.8h1.9v10.6h3.4v1.8
		H259.1L259.1,48.2z M256.1,37.6v10.6h-1.9V37.6h-2v-1.8h5.9v1.8H256.1L256.1,37.6z M250.7,48.2h2l-2.5-12.4H248
		c-0.4,2.1-0.8,4.2-1.2,6.2c-0.4,2.1-0.8,4.1-1.2,6.2h2c0.1-0.4,0.1-0.9,0.2-1.3c0.1-0.4,0.2-0.9,0.2-1.3h2.3L250.7,48.2L250.7,48.2
		z M249,38.7L249,38.7l0.9,5.2h-1.7c0.2-0.9,0.3-1.7,0.4-2.6C248.7,40.4,248.9,39.5,249,38.7L249,38.7z M243.2,39.2
		c0-0.6-0.1-1-0.3-1.2c-0.2-0.3-0.6-0.4-1.1-0.4h-0.6v3.2h0.6c0.5,0,0.9-0.1,1.1-0.4C243.1,40.1,243.2,39.7,243.2,39.2L243.2,39.2z
		 M243.3,44.3c0-0.6-0.1-1-0.3-1.3c-0.2-0.3-0.6-0.4-1.1-0.4h-0.7v3.9h0.8c0.3,0,0.6-0.1,0.7-0.2c0.2-0.1,0.3-0.3,0.4-0.5
		c0.1-0.2,0.2-0.4,0.2-0.7C243.3,44.9,243.3,44.6,243.3,44.3L243.3,44.3z M243.7,41.7c0.5,0.2,0.9,0.5,1.1,1
		c0.2,0.5,0.3,1.1,0.3,1.7c0,1.3-0.3,2.2-0.8,2.9c-0.6,0.6-1.4,0.9-2.5,0.9h-2.6V35.8h2.7c1.1,0,1.9,0.3,2.4,0.9
		c0.5,0.6,0.7,1.4,0.7,2.5c0,0.6-0.1,1.1-0.3,1.5C244.5,41.1,244.2,41.4,243.7,41.7L243.7,41.7L243.7,41.7z M236.5,48.2l-0.5-2.6
		h-2.3c-0.1,0.4-0.2,0.9-0.2,1.3c-0.1,0.4-0.2,0.9-0.2,1.3h-2c0.4-2.1,0.8-4.2,1.2-6.2c0.4-2.1,0.8-4.1,1.2-6.2h2.1l2.5,12.4H236.5
		L236.5,48.2z M234.8,38.7c-0.1,0.9-0.2,1.7-0.4,2.6c-0.1,0.9-0.3,1.7-0.4,2.6h1.7L234.8,38.7L234.8,38.7L234.8,38.7z M231,44.7
		c0,0.6-0.1,1.1-0.2,1.5c-0.1,0.4-0.3,0.8-0.5,1.1c-0.2,0.3-0.6,0.6-1,0.7c-0.4,0.2-0.9,0.3-1.5,0.3c-0.5,0-1-0.1-1.4-0.2
		c-0.4-0.2-0.7-0.4-1-0.6c-0.3-0.3-0.4-0.6-0.5-1c-0.1-0.4-0.2-0.8-0.2-1.2l1.9-0.4c0,0.5,0.1,0.8,0.3,1.1c0.2,0.3,0.5,0.4,0.9,0.4
		c0.3,0,0.5-0.1,0.6-0.2c0.2-0.1,0.3-0.2,0.3-0.4c0.1-0.2,0.1-0.4,0.1-0.6c0-0.2,0-0.4,0-0.7c0-0.3,0-0.5-0.1-0.7
		c0-0.2-0.1-0.4-0.2-0.5c-0.1-0.1-0.2-0.3-0.4-0.4c-0.2-0.1-0.4-0.2-0.7-0.4c-0.6-0.2-1.1-0.5-1.4-0.8c-0.4-0.3-0.6-0.5-0.8-0.8
		c-0.2-0.3-0.3-0.6-0.4-0.9c-0.1-0.3-0.1-0.7-0.1-1.1c0-0.5,0.1-1,0.2-1.4c0.1-0.4,0.3-0.8,0.6-1.1c0.2-0.3,0.6-0.5,1-0.7
		c0.4-0.2,0.9-0.2,1.4-0.2c0.6,0,1.1,0.1,1.5,0.3c0.4,0.2,0.7,0.4,0.9,0.7c0.2,0.3,0.4,0.6,0.5,0.9c0.1,0.3,0.1,0.7,0.1,1l-1.9,0.4
		c0-0.5-0.1-0.8-0.2-1.1c-0.2-0.3-0.5-0.4-0.9-0.4c-0.2,0-0.4,0-0.6,0.1c-0.1,0.1-0.2,0.2-0.3,0.4c-0.1,0.2-0.1,0.3-0.2,0.5
		c0,0.2,0,0.4,0,0.5c0,0.2,0,0.4,0,0.6c0,0.2,0.1,0.3,0.2,0.5c0.1,0.1,0.3,0.3,0.5,0.4c0.2,0.1,0.5,0.3,0.9,0.4
		c0.5,0.2,1,0.4,1.3,0.7c0.3,0.2,0.6,0.5,0.7,0.8c0.2,0.3,0.3,0.6,0.3,1C231,43.8,231,44.2,231,44.7L231,44.7z M222,38.8
		c0-0.3-0.1-0.7-0.2-0.9c-0.1-0.3-0.4-0.4-0.8-0.4c-0.2,0-0.4,0.1-0.6,0.2c-0.1,0.1-0.3,0.2-0.3,0.4c-0.1,0.1-0.1,0.3-0.2,0.5
		c0,0.2,0,0.4,0,0.5v6.2c0,0.3,0.1,0.6,0.2,0.9c0.2,0.3,0.4,0.4,0.8,0.4c0.4,0,0.7-0.1,0.8-0.4c0.2-0.3,0.2-0.6,0.2-1V38.8L222,38.8
		z M224,45c0,1.1-0.2,1.9-0.7,2.5c-0.5,0.6-1.3,0.8-2.3,0.8c-1,0-1.8-0.3-2.3-0.8c-0.5-0.5-0.7-1.3-0.7-2.3V39
		c0-0.5,0.1-0.9,0.2-1.3c0.1-0.4,0.3-0.8,0.5-1c0.2-0.3,0.6-0.5,0.9-0.7c0.4-0.2,0.8-0.2,1.4-0.2c0.6,0,1,0.1,1.4,0.2
		c0.4,0.1,0.7,0.4,0.9,0.7c0.2,0.3,0.4,0.6,0.5,1c0.1,0.4,0.2,0.9,0.2,1.4V45L224,45z M211.9,41v7.2H210V35.8h1.7l1.5,3.7
		c0.1,0.3,0.2,0.6,0.4,0.9c0.1,0.3,0.2,0.6,0.4,0.9l0.6,1.7c0,0,0,0,0,0c0,0,0,0,0,0v-7.2h1.9v12.4h-1.7l-1.5-3.7
		c-0.2-0.6-0.5-1.2-0.7-1.8C212.5,42.2,212.2,41.6,211.9,41L211.9,41L211.9,41z M208.6,35.8V45c0,1.1-0.2,1.9-0.7,2.5
		c-0.5,0.6-1.2,0.8-2.3,0.8c-1,0-1.8-0.3-2.3-0.8c-0.5-0.5-0.7-1.3-0.7-2.3v-9.4h1.9v9.5c0,0.3,0.1,0.6,0.2,0.9
		c0.2,0.3,0.4,0.4,0.8,0.4c0.4,0,0.7-0.1,0.8-0.4c0.2-0.3,0.2-0.6,0.2-1v-9.3H208.6L208.6,35.8z M149.4,45.5l-0.9-2.3l-0.8-2.2h-0.1
		v7.2h-1.9V35.8h1.9l1.3,3.5l1,2.7h0.1l1-2.8l1.3-3.5h1.9v12.4h-1.9v-7.2h-0.1l-0.8,2.2l-0.9,2.2H149.4L149.4,45.5z M186.8,37.6
		v10.6h-1.9V37.6h-2v-1.8h5.9v1.8H186.8L186.8,37.6z M181.8,48.2h2l-2.5-12.4h-2.1c-0.4,2.1-0.8,4.2-1.2,6.2
		c-0.4,2.1-0.8,4.1-1.2,6.2h2c0.1-0.4,0.1-0.9,0.2-1.3c0.1-0.4,0.2-0.9,0.2-1.3h2.3L181.8,48.2L181.8,48.2z M180.2,38.7L180.2,38.7
		l0.9,5.2h-1.7c0.2-0.9,0.3-1.7,0.4-2.6C179.9,40.4,180,39.5,180.2,38.7L180.2,38.7z M171.4,41v7.2h-1.9V35.8h1.7l1.5,3.7
		c0.1,0.3,0.2,0.6,0.4,0.9c0.1,0.3,0.2,0.6,0.4,0.9l0.6,1.7c0,0,0,0,0,0c0,0,0,0,0,0v-7.2h1.9v12.4h-1.7l-1.5-3.7
		c-0.2-0.6-0.5-1.2-0.7-1.8C171.9,42.2,171.7,41.6,171.4,41L171.4,41L171.4,41z M166.4,48.2v-5.4h-2.2v5.4h-1.9V35.8h1.9V41h2.2
		v-5.2h1.9v12.4H166.4L166.4,48.2z M155.6,48.2V35.8h5.5v1.8h-3.6V41h3.1v1.8h-3.1v3.6h3.6v1.8H155.6L155.6,48.2z M133,35.8h2
		l-2.4,12.4h-2.3L128,35.8h2.1l0.8,5.1l0.6,3.9h0.1l0.6-3.9L133,35.8L133,35.8z M139.8,48.2h2l-2.5-12.4h-2.1
		c-0.4,2.1-0.8,4.2-1.2,6.2c-0.4,2.1-0.8,4.1-1.2,6.2h2c0.1-0.4,0.1-0.9,0.2-1.3c0.1-0.4,0.2-0.9,0.2-1.3h2.3L139.8,48.2L139.8,48.2
		z M138.1,38.7L138.1,38.7l0.9,5.2h-1.7c0.2-0.9,0.3-1.7,0.4-2.6C137.9,40.4,138,39.5,138.1,38.7L138.1,38.7z M122.1,48.2l-2-5.4
		c-0.1,0.3-0.3,0.6-0.4,0.9c-0.1,0.3-0.3,0.6-0.4,0.9v3.6h-1.9V35.8h1.9v5h0.1l2.3-5h2c-0.4,0.8-0.8,1.7-1.2,2.5
		c-0.4,0.8-0.8,1.7-1.2,2.5l2.9,7.4H122.1L122.1,48.2z M114,48.2V35.8h1.9v12.4H114L114,48.2z M107.7,48.2V35.8h1.9v10.6h3.4v1.8
		H107.7L107.7,48.2z M104.4,39.1c0-0.5-0.1-0.8-0.3-1.1c-0.2-0.3-0.5-0.4-1-0.4h-0.8v8.8h0.8c0.5,0,0.8-0.1,1-0.4
		c0.2-0.2,0.3-0.6,0.3-1.1V39.1L104.4,39.1z M103.5,35.8c0.7,0,1.3,0.1,1.7,0.4c0.4,0.3,0.7,0.7,0.9,1.3c0.1,0.4,0.2,1,0.2,1.8
		c0,0.8,0,1.7,0,2.7c0,1,0,1.9,0,2.6c0,0.7-0.1,1.3-0.2,1.7c-0.2,0.7-0.6,1.2-1.1,1.4c-0.5,0.3-1.1,0.4-1.7,0.4h-2.9V35.8H103.5
		L103.5,35.8z M94.5,41v7.2h-1.9V35.8h1.7l1.5,3.7c0.1,0.3,0.2,0.6,0.4,0.9c0.1,0.3,0.2,0.6,0.4,0.9l0.6,1.7c0,0,0,0,0,0
		c0,0,0,0,0,0v-7.2h1.9v12.4h-1.7l-1.5-3.7c-0.2-0.6-0.5-1.2-0.7-1.8C95,42.2,94.8,41.6,94.5,41L94.5,41L94.5,41z M89.8,48.2
		l-0.5-2.6h-2.3c-0.1,0.4-0.2,0.9-0.2,1.3c-0.1,0.4-0.2,0.9-0.2,1.3h-2c0.4-2.1,0.8-4.2,1.2-6.2c0.4-2.1,0.8-4.1,1.2-6.2h2.1
		l2.5,12.4H89.8L89.8,48.2z M88.2,38.7c-0.1,0.9-0.2,1.7-0.4,2.6c-0.1,0.9-0.3,1.7-0.4,2.6h1.7L88.2,38.7L88.2,38.7L88.2,38.7z
		 M82.5,44.3c0-0.6-0.1-1-0.3-1.3c-0.2-0.3-0.6-0.4-1.1-0.4h-0.7v3.9h0.8c0.3,0,0.6-0.1,0.7-0.2c0.2-0.1,0.3-0.3,0.4-0.5
		c0.1-0.2,0.2-0.4,0.2-0.7C82.5,44.9,82.5,44.6,82.5,44.3L82.5,44.3z M82.9,41.7c0.5,0.2,0.9,0.5,1.1,1c0.2,0.5,0.3,1.1,0.3,1.7
		c0,1.3-0.3,2.2-0.8,2.9c-0.6,0.6-1.4,0.9-2.5,0.9h-2.6V35.8h2.7c1.1,0,1.9,0.3,2.4,0.9c0.5,0.6,0.7,1.4,0.7,2.5
		c0,0.6-0.1,1.1-0.3,1.5C83.8,41.1,83.4,41.4,82.9,41.7L82.9,41.7z"/>
</g>
</svg>
