<?xml version="1.0" encoding="utf-8"?>
<!-- Generator: Adobe Illustrator 17.1.0, SVG Export Plug-In . SVG Version: 6.00 Build 0)  -->
<!DOCTYPE svg PUBLIC "-//W3C//DTD SVG 1.1//EN" "http://www.w3.org/Graphics/SVG/1.1/DTD/svg11.dtd">
<svg version="1.1" id="Слой_1" xmlns="http://www.w3.org/2000/svg" xmlns:xlink="http://www.w3.org/1999/xlink" x="0px" y="0px"
	 viewBox="0 0 73.3 85.1" enable-background="new 0 0 73.3 85.1" xml:space="preserve" height='96px' width='201px'>
<g>
	<path fill-rule="evenodd" clip-rule="evenodd" fill="#00598e" d="M40.1,42.8c0.8,0,1.5,0.7,1.5,1.5c0,0.5-0.3,1-0.7,1.2V49
		l-2.5,2.5v4.8c0,0.4-0.4,0.8-0.8,0.8c-0.4,0-0.8-0.4-0.8-0.8v-5.2l0,0v0c0-0.1,0-0.1,0-0.2l0,0l0,0l0,0l0,0l0,0l0,0l0,0l0,0l0,0
		l0,0l0,0l0,0l0,0l0,0l0,0l0,0l0,0l0,0l0,0l0,0l0,0l0,0l0,0l0,0c0,0,0,0,0.1-0.1l0,0l0,0l0,0l0,0l0,0l0,0l2.2-2.2v-2.9
		c-0.4-0.3-0.7-0.7-0.7-1.2C38.6,43.4,39.3,42.8,40.1,42.8L40.1,42.8z M32.1,0c-3.6,1.3-7.1,3.2-9.9,5.7c-3.1,2.7-5.6,6.1-7.2,9.9
		c-1,2.4-1.7,4.9-2,7.5c-0.7,7.1,2.1,13.3,7.5,17.9c0.8,0.7,1.6,1.4,2.3,2.1c0.5,0.6,1,1.1,1.3,1.9c0,0,0,0.1,0.1,0.1
		c-0.3,0.4-0.6,0.8-0.9,1.1c0-0.3-0.1-0.6-0.2-0.8c-0.2-0.6-0.6-1-1-1.5c-0.7-0.7-1.5-1.4-2.3-2c-5.7-4.9-8.6-11.4-7.9-18.9
		c0.3-2.7,1-5.3,2-7.8c2.6-5.9,6.2-10,11.8-13.1C18.2,4.5,6.5,11.9,4.5,22.3c-0.1-0.2-0.4-0.7-0.6-1.1C1,27.7-0.4,38,2.9,43.3
		c-0.5-0.2-0.9-0.4-1.1-0.7C2.6,46.5,4,53.3,9.7,53.2c-1.4,0.3-2.9,0.3-3.9,0.1c1.4,2.5,3.7,6,7.1,5.8c-0.5,0.4-1.6,0.7-2.2,0.8
		c1.1,1.2,3.1,3.6,6.3,3.2c-0.4,0.4-1.1,0.6-2,0.7c1.5,1.2,3.1,2.2,4.8,3.1c0.2,0.5,0.5,1.1,0.7,1.6c-2.7-1.3-5.3-3-7.6-5
		c0.3,0,0.5,0,0.7-0.1c-2.5-0.9-3.7-2.7-4.8-4c0.3,0,0.5,0,0.7-0.1c-2.6-1.3-4.4-4.8-5.6-7c0.3,0.1,0.8,0.1,1,0
		c-3.1-2.9-4.1-7.7-4.7-11.6c0.2,0.1,0.3,0.2,0.4,0.2c-1.3-5.7-1.1-13.3,3.1-21.7c0.1,0.2,0.2,0.3,0.4,0.4C8.2,8.5,20,1,32.1,0
		L32.1,0z M47.7,79.4c-0.6,0.4-1.2,0.8-1.4,1.6c-0.9,0.5-1.6,0.8-2.9,1c1.3,0.2,2.5,0.1,3.8-0.2C47.1,80.9,47.3,80,47.7,79.4
		L47.7,79.4z M50.6,75.8c0,0.4,0,0.9,0,1.2c-0.4,0.3-1.2,0.6-1.9,0.7c1.3,0.2,2.5,0.1,3.6-0.4C51.6,77,51.1,76.6,50.6,75.8
		L50.6,75.8z M48,78.7c2,0.6,4.3,0.6,6.5-1.1c-1.9-1.1-3.5-2.6-4.5-4.5l0.9-0.8c1.1,2.3,3.1,4,5.6,5c-1.6,2-4.2,3.1-6.4,2.9
		c-0.8,0.9-1.1,2.6-0.3,3.7c-4.1,0.5-6.5,1.2-9.3-1l0.2-1.3c1,0.7,1.7,1.3,2.9,1.5c0.8,0.1,1.7,0.1,2.5,0c0.7-0.1,1.3-0.2,2-0.2
		c-0.1-1.1,0.1-2.3,0.8-3.1C48.6,79.4,48.2,79.2,48,78.7L48,78.7z M25.6,79.4c0.6,0.4,1.2,0.8,1.4,1.6c0.9,0.5,1.6,0.8,2.9,1
		c-1.3,0.2-2.5,0.1-3.8-0.2C26.1,80.9,25.9,80,25.6,79.4L25.6,79.4z M22.6,75.8c0,0.4,0,0.9,0,1.2c0.4,0.3,1.2,0.6,1.9,0.7
		c-1.3,0.2-2.5,0.1-3.6-0.4C21.7,77,22.1,76.6,22.6,75.8L22.6,75.8z M25.2,78.7c-2,0.6-4.3,0.6-6.5-1.1c1.9-1.1,3.5-2.6,4.5-4.5
		l-0.9-0.8c-1.1,2.3-3.1,4-5.6,5c1.6,2,4.2,3.1,6.4,2.9c0.8,0.9,1.1,2.6,0.3,3.7c4.1,0.5,6.5,1.2,9.3-1l-0.2-1.3
		c-1,0.7-1.7,1.3-2.9,1.5c-0.8,0.1-1.7,0.1-2.5,0c-0.7-0.1-1.3-0.2-2-0.2c0.1-1.1-0.1-2.3-0.8-3.1C24.7,79.4,25,79.2,25.2,78.7
		L25.2,78.7z M49,45.1c0.3,0.4,0.6,0.8,0.9,1.1c0-0.3,0.1-0.6,0.2-0.8c0.2-0.6,0.6-1,1-1.5c0.7-0.7,1.5-1.4,2.3-2
		c5.7-4.9,8.6-11.4,7.9-18.9c-0.3-2.7-1-5.3-2-7.8C56.7,9.2,53.1,5.1,47.5,2c7.5,2.4,19.3,9.8,21.3,20.2c0.1-0.2,0.4-0.7,0.6-1.1
		c2.9,6.5,4.2,16.9,1,22.1c0.5-0.2,0.9-0.4,1.1-0.7c-0.8,3.9-2.2,10.7-7.9,10.6c1.4,0.3,2.9,0.3,3.9,0.1c-1.4,2.5-3.7,6-7.1,5.8
		c0.5,0.4,1.6,0.7,2.2,0.8c-1.1,1.2-3.1,3.6-6.3,3.2c0.4,0.4,1.1,0.6,2,0.7c-1.5,1.2-3.1,2.2-4.8,3.1c-0.2,0.5-0.5,1.1-0.7,1.6
		c2.7-1.3,5.3-3,7.6-5c-0.3,0-0.5,0-0.7-0.1c2.5-0.9,3.7-2.7,4.8-4c-0.3,0-0.5,0-0.7-0.1c2.6-1.3,4.4-4.8,5.6-7
		c-0.3,0.1-0.8,0.1-1,0c3.1-2.9,4.1-7.7,4.7-11.6c-0.2,0.1-0.3,0.2-0.4,0.2c1.3-5.7,1.1-13.3-3.1-21.7c-0.1,0.2-0.2,0.3-0.4,0.4
		C65.1,8.5,53.3,1,41.1,0c3.6,1.3,7.1,3.2,9.9,5.7c3.1,2.7,5.6,6.1,7.2,9.9c1,2.4,1.7,4.9,2,7.5c0.7,7.1-2.1,13.3-7.5,17.9
		c-0.8,0.7-1.6,1.4-2.3,2.1c-0.5,0.6-1,1.1-1.3,1.9C49.1,45,49.1,45,49,45.1L49,45.1z M35.3,36.8c-1.2-0.4-1.6-1.6-1.1-2.9
		c0,0.9,0.3,1.6,1,1.9c0.7-0.5,0.9-1.2,0.7-2.1C36.6,35,36.4,36.3,35.3,36.8L35.3,36.8z M44,31.2c-0.6-0.3-1.2-0.4-1.8-0.4
		c-0.3,0-0.6-0.2-0.5-0.8c-0.6,1.4-0.8,2.2-2.6,1.8c-1-0.2-1.5,0.6-1.3,1.5c0.1,0.5,0.3,1.3-0.2,1.8c-0.2-0.8-0.7-1.2-1.2-1.5
		c0.8,1.3,0.5,2.1,0.3,2.5c2.1-0.4,2.1,1.3,1.8,2.1c0.5,0,1,0.1,1.4,0.1c-0.5-1.7-0.9-3.4-1.1-5.2c0-0.3,0-0.4,0.2-0.3
		c1.2,0.2,2.3,0,3-1c1.2-0.1,2.1,0.3,3,0.9c0.2-1.9,0.3-3.7-2-4.4c-0.3-1.1-1.2-1.5-2.3-1.4c-1.5-2.3-6.8,0.1-8.9-1.4
		c-0.7-0.5-0.9-1.4-1-2.2c-0.7,0.7-1.3,1.2-1.6,2.2c-0.5,1.4-0.2,3.1,0.7,4.3c0.6,0.8,1.5,1.4,2.4,1.6c-0.1,0.1-0.2,0.2-0.2,0.3
		c-1.2,1.9-1,4.7-1,6.9c0.3-0.1,0.7-0.1,1-0.2c-0.3-1,0-2.2,1.5-2.3c-0.2-0.4-0.5-1.2,0.3-2.5c-0.5,0.2-1,0.7-1.2,1.5
		c-0.4-0.6-0.4-1.2-0.2-1.7c0.1-0.3,0.2-0.5,0.3-0.7c0,0,0-0.1,0-0.1c1-2,4.6-0.7,5.6-3.8c-0.3,0.4-0.7,0.7-1.1,0.9
		c-0.6,0.3-1.1-0.9-1.9-0.9c0.3,0.2,0.4,0.6,0.4,1c-0.1,0.4-0.3,0.5-0.6,0.2c-0.3-0.3-0.5-0.9-1.1-1c0.3,0.3,0.3,0.7,0.2,1
		c-0.1,0.4-0.4,0.6-0.7,0.2c-0.2-0.2-0.3-0.6-0.6-0.8c0.1,0.5-0.4,1-1,0.7c-0.9-0.4-1.5-1-1.9-1.9c-0.3-0.9-0.3-1.9,0.1-2.7
		c0,0,0,0,0-0.1c1.9,3.5,8.7,0.1,9.6,2.3l0.1,0.4l0.4,0c0.7-0.1,1.5-0.1,1.6,0.8l0,0.4l0.3,0.1C43.5,29.5,44,30.2,44,31.2L44,31.2z
		 M33.1,38.3c0.2-0.4,0.5-0.6,0.7-0.8c-0.1,0.3-0.2,0.5-0.3,0.8C33.4,38.3,33.3,38.3,33.1,38.3L33.1,38.3z M37.3,38.2
		c-0.1-0.3-0.4-0.7-0.7-1.1c0.5,0.1,1,0.4,1.4,1.1C37.8,38.2,37.5,38.2,37.3,38.2L37.3,38.2z M34.2,38.2c0-0.2,0.1-0.4,0.1-0.6
		c0,0.2,0,0.4,0.1,0.5L34.2,38.2L34.2,38.2z M36.3,38.2c0-0.2-0.1-0.5-0.1-0.8c0.2,0.3,0.3,0.5,0.4,0.8L36.3,38.2L36.3,38.2z
		 M10.9,26.8c-0.2,6.5,2.5,12,8.2,17.3c1.2,1.3,1.3,2.7,1.7,4c0.2-0.1,0.4-0.2,0.6-0.4c-0.1-0.6-0.1-1.1-0.2-1.5
		c0.3,0.2,0.5,0.6,0.7,1.2c0.2-0.1,0.3-0.3,0.5-0.4c0-0.2-0.1-0.4-0.1-0.6c0-0.2-0.1-0.5-0.2-0.7c-0.4-1-2.2-2.4-3-3.1
		C14.3,38.4,11.3,33,10.9,26.8L10.9,26.8z M11.2,36.6C4.3,30.5,6,19.7,11.3,15.3c-0.6,2.5-0.7,5-0.4,7.6c0.3-2.8,1-5.5,2.1-8.1
		c1.3-3,3.2-6,5.6-8.6c-5.2,3.3-10.5,8.3-12.5,14C4.4,25.3,5.2,32.9,11.2,36.6L11.2,36.6z M3.6,25.5c-2.9,9.5-2,21.1,7.1,18.6
		c-5.6,0.2-7.6-3.3-7.1-11c1.4,3.4,4.4,5.2,7.2,6.1C6.4,36.1,3.8,32.7,3.6,25.5L3.6,25.5z M3.5,45.4c1.4,7.1,6,7.4,8.7,4.8
		c-3.2,1.7-5.4,0.2-6.4-2.2c2.6,0.2,3.9-0.5,5.2-1.6C8.7,47.1,6.3,47.2,3.5,45.4L3.5,45.4z M7.9,54.8c3.3,5.1,6.7,2.6,7.6,0.8
		c-1.5,1.3-3.7,1.5-4.8,0.1c1.4-0.6,2.4-1.7,2.9-2.8C11.9,54.2,10,54.8,7.9,54.8L7.9,54.8z M16.7,56.9c-0.9,1.8-2.3,3-4.1,3.5
		c1.7,1.9,4.4,2.2,5.5,0.7c0-0.3-0.1-0.5-0.1-0.8c-0.7,0.8-1.8,1.1-2.9,0.3C16,59.5,16.5,58.3,16.7,56.9L16.7,56.9z M19,64.6
		c-0.1-0.4-0.2-0.8-0.3-1.1c-0.4,0.5-0.8,0.7-1.4,0.8C18.1,64.8,18.7,64.9,19,64.6L19,64.6z M11.7,38.7c-1.2,6.4,2,5.7,3.9,5.5
		c-1.8-0.3-3.3-1-3.2-2.9c0.9,0.6,2.2,0.8,3.2,0.8C13.3,41.1,12.2,39.3,11.7,38.7L11.7,38.7z M11.8,45.1c-0.1,5.7,3.4,4.3,4.6,3.1
		c-1.7,0.6-3.1,0.3-3.2-1.3c1.4,0.1,2.3-0.5,2.9-1.1C13.5,46.5,12.4,45.6,11.8,45.1L11.8,45.1z M13.1,50.8c1.6,4,3.4,2.9,4.4,1.5
		c0-0.2,0-0.3,0-0.5c-1.1,0.9-2.1,1-2.5,0.1c1.3-0.6,1.8-1.6,2-2.4C15.2,51.2,13.8,50.9,13.1,50.8L13.1,50.8z M15.6,54.8
		c0.8,1.2,1.5,1.8,2,2.1c-0.1-0.8-0.1-1.7-0.1-2.5C16.7,54.9,16,54.8,15.6,54.8L15.6,54.8z M16.4,44.1c0.1,4.2,2.1,3.4,3.2,2.9
		c-1.1,0.1-2.2-0.1-2.2-1.4c0.7,0.2,1.3,0.1,1.9,0C17.7,45.4,16.7,44.4,16.4,44.1L16.4,44.1z M17.1,48.2c0.2,0.7,0.4,1.2,0.6,1.6
		l0-0.3l0.5-0.2c0-0.1,0-0.1-0.1-0.2c0.9-0.2,1.3-0.7,1.6-1.2C18.3,48.8,17.5,48.4,17.1,48.2L17.1,48.2z M9.3,20.4
		c-1.7,3.2-2,9.6,1.8,14.1c-0.9-1.2-2.2-5.4-1.7-8.8C8.9,24.2,8.8,22.3,9.3,20.4L9.3,20.4z M5.1,38.2c0.6,2.8,2.1,4.5,4.8,4.6
		c-1.1-0.5-2-1-2.5-1.8c0.7,0.1,1.5,0.1,2.3-0.2C7.8,40.5,6.3,39.5,5.1,38.2L5.1,38.2z M8.8,49.2c0.7,0.6,1.6,0.7,2.5,0.3
		c-0.3,0-0.6-0.1-0.8-0.3c0.2-0.2,0.3-0.5,0.3-0.7C10.3,49,9.5,49.2,8.8,49.2L8.8,49.2z M12.6,55.5c0.7,0.1,1.5,0.2,2.1-0.5
		c-0.3,0.1-0.5,0.1-0.7,0c0.1-0.3,0.1-0.6,0-0.9C13.8,54.7,13.3,55.2,12.6,55.5L12.6,55.5z M16.5,59.9c0.5-0.1,1-0.3,1.3-0.7
		c0-0.1,0-0.2,0-0.4c-0.1,0-0.2,0.1-0.3,0c0-0.2-0.2-0.6-0.4-0.8C17.2,58.7,16.9,59.4,16.5,59.9L16.5,59.9z M62.4,26.8
		c0.2,6.5-2.5,12-8.2,17.3c-1.2,1.3-1.3,2.7-1.7,4c-0.2-0.1-0.4-0.2-0.6-0.4c0.1-0.6,0.1-1.1,0.2-1.5c-0.3,0.2-0.5,0.6-0.7,1.2
		c-0.2-0.1-0.3-0.3-0.5-0.4c0-0.2,0.1-0.4,0.1-0.6c0-0.2,0.1-0.5,0.2-0.7c0.4-1,2.2-2.4,3-3.1C59,38.4,61.9,33,62.4,26.8L62.4,26.8z
		 M62,36.6c6.9-6.2,5.2-16.9-0.1-21.4c0.6,2.5,0.7,5,0.4,7.6c-0.3-2.8-1-5.5-2.1-8.1c-1.3-3-3.2-6-5.6-8.6c5.2,3.3,10.5,8.3,12.5,14
		C68.9,25.3,68.1,32.9,62,36.6L62,36.6z M69.6,25.5c2.9,9.5,2,21.1-7.1,18.6c5.6,0.2,7.6-3.3,7.1-11c-1.4,3.4-4.4,5.2-7.2,6.1
		C66.8,36.1,69.4,32.7,69.6,25.5L69.6,25.5z M69.7,45.4c-1.4,7.1-6,7.4-8.7,4.8c3.2,1.7,5.4,0.2,6.4-2.2c-2.6,0.2-3.9-0.5-5.2-1.6
		C64.6,47.1,67,47.2,69.7,45.4L69.7,45.4z M65.3,54.8c-3.3,5.1-6.7,2.6-7.6,0.8c1.5,1.3,3.7,1.5,4.8,0.1c-1.4-0.6-2.4-1.7-2.9-2.8
		C61.4,54.2,63.3,54.8,65.3,54.8L65.3,54.8z M56.6,56.9c0.9,1.8,2.3,3,4.1,3.5c-1.7,1.9-4.4,2.2-5.5,0.7c0-0.3,0.1-0.5,0.1-0.8
		c0.7,0.8,1.8,1.1,2.9,0.3C57.3,59.5,56.8,58.3,56.6,56.9L56.6,56.9z M54.3,64.6c0.1-0.4,0.2-0.8,0.3-1.1c0.4,0.5,0.8,0.7,1.4,0.8
		C55.1,64.8,54.6,64.9,54.3,64.6L54.3,64.6z M61.5,38.7c1.2,6.4-2,5.7-3.9,5.5c1.8-0.3,3.3-1,3.2-2.9C60,41.9,58.6,42,57.7,42
		C60,41.1,61,39.3,61.5,38.7L61.5,38.7z M61.4,45.1c0.1,5.7-3.4,4.3-4.6,3.1c1.7,0.6,3.1,0.3,3.2-1.3c-1.4,0.1-2.3-0.5-2.9-1.1
		C59.7,46.5,60.9,45.6,61.4,45.1L61.4,45.1z M60.1,50.8c-1.6,4-3.4,2.9-4.4,1.5c0-0.2,0-0.3,0-0.5c1.1,0.9,2.1,1,2.5,0.1
		c-1.3-0.6-1.8-1.6-2-2.4C58,51.2,59.4,50.9,60.1,50.8L60.1,50.8z M57.7,54.8c-0.8,1.2-1.5,1.8-2,2.1c0.1-0.8,0.1-1.7,0.1-2.5
		C56.5,54.9,57.2,54.8,57.7,54.8L57.7,54.8z M56.9,44.1c-0.1,4.2-2.1,3.4-3.2,2.9c1.1,0.1,2.2-0.1,2.2-1.4c-0.7,0.2-1.3,0.1-1.9,0
		C55.6,45.4,56.5,44.4,56.9,44.1L56.9,44.1z M56.2,48.2c-0.2,0.7-0.4,1.2-0.6,1.6l0-0.3L55,49.3c0-0.1,0-0.1,0.1-0.2
		c-0.9-0.2-1.3-0.7-1.6-1.2C54.9,48.8,55.8,48.4,56.2,48.2L56.2,48.2z M63.9,20.4c1.7,3.2,2,9.6-1.8,14.1c0.9-1.2,2.2-5.4,1.7-8.8
		C64.3,24.2,64.5,22.3,63.9,20.4L63.9,20.4z M68.1,38.2c-0.6,2.8-2.1,4.5-4.8,4.6c1.1-0.5,2-1,2.5-1.8c-0.7,0.1-1.5,0.1-2.3-0.2
		C65.5,40.5,67,39.5,68.1,38.2L68.1,38.2z M64.5,49.2c-0.7,0.6-1.6,0.7-2.5,0.3c0.3,0,0.6-0.1,0.8-0.3c-0.2-0.2-0.3-0.5-0.3-0.7
		C63,49,63.7,49.2,64.5,49.2L64.5,49.2z M60.7,55.5c-0.7,0.1-1.5,0.2-2.1-0.5c0.3,0.1,0.5,0.1,0.7,0c-0.1-0.3-0.1-0.6,0-0.9
		C59.4,54.7,60,55.2,60.7,55.5L60.7,55.5z M56.8,59.9c-0.5-0.1-1-0.3-1.3-0.7c0-0.1,0-0.2,0-0.4c0.1,0,0.2,0.1,0.3,0
		c0-0.2,0.2-0.6,0.4-0.8C56.1,58.7,56.3,59.4,56.8,59.9L56.8,59.9z M36.7,27.5c1.4,0.7,2.4,0.1,3.2,0.5c0.6,0.3,0.9,1.5,0.1,1.7
		c0-0.6-0.5-0.5-0.8-0.5c-0.3,0-0.6-0.3-0.6-0.6c0-0.1,0-0.2,0.1-0.3C38,28.3,37.2,28.2,36.7,27.5L36.7,27.5z M31,27.2
		c-0.1,1,0.3,1.8,1.2,2.3c-0.2-0.4-0.3-0.8-0.4-1.3c1.5,0.2,3.1-0.1,4.4-0.7C34.2,28,32.5,27.8,31,27.2L31,27.2z M48.2,63.3
		c0.8,0.4,1.6,0.4,2.4,0.2c0.8-0.2,1.5-0.6,2-1.3c0.7-0.8,0.9-1.8,0.8-2.7c-0.1-0.7-0.4-1.5-0.9-2.1c0.2-0.4,0.3-0.8,0.4-1.3
		c0.1-0.8,0.1-1.6-0.2-2.3c-0.3-0.7-0.7-1.3-1.3-1.9c-0.6-0.5-1.4-0.8-2.1-1c-0.8-0.1-1.6,0-2.3,0.2c-0.5,0.2-1,0.5-1.4,0.8
		c-0.7-0.4-1.4-0.5-2.1-0.4c-0.9,0.1-1.9,0.5-2.5,1.3c-0.5,0.6-0.8,1.4-0.9,2.2c0,0.8,0.2,1.6,0.7,2.3c0.2,0.4,0.7,0.4,1.1,0.2
		c0.4-0.2,0.4-0.7,0.2-1.1c-0.3-0.4-0.4-0.9-0.4-1.3c0-0.5,0.2-0.9,0.5-1.3c0.4-0.5,0.9-0.7,1.5-0.8c0.3,0,0.7,0,1,0.1
		c-0.2,0.4-0.4,0.9-0.5,1.3c-0.1,0.4,0.2,0.8,0.6,0.9c0.4,0.1,0.8-0.2,0.9-0.6c0.1-0.5,0.3-1,0.6-1.3c0.3-0.4,0.8-0.7,1.2-0.9
		c0.5-0.2,1-0.2,1.5-0.1c0.5,0.1,0.9,0.3,1.3,0.6c0.4,0.3,0.7,0.8,0.9,1.2c0.2,0.5,0.2,1,0.1,1.5c-0.1,0.5-0.3,1-0.6,1.4
		c-0.3,0.4-0.7,0.7-1.2,0.8c-0.4,0.1-0.6,0.6-0.5,1c0.1,0.4,0.6,0.6,1,0.5c0.6-0.2,1-0.5,1.4-0.9c0.2,0.3,0.3,0.6,0.3,0.9
		c0.1,0.6-0.1,1.1-0.5,1.6c-0.3,0.4-0.7,0.6-1.2,0.7c-0.5,0.1-0.9,0.1-1.4-0.1c-0.4-0.2-0.9,0-1,0.4C47.6,62.7,47.8,63.2,48.2,63.3
		L48.2,63.3z M47.4,64.9c0,0.3,0,0.5,0,0.8l0,0.3l-2.3,1L45,67.3c-0.1,0.3-0.2,0.6-0.3,0.9c-0.1,0.3-0.3,0.6-0.4,0.9l-0.2,0.3
		l0.9,2.3c-0.2,0.3-0.5,0.6-0.7,0.8c-0.3,0.3-0.5,0.5-0.8,0.7l-2.3-0.9l-0.3,0.2c-0.3,0.1-0.6,0.3-0.9,0.4c-0.3,0.1-0.6,0.2-0.9,0.3
		l-0.4,0.1l-1,2.3l-0.3,0c-0.2,0-0.5,0-0.8,0c-0.3,0-0.5,0-0.8,0l-0.3,0l-1-2.3l-0.4-0.1c-0.3-0.1-0.6-0.2-0.9-0.3
		c-0.3-0.1-0.6-0.3-0.9-0.4l-0.3-0.2l-2.3,0.9c-0.3-0.2-0.6-0.5-0.8-0.7c-0.3-0.3-0.5-0.5-0.7-0.8l0.9-2.3L29,69.2
		c-0.1-0.3-0.3-0.6-0.4-0.9c-0.1-0.3-0.2-0.6-0.3-0.9l-0.1-0.4l-2.3-1l0-0.3c0-0.2,0-0.5,0-0.8c0-0.4-0.4-0.8-0.8-0.8
		c-0.4,0-0.8,0.4-0.8,0.8c0,0.3,0,0.6,0,0.9c0,0.3,0.1,0.6,0.1,0.9l0.1,0.4l2.4,1.1c0.1,0.2,0.2,0.5,0.3,0.7
		c0.1,0.2,0.2,0.5,0.3,0.7l-1,2.4l0.3,0.4c0.4,0.5,0.7,0.9,1.2,1.3c0.4,0.4,0.9,0.8,1.3,1.2l0.3,0.3l2.5-1c0.2,0.1,0.5,0.2,0.7,0.3
		c0.2,0.1,0.5,0.2,0.7,0.3l1,2.4l0.4,0.1c0.3,0,0.6,0.1,0.9,0.1c0.3,0,0.6,0,0.9,0c0.3,0,0.6,0,0.9,0c0.3,0,0.6-0.1,0.9-0.1l0.4-0.1
		l1.1-2.4c0.2-0.1,0.5-0.2,0.7-0.3c0.2-0.1,0.5-0.2,0.7-0.3l2.4,1l0.4-0.3c0.5-0.4,0.9-0.7,1.3-1.2c0.4-0.4,0.8-0.9,1.2-1.3l0.3-0.3
		l-1-2.5c0.1-0.2,0.2-0.5,0.3-0.7c0.1-0.2,0.2-0.5,0.3-0.7l2.4-1l0.1-0.4c0-0.3,0.1-0.6,0.1-0.9c0-0.3,0-0.6,0-0.9
		c0-0.4-0.4-0.8-0.8-0.8C47.8,64.2,47.4,64.5,47.4,64.9L47.4,64.9z M25.8,56.8c1.3-4.4-1.9-4.1-2.9-6.1C23.8,52.8,21.5,55,25.8,56.8
		L25.8,56.8z M45.7,57.9c-0.3,0.4-0.6,0.8-0.8,1.1c-0.1,0.2-0.3,0.4-0.4,0.5c-0.3-0.2-0.5-0.3-0.8-0.5c-0.5-0.2-1.1-0.4-1.7-0.5
		c-0.4-0.1-0.8,0.2-0.9,0.6c-0.1,0.4,0.2,0.8,0.6,0.9c0.4,0.1,0.9,0.2,1.3,0.4c0.2,0.1,0.3,0.2,0.5,0.3c-1.4,1.6-3,3.1-4.8,4.4
		c-0.7,0.6-1.5,1.1-2.3,1.6c-0.2-0.1-0.4-0.3-0.6-0.4c-0.4-0.2-0.8-0.2-1.1,0.2c-0.2,0.4-0.2,0.8,0.2,1.1c-0.8,0.5-1.7,0.9-2.6,1.3
		c-0.4,0.2-0.6,0.6-0.4,1c0.2,0.4,0.6,0.6,1,0.4c1.2-0.5,2.3-1.1,3.4-1.7c0.4,0.2,0.8,0.5,1.2,0.7c0.9,0.5,1.8,1,2.8,1.4
		c0.4,0.2,0.9,0,1-0.4c0.2-0.4,0-0.9-0.4-1c-0.9-0.4-1.8-0.8-2.7-1.3c-0.1-0.1-0.3-0.2-0.4-0.2c0.6-0.4,1.2-0.8,1.8-1.2
		c1.8-1.4,3.5-3,5-4.7c0.1,0.1,0.2,0.3,0.4,0.4c0.3,0.4,0.5,0.8,0.6,1.2c0.1,0.4,0.6,0.6,1,0.5c0.4-0.1,0.6-0.6,0.5-1
		c-0.2-0.5-0.5-1.1-0.8-1.5c-0.2-0.3-0.4-0.5-0.6-0.8c0.2-0.2,0.3-0.4,0.5-0.6c0.3-0.4,0.6-0.8,0.9-1.2c0.2-0.4,0.2-0.8-0.2-1.1
		C46.5,57.5,46,57.5,45.7,57.9L45.7,57.9z M34.8,61.5c1.9,2.9-0.4,3.2-0.6,4.8C32.9,63.5,34.6,63.1,34.8,61.5L34.8,61.5z M28.1,65.7
		c3,2.8,3.8,0.2,5.7,0.3C30.9,63.9,30,65.8,28.1,65.7L28.1,65.7z M25.5,62.7c2.7,3.6,4,1,6,1.5C28.8,61.3,27.5,63.2,25.5,62.7
		L25.5,62.7z M31.1,57.7c-0.1,1.8-2,2.4-0.3,5.5C30.9,61.4,33.5,60.9,31.1,57.7L31.1,57.7z M29.7,55.1c-0.2,1.9-2.3,2.4-0.7,5.8
		C29.3,59,32,58.7,29.7,55.1L29.7,55.1z M23.5,59.8c2.3,3.9,3.9,1.4,5.9,2.1C26.9,58.8,25.4,60.5,23.5,59.8L23.5,59.8z M21.8,56.6
		c1.7,4.2,3.7,2,5.5,2.9C25.4,56.1,23.6,57.6,21.8,56.6L21.8,56.6z M27.6,52.7c-0.1,2.1-2.2,2.8-0.2,6.2
		C27.4,56.8,30.3,56.3,27.6,52.7L27.6,52.7z M33.2,59.4c-0.2,1.8-2.2,2.3-0.6,5.5C32.8,63,35.3,62.8,33.2,59.4L33.2,59.4z
		 M33.5,54.2v3.9l4.4,4.4c0.3,0.3,0.8,0.3,1.1,0c0.3-0.3,0.3-0.8,0-1.1l-3.9-3.9v-7.2l2.5-2.5v-2.3c0.4-0.3,0.7-0.7,0.7-1.2
		c0-0.8-0.7-1.5-1.5-1.5c-0.8,0-1.5,0.7-1.5,1.5c0,0.5,0.3,1,0.7,1.2v1.7l-2.5,2.5V52l-1.8-1.8v-4.7c0.4-0.3,0.7-0.7,0.7-1.2
		c0-0.8-0.7-1.5-1.5-1.5c-0.8,0-1.5,0.7-1.5,1.5c0,0.5,0.3,1,0.7,1.2v5.4L33.5,54.2L33.5,54.2z M40.1,43.8c-0.3,0-0.5,0.2-0.5,0.5
		c0,0.3,0.2,0.5,0.5,0.5c0.3,0,0.5-0.2,0.5-0.5C40.6,44,40.3,43.8,40.1,43.8L40.1,43.8z M36.7,43.8c-0.3,0-0.5,0.2-0.5,0.5
		c0,0.3,0.2,0.5,0.5,0.5c0.3,0,0.5-0.2,0.5-0.5C37.2,44,37,43.8,36.7,43.8L36.7,43.8z M30.9,43.8c-0.3,0-0.5,0.2-0.5,0.5
		c0,0.3,0.2,0.5,0.5,0.5c0.3,0,0.5-0.2,0.5-0.5C31.4,44,31.2,43.8,30.9,43.8z"/>
	<path fill-rule="evenodd" clip-rule="evenodd" fill="#209e2d" d="M36.6,85.1C51,78.2,59.1,66.9,56.9,48.3c-5.1-1.3-8.1-4.3-8.5-9.4
		c-3.5-1.5-7.5-2.3-11.8-2.3c-4.3,0-8.3,0.7-11.8,2.3c-0.5,5-3.5,8.1-8.5,9.4C14.1,66.9,22.2,78.2,36.6,85.1L36.6,85.1z M27.1,40.6
		c3-1.1,6.3-1.6,9.6-1.6c3.2,0,6.5,0.5,9.6,1.6c0.9,4.8,4,7.9,8.5,9.5c1.3,15.1-4.6,25.5-18,32.3c-13.4-6.8-19.4-17.2-18-32.3
		C23.1,48.5,26.2,45.4,27.1,40.6z"/>
</g>
</svg>
