<?xml version="1.0" encoding="utf-8"?>
<!-- Generator: Adobe Illustrator 17.1.0, SVG Export Plug-In . SVG Version: 6.00 Build 0)  -->
<!DOCTYPE svg PUBLIC "-//W3C//DTD SVG 1.1//EN" "http://www.w3.org/Graphics/SVG/1.1/DTD/svg11.dtd">
<svg version="1.1" id="Слой_1" xmlns="http://www.w3.org/2000/svg" xmlns:xlink="http://www.w3.org/1999/xlink" x="0px" y="0px"
	 viewBox="0 0 201 45" enable-background="new 0 0 201 45" xml:space="preserve" height='45px' width='201px'>
<g>
	<path fill="#00598e" d="M72.1,3.3l-0.8,2.1l-1,2.5h-0.6l-1-2.5l-0.8-2.1h-0.1v7.2h-1.1V0.1h1.2l1.2,3.3L70,5.9l0,0l1-2.6l1.2-3.2
		h1.2v10.4h-1.1L72.1,3.3L72.1,3.3L72.1,3.3z M134.5,7.7c0,0.9-0.2,1.6-0.6,2.1c-0.3,0.5-1,0.8-1.8,0.8c-0.9,0-1.5-0.2-1.8-0.7
		c-0.3-0.5-0.6-1.1-0.6-1.8V3.1c0-0.3,0-0.7,0.1-1c0.1-0.3,0.2-0.7,0.3-0.9c0.2-0.2,0.5-0.5,0.7-0.7c0.3-0.1,0.7-0.2,1.2-0.2
		s0.9,0.1,1.2,0.2c0.3,0.1,0.6,0.3,0.7,0.6c0.1,0.2,0.2,0.6,0.3,0.9c0,0.3,0.1,0.7,0.1,1.1V7.7L134.5,7.7z M133.3,2.7
		c0-0.2,0-0.3,0-0.6s-0.1-0.3-0.1-0.6c-0.1-0.1-0.2-0.2-0.3-0.3c-0.1-0.1-0.3-0.1-0.7-0.1c-0.3,0-0.6,0.1-0.7,0.2
		c-0.1,0.1-0.2,0.3-0.3,0.6c-0.1,0.2-0.1,0.5-0.1,0.7c0,0.2,0,0.5,0,0.6v5c0,0.1,0,0.3,0,0.5s0.1,0.3,0.2,0.5
		c0.1,0.1,0.2,0.2,0.3,0.3c0.1,0.1,0.3,0.1,0.6,0.1c0.2,0,0.5,0,0.6-0.1s0.3-0.2,0.3-0.3c0.1-0.1,0.1-0.3,0.2-0.6c0-0.2,0-0.5,0-0.6
		V2.7L133.3,2.7z M127.8,5.1c0.5,0.1,0.8,0.5,0.9,0.8c0.1,0.5,0.2,0.9,0.2,1.6c0,1-0.2,1.8-0.7,2.4c-0.5,0.5-1.1,0.7-2,0.7h-2V0.1
		h2.1c0.9,0,1.5,0.2,1.9,0.7c0.3,0.5,0.6,1.1,0.6,2c0,0.6-0.1,1-0.2,1.4C128.5,4.5,128.1,4.8,127.8,5.1L127.8,5.1L127.8,5.1z
		 M127.8,7.3c0-0.6-0.1-1-0.3-1.4c-0.2-0.3-0.7-0.5-1.2-0.5h-0.9v3.8h0.9c0.3,0,0.6-0.1,0.8-0.2c0.2-0.1,0.3-0.2,0.5-0.5
		c0.1-0.2,0.2-0.5,0.2-0.7C127.8,7.9,127.8,7.6,127.8,7.3L127.8,7.3z M127.7,2.8c0-0.6-0.1-0.9-0.3-1.2c-0.2-0.2-0.7-0.5-1.1-0.5
		h-0.8v3.3h0.8c0.6,0,0.9-0.1,1.1-0.5C127.6,3.9,127.7,3.4,127.7,2.8L127.7,2.8z M121.7,1.3v9.2h-1.1V1.3h-1.8V0.1h4.7v1.1H121.7
		L121.7,1.3z M116.2,0c0.8,0,1.4,0.2,1.7,0.7c0.3,0.5,0.6,1,0.6,1.7l-1.1,0.2c0-0.5-0.1-0.8-0.2-1.1c-0.2-0.2-0.5-0.5-0.9-0.5
		c-0.2,0-0.5,0-0.6,0.1s-0.2,0.2-0.3,0.5c-0.1,0.1-0.1,0.3-0.2,0.6c0,0.2,0,0.3,0,0.6v5.2c0,0.1,0,0.3,0,0.5c0,0.2,0.1,0.3,0.2,0.5
		c0.1,0.1,0.2,0.2,0.3,0.3c0.1,0.1,0.3,0.1,0.6,0.1c0.3,0,0.7-0.1,0.9-0.3c0.2-0.2,0.2-0.6,0.3-1.1l1.2,0.2c0,0.8-0.2,1.4-0.6,1.7
		c-0.3,0.5-0.9,0.7-1.7,0.7c-0.8,0-1.4-0.2-1.8-0.7c-0.3-0.5-0.6-1-0.6-1.8V2.8c0-0.3,0-0.7,0.1-1.1c0.1-0.3,0.2-0.7,0.3-0.9
		c0.1-0.2,0.5-0.5,0.7-0.7C115.3,0.1,115.8,0,116.2,0L116.2,0z M110.6,0.1c0.6,0,0.9,0.1,1.2,0.2s0.6,0.3,0.8,0.6
		c0.2,0.2,0.3,0.6,0.5,1c0.1,0.3,0.1,0.8,0.1,1.4c0,0.5,0,0.8-0.1,1.2c-0.1,0.3-0.2,0.7-0.5,1s-0.5,0.5-0.8,0.7
		c-0.3,0.1-0.8,0.2-1.4,0.2h-0.9v4.2h-1.1V0.3h2.1V0.1z M109.7,5.2h0.8c0.3,0,0.7,0,0.9-0.1c0.2-0.1,0.3-0.2,0.5-0.5
		c0.1-0.2,0.2-0.3,0.2-0.7c0-0.2,0-0.5,0-0.8c0-0.2,0-0.6,0-0.8c0-0.2-0.1-0.5-0.2-0.7c-0.1-0.2-0.2-0.3-0.5-0.5
		c-0.2-0.1-0.5-0.1-0.8-0.1h-0.8v4.1H109.7z M103.1,10.5V0.1h4.4v1.1h-3.3v3.5h2.8v1.1h-2.8v3.6h3.3v1.1h-4.4V10.5z M100.6,1.3v9.2
		h-1.1V1.3h-1.8V0.1h4.7v1.1H100.6L100.6,1.3z M95.2,0c0.8,0,1.4,0.2,1.7,0.7c0.3,0.5,0.6,1,0.6,1.7l-1.1,0.2c0-0.5-0.1-0.8-0.2-1.1
		C95.8,1.3,95.6,1,95.2,1c-0.2,0-0.5,0-0.6,0.1s-0.2,0.2-0.3,0.5c-0.1,0.1-0.1,0.3-0.2,0.6c0,0.2,0,0.3,0,0.6v5.2c0,0.1,0,0.3,0,0.5
		c0,0.2,0.1,0.3,0.2,0.5c0.1,0.1,0.2,0.2,0.3,0.3c0.1,0.1,0.3,0.1,0.6,0.1c0.3,0,0.7-0.1,0.9-0.3c0.2-0.2,0.2-0.6,0.3-1.1L97.6,8
		c0,0.8-0.2,1.4-0.6,1.7c-0.3,0.5-0.9,0.7-1.7,0.7s-1.4-0.2-1.8-0.7c-0.3-0.5-0.6-1-0.6-1.8V2.8c0-0.3,0-0.7,0.1-1.1
		c0.1-0.3,0.2-0.7,0.3-0.9c0.1-0.2,0.5-0.5,0.7-0.7S94.6,0,95.2,0L95.2,0z M90.4,3.2l-2.6,7.2h-1.1V0h1.1v7.3h0.1L90.5,0h1.1v10.4
		h-1.1L90.4,3.2L90.4,3.2L90.4,3.2z M84.3,10.5V5.8H82v4.7h-1.1V0.1H82v4.5h2.4V0.1h1.1v10.4H84.3L84.3,10.5z M78.3,3.2l-2.6,7.2
		h-1.1V0h1.1v7.3h0.1L78.4,0h1.1v10.4h-1.1L78.3,3.2L78.3,3.2z"/>
	<path fill="#00598e" d="M1.9,25c0,0.6,0.1,0.9,0.3,1.1s0.5,0.3,0.8,0.3s0.6-0.1,0.8-0.5c0.2-0.3,0.2-0.8,0.2-1.5
		c0-1.2-0.3-1.8-1-1.8H2.1v-1.6h0.8c0.3,0,0.7-0.1,0.8-0.5c0.1-0.3,0.2-0.8,0.2-1.4c0-0.5-0.1-0.8-0.3-1.1c-0.2-0.2-0.5-0.3-0.8-0.3
		S2.1,18,2,18.4c-0.1,0.2-0.2,0.7-0.2,1L0,18.8c0.1-0.9,0.3-1.6,0.9-2.1c0.6-0.5,1.2-0.8,2-0.8c1.9,0,2.9,1.1,2.9,3.3
		c0,0.2,0,0.5,0,0.7s-0.1,0.6-0.1,0.8c-0.1,0.2-0.2,0.5-0.3,0.7c-0.1,0.2-0.3,0.3-0.6,0.5l0,0c0.2,0.1,0.3,0.2,0.6,0.5
		c0.1,0.2,0.2,0.5,0.3,0.7c0.1,0.2,0.1,0.5,0.2,0.8c0,0.2,0,0.6,0,0.8c0,1.2-0.2,2.1-0.8,2.8c-0.5,0.6-1.2,0.9-2.3,0.9
		c-0.9,0-1.6-0.2-2.1-0.8c-0.5-0.3-0.8-1-0.8-2L1.9,25L1.9,25z M199.1,20.6l-2.5,7.5h-1.8v-12h1.8v7.7h0.1l2.5-7.7h1.8v12h-1.8
		L199.1,20.6L199.1,20.6L199.1,20.6z M196.8,13.4c0,0.1,0,0.2,0.1,0.3c0.1,0.1,0.1,0.2,0.2,0.3c0.1,0.1,0.2,0.2,0.3,0.3
		c0.1,0.1,0.2,0.1,0.5,0.1c0.2,0,0.3,0,0.5-0.1c0.1-0.1,0.2-0.2,0.3-0.3c0.1-0.1,0.1-0.2,0.2-0.3c0-0.1,0.1-0.2,0.1-0.3h1.4
		c0,0.2-0.1,0.5-0.2,0.8c-0.1,0.3-0.2,0.6-0.5,0.8c-0.2,0.2-0.5,0.5-0.8,0.6c-0.3,0.1-0.7,0.2-1,0.2c-0.5,0-0.8-0.1-1.1-0.2
		c-0.3-0.1-0.6-0.3-0.8-0.6c-0.2-0.2-0.3-0.5-0.5-0.8c-0.1-0.3-0.1-0.6-0.1-0.8H196.8L196.8,13.4z M191.5,20.6l-2.5,7.5h-1.8v-12
		h1.8v7.7h0.1l2.5-7.7h1.8v12h-1.8L191.5,20.6L191.5,20.6L191.5,20.6z M184.1,28.2v-5.3H182v5.3h-1.8v-12h1.9v5.1h2.1v-5.1h1.9v12
		H184.1L184.1,28.2z M173.7,28.2v-12h5.4v1.8h-3.5v3.3h3V23h-3v3.5h3.5v1.8h-5.4V28.2z M172.4,16.1v12h-9.1v-12h1.9v10.2h1.8V16.1
		h1.9v10.2h1.8V16.1H172.4L172.4,16.1z M160.2,19.1c0-0.3-0.1-0.7-0.2-0.9c-0.1-0.2-0.5-0.5-0.8-0.5c-0.2,0-0.5,0-0.6,0.1
		c-0.1,0.1-0.2,0.2-0.3,0.3c-0.1,0.1-0.1,0.3-0.1,0.5c0,0.2,0,0.3,0,0.5v6.1c0,0.3,0.1,0.6,0.2,0.8c0.1,0.2,0.5,0.3,0.8,0.3
		c0.3,0,0.7-0.1,0.8-0.3c0.1-0.2,0.2-0.6,0.2-0.9L160.2,19.1L160.2,19.1z M162.2,25.1c0,1-0.2,1.8-0.7,2.4c-0.5,0.6-1.2,0.8-2.3,0.8
		c-1,0-1.8-0.2-2.3-0.8c-0.5-0.6-0.7-1.2-0.7-2.3v-6.1c0-0.5,0-0.9,0.1-1.4c0.1-0.3,0.2-0.7,0.6-1c0.2-0.3,0.6-0.5,0.9-0.7
		c0.3-0.1,0.8-0.2,1.4-0.2c0.6,0,1,0.1,1.4,0.2c0.3,0.1,0.7,0.3,0.9,0.7c0.2,0.2,0.3,0.6,0.5,1c0.1,0.3,0.1,0.8,0.1,1.4v6H162.2z
		 M153.3,28.2v-5.3h-2.1v5.3h-1.9v-12h1.9v5.1h2.1v-5.1h1.9v12H153.3L153.3,28.2z M146.6,17.9v10.2h-1.9V17.9h-1.9v-1.8h5.7v1.8
		H146.6L146.6,17.9z M140.5,19.1c0-0.3-0.1-0.7-0.2-0.9c-0.1-0.2-0.5-0.5-0.8-0.5c-0.2,0-0.5,0-0.6,0.1c-0.1,0.1-0.2,0.2-0.3,0.3
		c-0.1,0.1-0.1,0.3-0.1,0.5c0,0.2,0,0.3,0,0.5v6.1c0,0.3,0.1,0.6,0.2,0.8c0.1,0.2,0.5,0.3,0.8,0.3s0.7-0.1,0.8-0.3
		c0.1-0.2,0.2-0.6,0.2-0.9V19.1L140.5,19.1z M142.3,25.1c0,1-0.2,1.8-0.7,2.4c-0.5,0.6-1.2,0.8-2.3,0.8c-1,0-1.8-0.2-2.3-0.8
		c-0.5-0.6-0.7-1.2-0.7-2.3v-6.1c0-0.5,0-0.9,0.1-1.4c0.1-0.3,0.2-0.7,0.6-1c0.2-0.3,0.6-0.5,0.9-0.7c0.3-0.1,0.8-0.2,1.4-0.2
		c0.6,0,1,0.1,1.4,0.2c0.3,0.1,0.7,0.3,0.9,0.7c0.2,0.2,0.3,0.6,0.5,1c0.1,0.3,0.1,0.8,0.1,1.4v6H142.3z M130.5,28.2l-1.4-4.2l0,0
		l-1.4,4.2h-2l2.5-6.3c-0.3-1-0.8-1.9-1.1-2.8c-0.3-0.9-0.8-1.9-1.1-2.9h2.1c0.2,0.6,0.3,1.2,0.6,1.8c0.2,0.6,0.3,1.2,0.6,1.8h0.1
		l1.1-3.6h2.1l-2.4,5.7c0.5,1,0.8,2.1,1.2,3.2c0.5,1,0.8,2.1,1.2,3.2L130.5,28.2L130.5,28.2z M116.1,28.2v-12h1.9v4.6h0.8
		c0.7,0,1.1,0.1,1.6,0.2c0.5,0.1,0.8,0.5,1,0.7c0.2,0.3,0.5,0.7,0.6,1.1c0.1,0.5,0.1,1,0.1,1.6c0,1.2-0.2,2.1-0.8,2.8
		s-1.4,0.9-2.4,0.9h-2.8V28.2z M118,26.4h0.7c0.6,0,1-0.2,1.1-0.6c0.2-0.3,0.3-0.9,0.3-1.5c0-0.7-0.1-1.1-0.3-1.5s-0.7-0.5-1.2-0.5
		h-0.7v3.9H118z M123,28.2v-12h1.9v12H123L123,28.2z M113.3,19.4c0-0.6-0.1-0.9-0.3-1.2c-0.2-0.2-0.6-0.3-1.1-0.3h-0.6V21h0.6
		c0.5,0,0.8-0.1,1-0.5C113.2,20.3,113.3,20,113.3,19.4L113.3,19.4z M113.4,24.4c0-0.6-0.1-1-0.3-1.2c-0.2-0.2-0.6-0.5-1.1-0.5h-0.7
		v3.7h0.8c0.3,0,0.6,0,0.7-0.1c0.2-0.1,0.3-0.2,0.5-0.5c0.1-0.2,0.1-0.5,0.2-0.7C113.4,24.9,113.4,24.7,113.4,24.4L113.4,24.4z
		 M113.8,21.9c0.6,0.2,0.9,0.5,1.1,1c0.2,0.5,0.3,1,0.3,1.7c0,1.2-0.2,2.1-0.8,2.8c-0.6,0.6-1.4,0.9-2.5,0.9h-2.5v-12h2.6
		c1,0,1.8,0.2,2.4,0.8c0.5,0.6,0.7,1.4,0.7,2.5c0,0.6-0.1,1-0.3,1.5C114.6,21.3,114.3,21.5,113.8,21.9L113.8,21.9L113.8,21.9z
		 M106.5,19.1c0-0.3-0.1-0.7-0.2-0.9c-0.1-0.2-0.5-0.5-0.8-0.5c-0.2,0-0.5,0-0.6,0.1c-0.1,0.1-0.2,0.2-0.3,0.3
		c-0.1,0.1-0.1,0.3-0.1,0.5c0,0.2,0,0.3,0,0.5v6.1c0,0.3,0.1,0.6,0.2,0.8c0.1,0.2,0.5,0.3,0.8,0.3c0.3,0,0.7-0.1,0.8-0.3
		c0.1-0.2,0.2-0.6,0.2-0.9L106.5,19.1L106.5,19.1z M108.3,25.1c0,1-0.2,1.8-0.7,2.4c-0.5,0.6-1.2,0.8-2.3,0.8c-1,0-1.8-0.2-2.3-0.8
		c-0.5-0.6-0.7-1.2-0.7-2.3v-6.1c0-0.5,0-0.9,0.1-1.4c0.1-0.3,0.2-0.7,0.6-1c0.2-0.3,0.6-0.5,0.9-0.7c0.3-0.1,0.8-0.2,1.4-0.2
		s1,0.1,1.4,0.2s0.7,0.3,0.9,0.7c0.2,0.2,0.3,0.6,0.5,1c0.1,0.3,0.1,0.8,0.1,1.4v6H108.3z M95.5,28.2v2.3h-1.6v-3.8l0.7-0.1
		c0.3-0.3,0.6-0.8,0.7-1.2c0.1-0.5,0.2-1,0.2-1.8l0.2-7.3h5.4v10.4h0.8v3.9h-1.7v-2.3H95.5L95.5,28.2z M97.1,23.5
		c0,0.7-0.1,1.2-0.1,1.8c-0.1,0.5-0.2,0.9-0.5,1.2h2.6v-8.6h-1.9L97.1,23.5L97.1,23.5z M91.4,22.3L91.4,22.3l-1.6-6.2h-1.8l2.6,8.9
		v0.1c0,0.1,0,0.1,0,0.2c0,0.1,0,0.1,0,0.2c0,0.1,0,0.1,0,0.1c-0.1,0.5-0.2,0.7-0.5,0.9c-0.2,0.2-0.5,0.3-0.7,0.3h-0.5v1.5h0.7
		c0.2,0,0.6,0,0.8-0.1c0.2-0.1,0.5-0.2,0.7-0.3c0.2-0.2,0.5-0.5,0.7-0.9c0.2-0.3,0.3-0.9,0.6-1.6l2.5-9.3h-1.8L91.4,22.3L91.4,22.3z
		 M84.8,16.1c1.1,0,1.9,0.3,2.5,0.9c0.6,0.6,0.8,1.5,0.8,2.8c0,0.6,0,1.1-0.1,1.6s-0.3,0.9-0.6,1.2c-0.2,0.3-0.6,0.6-1,0.8
		c-0.5,0.2-0.9,0.2-1.6,0.2H84v4.6h-1.8v-12h2.6V16.1z M84,17.9v3.9h0.7c0.6,0,1-0.1,1.2-0.5c0.2-0.3,0.3-0.8,0.3-1.5
		c0-0.6-0.1-1-0.3-1.4c-0.2-0.3-0.6-0.6-1.2-0.6H84V17.9z M79.4,17.9v10.2h-1.9V17.9h-1.9v-1.8h5.7v1.8H79.4L79.4,17.9z M69.1,20.6
		l-2.5,7.5h-1.8v-12h1.8v7.7h0.1l2.5-7.7h1.8v12h-1.8L69.1,20.6L69.1,20.6L69.1,20.6z M57.9,20.6l-2.5,7.5h-1.8v-12h1.8v7.7h0.1
		l2.5-7.7h1.8v12H58L57.9,20.6L57.9,20.6L57.9,20.6z M50.8,17.9v10.2h-1.9V17.9H47v-1.8h5.7v1.8H50.8L50.8,17.9z M43.6,16
		c0.5,0,0.9,0.1,1.2,0.2c0.3,0.1,0.7,0.3,0.9,0.6c0.2,0.2,0.5,0.6,0.6,0.9c0.1,0.3,0.1,0.7,0.1,1.1l-1.8,0.5c0-0.5-0.1-0.8-0.2-1.1
		c-0.1-0.2-0.5-0.5-0.8-0.5c-0.2,0-0.5,0-0.6,0.1c-0.1,0.1-0.2,0.2-0.3,0.3c-0.1,0.1-0.1,0.3-0.1,0.5c0,0.1,0,0.3,0,0.5v6.1
		c0,0.1,0,0.2,0,0.3c0,0.1,0.1,0.2,0.1,0.3c0.1,0.1,0.2,0.2,0.3,0.3c0.1,0.1,0.3,0.1,0.5,0.1c0.7,0,1-0.5,1-1.5
		c0.3,0.1,0.7,0.1,0.9,0.1c0.3,0,0.7,0.1,0.9,0.1c0,0.9-0.2,1.7-0.8,2.1C45,27.7,44.3,28,43.4,28c-1,0-1.7-0.2-2.3-0.8
		c-0.5-0.5-0.7-1.2-0.7-2.3v-6c0-0.5,0-0.9,0.1-1.2c0.1-0.5,0.2-0.8,0.5-1c0.2-0.3,0.6-0.6,0.9-0.7C42.6,16.1,43,16,43.6,16L43.6,16
		z M37.8,19.1c0-0.3-0.1-0.7-0.2-0.9c-0.1-0.2-0.5-0.5-0.8-0.5c-0.2,0-0.5,0-0.6,0.1c-0.1,0.1-0.2,0.2-0.3,0.3
		c-0.1,0.1-0.1,0.3-0.1,0.5c0,0.2,0,0.3,0,0.5v6.1c0,0.3,0.1,0.6,0.2,0.8c0.1,0.2,0.5,0.3,0.8,0.3s0.7-0.1,0.8-0.3
		c0.1-0.2,0.2-0.6,0.2-0.9V19.1L37.8,19.1z M39.6,25.1c0,1-0.2,1.8-0.7,2.4c-0.5,0.6-1.2,0.8-2.3,0.8c-1,0-1.8-0.2-2.3-0.8
		c-0.5-0.6-0.7-1.2-0.7-2.3v-6.1c0-0.5,0-0.9,0.1-1.4c0.1-0.3,0.2-0.7,0.6-1c0.2-0.3,0.6-0.5,0.9-0.7c0.3-0.1,0.8-0.2,1.4-0.2
		s1,0.1,1.4,0.2s0.7,0.3,0.9,0.7c0.2,0.2,0.3,0.6,0.5,1c0.1,0.3,0.1,0.8,0.1,1.4v6H39.6z M31.4,17.9v10.2h-1.9V17.9h-1.9v-1.8h5.7
		v1.8H31.4L31.4,17.9z M20.3,28.2l0.7-3.8c0.1-0.5,0.2-0.8,0.3-1.1c0.2-0.3,0.5-0.6,0.7-0.8c-0.6-0.2-0.9-0.6-1.1-1
		c-0.2-0.5-0.3-1-0.3-1.7c0-1.2,0.3-2.1,0.9-2.7c0.6-0.6,1.4-0.9,2.4-0.9h2.7v12h-1.7V23h-0.5c-0.3,0-0.7,0.1-0.9,0.3
		c-0.2,0.2-0.5,0.7-0.6,1.4l-0.6,3.4h-2V28.2z M24,17.9c-0.6,0-1,0.2-1.2,0.6c-0.2,0.3-0.3,0.8-0.3,1.4s0.1,1,0.5,1.2
		c0.3,0.2,0.7,0.3,1.1,0.3h0.8V18H24V17.9z M17.3,28.2v-5.3h-2.1v5.3h-1.9v-12h1.9v5.1h2.1v-5.1h1.9v12H17.3L17.3,28.2z M10.9,28.2
		l-0.5-2.5H8.2c-0.1,0.5-0.1,0.8-0.2,1.2s-0.1,0.8-0.2,1.2H5.9c0.5-2,0.8-4.1,1.2-6.1c0.5-2,0.8-4.1,1.2-6.1h2l2.5,12h-1.9V28.2z
		 M9.3,18.9c-0.1,0.8-0.2,1.7-0.3,2.5c-0.1,0.8-0.2,1.7-0.5,2.5h1.6L9.3,18.9L9.3,18.9z"/>
	<path fill="#00598e" d="M43.4,34.1c0.6,0,1,0.1,1.4,0.2c0.3,0.1,0.6,0.3,0.8,0.6c0.2,0.2,0.3,0.6,0.5,1c0.1,0.3,0.1,0.8,0.1,1.4
		c0,0.5,0,0.9-0.1,1.2c-0.1,0.3-0.2,0.7-0.5,1c-0.2,0.3-0.5,0.5-0.8,0.7c-0.3,0.1-0.8,0.2-1.4,0.2h-0.9v4.2h-1.1V34.1L43.4,34.1
		L43.4,34.1z M158.5,44.6v-4.8h-2.5v4.8h-1.1V34.1h1.1v4.6h2.5v-4.6h1.2v10.5H158.5L158.5,44.6z M153,44.6l-0.5-2.4h-2.4l-0.5,2.4
		h-1.1l2.3-10.5h1.1l2.3,10.5H153L153,44.6z M151.3,36.3l-0.5,2.5l-0.5,2.5h1.9l-0.6-2.5L151.3,36.3L151.3,36.3L151.3,36.3z
		 M147.1,35.3h1.8v-1.1h-4.7v1.1h1.8v9.3h1.2v-9.3H147.1z M141.3,34c0.8,0,1.4,0.2,1.8,0.7c0.3,0.5,0.6,1,0.6,1.7l-1.2,0.2
		c0-0.5-0.1-0.8-0.2-1.1c-0.2-0.2-0.5-0.5-0.9-0.5c-0.2,0-0.5,0-0.6,0.1c-0.1,0.1-0.2,0.2-0.3,0.5c-0.1,0.1-0.1,0.3-0.2,0.6
		c0,0.2,0,0.3,0,0.6V42c0,0.1,0,0.3,0,0.5c0,0.2,0.1,0.3,0.2,0.5c0.1,0.1,0.2,0.2,0.3,0.3c0.1,0.1,0.3,0.1,0.6,0.1
		c0.3,0,0.7-0.1,0.9-0.3c0.2-0.2,0.3-0.6,0.3-1.1l1.2,0.2c0,0.8-0.2,1.4-0.6,1.8c-0.3,0.5-1,0.7-1.7,0.7c-0.8,0-1.4-0.2-1.8-0.7
		c-0.3-0.5-0.6-1-0.6-1.8V37c0-0.3,0-0.7,0.1-1.1c0.1-0.3,0.2-0.7,0.3-0.9c0.2-0.2,0.5-0.5,0.7-0.7C140.4,34.1,140.9,34,141.3,34
		L141.3,34z M136.6,37.3l-2.6,7.3h-1.1V34.1h1.1v7.3h0.1l2.6-7.4h1.1v10.5h-1.1L136.6,37.3L136.6,37.3L136.6,37.3z M126.2,44.6V34.1
		h1.2v4.5h0.6c0.1,0,0.3,0,0.5,0c0.1,0,0.3-0.1,0.5-0.2c0.1-0.1,0.3-0.2,0.5-0.5c0.1-0.2,0.2-0.5,0.3-0.8l0.7-3h1.1l-0.7,3
		c-0.1,0.6-0.2,0.9-0.5,1.2c-0.2,0.3-0.5,0.6-0.8,0.7c0.3,0.1,0.7,0.3,0.9,0.8c0.2,0.3,0.3,0.8,0.5,1.4l0.8,3.4h-1.2l-0.7-3.2
		c-0.1-0.3-0.2-0.7-0.3-0.9c-0.1-0.2-0.2-0.3-0.5-0.5c-0.1-0.1-0.3-0.2-0.5-0.2c-0.2,0-0.3,0-0.6,0h-0.6v4.7H126.2L126.2,44.6z
		 M120.7,44.6V34.1h4.5v1.1H122v3.5h2.8v1.1H122v3.6h3.3v1.1L120.7,44.6L120.7,44.6z M116.1,43.5h0.8c0.3,0,0.7,0,0.8-0.1
		c0.2-0.1,0.3-0.2,0.5-0.5c0.1-0.2,0.2-0.5,0.2-0.7c0-0.2,0-0.6,0-0.8s0-0.6,0-0.8c0-0.2-0.1-0.5-0.2-0.7c-0.1-0.2-0.2-0.3-0.5-0.5
		c-0.2-0.1-0.5-0.1-0.9-0.1H116v4.1H116.1z M116.1,38.4h0.9c0.6,0,1,0.1,1.4,0.2c0.3,0.1,0.7,0.3,0.8,0.7c0.2,0.2,0.3,0.6,0.5,0.9
		s0.1,0.8,0.1,1.2c0,0.5,0,0.9-0.1,1.4c-0.1,0.3-0.2,0.7-0.5,1c-0.2,0.2-0.5,0.5-0.8,0.7c-0.3,0.1-0.8,0.2-1.4,0.2h-2.1V34.3h4.2
		v1.1h-3v3H116.1z M111.5,34c0.3,0,0.7,0,1,0.1c0.3,0.1,0.6,0.2,0.8,0.5c0.2,0.2,0.3,0.5,0.5,0.8c0.1,0.3,0.2,0.8,0.2,1.4
		c0,0.2,0,0.3,0,0.7c0,0.2-0.1,0.5-0.1,0.7c-0.1,0.2-0.1,0.5-0.2,0.7c-0.1,0.2-0.2,0.3-0.5,0.5l0,0c0.2,0.1,0.3,0.2,0.5,0.5
		c0.1,0.2,0.2,0.3,0.2,0.6c0.1,0.2,0.1,0.5,0.1,0.7c0,0.2,0,0.5,0,0.7c0,1-0.2,1.8-0.6,2.3c-0.3,0.6-1,0.8-1.8,0.8
		c-0.3,0-0.7,0-1-0.1c-0.3-0.1-0.6-0.2-0.8-0.5c-0.2-0.2-0.3-0.5-0.5-0.8s-0.1-0.7-0.1-1l1.1-0.2c0,0.6,0.1,1,0.3,1.1
		c0.2,0.2,0.5,0.3,0.9,0.3c0.1,0,0.3,0,0.5-0.1c0.1-0.1,0.2-0.1,0.3-0.3c0.1-0.1,0.2-0.3,0.2-0.7c0.1-0.2,0.1-0.6,0.1-1
		c0-0.2,0-0.5,0-0.7s-0.1-0.5-0.2-0.6c-0.1-0.1-0.2-0.3-0.3-0.5c-0.1-0.1-0.3-0.1-0.6-0.1h-0.7v-1h0.7c0.2,0,0.3,0,0.6-0.1
		c0.1-0.1,0.2-0.2,0.3-0.3c0.1-0.2,0.1-0.3,0.2-0.6c0-0.2,0.1-0.5,0.1-0.7c0-0.3,0-0.6-0.1-0.8c-0.1-0.2-0.1-0.3-0.2-0.6
		c-0.1-0.1-0.2-0.2-0.5-0.2c-0.1,0-0.3-0.1-0.5-0.1c-0.5,0-0.7,0.1-0.9,0.5c-0.2,0.3-0.2,0.7-0.2,1.1l-1.1-0.2
		c0-0.8,0.2-1.4,0.7-1.7C110.2,34.3,110.8,34,111.5,34L111.5,34z M106.5,40l1.4-5.9h1.1l-2.1,8c-0.1,0.6-0.3,1-0.5,1.4
		c-0.2,0.3-0.3,0.6-0.6,0.8c-0.2,0.1-0.3,0.2-0.6,0.3c-0.2,0-0.3,0.1-0.6,0.1h-0.6v-0.9h0.6c0.2,0,0.5-0.1,0.6-0.3
		c0.2-0.2,0.3-0.6,0.5-1l0.1-0.7l-2.3-7.7h1.1L106.5,40L106.5,40L106.5,40z M97.7,37.3l-2.6,7.3H94V34.1h1.1v7.3h0.1l2.6-7.4H99
		v10.5h-1.1L97.7,37.3L97.7,37.3L97.7,37.3z M87.7,44.6V34.1H89v4.5h0.6c0.1,0,0.3,0,0.5,0s0.3-0.1,0.5-0.2c0.1-0.1,0.3-0.2,0.5-0.5
		c0.1-0.2,0.2-0.5,0.3-0.8l0.7-3H93l-0.7,3c-0.1,0.6-0.2,0.9-0.5,1.2c-0.2,0.3-0.5,0.6-0.8,0.7c0.3,0.1,0.7,0.3,0.9,0.8
		c0.2,0.3,0.3,0.8,0.5,1.4l0.8,3.4h-1.1l-0.7-3.2c-0.1-0.3-0.2-0.7-0.3-0.9c-0.1-0.2-0.2-0.3-0.5-0.5c-0.1-0.1-0.3-0.2-0.5-0.2
		c-0.2,0-0.3,0-0.6,0H89v4.7H87.7L87.7,44.6z M85.1,37.3l-2.6,7.3h-1.1V34.1h1.1v7.3h0.1l2.6-7.4h1.1v10.5h-1.1L85.1,37.3L85.1,37.3
		L85.1,37.3z M76.5,39.3c0,1,0,1.8-0.1,2.4c-0.1,0.7-0.2,1.1-0.3,1.6c-0.1,0.5-0.3,0.7-0.6,1c-0.2,0.2-0.6,0.5-0.9,0.7L74,44.1
		c0.2-0.1,0.5-0.3,0.6-0.5c0.2-0.1,0.3-0.3,0.5-0.7c0.1-0.2,0.2-0.6,0.3-1c0.1-0.5,0.1-0.9,0.1-1.6v-6.1h4.4v10.5h-1.2v-9.3h-2.1
		V39.3L76.5,39.3z M70.4,43.5h0.8c0.3,0,0.7,0,0.8-0.1c0.2-0.1,0.3-0.2,0.5-0.5c0.1-0.2,0.2-0.5,0.2-0.7c0-0.2,0-0.6,0-0.8
		s0-0.6,0-0.8c0-0.2-0.1-0.5-0.2-0.7c-0.1-0.2-0.2-0.3-0.5-0.5c-0.2-0.1-0.5-0.1-0.9-0.1h-0.8v4.1H70.4z M70.4,38.4h0.9
		c0.6,0,1,0.1,1.4,0.2c0.3,0.1,0.7,0.3,0.8,0.7c0.2,0.2,0.3,0.6,0.5,0.9S74,41,74,41.5c0,0.5,0,0.9-0.1,1.4c-0.1,0.3-0.2,0.7-0.5,1
		c-0.2,0.2-0.5,0.5-0.8,0.7c-0.3,0.1-0.8,0.2-1.4,0.2h-2.1V34.3h4.2v1.1h-3v3H70.4z M65.9,40l1.4-5.9h1.1l-2.1,8
		c-0.1,0.6-0.3,1-0.5,1.4c-0.2,0.3-0.3,0.6-0.6,0.8c-0.2,0.1-0.3,0.2-0.6,0.3c-0.2,0-0.3,0.1-0.6,0.1h-0.6v-0.9h0.6
		c0.2,0,0.5-0.1,0.6-0.3c0.2-0.2,0.3-0.6,0.5-1l0.1-0.7l-2.3-7.7h1.1L65.9,40L65.9,40L65.9,40z M61,44.6v-9.3h-2.3v9.3h-1.2V34.1
		h4.6v10.5H61L61,44.6z M54.3,34c0.8,0,1.4,0.2,1.8,0.7c0.3,0.5,0.6,1,0.6,1.7l-1.2,0.2c0-0.5-0.1-0.8-0.2-1.1
		C55,35.3,54.7,35,54.3,35c-0.2,0-0.5,0-0.6,0.1c-0.1,0.1-0.2,0.2-0.3,0.5c-0.1,0.1-0.1,0.3-0.2,0.6c0,0.2,0,0.3,0,0.6V42
		c0,0.1,0,0.3,0,0.5c0,0.2,0.1,0.3,0.2,0.5c0.1,0.1,0.2,0.2,0.3,0.3c0.1,0.1,0.3,0.1,0.6,0.1c0.3,0,0.7-0.1,0.9-0.3
		c0.2-0.2,0.3-0.6,0.3-1.1l1.2,0.2c0,0.8-0.2,1.4-0.6,1.8c-0.3,0.5-1,0.7-1.7,0.7c-0.8,0-1.4-0.2-1.8-0.7c-0.3-0.5-0.6-1-0.6-1.8V37
		c0-0.3,0-0.7,0.1-1.1c0.1-0.3,0.2-0.7,0.3-0.9c0.2-0.2,0.5-0.5,0.7-0.7C53.5,34.1,53.8,34,54.3,34L54.3,34z M46.7,44.6V34.1h4.5
		v1.1H48v3.5h2.8v1.1H48v3.6h3.3v1.1L46.7,44.6L46.7,44.6z M42.3,39.3h0.8c0.3,0,0.7,0,0.9-0.1c0.2-0.1,0.3-0.2,0.5-0.5
		c0.1-0.2,0.2-0.3,0.2-0.7c0-0.2,0-0.5,0-0.8c0-0.2,0-0.6,0-0.8c0-0.2-0.1-0.5-0.2-0.7c-0.1-0.2-0.2-0.3-0.5-0.5
		c-0.2-0.1-0.5-0.1-0.8-0.1h-0.8v4.1H42.3z"/>
</g>
</svg>
