<?xml version="1.0" encoding="utf-8"?>
<!-- Generator: Adobe Illustrator 17.1.0, SVG Export Plug-In . SVG Version: 6.00 Build 0)  -->
<!DOCTYPE svg PUBLIC "-//W3C//DTD SVG 1.1//EN" "http://www.w3.org/Graphics/SVG/1.1/DTD/svg11.dtd">
<svg version="1.1" id="Слой_1" xmlns="http://www.w3.org/2000/svg" xmlns:xlink="http://www.w3.org/1999/xlink" x="0px" y="0px"
	 viewBox="0 0 192.1 133.3" enable-background="new 0 0 192.1 133.3" xml:space="preserve" width='220px' height='144px'>
<g>
	<g>
		<path fill-rule="evenodd" clip-rule="evenodd" fill="#49B5DE" d="M99.5,42.8c0.8,0,1.5,0.7,1.5,1.5c0,0.5-0.3,1-0.7,1.2V49
			l-2.5,2.5v4.8c0,0.4-0.4,0.8-0.8,0.8c-0.4,0-0.8-0.4-0.8-0.8v-5.2l0,0v0c0-0.1,0-0.1,0-0.2l0,0l0,0l0,0l0,0l0,0l0,0l0,0l0,0l0,0
			l0,0l0,0l0,0l0,0l0,0l0,0l0,0l0,0l0,0l0,0l0,0l0,0l0,0l0,0l0,0c0,0,0,0,0.1-0.1l0,0l0,0l0,0l0,0l0,0l0,0l2.2-2.2v-2.9
			c-0.4-0.3-0.7-0.7-0.7-1.2C98,43.4,98.7,42.8,99.5,42.8L99.5,42.8z M91.5,0c-3.6,1.3-7.1,3.2-9.9,5.7c-3.1,2.7-5.6,6.1-7.2,9.9
			c-1,2.4-1.7,4.9-2,7.5C71.8,30.1,74.6,36.3,80,41c0.8,0.7,1.6,1.4,2.3,2.1c0.5,0.6,1,1.1,1.3,1.9c0,0,0,0.1,0.1,0.1
			c-0.3,0.4-0.6,0.8-0.9,1.1c0-0.3-0.1-0.6-0.2-0.8c-0.2-0.6-0.6-1-1-1.5c-0.7-0.7-1.5-1.4-2.3-2c-5.7-4.9-8.6-11.4-7.9-18.9
			c0.3-2.7,1-5.3,2-7.8c2.6-5.9,6.2-10,11.8-13.1c-7.5,2.4-19.3,9.8-21.3,20.2c-0.1-0.2-0.4-0.7-0.6-1.1c-2.9,6.5-4.2,16.9-1,22.1
			c-0.5-0.2-0.9-0.4-1.1-0.7c0.8,3.9,2.2,10.7,8,10.6c-1.4,0.3-2.9,0.3-3.9,0.1c1.4,2.5,3.7,6,7.1,5.8c-0.5,0.4-1.6,0.7-2.2,0.8
			c1.1,1.2,3.1,3.6,6.3,3.2c-0.4,0.4-1.1,0.6-2,0.7c1.5,1.2,3.1,2.2,4.8,3.1c0.2,0.5,0.5,1.1,0.7,1.6c-2.7-1.3-5.3-3-7.6-5
			c0.3,0,0.5,0,0.7-0.1c-2.5-0.9-3.7-2.7-4.8-4c0.3,0,0.5,0,0.7-0.1c-2.6-1.3-4.4-4.8-5.6-7c0.3,0.1,0.8,0.1,1,0
			c-3.1-2.9-4.1-7.7-4.7-11.6c0.2,0.1,0.3,0.2,0.4,0.2c-1.3-5.7-1.1-13.3,3.1-21.7c0.1,0.2,0.2,0.3,0.4,0.4C67.6,8.5,79.4,1,91.5,0
			L91.5,0z M107.1,79.4c-0.6,0.4-1.2,0.8-1.4,1.6c-0.9,0.5-1.6,0.8-2.9,1c1.3,0.2,2.5,0.1,3.8-0.2C106.5,80.9,106.7,80,107.1,79.4
			L107.1,79.4z M110,75.8c0,0.4,0,0.9,0,1.2c-0.4,0.3-1.2,0.6-1.9,0.7c1.3,0.2,2.5,0.1,3.6-0.4C111,77,110.5,76.6,110,75.8L110,75.8
			z M107.4,78.7c2,0.6,4.3,0.6,6.5-1.1c-1.9-1.1-3.5-2.6-4.5-4.5l0.9-0.8c1.1,2.3,3.1,4,5.6,5c-1.6,2-4.2,3.1-6.4,2.9
			c-0.8,0.9-1.1,2.6-0.3,3.7c-4.1,0.5-6.5,1.2-9.3-1l0.2-1.3c1,0.7,1.7,1.3,2.9,1.5c0.8,0.1,1.7,0.1,2.5,0c0.7-0.1,1.3-0.2,2-0.2
			c-0.1-1.1,0.1-2.3,0.8-3.1C108,79.4,107.6,79.2,107.4,78.7L107.4,78.7z M85,79.4c0.6,0.4,1.2,0.8,1.4,1.6c0.9,0.5,1.6,0.8,2.9,1
			c-1.3,0.2-2.5,0.1-3.8-0.2C85.5,80.9,85.3,80,85,79.4L85,79.4z M82,75.8c0,0.4,0,0.9,0,1.2c0.4,0.3,1.2,0.6,1.9,0.7
			c-1.3,0.2-2.5,0.1-3.6-0.4C81.1,77,81.5,76.6,82,75.8L82,75.8z M84.6,78.7c-2,0.6-4.3,0.6-6.5-1.1c1.9-1.1,3.5-2.6,4.5-4.5
			l-0.9-0.8c-1.1,2.3-3.1,4-5.6,5c1.6,2,4.2,3.1,6.4,2.9c0.8,0.9,1.1,2.6,0.3,3.7c4.1,0.5,6.5,1.2,9.3-1L92,81.5
			c-1,0.7-1.7,1.3-2.9,1.5c-0.8,0.1-1.7,0.1-2.5,0c-0.7-0.1-1.3-0.2-2-0.2c0.1-1.1-0.1-2.3-0.8-3.1C84.1,79.4,84.4,79.2,84.6,78.7
			L84.6,78.7z M108.4,45.1c0.3,0.4,0.6,0.8,0.9,1.1c0-0.3,0.1-0.6,0.2-0.8c0.2-0.6,0.6-1,1-1.5c0.7-0.7,1.5-1.4,2.3-2
			c5.7-4.9,8.6-11.4,7.9-18.9c-0.3-2.7-1-5.3-2-7.8c-2.6-5.9-6.2-10-11.8-13.1c7.5,2.4,19.3,9.8,21.3,20.2c0.1-0.2,0.4-0.7,0.6-1.1
			c2.9,6.5,4.2,16.9,1,22.1c0.5-0.2,0.9-0.4,1.1-0.7c-0.8,3.9-2.2,10.7-7.9,10.6c1.4,0.3,2.9,0.3,3.9,0.1c-1.4,2.5-3.7,6-7.1,5.8
			c0.5,0.4,1.6,0.7,2.2,0.8c-1.1,1.2-3.1,3.6-6.3,3.2c0.4,0.4,1.1,0.6,2,0.7c-1.5,1.2-3.1,2.2-4.8,3.1c-0.2,0.5-0.5,1.1-0.7,1.6
			c2.7-1.3,5.3-3,7.6-5c-0.3,0-0.5,0-0.7-0.1c2.5-0.9,3.7-2.7,4.8-4c-0.3,0-0.5,0-0.7-0.1c2.6-1.3,4.4-4.8,5.6-7
			c-0.3,0.1-0.8,0.1-1,0c3.1-2.9,4.1-7.7,4.7-11.6c-0.2,0.1-0.3,0.2-0.4,0.2c1.3-5.7,1.1-13.3-3.1-21.7c-0.1,0.2-0.2,0.3-0.4,0.4
			C124.5,8.5,112.7,1,100.5,0c3.6,1.3,7.1,3.2,9.9,5.7c3.1,2.7,5.6,6.1,7.2,9.9c1,2.4,1.7,4.9,2,7.5c0.7,7.1-2.1,13.3-7.5,17.9
			c-0.8,0.7-1.6,1.4-2.3,2.1c-0.5,0.6-1,1.1-1.3,1.9C108.5,45,108.5,45,108.4,45.1L108.4,45.1z M94.7,36.8c-1.2-0.4-1.6-1.6-1.1-2.9
			c0,0.9,0.3,1.6,1,1.9c0.7-0.5,0.9-1.2,0.7-2.1C96,35,95.8,36.3,94.7,36.8L94.7,36.8z M103.4,31.2c-0.6-0.3-1.2-0.4-1.8-0.4
			c-0.3,0-0.6-0.2-0.5-0.8c-0.6,1.4-0.8,2.2-2.6,1.8c-1-0.2-1.5,0.6-1.3,1.5c0.1,0.5,0.3,1.3-0.2,1.8c-0.2-0.8-0.7-1.2-1.2-1.5
			c0.8,1.3,0.5,2.1,0.3,2.5c2.1-0.4,2.1,1.3,1.8,2.1c0.5,0,1,0.1,1.4,0.1c-0.5-1.7-0.9-3.4-1.1-5.2c0-0.3,0-0.4,0.2-0.3
			c1.2,0.2,2.3,0,3-1c1.2-0.1,2.1,0.3,3,0.9c0.2-1.9,0.3-3.7-2-4.4c-0.3-1.1-1.2-1.5-2.3-1.4c-1.5-2.3-6.8,0.1-8.9-1.4
			c-0.7-0.5-0.9-1.4-1-2.2c-0.7,0.7-1.3,1.2-1.6,2.2c-0.5,1.4-0.2,3.1,0.7,4.3c0.6,0.8,1.5,1.4,2.4,1.6c-0.1,0.1-0.2,0.2-0.2,0.3
			c-1.2,1.9-1,4.7-1,6.9c0.3-0.1,0.7-0.1,1-0.2c-0.3-1,0-2.2,1.5-2.3c-0.2-0.4-0.5-1.2,0.3-2.5c-0.5,0.2-1,0.7-1.2,1.5
			c-0.4-0.6-0.4-1.2-0.2-1.7c0.1-0.3,0.2-0.5,0.3-0.7c0,0,0-0.1,0-0.1c1-2,4.6-0.7,5.6-3.8c-0.3,0.4-0.7,0.7-1.1,0.9
			c-0.6,0.3-1.1-0.9-1.9-0.9c0.3,0.2,0.4,0.6,0.4,1c-0.1,0.4-0.3,0.5-0.6,0.2c-0.3-0.3-0.5-0.9-1.1-1c0.3,0.3,0.3,0.7,0.2,1
			c-0.1,0.4-0.4,0.6-0.7,0.2c-0.2-0.2-0.3-0.6-0.6-0.8c0.1,0.5-0.4,1-1,0.7c-0.9-0.4-1.5-1-1.9-1.9c-0.3-0.9-0.3-1.9,0.1-2.7
			c0,0,0,0,0-0.1c1.9,3.5,8.7,0.1,9.6,2.3l0.1,0.4l0.4,0c0.7-0.1,1.5-0.1,1.6,0.8l0,0.4l0.3,0.1C102.9,29.5,103.4,30.2,103.4,31.2
			L103.4,31.2z M92.5,38.3c0.2-0.4,0.5-0.6,0.7-0.8c-0.1,0.3-0.2,0.5-0.3,0.8C92.8,38.3,92.7,38.3,92.5,38.3L92.5,38.3z M96.7,38.2
			c-0.1-0.3-0.4-0.7-0.7-1.1c0.5,0.1,1,0.4,1.4,1.1C97.2,38.2,96.9,38.2,96.7,38.2L96.7,38.2z M93.6,38.2c0-0.2,0.1-0.4,0.1-0.6
			c0,0.2,0,0.4,0.1,0.5L93.6,38.2L93.6,38.2z M95.7,38.2c0-0.2-0.1-0.5-0.1-0.8c0.2,0.3,0.3,0.5,0.4,0.8L95.7,38.2L95.7,38.2z
			 M70.3,26.8c-0.2,6.5,2.5,12,8.2,17.3c1.2,1.3,1.3,2.7,1.7,4c0.2-0.1,0.4-0.2,0.6-0.4c-0.1-0.6-0.1-1.1-0.2-1.5
			c0.3,0.2,0.5,0.6,0.7,1.2c0.2-0.1,0.3-0.3,0.5-0.4c0-0.2-0.1-0.4-0.1-0.6c0-0.2-0.1-0.5-0.2-0.7c-0.4-1-2.2-2.4-3-3.1
			C73.7,38.4,70.7,33,70.3,26.8L70.3,26.8z M70.6,36.6c-6.9-6.2-5.2-16.9,0.1-21.4c-0.6,2.5-0.7,5-0.4,7.6c0.3-2.8,1-5.5,2.1-8.1
			c1.3-3,3.2-6,5.6-8.6c-5.2,3.3-10.5,8.3-12.5,14C63.8,25.3,64.6,32.9,70.6,36.6L70.6,36.6z M63,25.5c-2.9,9.5-2,21.1,7.1,18.6
			c-5.6,0.2-7.6-3.3-7.1-11c1.4,3.4,4.4,5.2,7.2,6.1C65.8,36.1,63.2,32.7,63,25.5L63,25.5z M62.9,45.4c1.4,7.1,6,7.4,8.7,4.8
			c-3.2,1.7-5.4,0.2-6.4-2.2c2.6,0.2,3.9-0.5,5.2-1.6C68.1,47.1,65.7,47.2,62.9,45.4L62.9,45.4z M67.3,54.8c3.3,5.1,6.7,2.6,7.6,0.8
			c-1.5,1.3-3.7,1.5-4.8,0.1c1.4-0.6,2.4-1.7,2.9-2.8C71.3,54.2,69.4,54.8,67.3,54.8L67.3,54.8z M76.1,56.9c-0.9,1.8-2.3,3-4.1,3.5
			c1.7,1.9,4.4,2.2,5.5,0.7c0-0.3-0.1-0.5-0.1-0.8c-0.7,0.8-1.8,1.1-2.9,0.3C75.4,59.5,75.9,58.3,76.1,56.9L76.1,56.9z M78.4,64.6
			c-0.1-0.4-0.2-0.8-0.3-1.1c-0.4,0.5-0.8,0.7-1.4,0.8C77.5,64.8,78.1,64.9,78.4,64.6L78.4,64.6z M71.1,38.7c-1.2,6.4,2,5.7,3.9,5.5
			c-1.8-0.3-3.3-1-3.2-2.9C72.7,41.9,74,42,75,42C72.7,41.1,71.6,39.3,71.1,38.7L71.1,38.7z M71.2,45.1c-0.1,5.7,3.4,4.3,4.6,3.1
			c-1.7,0.6-3.1,0.3-3.2-1.3c1.4,0.1,2.3-0.5,2.9-1.1C72.9,46.5,71.8,45.6,71.2,45.1L71.2,45.1z M72.5,50.8c1.6,4,3.4,2.9,4.4,1.5
			c0-0.2,0-0.3,0-0.5c-1.1,0.9-2.1,1-2.5,0.1c1.3-0.6,1.8-1.6,2-2.4C74.6,51.2,73.2,50.9,72.5,50.8L72.5,50.8z M75,54.8
			c0.8,1.2,1.5,1.8,2,2.1c-0.1-0.8-0.1-1.7-0.1-2.5C76.1,54.9,75.4,54.8,75,54.8L75,54.8z M75.8,44.1c0.1,4.2,2.1,3.4,3.2,2.9
			c-1.1,0.1-2.2-0.1-2.2-1.4c0.7,0.2,1.3,0.1,1.9,0C77.1,45.4,76.1,44.4,75.8,44.1L75.8,44.1z M76.5,48.2c0.2,0.7,0.4,1.2,0.6,1.6
			l0-0.3l0.5-0.2c0-0.1,0-0.1-0.1-0.2c0.9-0.2,1.3-0.7,1.6-1.2C77.7,48.8,76.9,48.4,76.5,48.2L76.5,48.2z M68.7,20.4
			c-1.7,3.2-2,9.6,1.8,14.1c-0.9-1.2-2.2-5.4-1.7-8.8C68.3,24.2,68.2,22.3,68.7,20.4L68.7,20.4z M64.5,38.2c0.6,2.8,2.1,4.5,4.8,4.6
			c-1.1-0.5-2-1-2.5-1.8c0.7,0.1,1.5,0.1,2.3-0.2C67.2,40.5,65.7,39.5,64.5,38.2L64.5,38.2z M68.2,49.2c0.7,0.6,1.6,0.7,2.5,0.3
			c-0.3,0-0.6-0.1-0.8-0.3c0.2-0.2,0.3-0.5,0.3-0.7C69.7,49,68.9,49.2,68.2,49.2L68.2,49.2z M72,55.5c0.7,0.1,1.5,0.2,2.1-0.5
			c-0.3,0.1-0.5,0.1-0.7,0c0.1-0.3,0.1-0.6,0-0.9C73.2,54.7,72.7,55.2,72,55.5L72,55.5z M75.9,59.9c0.5-0.1,1-0.3,1.3-0.7
			c0-0.1,0-0.2,0-0.4c-0.1,0-0.2,0.1-0.3,0c0-0.2-0.2-0.6-0.4-0.8C76.6,58.7,76.3,59.4,75.9,59.9L75.9,59.9z M121.8,26.8
			c0.2,6.5-2.5,12-8.2,17.3c-1.2,1.3-1.3,2.7-1.7,4c-0.2-0.1-0.4-0.2-0.6-0.4c0.1-0.6,0.1-1.1,0.2-1.5c-0.3,0.2-0.5,0.6-0.7,1.2
			c-0.2-0.1-0.3-0.3-0.5-0.4c0-0.2,0.1-0.4,0.1-0.6c0-0.2,0.1-0.5,0.2-0.7c0.4-1,2.2-2.4,3-3.1C118.4,38.4,121.3,33,121.8,26.8
			L121.8,26.8z M121.4,36.6c6.9-6.2,5.2-16.9-0.1-21.4c0.6,2.5,0.7,5,0.4,7.6c-0.3-2.8-1-5.5-2.1-8.1c-1.3-3-3.2-6-5.6-8.6
			c5.2,3.3,10.5,8.3,12.5,14C128.3,25.3,127.5,32.9,121.4,36.6L121.4,36.6z M129,25.5c2.9,9.5,2,21.1-7.1,18.6
			c5.6,0.2,7.6-3.3,7.1-11c-1.4,3.4-4.4,5.2-7.2,6.1C126.2,36.1,128.8,32.7,129,25.5L129,25.5z M129.1,45.4c-1.4,7.1-6,7.4-8.7,4.8
			c3.2,1.7,5.4,0.2,6.4-2.2c-2.6,0.2-3.9-0.5-5.2-1.6C124,47.1,126.4,47.2,129.1,45.4L129.1,45.4z M124.7,54.8
			c-3.3,5.1-6.7,2.6-7.6,0.8c1.5,1.3,3.7,1.5,4.8,0.1c-1.4-0.6-2.4-1.7-2.9-2.8C120.8,54.2,122.7,54.8,124.7,54.8L124.7,54.8z
			 M116,56.9c0.9,1.8,2.3,3,4.1,3.5c-1.7,1.9-4.4,2.2-5.5,0.7c0-0.3,0.1-0.5,0.1-0.8c0.7,0.8,1.8,1.1,2.9,0.3
			C116.7,59.5,116.2,58.3,116,56.9L116,56.9z M113.7,64.6c0.1-0.4,0.2-0.8,0.3-1.1c0.4,0.5,0.8,0.7,1.4,0.8
			C114.5,64.8,114,64.9,113.7,64.6L113.7,64.6z M121,38.7c1.2,6.4-2,5.7-3.9,5.5c1.8-0.3,3.3-1,3.2-2.9c-0.9,0.6-2.2,0.8-3.2,0.8
			C119.4,41.1,120.4,39.3,121,38.7L121,38.7z M120.8,45.1c0.1,5.7-3.4,4.3-4.6,3.1c1.7,0.6,3.1,0.3,3.2-1.3
			c-1.4,0.1-2.3-0.5-2.9-1.1C119.1,46.5,120.3,45.6,120.8,45.1L120.8,45.1z M119.5,50.8c-1.6,4-3.4,2.9-4.4,1.5c0-0.2,0-0.3,0-0.5
			c1.1,0.9,2.1,1,2.5,0.1c-1.3-0.6-1.8-1.6-2-2.4C117.4,51.2,118.8,50.9,119.5,50.8L119.5,50.8z M117.1,54.8c-0.8,1.2-1.5,1.8-2,2.1
			c0.1-0.8,0.1-1.7,0.1-2.5C115.9,54.9,116.6,54.8,117.1,54.8L117.1,54.8z M116.3,44.1c-0.1,4.2-2.1,3.4-3.2,2.9
			c1.1,0.1,2.2-0.1,2.2-1.4c-0.7,0.2-1.3,0.1-1.9,0C115,45.4,115.9,44.4,116.3,44.1L116.3,44.1z M115.6,48.2
			c-0.2,0.7-0.4,1.2-0.6,1.6l0-0.3l-0.5-0.2c0-0.1,0-0.1,0.1-0.2c-0.9-0.2-1.3-0.7-1.6-1.2C114.3,48.8,115.2,48.4,115.6,48.2
			L115.6,48.2z M123.3,20.4c1.7,3.2,2,9.6-1.8,14.1c0.9-1.2,2.2-5.4,1.7-8.8C123.7,24.2,123.9,22.3,123.3,20.4L123.3,20.4z
			 M127.5,38.2c-0.6,2.8-2.1,4.5-4.8,4.6c1.1-0.5,2-1,2.5-1.8c-0.7,0.1-1.5,0.1-2.3-0.2C124.9,40.5,126.4,39.5,127.5,38.2
			L127.5,38.2z M123.9,49.2c-0.7,0.6-1.6,0.7-2.5,0.3c0.3,0,0.6-0.1,0.8-0.3c-0.2-0.2-0.3-0.5-0.3-0.7
			C122.4,49,123.1,49.2,123.9,49.2L123.9,49.2z M120.1,55.5c-0.7,0.1-1.5,0.2-2.1-0.5c0.3,0.1,0.5,0.1,0.7,0c-0.1-0.3-0.1-0.6,0-0.9
			C118.8,54.7,119.4,55.2,120.1,55.5L120.1,55.5z M116.2,59.9c-0.5-0.1-1-0.3-1.3-0.7c0-0.1,0-0.2,0-0.4c0.1,0,0.2,0.1,0.3,0
			c0-0.2,0.2-0.6,0.4-0.8C115.5,58.7,115.7,59.4,116.2,59.9L116.2,59.9z M96.1,27.5c1.4,0.7,2.4,0.1,3.2,0.5
			c0.6,0.3,0.9,1.5,0.1,1.7c0-0.6-0.5-0.5-0.8-0.5c-0.3,0-0.6-0.3-0.6-0.6c0-0.1,0-0.2,0.1-0.3C97.4,28.3,96.6,28.2,96.1,27.5
			L96.1,27.5z M90.4,27.2c-0.1,1,0.3,1.8,1.2,2.3c-0.2-0.4-0.3-0.8-0.4-1.3c1.5,0.2,3.1-0.1,4.4-0.7C93.6,28,91.9,27.8,90.4,27.2
			L90.4,27.2z M107.6,63.3c0.8,0.4,1.6,0.4,2.4,0.2c0.8-0.2,1.5-0.6,2-1.3c0.7-0.8,0.9-1.8,0.8-2.7c-0.1-0.7-0.4-1.5-0.9-2.1
			c0.2-0.4,0.3-0.8,0.4-1.3c0.1-0.8,0.1-1.6-0.2-2.3c-0.3-0.7-0.7-1.3-1.3-1.9c-0.6-0.5-1.4-0.8-2.1-1c-0.8-0.1-1.6,0-2.3,0.2
			c-0.5,0.2-1,0.5-1.4,0.8c-0.7-0.4-1.4-0.5-2.1-0.4c-0.9,0.1-1.9,0.5-2.5,1.3c-0.5,0.6-0.8,1.4-0.9,2.2c0,0.8,0.2,1.6,0.7,2.3
			c0.2,0.4,0.7,0.4,1.1,0.2c0.4-0.2,0.4-0.7,0.2-1.1c-0.3-0.4-0.4-0.9-0.4-1.3c0-0.5,0.2-0.9,0.5-1.3c0.4-0.5,0.9-0.7,1.5-0.8
			c0.3,0,0.7,0,1,0.1c-0.2,0.4-0.4,0.9-0.5,1.3c-0.1,0.4,0.2,0.8,0.6,0.9c0.4,0.1,0.8-0.2,0.9-0.6c0.1-0.5,0.3-1,0.6-1.3
			c0.3-0.4,0.8-0.7,1.2-0.9c0.5-0.2,1-0.2,1.5-0.1c0.5,0.1,0.9,0.3,1.3,0.6c0.4,0.3,0.7,0.8,0.9,1.2c0.2,0.5,0.2,1,0.1,1.5
			c-0.1,0.5-0.3,1-0.6,1.4c-0.3,0.4-0.7,0.7-1.2,0.8c-0.4,0.1-0.6,0.6-0.5,1c0.1,0.4,0.6,0.6,1,0.5c0.6-0.2,1-0.5,1.4-0.9
			c0.2,0.3,0.3,0.6,0.3,0.9c0.1,0.6-0.1,1.1-0.5,1.6c-0.3,0.4-0.7,0.6-1.2,0.7c-0.5,0.1-0.9,0.1-1.4-0.1c-0.4-0.2-0.9,0-1,0.4
			C107,62.7,107.2,63.2,107.6,63.3L107.6,63.3z M106.8,64.9c0,0.3,0,0.5,0,0.8l0,0.3l-2.3,1l-0.1,0.4c-0.1,0.3-0.2,0.6-0.3,0.9
			c-0.1,0.3-0.3,0.6-0.4,0.9l-0.2,0.3l0.9,2.3c-0.2,0.3-0.5,0.6-0.7,0.8c-0.3,0.3-0.5,0.5-0.8,0.7l-2.3-0.9l-0.3,0.2
			c-0.3,0.1-0.6,0.3-0.9,0.4c-0.3,0.1-0.6,0.2-0.9,0.3l-0.4,0.1l-1,2.3l-0.3,0c-0.2,0-0.5,0-0.8,0c-0.3,0-0.5,0-0.8,0l-0.3,0l-1-2.3
			l-0.4-0.1c-0.3-0.1-0.6-0.2-0.9-0.3c-0.3-0.1-0.6-0.3-0.9-0.4l-0.3-0.2l-2.3,0.9c-0.3-0.2-0.6-0.5-0.8-0.7
			c-0.3-0.3-0.5-0.5-0.7-0.8l0.9-2.3l-0.2-0.3c-0.1-0.3-0.3-0.6-0.4-0.9c-0.1-0.3-0.2-0.6-0.3-0.9l-0.1-0.4l-2.3-1l0-0.3
			c0-0.2,0-0.5,0-0.8c0-0.4-0.4-0.8-0.8-0.8c-0.4,0-0.8,0.4-0.8,0.8c0,0.3,0,0.6,0,0.9c0,0.3,0.1,0.6,0.1,0.9l0.1,0.4l2.4,1.1
			c0.1,0.2,0.2,0.5,0.3,0.7c0.1,0.2,0.2,0.5,0.3,0.7l-1,2.4l0.3,0.4c0.4,0.5,0.7,0.9,1.2,1.3c0.4,0.4,0.9,0.8,1.3,1.2l0.3,0.3l2.5-1
			c0.2,0.1,0.5,0.2,0.7,0.3c0.2,0.1,0.5,0.2,0.7,0.3l1,2.4l0.4,0.1c0.3,0,0.6,0.1,0.9,0.1c0.3,0,0.6,0,0.9,0c0.3,0,0.6,0,0.9,0
			c0.3,0,0.6-0.1,0.9-0.1l0.4-0.1l1.1-2.4c0.2-0.1,0.5-0.2,0.7-0.3c0.2-0.1,0.5-0.2,0.7-0.3l2.4,1l0.4-0.3c0.5-0.4,0.9-0.7,1.3-1.2
			c0.4-0.4,0.8-0.9,1.2-1.3l0.3-0.3l-1-2.5c0.1-0.2,0.2-0.5,0.3-0.7c0.1-0.2,0.2-0.5,0.3-0.7l2.4-1l0.1-0.4c0-0.3,0.1-0.6,0.1-0.9
			c0-0.3,0-0.6,0-0.9c0-0.4-0.4-0.8-0.8-0.8C107.2,64.2,106.8,64.5,106.8,64.9L106.8,64.9z M85.2,56.8c1.3-4.4-1.9-4.1-2.9-6.1
			C83.2,52.8,80.9,55,85.2,56.8L85.2,56.8z M105.1,57.9c-0.3,0.4-0.6,0.8-0.8,1.1c-0.1,0.2-0.3,0.4-0.4,0.5
			c-0.3-0.2-0.5-0.3-0.8-0.5c-0.5-0.2-1.1-0.4-1.7-0.5c-0.4-0.1-0.8,0.2-0.9,0.6c-0.1,0.4,0.2,0.8,0.6,0.9c0.4,0.1,0.9,0.2,1.3,0.4
			c0.2,0.1,0.3,0.2,0.5,0.3c-1.4,1.6-3,3.1-4.8,4.4c-0.7,0.6-1.5,1.1-2.3,1.6c-0.2-0.1-0.4-0.3-0.6-0.4c-0.4-0.2-0.8-0.2-1.1,0.2
			c-0.2,0.4-0.2,0.8,0.2,1.1c-0.8,0.5-1.7,0.9-2.6,1.3c-0.4,0.2-0.6,0.6-0.4,1c0.2,0.4,0.6,0.6,1,0.4c1.2-0.5,2.3-1.1,3.4-1.7
			c0.4,0.2,0.8,0.5,1.2,0.7c0.9,0.5,1.8,1,2.8,1.4c0.4,0.2,0.9,0,1-0.4c0.2-0.4,0-0.9-0.4-1c-0.9-0.4-1.8-0.8-2.7-1.3
			c-0.1-0.1-0.3-0.2-0.4-0.2c0.6-0.4,1.2-0.8,1.8-1.2c1.8-1.4,3.5-3,5-4.7c0.1,0.1,0.2,0.3,0.4,0.4c0.3,0.4,0.5,0.8,0.6,1.2
			c0.1,0.4,0.6,0.6,1,0.5c0.4-0.1,0.6-0.6,0.5-1c-0.2-0.5-0.5-1.1-0.8-1.5c-0.2-0.3-0.4-0.5-0.6-0.8c0.2-0.2,0.3-0.4,0.5-0.6
			c0.3-0.4,0.6-0.8,0.9-1.2c0.2-0.4,0.2-0.8-0.2-1.1C105.9,57.5,105.4,57.5,105.1,57.9L105.1,57.9z M94.2,61.5
			c1.9,2.9-0.4,3.2-0.6,4.8C92.3,63.5,94,63.1,94.2,61.5L94.2,61.5z M87.5,65.7c3,2.8,3.8,0.2,5.7,0.3
			C90.3,63.9,89.4,65.8,87.5,65.7L87.5,65.7z M84.9,62.7c2.7,3.6,4,1,6,1.5C88.2,61.3,86.9,63.2,84.9,62.7L84.9,62.7z M90.5,57.7
			c-0.1,1.8-2,2.4-0.3,5.5C90.3,61.4,92.9,60.9,90.5,57.7L90.5,57.7z M89.1,55.1c-0.2,1.9-2.3,2.4-0.7,5.8
			C88.7,59,91.4,58.7,89.1,55.1L89.1,55.1z M82.9,59.8c2.3,3.9,3.9,1.4,5.9,2.1C86.3,58.8,84.8,60.5,82.9,59.8L82.9,59.8z
			 M81.2,56.6c1.7,4.2,3.7,2,5.5,2.9C84.8,56.1,83,57.6,81.2,56.6L81.2,56.6z M87,52.7c-0.1,2.1-2.2,2.8-0.2,6.2
			C86.8,56.8,89.7,56.3,87,52.7L87,52.7z M92.6,59.4c-0.2,1.8-2.2,2.3-0.6,5.5C92.2,63,94.7,62.8,92.6,59.4L92.6,59.4z M92.9,54.2
			v3.9l4.4,4.4c0.3,0.3,0.8,0.3,1.1,0c0.3-0.3,0.3-0.8,0-1.1l-3.9-3.9v-7.2l2.5-2.5v-2.3c0.4-0.3,0.7-0.7,0.7-1.2
			c0-0.8-0.7-1.5-1.5-1.5c-0.8,0-1.5,0.7-1.5,1.5c0,0.5,0.3,1,0.7,1.2v1.7l-2.5,2.5V52l-1.8-1.8v-4.7c0.4-0.3,0.7-0.7,0.7-1.2
			c0-0.8-0.7-1.5-1.5-1.5c-0.8,0-1.5,0.7-1.5,1.5c0,0.5,0.3,1,0.7,1.2v5.4L92.9,54.2L92.9,54.2z M99.5,43.8c-0.3,0-0.5,0.2-0.5,0.5
			c0,0.3,0.2,0.5,0.5,0.5c0.3,0,0.5-0.2,0.5-0.5C100,44,99.8,43.8,99.5,43.8L99.5,43.8z M96.1,43.8c-0.3,0-0.5,0.2-0.5,0.5
			c0,0.3,0.2,0.5,0.5,0.5c0.3,0,0.5-0.2,0.5-0.5C96.6,44,96.4,43.8,96.1,43.8L96.1,43.8z M90.3,43.8c-0.3,0-0.5,0.2-0.5,0.5
			c0,0.3,0.2,0.5,0.5,0.5c0.3,0,0.5-0.2,0.5-0.5C90.8,44,90.6,43.8,90.3,43.8z"/>
		<path fill-rule="evenodd" clip-rule="evenodd" fill="#49B5DE" d="M96,85.1c14.4-6.9,22.5-18.2,20.3-36.8c-5.1-1.3-8.1-4.3-8.5-9.4
			c-3.5-1.5-7.5-2.3-11.8-2.3c-4.3,0-8.3,0.7-11.8,2.3c-0.5,5-3.5,8.1-8.5,9.4C73.5,66.9,81.6,78.2,96,85.1L96,85.1z M86.5,40.6
			c3-1.1,6.3-1.6,9.6-1.6c3.2,0,6.5,0.5,9.6,1.6c0.9,4.8,4,7.9,8.5,9.5c1.3,15.1-4.6,25.5-18,32.3c-13.4-6.8-19.4-17.2-18-32.3
			C82.5,48.5,85.6,45.4,86.5,40.6z"/>
	</g>
	<g>
		<path fill-rule="evenodd" clip-rule="evenodd" fill="#49B5DE" d="M40.1,98.2l1.2-5.1h1l-1.8,7.1c-0.1,0.5-0.3,0.9-0.4,1.2
			c-0.1,0.3-0.3,0.5-0.5,0.7c-0.2,0.1-0.3,0.2-0.5,0.3c-0.2,0-0.3,0.1-0.5,0.1h-0.5v-0.8h0.5c0.2,0,0.4-0.1,0.5-0.3
			c0.2-0.2,0.3-0.5,0.4-0.9l0.1-0.6l-2-6.7h1L40.1,98.2L40.1,98.2L40.1,98.2z M39.2,91.3c0,0.1,0,0.2,0.1,0.3c0,0.1,0.1,0.2,0.2,0.3
			c0.1,0.1,0.2,0.2,0.3,0.2c0.1,0.1,0.2,0.1,0.4,0.1c0.1,0,0.3,0,0.4-0.1c0.1-0.1,0.2-0.1,0.3-0.2c0.1-0.1,0.1-0.2,0.2-0.3
			c0-0.1,0.1-0.2,0.1-0.3h0.8c0,0.2-0.1,0.3-0.1,0.5c-0.1,0.2-0.2,0.4-0.3,0.5c-0.1,0.2-0.3,0.3-0.5,0.4c-0.2,0.1-0.5,0.2-0.8,0.2
			c-0.3,0-0.6-0.1-0.8-0.2c-0.2-0.1-0.4-0.2-0.5-0.4c-0.1-0.2-0.2-0.3-0.3-0.5c-0.1-0.2-0.1-0.4-0.1-0.5H39.2L39.2,91.3z M44.6,93
			c0.3,0,0.6,0,0.9,0.1c0.3,0.1,0.5,0.2,0.7,0.4c0.2,0.2,0.3,0.4,0.4,0.7c0.1,0.3,0.2,0.7,0.2,1.2c0,0.2,0,0.3,0,0.5
			c0,0.2-0.1,0.4-0.1,0.6c-0.1,0.2-0.1,0.4-0.2,0.6c-0.1,0.2-0.2,0.3-0.4,0.4v0c0.2,0.1,0.3,0.2,0.4,0.4c0.1,0.2,0.2,0.3,0.2,0.5
			c0.1,0.2,0.1,0.4,0.1,0.6c0,0.2,0,0.4,0,0.6c0,0.9-0.2,1.6-0.5,2c-0.3,0.5-0.9,0.7-1.6,0.7c-0.3,0-0.6,0-0.8-0.1
			c-0.3-0.1-0.5-0.2-0.7-0.4c-0.2-0.2-0.3-0.4-0.4-0.6c-0.1-0.3-0.1-0.6-0.1-0.9l1-0.2c0,0.5,0.1,0.8,0.3,1c0.2,0.2,0.4,0.3,0.8,0.3
			c0.1,0,0.3,0,0.4-0.1c0.1-0.1,0.2-0.1,0.3-0.3c0.1-0.1,0.2-0.3,0.2-0.5c0.1-0.2,0.1-0.5,0.1-0.9c0-0.2,0-0.4,0-0.6
			c0-0.2-0.1-0.4-0.2-0.5c-0.1-0.1-0.2-0.3-0.3-0.4C45,98,44.8,98,44.7,98h-0.6v-0.9h0.6c0.2,0,0.3,0,0.5-0.1
			c0.1-0.1,0.2-0.2,0.3-0.3c0.1-0.1,0.1-0.3,0.2-0.5c0-0.2,0.1-0.4,0.1-0.6c0-0.3,0-0.5-0.1-0.7c-0.1-0.2-0.1-0.3-0.2-0.4
			c-0.1-0.1-0.2-0.2-0.4-0.2c-0.1,0-0.3-0.1-0.4-0.1c-0.4,0-0.6,0.1-0.8,0.4c-0.2,0.3-0.2,0.6-0.2,0.9l-1-0.2c0-0.7,0.2-1.2,0.6-1.5
			S44,93,44.6,93L44.6,93z M49.1,101.3h0.7c0.3,0,0.6,0,0.7-0.1c0.2-0.1,0.3-0.2,0.4-0.4c0.1-0.2,0.2-0.4,0.2-0.6c0-0.2,0-0.5,0-0.7
			c0-0.2,0-0.5,0-0.7c0-0.2-0.1-0.4-0.2-0.5c-0.1-0.2-0.2-0.3-0.4-0.4c-0.2-0.1-0.4-0.1-0.8-0.1h-0.7V101.3L49.1,101.3z M49.1,96.8
			h0.8c0.5,0,0.9,0.1,1.2,0.2c0.3,0.1,0.6,0.3,0.7,0.6c0.2,0.2,0.3,0.5,0.4,0.8c0.1,0.3,0.1,0.7,0.1,1.1c0,0.4,0,0.8-0.1,1.2
			c-0.1,0.3-0.2,0.6-0.4,0.9c-0.2,0.2-0.4,0.4-0.7,0.6c-0.3,0.1-0.7,0.2-1.1,0.2h-1.9v-9.2h3.7v1h-2.7V96.8L49.1,96.8z M53.3,102.3
			v-9.2h3.9v1h-2.9v3.1h2.5v1h-2.5v3.2h2.9v1H53.3L53.3,102.3z M58.2,102.3v-9.2h1v4h0.5c0.1,0,0.3,0,0.4,0c0.1,0,0.3-0.1,0.4-0.2
			c0.1-0.1,0.3-0.2,0.4-0.4c0.1-0.2,0.2-0.4,0.3-0.7l0.6-2.7h1l-0.6,2.7c-0.1,0.4-0.2,0.8-0.4,1.1c-0.2,0.3-0.4,0.5-0.7,0.6
			c0.3,0.1,0.6,0.3,0.8,0.7c0.2,0.3,0.3,0.7,0.4,1.2l0.7,3h-1l-0.6-2.8c-0.1-0.3-0.2-0.6-0.3-0.7c-0.1-0.2-0.2-0.3-0.4-0.4
			c-0.1-0.1-0.3-0.2-0.4-0.2c-0.2,0-0.3,0-0.5,0h-0.5v4.2H58.2L58.2,102.3z M67,95.8l-2.3,6.5h-1v-9.2h1v6.5l0.1,0l2.3-6.5h1v9.2h-1
			L67,95.8L67,95.8L67,95.8z M71.4,93c0.7,0,1.2,0.2,1.6,0.6c0.3,0.4,0.5,0.9,0.5,1.5l-1,0.2c0-0.4-0.1-0.7-0.2-1
			C72,94.1,71.8,94,71.4,94c-0.2,0-0.4,0-0.5,0.1c-0.1,0.1-0.2,0.2-0.3,0.4c-0.1,0.1-0.1,0.3-0.2,0.5c0,0.2,0,0.3,0,0.5v4.6
			c0,0.1,0,0.3,0,0.4c0,0.2,0.1,0.3,0.2,0.4c0.1,0.1,0.2,0.2,0.3,0.3c0.1,0.1,0.3,0.1,0.5,0.1c0.3,0,0.6-0.1,0.8-0.3
			c0.2-0.2,0.2-0.5,0.3-1l1.1,0.2c0,0.7-0.2,1.2-0.5,1.5c-0.3,0.4-0.8,0.6-1.5,0.6c-0.7,0-1.2-0.2-1.6-0.6c-0.3-0.4-0.5-0.9-0.5-1.6
			v-4.5c0-0.3,0-0.6,0.1-1c0.1-0.3,0.2-0.6,0.3-0.8c0.1-0.2,0.4-0.4,0.6-0.6C70.6,93.1,71,93,71.4,93L71.4,93z M76.5,94v8.2h-1V94
			h-1.6v-1H78v1H76.5L76.5,94z M82.7,99.8c0,0.8-0.2,1.5-0.5,1.9c-0.3,0.4-0.9,0.7-1.6,0.7c-0.8,0-1.3-0.2-1.6-0.6
			c-0.3-0.4-0.5-1-0.5-1.6v-4.5c0-0.3,0-0.6,0.1-1c0.1-0.3,0.2-0.6,0.3-0.8c0.2-0.2,0.4-0.4,0.6-0.6c0.3-0.1,0.6-0.2,1.1-0.2
			c0.5,0,0.8,0.1,1.1,0.2c0.3,0.1,0.5,0.3,0.6,0.5c0.1,0.2,0.2,0.5,0.3,0.8c0,0.3,0.1,0.6,0.1,1V99.8L82.7,99.8z M81.6,95.4
			c0-0.2,0-0.3,0-0.5c0-0.2-0.1-0.3-0.1-0.5c-0.1-0.1-0.2-0.2-0.3-0.3C81,94,80.8,94,80.6,94c-0.3,0-0.5,0.1-0.6,0.2
			c-0.1,0.1-0.2,0.3-0.3,0.5c-0.1,0.2-0.1,0.4-0.1,0.6c0,0.2,0,0.4,0,0.5v4.5c0,0.1,0,0.3,0,0.4c0,0.1,0.1,0.3,0.2,0.4
			c0.1,0.1,0.2,0.2,0.3,0.3c0.1,0.1,0.3,0.1,0.5,0.1c0.2,0,0.4,0,0.5-0.1c0.1-0.1,0.3-0.2,0.3-0.3c0.1-0.1,0.1-0.3,0.2-0.5
			c0-0.2,0-0.4,0-0.5V95.4L81.6,95.4z M87.2,102.3V98H85v4.2h-1v-9.2h1v4h2.1v-4h1v9.2H87.2L87.2,102.3z M94.1,93.1
			c0.5,0,0.9,0.1,1.1,0.2c0.3,0.1,0.5,0.3,0.7,0.5c0.2,0.2,0.3,0.5,0.4,0.9c0.1,0.3,0.1,0.7,0.1,1.2c0,0.4,0,0.7-0.1,1.1
			c-0.1,0.3-0.2,0.6-0.4,0.9c-0.2,0.3-0.4,0.4-0.7,0.6c-0.3,0.1-0.7,0.2-1.2,0.2h-0.8v3.7h-1v-9.2H94.1L94.1,93.1z M93.3,97.6H94
			c0.3,0,0.6,0,0.8-0.1c0.2-0.1,0.3-0.2,0.4-0.4c0.1-0.2,0.2-0.3,0.2-0.6c0-0.2,0-0.4,0-0.7c0-0.2,0-0.5,0-0.7
			c0-0.2-0.1-0.4-0.2-0.6c-0.1-0.2-0.2-0.3-0.4-0.4C94.6,94.1,94.3,94,94,94h-0.7V97.6L93.3,97.6z M97.4,102.3v-9.2h3.9v1h-2.9v3.1
			h2.5v1h-2.5v3.2h2.9v1H97.4L97.4,102.3z M104.3,93c0.7,0,1.2,0.2,1.6,0.6c0.3,0.4,0.5,0.9,0.5,1.5l-1,0.2c0-0.4-0.1-0.7-0.2-1
			c-0.2-0.2-0.4-0.4-0.8-0.4c-0.2,0-0.4,0-0.5,0.1c-0.1,0.1-0.2,0.2-0.3,0.4c-0.1,0.1-0.1,0.3-0.2,0.5c0,0.2,0,0.3,0,0.5v4.6
			c0,0.1,0,0.3,0,0.4c0,0.2,0.1,0.3,0.2,0.4c0.1,0.1,0.2,0.2,0.3,0.3c0.1,0.1,0.3,0.1,0.5,0.1c0.3,0,0.6-0.1,0.8-0.3
			c0.2-0.2,0.2-0.5,0.3-1l1.1,0.2c0,0.7-0.2,1.2-0.5,1.5c-0.3,0.4-0.8,0.6-1.5,0.6c-0.7,0-1.2-0.2-1.6-0.6c-0.3-0.4-0.5-0.9-0.5-1.6
			v-4.5c0-0.3,0-0.6,0.1-1c0.1-0.3,0.2-0.6,0.3-0.8c0.2-0.2,0.4-0.4,0.6-0.6C103.5,93.1,103.8,93,104.3,93L104.3,93z M110.4,102.3
			V94h-2v8.2h-1v-9.2h4.1v9.2H110.4L110.4,102.3z M114.6,98.2l1.2-5.1h1l-1.8,7.1c-0.1,0.5-0.3,0.9-0.4,1.2
			c-0.1,0.3-0.3,0.5-0.5,0.7c-0.2,0.1-0.3,0.2-0.5,0.3c-0.2,0-0.3,0.1-0.5,0.1h-0.5v-0.8h0.5c0.2,0,0.4-0.1,0.5-0.3
			c0.2-0.2,0.3-0.5,0.4-0.9l0.1-0.6l-2-6.7h1L114.6,98.2L114.6,98.2L114.6,98.2z M118.6,101.3h0.7c0.3,0,0.6,0,0.7-0.1
			c0.2-0.1,0.3-0.2,0.4-0.4c0.1-0.2,0.2-0.4,0.2-0.6c0-0.2,0-0.5,0-0.7c0-0.2,0-0.5,0-0.7c0-0.2-0.1-0.4-0.2-0.5
			c-0.1-0.2-0.2-0.3-0.4-0.4c-0.2-0.1-0.4-0.1-0.8-0.1h-0.7V101.3L118.6,101.3z M118.6,96.8h0.8c0.5,0,0.9,0.1,1.2,0.2
			c0.3,0.1,0.6,0.3,0.7,0.6c0.2,0.2,0.3,0.5,0.4,0.8c0.1,0.3,0.1,0.7,0.1,1.1c0,0.4,0,0.8-0.1,1.2c-0.1,0.3-0.2,0.6-0.4,0.9
			c-0.2,0.2-0.4,0.4-0.7,0.6c-0.3,0.1-0.7,0.2-1.1,0.2h-1.9v-9.2h3.7v1h-2.7V96.8L118.6,96.8z M124.3,97.7c0,0.8,0,1.5-0.1,2.1
			c-0.1,0.6-0.2,1-0.3,1.4c-0.1,0.4-0.3,0.6-0.5,0.9c-0.2,0.2-0.5,0.4-0.8,0.6l-0.5-0.8c0.2-0.1,0.4-0.3,0.5-0.4
			c0.2-0.1,0.3-0.3,0.4-0.6c0.1-0.2,0.2-0.5,0.3-0.9c0.1-0.4,0.1-0.8,0.1-1.4v-5.4h3.8v9.2h-1V94h-1.8V97.7L124.3,97.7z M131.8,95.8
			l-2.3,6.5h-1v-9.2h1v6.5l0.1,0l2.3-6.5h1v9.2h-1L131.8,95.8L131.8,95.8L131.8,95.8z M134.2,102.3v-9.2h1v4h0.5c0.1,0,0.3,0,0.4,0
			c0.1,0,0.3-0.1,0.4-0.2c0.1-0.1,0.3-0.2,0.4-0.4c0.1-0.2,0.2-0.4,0.3-0.7l0.6-2.7h1l-0.6,2.7c-0.1,0.4-0.2,0.8-0.4,1.1
			c-0.2,0.3-0.4,0.5-0.7,0.6c0.3,0.1,0.6,0.3,0.8,0.7c0.2,0.3,0.3,0.7,0.4,1.2l0.7,3h-1l-0.6-2.8c-0.1-0.3-0.2-0.6-0.3-0.7
			c-0.1-0.2-0.2-0.3-0.4-0.4c-0.1-0.1-0.3-0.2-0.4-0.2s-0.3,0-0.5,0h-0.5v4.2H134.2L134.2,102.3z M143.2,102.3l-0.4-2h-2l-0.4,2h-1
			l2-9.2h1l2,9.2H143.2L143.2,102.3z M141.7,95l-0.4,2.1l-0.4,2.2h1.7l-0.4-2.2L141.7,95L141.7,95L141.7,95z M147.1,93
			c0.7,0,1.2,0.2,1.6,0.6c0.3,0.4,0.5,0.9,0.5,1.5l-1,0.2c0-0.4-0.1-0.7-0.2-1c-0.2-0.2-0.4-0.4-0.8-0.4c-0.2,0-0.4,0-0.5,0.1
			c-0.1,0.1-0.2,0.2-0.3,0.4c-0.1,0.1-0.1,0.3-0.2,0.5c0,0.2,0,0.3,0,0.5v4.6c0,0.1,0,0.3,0,0.4c0,0.2,0.1,0.3,0.2,0.4
			c0.1,0.1,0.2,0.2,0.3,0.3c0.1,0.1,0.3,0.1,0.5,0.1c0.3,0,0.6-0.1,0.8-0.3c0.2-0.2,0.2-0.5,0.3-1l1.1,0.2c0,0.7-0.2,1.2-0.5,1.5
			c-0.3,0.4-0.8,0.6-1.5,0.6c-0.7,0-1.2-0.2-1.6-0.6c-0.3-0.4-0.5-0.9-0.5-1.6v-4.5c0-0.3,0-0.6,0.1-1c0.1-0.3,0.2-0.6,0.3-0.8
			c0.1-0.2,0.4-0.4,0.6-0.6C146.3,93.1,146.6,93,147.1,93L147.1,93z M153.4,95.8l-2.3,6.5h-1v-9.2h1v6.5l0.1,0l2.3-6.5h1v9.2h-1
			L153.4,95.8L153.4,95.8z"/>
		<path fill-rule="evenodd" clip-rule="evenodd" fill="#49B5DE" d="M1.7,116.8h0.6c0.1,0,0.2,0,0.2,0c0.4,0,0.7-0.2,0.9-0.5
			c0.1-0.3,0.2-0.7,0.2-1.2c0-0.6-0.1-1-0.3-1.3c-0.2-0.3-0.5-0.4-1.1-0.4H1.7V116.8L1.7,116.8z M87.1,120.3h-1.5v-1.9H85l-1.2-3.7
			h0l-1.2,3.7h-1.8l2.2-5.6c-0.3-0.8-0.7-1.7-1-2.5c-0.3-0.8-0.7-1.7-1-2.5h1.8c0.2,0.5,0.3,1.1,0.5,1.6c0.2,0.5,0.3,1.1,0.5,1.6
			l0.1,0l1-3.2h1.9l-2.1,5.1c0.4,0.9,0.7,1.9,1.1,2.8c0.2,0.5,0.4,1,0.6,1.5h0.8V120.3L87.1,120.3z M1.7,111.9h0.7
			c0.5,0,1,0.1,1.4,0.2c0.4,0.1,0.6,0.4,0.9,0.6c0.2,0.3,0.4,0.6,0.5,1c0.1,0.4,0.1,0.8,0.1,1.3c0,1.1-0.2,1.9-0.7,2.5
			c-0.5,0.6-1.2,0.8-2.1,0.8H0v-10.6h4.7v1.5h-3V111.9L1.7,111.9z M10.1,118.4l-0.4-2.2h-2c-0.1,0.4-0.1,0.7-0.2,1.1
			c-0.1,0.4-0.1,0.7-0.2,1.1H5.7c0.4-1.8,0.7-3.6,1.1-5.3c0.4-1.8,0.7-3.5,1.1-5.3h1.8l2.2,10.6H10.1L10.1,118.4z M8.7,110.2
			c-0.1,0.7-0.2,1.5-0.3,2.2c-0.1,0.7-0.2,1.5-0.4,2.2h1.5L8.7,110.2L8.7,110.2L8.7,110.2z M16.3,118.4v-4.6h-1.9v4.6h-1.7v-10.6
			h1.7v4.4h1.9v-4.4H18v10.6H16.3L16.3,118.4z M20.2,118.4v2h-1.4V117l0.6-0.1c0.3-0.3,0.5-0.7,0.6-1.1c0.1-0.4,0.2-0.9,0.2-1.6
			l0.2-6.5h4.8v9.1h0.7v3.5h-1.4v-2H20.2L20.2,118.4z M21.7,114.2c0,0.6-0.1,1.1-0.1,1.6c-0.1,0.4-0.2,0.8-0.4,1.1h2.3v-7.6h-1.7
			L21.7,114.2L21.7,114.2z M32.3,107.8v10.6h-1.7v-9.1H29v4.1c0,0.9,0,1.6-0.1,2.2c-0.1,0.6-0.2,1.1-0.3,1.5c-0.2,0.4-0.4,0.7-0.7,1
			c-0.3,0.2-0.6,0.5-1.1,0.7l-0.6-1.2c0.3-0.2,0.5-0.3,0.6-0.5c0.2-0.2,0.3-0.4,0.4-0.7c0.1-0.3,0.2-0.6,0.2-1
			c0-0.4,0.1-0.9,0.1-1.4v-6.1H32.3L32.3,107.8z M37.6,111.7l-2.2,6.7h-1.6v-10.6h1.6v6.7h0.1l2.2-6.7h1.6v10.6h-1.6L37.6,111.7
			L37.6,111.7L37.6,111.7z M40.8,118.4v-10.6h1.7v4.5h0.3c0.4,0,0.7-0.1,0.9-0.3c0.2-0.2,0.4-0.6,0.5-1.1c0-0.1,0.1-0.3,0.1-0.6
			s0.1-0.6,0.2-0.9c0.1-0.3,0.1-0.6,0.2-0.9c0.1-0.3,0.1-0.5,0.1-0.6h1.5c-0.1,0.5-0.2,1.1-0.3,1.6c-0.1,0.5-0.2,1.1-0.3,1.6
			c-0.1,0.5-0.3,0.9-0.5,1.3c-0.2,0.3-0.5,0.5-0.8,0.7v0c0.4,0.1,0.7,0.4,0.9,0.7c0.2,0.3,0.4,0.7,0.5,1.3c0.1,0.6,0.3,1.2,0.4,1.8
			c0.1,0.6,0.2,1.2,0.4,1.8h-1.7c-0.1-0.5-0.2-1-0.3-1.6c-0.1-0.5-0.2-1-0.3-1.6c-0.1-0.6-0.3-1-0.5-1.2c-0.2-0.2-0.5-0.3-0.9-0.3
			h-0.4v4.6H40.8L40.8,118.4z M54.1,110.7c0-0.5-0.1-0.8-0.3-1.1c-0.2-0.2-0.5-0.3-1-0.3h-0.5v2.8h0.5c0.4,0,0.7-0.1,0.9-0.4
			C54,111.5,54.1,111.1,54.1,110.7L54.1,110.7z M54.2,115c0-0.5-0.1-0.9-0.3-1.1c-0.2-0.2-0.5-0.4-1-0.4h-0.6v3.3H53
			c0.3,0,0.5,0,0.6-0.1c0.2-0.1,0.3-0.2,0.4-0.4c0.1-0.2,0.1-0.4,0.2-0.6C54.2,115.5,54.2,115.3,54.2,115L54.2,115z M54.5,112.8
			c0.5,0.2,0.8,0.4,1,0.9c0.2,0.4,0.3,0.9,0.3,1.5c0,1.1-0.2,1.9-0.7,2.4c-0.5,0.5-1.2,0.8-2.2,0.8h-2.2v-10.6H53
			c0.9,0,1.6,0.2,2,0.7c0.4,0.5,0.6,1.2,0.6,2.1c0,0.5-0.1,0.9-0.3,1.3C55.2,112.3,54.9,112.6,54.5,112.8L54.5,112.8L54.5,112.8z
			 M61.1,118.4l-0.4-2.2h-2c-0.1,0.4-0.1,0.7-0.2,1.1c-0.1,0.4-0.1,0.7-0.2,1.1h-1.7c0.4-1.8,0.7-3.6,1.1-5.3
			c0.4-1.8,0.7-3.5,1.1-5.3h1.8l2.2,10.6H61.1L61.1,118.4z M59.6,110.2c-0.1,0.7-0.2,1.5-0.3,2.2c-0.1,0.7-0.2,1.5-0.4,2.2h1.5
			L59.6,110.2L59.6,110.2L59.6,110.2z M69.9,116.1l-0.8-2l-0.7-1.9h-0.1v6.2h-1.7v-10.6h1.6l1.2,3l0.8,2.3h0.1l0.9-2.4l1.1-3H74
			v10.6h-1.7v-6.1h-0.1l-0.7,1.9l-0.7,1.9H69.9L69.9,116.1z M75.6,118.4v-10.6h4.7v1.5h-3.1v2.9h2.7v1.6h-2.7v3.1h3.1v1.5H75.6
			L75.6,118.4z M91.2,118.4v-4.6h-1.9v4.6h-1.7v-10.6h1.7v4.4h1.9v-4.4h1.7v10.6H91.2L91.2,118.4z M98.3,118.4l-0.4-2.2h-2
			c-0.1,0.4-0.1,0.7-0.2,1.1c-0.1,0.4-0.1,0.7-0.2,1.1h-1.7c0.4-1.8,0.7-3.6,1.1-5.3c0.4-1.8,0.7-3.5,1.1-5.3h1.8l2.2,10.6H98.3
			L98.3,118.4z M96.9,110.2c-0.1,0.7-0.2,1.5-0.3,2.2c-0.1,0.7-0.2,1.5-0.4,2.2h1.5L96.9,110.2L96.9,110.2L96.9,110.2z M103.1,109.3
			h1.7v-1.5h-5.1v1.5h1.7v9.1h1.7V109.3L103.1,109.3z M111.9,116.1l-0.8-2l-0.7-1.9h-0.1v6.2h-1.7v-10.6h1.6l1.2,3l0.8,2.3h0.1
			l0.9-2.4l1.1-3h1.6v10.6h-1.7v-6.1h-0.1l-0.7,1.9l-0.7,1.9H111.9L111.9,116.1z M119.8,113.3l1.3-5.5h1.5l-2.1,8.2
			c-0.1,0.6-0.3,1-0.5,1.4c-0.2,0.3-0.4,0.6-0.6,0.8c-0.2,0.2-0.4,0.3-0.6,0.3c-0.2,0.1-0.5,0.1-0.7,0.1h-0.6v-1.3h0.4
			c0.3,0,0.5-0.1,0.6-0.3c0.2-0.2,0.3-0.4,0.4-0.8c0,0,0,0,0-0.1c0-0.1,0-0.1,0-0.2c0-0.1,0-0.1,0-0.2c0-0.1,0-0.1,0-0.1l-2.2-7.9
			h1.6L119.8,113.3L119.8,113.3L119.8,113.3z M127,118.4v-4.6h-1.9v4.6h-1.7v-10.6h1.7v4.4h1.9v-4.4h1.7v10.6H127L127,118.4z
			 M133.7,110.4c0-0.3-0.1-0.6-0.2-0.8c-0.1-0.2-0.4-0.4-0.7-0.4c-0.2,0-0.4,0-0.5,0.1c-0.1,0.1-0.2,0.2-0.3,0.3
			c-0.1,0.1-0.1,0.3-0.1,0.4s0,0.3,0,0.4v5.3c0,0.3,0.1,0.5,0.2,0.7c0.1,0.2,0.4,0.3,0.7,0.3s0.6-0.1,0.7-0.3
			c0.1-0.2,0.2-0.5,0.2-0.8V110.4L133.7,110.4z M135.3,115.7c0,0.9-0.2,1.6-0.6,2.1c-0.4,0.5-1.1,0.7-2,0.7c-0.9,0-1.5-0.2-2-0.7
			c-0.4-0.5-0.6-1.1-0.6-2v-5.3c0-0.4,0-0.8,0.1-1.1c0.1-0.3,0.2-0.6,0.4-0.9c0.2-0.2,0.5-0.4,0.8-0.6c0.3-0.1,0.7-0.2,1.2-0.2
			c0.5,0,0.9,0.1,1.2,0.2c0.3,0.1,0.6,0.3,0.8,0.6c0.2,0.2,0.3,0.5,0.4,0.9c0.1,0.3,0.1,0.7,0.1,1.2V115.7L135.3,115.7z
			 M139.3,107.7c0.4,0,0.8,0.1,1.1,0.2c0.3,0.1,0.6,0.3,0.8,0.5c0.2,0.2,0.4,0.5,0.5,0.8c0.1,0.3,0.1,0.6,0.1,1l-1.6,0.4
			c0-0.4-0.1-0.7-0.2-0.9c-0.1-0.2-0.4-0.4-0.7-0.4c-0.2,0-0.3,0-0.5,0.1c-0.1,0.1-0.2,0.2-0.3,0.3c-0.1,0.1-0.1,0.3-0.1,0.4
			c0,0.1,0,0.3,0,0.4v5.4c0,0.1,0,0.2,0,0.3c0,0.1,0.1,0.2,0.1,0.3c0.1,0.1,0.2,0.2,0.3,0.3c0.1,0.1,0.3,0.1,0.4,0.1
			c0.6,0,0.9-0.4,0.9-1.3c0.3,0.1,0.6,0.1,0.8,0.1c0.3,0,0.6,0.1,0.8,0.1c0,0.8-0.2,1.4-0.7,1.9c-0.4,0.5-1,0.7-1.9,0.7
			c-0.9,0-1.5-0.2-1.9-0.7c-0.4-0.4-0.6-1.1-0.6-1.9v-5.3c0-0.4,0-0.8,0.1-1.1c0.1-0.4,0.2-0.7,0.4-0.9c0.2-0.3,0.5-0.5,0.8-0.6
			C138.4,107.7,138.8,107.7,139.3,107.7L139.3,107.7z M146.9,118.4l-0.4-2.2h-2c-0.1,0.4-0.1,0.7-0.2,1.1c-0.1,0.4-0.1,0.7-0.2,1.1
			h-1.7c0.4-1.8,0.7-3.6,1.1-5.3c0.4-1.8,0.7-3.5,1.1-5.3h1.8l2.2,10.6H146.9L146.9,118.4z M145.4,110.2c-0.1,0.7-0.2,1.5-0.3,2.2
			c-0.1,0.7-0.2,1.5-0.4,2.2h1.5L145.4,110.2L145.4,110.2L145.4,110.2z M151.1,116.8h0.6c0.1,0,0.2,0,0.2,0c0.4,0,0.7-0.2,0.9-0.5
			c0.1-0.3,0.2-0.7,0.2-1.2c0-0.6-0.1-1-0.3-1.3c-0.2-0.3-0.5-0.4-1.1-0.4h-0.6V116.8L151.1,116.8z M151.1,111.9h0.7
			c0.5,0,1,0.1,1.4,0.2c0.4,0.1,0.6,0.4,0.9,0.6c0.2,0.3,0.4,0.6,0.5,1c0.1,0.4,0.1,0.8,0.1,1.3c0,1.1-0.2,1.9-0.7,2.5
			c-0.5,0.6-1.2,0.8-2.1,0.8h-2.4v-10.6h4.7v1.5h-3V111.9L151.1,111.9z M159.6,118.4l-0.4-2.2h-2c-0.1,0.4-0.1,0.7-0.2,1.1
			c-0.1,0.4-0.1,0.7-0.2,1.1h-1.7c0.4-1.8,0.7-3.6,1.1-5.3c0.4-1.8,0.7-3.5,1.1-5.3h1.8l2.2,10.6H159.6L159.6,118.4z M158.2,110.2
			c-0.1,0.7-0.2,1.5-0.3,2.2c-0.1,0.7-0.2,1.5-0.4,2.2h1.5L158.2,110.2L158.2,110.2L158.2,110.2z M164.4,109.3h1.7v-1.5H161v1.5h1.7
			v9.1h1.7V109.3L164.4,109.3z M172.3,107.8v10.6h-1.7v-9.1H169v4.1c0,0.9,0,1.6-0.1,2.2c-0.1,0.6-0.2,1.1-0.3,1.5
			c-0.2,0.4-0.4,0.7-0.7,1c-0.3,0.2-0.6,0.5-1.1,0.7l-0.6-1.2c0.3-0.2,0.5-0.3,0.6-0.5c0.2-0.2,0.3-0.4,0.4-0.7
			c0.1-0.3,0.2-0.6,0.2-1c0-0.4,0.1-0.9,0.1-1.4v-6.1H172.3L172.3,107.8z M177.7,118.4l-0.4-2.2h-2c-0.1,0.4-0.1,0.7-0.2,1.1
			c-0.1,0.4-0.1,0.7-0.2,1.1h-1.7c0.4-1.8,0.7-3.6,1.1-5.3c0.4-1.8,0.7-3.5,1.1-5.3h1.8l2.2,10.6H177.7L177.7,118.4z M176.3,110.2
			c-0.1,0.7-0.2,1.5-0.3,2.2c-0.1,0.7-0.2,1.5-0.4,2.2h1.5L176.3,110.2L176.3,110.2L176.3,110.2z M182.7,107.8c1,0,1.7,0.3,2.1,0.8
			c0.5,0.5,0.7,1.3,0.7,2.5c0,0.5,0,1-0.1,1.4c-0.1,0.4-0.2,0.8-0.5,1c-0.2,0.3-0.5,0.5-0.9,0.7c-0.4,0.2-0.8,0.2-1.4,0.2H182v4.1
			h-1.7v-10.6H182.7L182.7,107.8z M182,109.3v3.4h0.6c0.5,0,0.9-0.1,1.1-0.4c0.2-0.3,0.3-0.7,0.3-1.3c0-0.5-0.1-0.9-0.3-1.2
			c-0.2-0.3-0.5-0.5-1-0.5H182L182,109.3z M190.4,111.7l-2.2,6.7h-1.6v-10.6h1.6v6.7h0.1l2.2-6.7h1.6v10.6h-1.6L190.4,111.7
			L190.4,111.7z"/>
		<path fill-rule="evenodd" clip-rule="evenodd" fill="#49B5DE" d="M75.7,128.3c0.4,0.1,0.7,0.4,0.8,0.7c0.1,0.4,0.2,0.8,0.2,1.4
			c0,1-0.2,1.6-0.6,2.1c-0.4,0.4-1,0.6-1.8,0.6h-1.8v-9.2h1.9c0.8,0,1.4,0.2,1.7,0.6c0.3,0.4,0.5,1,0.5,1.8c0,0.5-0.1,0.9-0.2,1.2
			S76,128,75.7,128.3L75.7,128.3L75.7,128.3z M75.7,130.3c0-0.5-0.1-0.9-0.3-1.2c-0.2-0.3-0.6-0.4-1.1-0.4h-0.8v3.4h0.8
			c0.3,0,0.5-0.1,0.7-0.2c0.2-0.1,0.3-0.2,0.4-0.4c0.1-0.2,0.2-0.4,0.2-0.6S75.7,130.5,75.7,130.3L75.7,130.3z M75.6,126.3
			c0-0.5-0.1-0.8-0.3-1.1c-0.2-0.2-0.6-0.4-1-0.4h-0.7v2.9h0.7c0.5,0,0.8-0.1,1-0.4C75.5,127.1,75.6,126.8,75.6,126.3L75.6,126.3z
			 M81.3,133.1l-0.4-2h-2l-0.4,2h-1l2-9.2h1l2,9.2H81.3L81.3,133.1z M79.9,125.8l-0.4,2.1l-0.4,2.2h1.7l-0.4-2.2L79.9,125.8
			L79.9,125.8L79.9,125.8z M84.7,123.8c0.3,0,0.6,0,0.9,0.1c0.3,0.1,0.5,0.2,0.7,0.4c0.2,0.2,0.3,0.4,0.4,0.7
			c0.1,0.3,0.2,0.7,0.2,1.2c0,0.2,0,0.3,0,0.5c0,0.2-0.1,0.4-0.1,0.6c-0.1,0.2-0.1,0.4-0.2,0.6c-0.1,0.2-0.2,0.3-0.4,0.4v0
			c0.2,0.1,0.3,0.2,0.4,0.4c0.1,0.2,0.2,0.3,0.2,0.5c0.1,0.2,0.1,0.4,0.1,0.6c0,0.2,0,0.4,0,0.6c0,0.9-0.2,1.6-0.5,2
			c-0.3,0.5-0.9,0.7-1.6,0.7c-0.3,0-0.6,0-0.8-0.1c-0.3-0.1-0.5-0.2-0.7-0.4c-0.2-0.2-0.3-0.4-0.4-0.6c-0.1-0.3-0.1-0.6-0.1-0.9
			l1-0.2c0,0.5,0.1,0.8,0.3,1c0.2,0.2,0.4,0.3,0.8,0.3c0.1,0,0.3,0,0.4-0.1c0.1-0.1,0.2-0.1,0.3-0.3c0.1-0.1,0.2-0.3,0.2-0.5
			c0.1-0.2,0.1-0.5,0.1-0.9c0-0.2,0-0.4,0-0.6c0-0.2-0.1-0.4-0.2-0.5c-0.1-0.1-0.2-0.3-0.3-0.4c-0.1-0.1-0.3-0.1-0.5-0.1h-0.6v-0.9
			h0.6c0.2,0,0.3,0,0.5-0.1c0.1-0.1,0.2-0.2,0.3-0.3c0.1-0.1,0.1-0.3,0.2-0.5c0-0.2,0.1-0.4,0.1-0.6c0-0.3,0-0.5-0.1-0.7
			c-0.1-0.2-0.1-0.3-0.2-0.4c-0.1-0.1-0.2-0.2-0.3-0.2c-0.1,0-0.3-0.1-0.4-0.1c-0.4,0-0.6,0.1-0.8,0.4c-0.2,0.3-0.2,0.6-0.2,0.9
			l-1-0.2c0-0.7,0.2-1.2,0.6-1.5C83.7,124,84.1,123.8,84.7,123.8L84.7,123.8z M91.5,126.6l-2.3,6.5h-1v-9.2h1v6.5l0.1,0l2.3-6.5h1
			v9.2h-1L91.5,126.6L91.5,126.6L91.5,126.6z M95.8,123.9c0.5,0,0.8,0.1,1.1,0.2c0.3,0.1,0.5,0.3,0.7,0.5c0.2,0.2,0.3,0.5,0.4,0.9
			c0.1,0.3,0.1,0.7,0.1,1.2c0,0.4,0,0.7-0.1,1.1c-0.1,0.3-0.2,0.6-0.4,0.9c-0.2,0.3-0.4,0.4-0.7,0.6c-0.3,0.1-0.7,0.2-1.2,0.2h-0.8
			v3.7h-1v-9.2H95.8L95.8,123.9z M94.9,128.4h0.7c0.3,0,0.6,0,0.8-0.1c0.2-0.1,0.3-0.2,0.4-0.4c0.1-0.2,0.2-0.3,0.2-0.6
			c0-0.2,0-0.4,0-0.7c0-0.2,0-0.5,0-0.7c0-0.2-0.1-0.4-0.2-0.6c-0.1-0.2-0.2-0.3-0.4-0.4c-0.2-0.1-0.4-0.1-0.7-0.1h-0.7V128.4
			L94.9,128.4z M100.6,128.5c0,0.8,0,1.5-0.1,2.1c-0.1,0.6-0.2,1-0.3,1.4c-0.1,0.4-0.3,0.6-0.5,0.9c-0.2,0.2-0.5,0.4-0.8,0.6
			l-0.5-0.8c0.2-0.1,0.4-0.3,0.5-0.4c0.2-0.1,0.3-0.3,0.4-0.6c0.1-0.2,0.2-0.5,0.3-0.9c0.1-0.4,0.1-0.8,0.1-1.4v-5.4h3.8v9.2h-1
			v-8.2h-1.8V128.5L100.6,128.5z M108.1,126.6l-2.3,6.5h-1v-9.2h1v6.5l0.1,0l2.3-6.5h1v9.2h-1L108.1,126.6L108.1,126.6L108.1,126.6z
			 M111.6,124.8v8.2h-1v-9.2h3.7v1H111.6L111.6,124.8z M118.5,126.6l-2.3,6.5h-1v-9.2h1v6.5l0.1,0l2.3-6.5h1v9.2h-1L118.5,126.6
			L118.5,126.6z"/>
	</g>
</g>
</svg>
