<?xml version="1.0" encoding="utf-8"?>
<!-- Generator: Adobe Illustrator 17.1.0, SVG Export Plug-In . SVG Version: 6.00 Build 0)  -->
<!DOCTYPE svg PUBLIC "-//W3C//DTD SVG 1.1//EN" "http://www.w3.org/Graphics/SVG/1.1/DTD/svg11.dtd">
<svg version="1.1" id="Слой_1" xmlns="http://www.w3.org/2000/svg" xmlns:xlink="http://www.w3.org/1999/xlink" x="0px" y="0px"
	 viewBox="0 0 172.8 133.2" enable-background="new 0 0 172.8 133.2" xml:space="preserve" width='220px' height='144px'>
<g>
	<g>
		<path fill-rule="evenodd" clip-rule="evenodd" fill="#49B5DE" d="M89.8,42.8c0.8,0,1.5,0.7,1.5,1.5c0,0.5-0.3,1-0.7,1.2V49
			l-2.5,2.5v4.8c0,0.4-0.4,0.8-0.8,0.8c-0.4,0-0.8-0.4-0.8-0.8v-5.2l0,0v0c0-0.1,0-0.1,0-0.2l0,0l0,0l0,0l0,0l0,0l0,0l0,0l0,0l0,0
			l0,0l0,0l0,0l0,0l0,0l0,0l0,0l0,0l0,0l0,0l0,0l0,0l0,0l0,0l0,0c0,0,0,0,0.1-0.1l0,0l0,0l0,0l0,0l0,0l0,0l2.2-2.2v-2.9
			c-0.4-0.3-0.7-0.7-0.7-1.2C88.4,43.4,89,42.8,89.8,42.8L89.8,42.8z M81.9,0c-3.6,1.3-7.1,3.2-9.9,5.7c-3.1,2.7-5.6,6.1-7.2,9.9
			c-1,2.4-1.7,4.9-2,7.5c-0.7,7.1,2.1,13.3,7.5,17.9c0.8,0.7,1.6,1.4,2.3,2.1c0.5,0.6,1,1.1,1.3,1.9c0,0,0,0.1,0.1,0.1
			c-0.3,0.4-0.6,0.8-0.9,1.1c0-0.3-0.1-0.6-0.2-0.8c-0.2-0.6-0.6-1-1-1.5c-0.7-0.7-1.5-1.4-2.3-2C63.9,37,61,30.4,61.7,22.9
			c0.3-2.7,1-5.3,2-7.8C66.3,9.2,70,5.1,75.5,2C68,4.5,56.2,11.9,54.2,22.3c-0.1-0.2-0.4-0.7-0.6-1.1c-2.9,6.5-4.2,16.9-1,22.1
			c-0.5-0.2-0.9-0.4-1.1-0.7c0.8,3.9,2.2,10.7,8,10.6c-1.4,0.3-2.9,0.3-3.9,0.1c1.4,2.5,3.7,6,7.1,5.8c-0.5,0.4-1.6,0.7-2.2,0.8
			c1.1,1.2,3.1,3.6,6.3,3.2c-0.4,0.4-1.1,0.6-2,0.7c1.5,1.2,3.1,2.2,4.8,3.1c0.2,0.5,0.5,1.1,0.7,1.6c-2.7-1.3-5.3-3-7.6-5
			c0.3,0,0.5,0,0.7-0.1c-2.5-0.9-3.7-2.7-4.8-4c0.3,0,0.5,0,0.7-0.1c-2.6-1.3-4.4-4.8-5.6-7c0.3,0.1,0.8,0.1,1,0
			c-3.1-2.9-4.1-7.7-4.7-11.6c0.2,0.1,0.3,0.2,0.4,0.2c-1.3-5.7-1.1-13.3,3.1-21.7c0.1,0.2,0.2,0.3,0.4,0.4C57.9,8.5,69.7,1,81.9,0
			L81.9,0z M97.4,79.4c-0.6,0.4-1.2,0.8-1.4,1.6c-0.9,0.5-1.6,0.8-2.9,1c1.3,0.2,2.5,0.1,3.8-0.2C96.9,80.9,97.1,80,97.4,79.4
			L97.4,79.4z M100.4,75.8c0,0.4,0,0.9,0,1.2c-0.4,0.3-1.2,0.6-1.9,0.7c1.3,0.2,2.5,0.1,3.6-0.4C101.3,77,100.9,76.6,100.4,75.8
			L100.4,75.8z M97.8,78.7c2,0.6,4.3,0.6,6.5-1.1c-1.9-1.1-3.5-2.6-4.5-4.5l0.9-0.8c1.1,2.3,3.1,4,5.6,5c-1.6,2-4.2,3.1-6.4,2.9
			c-0.8,0.9-1.1,2.6-0.3,3.7c-4.1,0.5-6.5,1.2-9.3-1l0.2-1.3c1,0.7,1.7,1.3,2.9,1.5c0.8,0.1,1.7,0.1,2.5,0c0.7-0.1,1.3-0.2,2-0.2
			c-0.1-1.1,0.1-2.3,0.8-3.1C98.3,79.4,98,79.2,97.8,78.7L97.8,78.7z M75.3,79.4c0.6,0.4,1.2,0.8,1.4,1.6c0.9,0.5,1.6,0.8,2.9,1
			c-1.3,0.2-2.5,0.1-3.8-0.2C75.9,80.9,75.7,80,75.3,79.4L75.3,79.4z M72.4,75.8c0,0.4,0,0.9,0,1.2c0.4,0.3,1.2,0.6,1.9,0.7
			c-1.3,0.2-2.5,0.1-3.6-0.4C71.4,77,71.9,76.6,72.4,75.8L72.4,75.8z M75,78.7c-2,0.6-4.3,0.6-6.5-1.1c1.9-1.1,3.5-2.6,4.5-4.5
			l-0.9-0.8c-1.1,2.3-3.1,4-5.6,5c1.6,2,4.2,3.1,6.4,2.9c0.8,0.9,1.1,2.6,0.3,3.7c4.1,0.5,6.5,1.2,9.3-1l-0.2-1.3
			c-1,0.7-1.7,1.3-2.9,1.5c-0.8,0.1-1.7,0.1-2.5,0c-0.7-0.1-1.3-0.2-2-0.2c0.1-1.1-0.1-2.3-0.8-3.1C74.4,79.4,74.8,79.2,75,78.7
			L75,78.7z M98.8,45.1c0.3,0.4,0.6,0.8,0.9,1.1c0-0.3,0.1-0.6,0.2-0.8c0.2-0.6,0.6-1,1-1.5c0.7-0.7,1.5-1.4,2.3-2
			c5.7-4.9,8.6-11.4,7.9-18.9c-0.3-2.7-1-5.3-2-7.8c-2.6-5.9-6.2-10-11.8-13.1c7.5,2.4,19.3,9.8,21.3,20.2c0.1-0.2,0.4-0.7,0.6-1.1
			c2.9,6.5,4.2,16.9,1,22.1c0.5-0.2,0.9-0.4,1.1-0.7c-0.8,3.9-2.2,10.7-7.9,10.6c1.4,0.3,2.9,0.3,3.9,0.1c-1.4,2.5-3.7,6-7.1,5.8
			c0.5,0.4,1.6,0.7,2.2,0.8c-1.1,1.2-3.1,3.6-6.3,3.2c0.4,0.4,1.1,0.6,2,0.7c-1.5,1.2-3.1,2.2-4.8,3.1c-0.2,0.5-0.5,1.1-0.7,1.6
			c2.7-1.3,5.3-3,7.6-5c-0.3,0-0.5,0-0.7-0.1c2.5-0.9,3.7-2.7,4.8-4c-0.3,0-0.5,0-0.7-0.1c2.6-1.3,4.4-4.8,5.6-7
			c-0.3,0.1-0.8,0.1-1,0c3.1-2.9,4.1-7.7,4.7-11.6c-0.2,0.1-0.3,0.2-0.4,0.2c1.3-5.7,1.1-13.3-3.1-21.7c-0.1,0.2-0.2,0.3-0.4,0.4
			C114.8,8.5,103,1,90.9,0c3.6,1.3,7.1,3.2,9.9,5.7c3.1,2.7,5.6,6.1,7.2,9.9c1,2.4,1.7,4.9,2,7.5c0.7,7.1-2.1,13.3-7.5,17.9
			c-0.8,0.7-1.6,1.4-2.3,2.1c-0.5,0.6-1,1.1-1.3,1.9C98.8,45,98.8,45,98.8,45.1L98.8,45.1z M85,36.8c-1.2-0.4-1.6-1.6-1.1-2.9
			c0,0.9,0.3,1.6,1,1.9c0.7-0.5,0.9-1.2,0.7-2.1C86.3,35,86.1,36.3,85,36.8L85,36.8z M93.8,31.2c-0.6-0.3-1.2-0.4-1.8-0.4
			c-0.3,0-0.6-0.2-0.5-0.8c-0.6,1.4-0.8,2.2-2.6,1.8c-1-0.2-1.5,0.6-1.3,1.5c0.1,0.5,0.3,1.3-0.2,1.8c-0.2-0.8-0.7-1.2-1.2-1.5
			c0.8,1.3,0.5,2.1,0.3,2.5c2.1-0.4,2.1,1.3,1.8,2.1c0.5,0,1,0.1,1.4,0.1c-0.5-1.7-0.9-3.4-1.1-5.2c0-0.3,0-0.4,0.2-0.3
			c1.2,0.2,2.3,0,3-1c1.2-0.1,2.1,0.3,3,0.9c0.2-1.9,0.3-3.7-2-4.4c-0.3-1.1-1.2-1.5-2.3-1.4c-1.5-2.3-6.8,0.1-8.9-1.4
			c-0.7-0.5-0.9-1.4-1-2.2c-0.7,0.7-1.3,1.2-1.6,2.2c-0.5,1.4-0.2,3.1,0.7,4.3c0.6,0.8,1.5,1.4,2.4,1.6c-0.1,0.1-0.2,0.2-0.2,0.3
			c-1.2,1.9-1,4.7-1,6.9c0.3-0.1,0.7-0.1,1-0.2c-0.3-1,0-2.2,1.5-2.3c-0.2-0.4-0.5-1.2,0.3-2.5c-0.5,0.2-1,0.7-1.2,1.5
			c-0.4-0.6-0.4-1.2-0.2-1.7c0.1-0.3,0.2-0.5,0.3-0.7c0,0,0-0.1,0-0.1c1-2,4.6-0.7,5.6-3.8c-0.3,0.4-0.7,0.7-1.1,0.9
			c-0.6,0.3-1.1-0.9-1.9-0.9c0.3,0.2,0.4,0.6,0.4,1c-0.1,0.4-0.3,0.5-0.6,0.2c-0.3-0.3-0.5-0.9-1.1-1c0.3,0.3,0.3,0.7,0.2,1
			c-0.1,0.4-0.4,0.6-0.7,0.2c-0.2-0.2-0.3-0.6-0.6-0.8c0.1,0.5-0.4,1-1,0.7c-0.9-0.4-1.5-1-1.9-1.9c-0.3-0.9-0.3-1.9,0.1-2.7
			c0,0,0,0,0-0.1c1.9,3.5,8.7,0.1,9.6,2.3l0.1,0.4l0.4,0c0.7-0.1,1.5-0.1,1.6,0.8l0,0.4l0.3,0.1C93.3,29.5,93.7,30.2,93.8,31.2
			L93.8,31.2z M82.9,38.3c0.2-0.4,0.5-0.6,0.7-0.8c-0.1,0.3-0.2,0.5-0.3,0.8C83.2,38.3,83,38.3,82.9,38.3L82.9,38.3z M87,38.2
			c-0.1-0.3-0.4-0.7-0.7-1.1c0.5,0.1,1,0.4,1.4,1.1C87.5,38.2,87.3,38.2,87,38.2L87,38.2z M83.9,38.2c0-0.2,0.1-0.4,0.1-0.6
			c0,0.2,0,0.4,0.1,0.5L83.9,38.2L83.9,38.2z M86.1,38.2c0-0.2-0.1-0.5-0.1-0.8c0.2,0.3,0.3,0.5,0.4,0.8L86.1,38.2L86.1,38.2z
			 M60.6,26.8c-0.2,6.5,2.5,12,8.2,17.3c1.2,1.3,1.3,2.7,1.7,4c0.2-0.1,0.4-0.2,0.6-0.4c-0.1-0.6-0.1-1.1-0.2-1.5
			c0.3,0.2,0.5,0.6,0.7,1.2c0.2-0.1,0.3-0.3,0.5-0.4c0-0.2-0.1-0.4-0.1-0.6c0-0.2-0.1-0.5-0.2-0.7c-0.4-1-2.2-2.4-3-3.1
			C64,38.4,61.1,33,60.6,26.8L60.6,26.8z M61,36.6C54,30.5,55.8,19.7,61,15.3c-0.6,2.5-0.7,5-0.4,7.6c0.3-2.8,1-5.5,2.1-8.1
			c1.3-3,3.2-6,5.6-8.6c-5.2,3.3-10.5,8.3-12.5,14C54.1,25.3,54.9,32.9,61,36.6L61,36.6z M53.4,25.5c-2.9,9.5-2,21.1,7.1,18.6
			c-5.6,0.2-7.6-3.3-7.1-11c1.4,3.4,4.4,5.2,7.2,6.1C56.2,36.1,53.6,32.7,53.4,25.5L53.4,25.5z M53.3,45.4c1.4,7.1,6,7.4,8.7,4.8
			c-3.2,1.7-5.4,0.2-6.4-2.2c2.6,0.2,3.9-0.5,5.2-1.6C58.4,47.1,56,47.2,53.3,45.4L53.3,45.4z M57.7,54.8c3.3,5.1,6.7,2.6,7.6,0.8
			c-1.5,1.3-3.7,1.5-4.8,0.1c1.4-0.6,2.4-1.7,2.9-2.8C61.6,54.2,59.7,54.8,57.7,54.8L57.7,54.8z M66.4,56.9c-0.9,1.8-2.3,3-4.1,3.5
			c1.7,1.9,4.4,2.2,5.5,0.7c0-0.3-0.1-0.5-0.1-0.8c-0.7,0.8-1.8,1.1-2.9,0.3C65.7,59.5,66.2,58.3,66.4,56.9L66.4,56.9z M68.7,64.6
			c-0.1-0.4-0.2-0.8-0.3-1.1c-0.4,0.5-0.8,0.7-1.4,0.8C67.9,64.8,68.4,64.9,68.7,64.6L68.7,64.6z M61.5,38.7c-1.2,6.4,2,5.7,3.9,5.5
			c-1.8-0.3-3.3-1-3.2-2.9c0.9,0.6,2.2,0.8,3.2,0.8C63,41.1,62,39.3,61.5,38.7L61.5,38.7z M61.6,45.1c-0.1,5.7,3.4,4.3,4.6,3.1
			c-1.7,0.6-3.1,0.3-3.2-1.3c1.4,0.1,2.3-0.5,2.9-1.1C63.3,46.5,62.1,45.6,61.6,45.1L61.6,45.1z M62.9,50.8c1.6,4,3.4,2.9,4.4,1.5
			c0-0.2,0-0.3,0-0.5c-1.1,0.9-2.1,1-2.5,0.1c1.3-0.6,1.8-1.6,2-2.4C65,51.2,63.6,50.9,62.9,50.8L62.9,50.8z M65.3,54.8
			c0.8,1.2,1.5,1.8,2,2.1c-0.1-0.8-0.1-1.7-0.1-2.5C66.5,54.9,65.8,54.8,65.3,54.8L65.3,54.8z M66.1,44.1c0.1,4.2,2.1,3.4,3.2,2.9
			c-1.1,0.1-2.2-0.1-2.2-1.4c0.7,0.2,1.3,0.1,1.9,0C67.4,45.4,66.5,44.4,66.1,44.1L66.1,44.1z M66.8,48.2c0.2,0.7,0.4,1.2,0.6,1.6
			l0-0.3l0.5-0.2c0-0.1,0-0.1-0.1-0.2c0.9-0.2,1.3-0.7,1.6-1.2C68.1,48.8,67.2,48.4,66.8,48.2L66.8,48.2z M59.1,20.4
			c-1.7,3.2-2,9.6,1.8,14.1c-0.9-1.2-2.2-5.4-1.7-8.8C58.7,24.2,58.6,22.3,59.1,20.4L59.1,20.4z M54.9,38.2c0.6,2.8,2.1,4.5,4.8,4.6
			c-1.1-0.5-2-1-2.5-1.8c0.7,0.1,1.5,0.1,2.3-0.2C57.5,40.5,56.1,39.5,54.9,38.2L54.9,38.2z M58.5,49.2c0.7,0.6,1.6,0.7,2.5,0.3
			c-0.3,0-0.6-0.1-0.8-0.3c0.2-0.2,0.3-0.5,0.3-0.7C60,49,59.3,49.2,58.5,49.2L58.5,49.2z M62.3,55.5c0.7,0.1,1.5,0.2,2.1-0.5
			c-0.3,0.1-0.5,0.1-0.7,0c0.1-0.3,0.1-0.6,0-0.9C63.6,54.7,63,55.2,62.3,55.5L62.3,55.5z M66.2,59.9c0.5-0.1,1-0.3,1.3-0.7
			c0-0.1,0-0.2,0-0.4c-0.1,0-0.2,0.1-0.3,0c0-0.2-0.2-0.6-0.4-0.8C66.9,58.7,66.7,59.4,66.2,59.9L66.2,59.9z M112.1,26.8
			c0.2,6.5-2.5,12-8.2,17.3c-1.2,1.3-1.3,2.7-1.7,4c-0.2-0.1-0.4-0.2-0.6-0.4c0.1-0.6,0.1-1.1,0.2-1.5c-0.3,0.2-0.5,0.6-0.7,1.2
			c-0.2-0.1-0.3-0.3-0.5-0.4c0-0.2,0.1-0.4,0.1-0.6c0-0.2,0.1-0.5,0.2-0.7c0.4-1,2.2-2.4,3-3.1C108.8,38.4,111.7,33,112.1,26.8
			L112.1,26.8z M111.8,36.6c6.9-6.2,5.2-16.9-0.1-21.4c0.6,2.5,0.7,5,0.4,7.6c-0.3-2.8-1-5.5-2.1-8.1c-1.3-3-3.2-6-5.6-8.6
			c5.2,3.3,10.5,8.3,12.5,14C118.6,25.3,117.8,32.9,111.8,36.6L111.8,36.6z M119.4,25.5c2.9,9.5,2,21.1-7.1,18.6
			c5.6,0.2,7.6-3.3,7.1-11c-1.4,3.4-4.4,5.2-7.2,6.1C116.6,36.1,119.2,32.7,119.4,25.5L119.4,25.5z M119.5,45.4
			c-1.4,7.1-6,7.4-8.7,4.8c3.2,1.7,5.4,0.2,6.4-2.2c-2.6,0.2-3.9-0.5-5.2-1.6C114.3,47.1,116.7,47.2,119.5,45.4L119.5,45.4z
			 M115.1,54.8c-3.3,5.1-6.7,2.6-7.6,0.8c1.5,1.3,3.7,1.5,4.8,0.1c-1.4-0.6-2.4-1.7-2.9-2.8C111.2,54.2,113.1,54.8,115.1,54.8
			L115.1,54.8z M106.3,56.9c0.9,1.8,2.3,3,4.1,3.5c-1.7,1.9-4.4,2.2-5.5,0.7c0-0.3,0.1-0.5,0.1-0.8c0.7,0.8,1.8,1.1,2.9,0.3
			C107,59.5,106.6,58.3,106.3,56.9L106.3,56.9z M104,64.6c0.1-0.4,0.2-0.8,0.3-1.1c0.4,0.5,0.8,0.7,1.4,0.8
			C104.9,64.8,104.3,64.9,104,64.6L104,64.6z M111.3,38.7c1.2,6.4-2,5.7-3.9,5.5c1.8-0.3,3.3-1,3.2-2.9c-0.9,0.6-2.2,0.8-3.2,0.8
			C109.8,41.1,110.8,39.3,111.3,38.7L111.3,38.7z M111.2,45.1c0.1,5.7-3.4,4.3-4.6,3.1c1.7,0.6,3.1,0.3,3.2-1.3
			c-1.4,0.1-2.3-0.5-2.9-1.1C109.5,46.5,110.6,45.6,111.2,45.1L111.2,45.1z M109.9,50.8c-1.6,4-3.4,2.9-4.4,1.5c0-0.2,0-0.3,0-0.5
			c1.1,0.9,2.1,1,2.5,0.1c-1.3-0.6-1.8-1.6-2-2.4C107.8,51.2,109.2,50.9,109.9,50.8L109.9,50.8z M107.4,54.8c-0.8,1.2-1.5,1.8-2,2.1
			c0.1-0.8,0.1-1.7,0.1-2.5C106.3,54.9,107,54.8,107.4,54.8L107.4,54.8z M106.7,44.1c-0.1,4.2-2.1,3.4-3.2,2.9
			c1.1,0.1,2.2-0.1,2.2-1.4c-0.7,0.2-1.3,0.1-1.9,0C105.4,45.4,106.3,44.4,106.7,44.1L106.7,44.1z M106,48.2
			c-0.2,0.7-0.4,1.2-0.6,1.6l0-0.3l-0.5-0.2c0-0.1,0-0.1,0.1-0.2c-0.9-0.2-1.3-0.7-1.6-1.2C104.7,48.8,105.5,48.4,106,48.2L106,48.2
			z M113.7,20.4c1.7,3.2,2,9.6-1.8,14.1c0.9-1.2,2.2-5.4,1.7-8.8C114.1,24.2,114.2,22.3,113.7,20.4L113.7,20.4z M117.9,38.2
			c-0.6,2.8-2.1,4.5-4.8,4.6c1.1-0.5,2-1,2.5-1.8c-0.7,0.1-1.5,0.1-2.3-0.2C115.2,40.5,116.7,39.5,117.9,38.2L117.9,38.2z
			 M114.2,49.2c-0.7,0.6-1.6,0.7-2.5,0.3c0.3,0,0.6-0.1,0.8-0.3c-0.2-0.2-0.3-0.5-0.3-0.7C112.7,49,113.5,49.2,114.2,49.2
			L114.2,49.2z M110.5,55.5c-0.7,0.1-1.5,0.2-2.1-0.5c0.3,0.1,0.5,0.1,0.7,0c-0.1-0.3-0.1-0.6,0-0.9
			C109.2,54.7,109.8,55.2,110.5,55.5L110.5,55.5z M106.5,59.9c-0.5-0.1-1-0.3-1.3-0.7c0-0.1,0-0.2,0-0.4c0.1,0,0.2,0.1,0.3,0
			c0-0.2,0.2-0.6,0.4-0.8C105.8,58.7,106.1,59.4,106.5,59.9L106.5,59.9z M86.5,27.5c1.4,0.7,2.4,0.1,3.2,0.5
			c0.6,0.3,0.9,1.5,0.1,1.7c0-0.6-0.5-0.5-0.8-0.5c-0.3,0-0.6-0.3-0.6-0.6c0-0.1,0-0.2,0.1-0.3C87.7,28.3,86.9,28.2,86.5,27.5
			L86.5,27.5z M80.7,27.2c-0.1,1,0.3,1.8,1.2,2.3c-0.2-0.4-0.3-0.8-0.4-1.3c1.5,0.2,3.1-0.1,4.4-0.7C84,28,82.3,27.8,80.7,27.2
			L80.7,27.2z M98,63.3c0.8,0.4,1.6,0.4,2.4,0.2c0.8-0.2,1.5-0.6,2-1.3c0.7-0.8,0.9-1.8,0.8-2.7c-0.1-0.7-0.4-1.5-0.9-2.1
			c0.2-0.4,0.3-0.8,0.4-1.3c0.1-0.8,0.1-1.6-0.2-2.3c-0.3-0.7-0.7-1.3-1.3-1.9c-0.6-0.5-1.4-0.8-2.1-1c-0.8-0.1-1.6,0-2.3,0.2
			c-0.5,0.2-1,0.5-1.4,0.8c-0.7-0.4-1.4-0.5-2.1-0.4c-0.9,0.1-1.9,0.5-2.5,1.3c-0.5,0.6-0.8,1.4-0.9,2.2c0,0.8,0.2,1.6,0.7,2.3
			c0.2,0.4,0.7,0.4,1.1,0.2c0.4-0.2,0.4-0.7,0.2-1.1c-0.3-0.4-0.4-0.9-0.4-1.3c0-0.5,0.2-0.9,0.5-1.3c0.4-0.5,0.9-0.7,1.5-0.8
			c0.3,0,0.7,0,1,0.1c-0.2,0.4-0.4,0.9-0.5,1.3c-0.1,0.4,0.2,0.8,0.6,0.9c0.4,0.1,0.8-0.2,0.9-0.6c0.1-0.5,0.3-1,0.6-1.3
			c0.3-0.4,0.8-0.7,1.2-0.9c0.5-0.2,1-0.2,1.5-0.1c0.5,0.1,0.9,0.3,1.3,0.6c0.4,0.3,0.7,0.8,0.9,1.2c0.2,0.5,0.2,1,0.1,1.5
			c-0.1,0.5-0.3,1-0.6,1.4c-0.3,0.4-0.7,0.7-1.2,0.8c-0.4,0.1-0.6,0.6-0.5,1c0.1,0.4,0.6,0.6,1,0.5c0.6-0.2,1-0.5,1.4-0.9
			c0.2,0.3,0.3,0.6,0.3,0.9c0.1,0.6-0.1,1.1-0.5,1.6c-0.3,0.4-0.7,0.6-1.2,0.7c-0.5,0.1-0.9,0.1-1.4-0.1c-0.4-0.2-0.9,0-1,0.4
			C97.4,62.7,97.6,63.2,98,63.3L98,63.3z M97.2,64.9c0,0.3,0,0.5,0,0.8l0,0.3l-2.3,1l-0.1,0.4c-0.1,0.3-0.2,0.6-0.3,0.9
			c-0.1,0.3-0.3,0.6-0.4,0.9l-0.2,0.3l0.9,2.3c-0.2,0.3-0.5,0.6-0.7,0.8c-0.3,0.3-0.5,0.5-0.8,0.7l-2.3-0.9l-0.3,0.2
			c-0.3,0.1-0.6,0.3-0.9,0.4c-0.3,0.1-0.6,0.2-0.9,0.3l-0.4,0.1l-1,2.3l-0.3,0c-0.2,0-0.5,0-0.8,0c-0.3,0-0.5,0-0.8,0l-0.3,0l-1-2.3
			L84,73.3c-0.3-0.1-0.6-0.2-0.9-0.3c-0.3-0.1-0.6-0.3-0.9-0.4l-0.3-0.2l-2.3,0.9c-0.3-0.2-0.6-0.5-0.8-0.7
			c-0.3-0.3-0.5-0.5-0.7-0.8l0.9-2.3l-0.2-0.3c-0.1-0.3-0.3-0.6-0.4-0.9c-0.1-0.3-0.2-0.6-0.3-0.9l-0.1-0.4l-2.3-1l0-0.3
			c0-0.2,0-0.5,0-0.8c0-0.4-0.4-0.8-0.8-0.8c-0.4,0-0.8,0.4-0.8,0.8c0,0.3,0,0.6,0,0.9c0,0.3,0.1,0.6,0.1,0.9l0.1,0.4l2.4,1.1
			c0.1,0.2,0.2,0.5,0.3,0.7c0.1,0.2,0.2,0.5,0.3,0.7l-1,2.4l0.3,0.4c0.4,0.5,0.7,0.9,1.2,1.3c0.4,0.4,0.9,0.8,1.3,1.2l0.3,0.3l2.5-1
			c0.2,0.1,0.5,0.2,0.7,0.3c0.2,0.1,0.5,0.2,0.7,0.3l1,2.4l0.4,0.1c0.3,0,0.6,0.1,0.9,0.1c0.3,0,0.6,0,0.9,0c0.3,0,0.6,0,0.9,0
			c0.3,0,0.6-0.1,0.9-0.1l0.4-0.1l1.1-2.4c0.2-0.1,0.5-0.2,0.7-0.3c0.2-0.1,0.5-0.2,0.7-0.3l2.4,1l0.4-0.3c0.5-0.4,0.9-0.7,1.3-1.2
			c0.4-0.4,0.8-0.9,1.2-1.3l0.3-0.3l-1-2.5c0.1-0.2,0.2-0.5,0.3-0.7c0.1-0.2,0.2-0.5,0.3-0.7l2.4-1l0.1-0.4c0-0.3,0.1-0.6,0.1-0.9
			c0-0.3,0-0.6,0-0.9c0-0.4-0.4-0.8-0.8-0.8C97.5,64.2,97.2,64.5,97.2,64.9L97.2,64.9z M75.5,56.8c1.3-4.4-1.9-4.1-2.9-6.1
			C73.5,52.8,71.2,55,75.5,56.8L75.5,56.8z M95.5,57.9c-0.3,0.4-0.6,0.8-0.8,1.1c-0.1,0.2-0.3,0.4-0.4,0.5c-0.3-0.2-0.5-0.3-0.8-0.5
			c-0.5-0.2-1.1-0.4-1.7-0.5c-0.4-0.1-0.8,0.2-0.9,0.6c-0.1,0.4,0.2,0.8,0.6,0.9c0.4,0.1,0.9,0.2,1.3,0.4c0.2,0.1,0.3,0.2,0.5,0.3
			c-1.4,1.6-3,3.1-4.8,4.4c-0.7,0.6-1.5,1.1-2.3,1.6c-0.2-0.1-0.4-0.3-0.6-0.4c-0.4-0.2-0.8-0.2-1.1,0.2c-0.2,0.4-0.2,0.8,0.2,1.1
			c-0.8,0.5-1.7,0.9-2.6,1.3c-0.4,0.2-0.6,0.6-0.4,1c0.2,0.4,0.6,0.6,1,0.4c1.2-0.5,2.3-1.1,3.4-1.7c0.4,0.2,0.8,0.5,1.2,0.7
			c0.9,0.5,1.8,1,2.8,1.4c0.4,0.2,0.9,0,1-0.4c0.2-0.4,0-0.9-0.4-1c-0.9-0.4-1.8-0.8-2.7-1.3c-0.1-0.1-0.3-0.2-0.4-0.2
			c0.6-0.4,1.2-0.8,1.8-1.2c1.8-1.4,3.5-3,5-4.7c0.1,0.1,0.2,0.3,0.4,0.4c0.3,0.4,0.5,0.8,0.6,1.2c0.1,0.4,0.6,0.6,1,0.5
			c0.4-0.1,0.6-0.6,0.5-1c-0.2-0.5-0.5-1.1-0.8-1.5c-0.2-0.3-0.4-0.5-0.6-0.8c0.2-0.2,0.3-0.4,0.5-0.6c0.3-0.4,0.6-0.8,0.9-1.2
			c0.2-0.4,0.2-0.8-0.2-1.1C96.2,57.5,95.7,57.5,95.5,57.9L95.5,57.9z M84.6,61.5c1.9,2.9-0.4,3.2-0.6,4.8
			C82.7,63.5,84.4,63.1,84.6,61.5L84.6,61.5z M77.9,65.7c3,2.8,3.8,0.2,5.7,0.3C80.6,63.9,79.8,65.8,77.9,65.7L77.9,65.7z
			 M75.2,62.7c2.7,3.6,4,1,6,1.5C78.6,61.3,77.3,63.2,75.2,62.7L75.2,62.7z M80.9,57.7c-0.1,1.8-2,2.4-0.3,5.5
			C80.7,61.4,83.2,60.9,80.9,57.7L80.9,57.7z M79.5,55.1c-0.2,1.9-2.3,2.4-0.7,5.8C79,59,81.7,58.7,79.5,55.1L79.5,55.1z M73.2,59.8
			c2.3,3.9,3.9,1.4,5.9,2.1C76.7,58.8,75.2,60.5,73.2,59.8L73.2,59.8z M71.6,56.6c1.7,4.2,3.7,2,5.5,2.9
			C75.1,56.1,73.4,57.6,71.6,56.6L71.6,56.6z M77.3,52.7c-0.1,2.1-2.2,2.8-0.2,6.2C77.2,56.8,80,56.3,77.3,52.7L77.3,52.7z
			 M82.9,59.4c-0.2,1.8-2.2,2.3-0.6,5.5C82.5,63,85.1,62.8,82.9,59.4L82.9,59.4z M83.2,54.2v3.9l4.4,4.4c0.3,0.3,0.8,0.3,1.1,0
			c0.3-0.3,0.3-0.8,0-1.1l-3.9-3.9v-7.2l2.5-2.5v-2.3c0.4-0.3,0.7-0.7,0.7-1.2c0-0.8-0.7-1.5-1.5-1.5c-0.8,0-1.5,0.7-1.5,1.5
			c0,0.5,0.3,1,0.7,1.2v1.7l-2.5,2.5V52l-1.8-1.8v-4.7c0.4-0.3,0.7-0.7,0.7-1.2c0-0.8-0.7-1.5-1.5-1.5c-0.8,0-1.5,0.7-1.5,1.5
			c0,0.5,0.3,1,0.7,1.2v5.4L83.2,54.2L83.2,54.2z M89.8,43.8c-0.3,0-0.5,0.2-0.5,0.5c0,0.3,0.2,0.5,0.5,0.5c0.3,0,0.5-0.2,0.5-0.5
			C90.3,44,90.1,43.8,89.8,43.8L89.8,43.8z M86.5,43.8c-0.3,0-0.5,0.2-0.5,0.5c0,0.3,0.2,0.5,0.5,0.5c0.3,0,0.5-0.2,0.5-0.5
			C87,44,86.8,43.8,86.5,43.8L86.5,43.8z M80.7,43.8c-0.3,0-0.5,0.2-0.5,0.5c0,0.3,0.2,0.5,0.5,0.5c0.3,0,0.5-0.2,0.5-0.5
			C81.1,44,80.9,43.8,80.7,43.8z"/>
		<path fill-rule="evenodd" clip-rule="evenodd" fill="#49B5DE" d="M86.4,85.1c14.4-6.9,22.5-18.2,20.3-36.8
			c-5.1-1.3-8.1-4.3-8.5-9.4c-3.5-1.5-7.5-2.3-11.8-2.3c-4.3,0-8.3,0.7-11.8,2.3c-0.5,5-3.5,8.1-8.5,9.4
			C63.9,66.9,72,78.2,86.4,85.1L86.4,85.1z M76.8,40.6c3-1.1,6.3-1.6,9.6-1.6c3.2,0,6.5,0.5,9.6,1.6c0.9,4.8,4,7.9,8.5,9.5
			c1.3,15.1-4.6,25.5-18,32.3c-13.4-6.8-19.4-17.2-18-32.3C72.9,48.5,75.9,45.4,76.8,40.6z"/>
	</g>
	<g>
		<path fill-rule="evenodd" clip-rule="evenodd" fill="#49B5DE" d="M36.9,100.3c0,0.8-0.2,1.5-0.5,1.9c-0.3,0.4-0.9,0.7-1.7,0.7
			c-0.8,0-1.3-0.2-1.6-0.6c-0.3-0.4-0.5-1-0.5-1.7V96c0-0.3,0-0.6,0.1-1c0.1-0.3,0.2-0.6,0.3-0.8c0.2-0.2,0.4-0.4,0.6-0.6
			c0.3-0.1,0.6-0.2,1.1-0.2c0.5,0,0.8,0.1,1.1,0.2c0.3,0.1,0.5,0.3,0.6,0.5c0.2,0.2,0.3,0.5,0.3,0.8c0,0.3,0.1,0.7,0.1,1V100.3
			L36.9,100.3z M89.9,102.8l-1.3-4.1h-1v4.1h-1.1v-9.3h2c0.8,0,1.3,0.2,1.7,0.7c0.4,0.4,0.5,1.1,0.5,2c0,0.5-0.1,1-0.2,1.4
			c-0.2,0.4-0.5,0.7-1,0.9l1.4,4.3H89.9L89.9,102.8z M139.1,102.8v-9.3h1.1v9.3H139.1L139.1,102.8z M138.3,100.3
			c0,0.4,0,0.8-0.1,1.1c-0.1,0.3-0.2,0.6-0.4,0.8c-0.2,0.2-0.4,0.4-0.7,0.5c-0.3,0.1-0.6,0.2-1,0.2c-0.4,0-0.7-0.1-1-0.2
			c-0.3-0.1-0.5-0.3-0.7-0.4c-0.2-0.2-0.3-0.4-0.4-0.7c-0.1-0.3-0.1-0.5-0.1-0.8l1.1-0.2c0,0.2,0,0.3,0.1,0.5c0,0.2,0.1,0.3,0.2,0.4
			c0.1,0.1,0.2,0.2,0.3,0.3c0.1,0.1,0.3,0.1,0.5,0.1c0.3,0,0.5,0,0.6-0.1c0.2-0.1,0.3-0.2,0.3-0.3c0.1-0.1,0.1-0.3,0.1-0.5
			c0-0.2,0-0.4,0-0.6c0-0.3,0-0.5,0-0.7c0-0.2-0.1-0.3-0.2-0.5c-0.1-0.1-0.2-0.2-0.4-0.3c-0.2-0.1-0.4-0.2-0.7-0.3
			c-0.4-0.2-0.8-0.4-1-0.6c-0.3-0.2-0.5-0.4-0.6-0.6c-0.1-0.2-0.2-0.4-0.3-0.7c0-0.2-0.1-0.5-0.1-0.8c0-0.4,0-0.7,0.1-1
			c0.1-0.3,0.2-0.6,0.4-0.8c0.2-0.2,0.4-0.4,0.7-0.5c0.3-0.1,0.6-0.2,1-0.2c0.4,0,0.7,0.1,1,0.2c0.3,0.1,0.5,0.3,0.7,0.5
			c0.2,0.2,0.3,0.4,0.3,0.7c0.1,0.2,0.1,0.5,0.1,0.7l-1.1,0.3c0-0.4-0.1-0.7-0.3-1c-0.2-0.2-0.5-0.3-0.9-0.3c-0.2,0-0.4,0-0.6,0.1
			c-0.1,0.1-0.2,0.2-0.3,0.3c-0.1,0.1-0.1,0.3-0.2,0.5c0,0.2,0,0.3,0,0.5c0,0.2,0,0.4,0,0.5c0,0.1,0.1,0.3,0.2,0.4
			c0.1,0.1,0.2,0.3,0.4,0.4c0.2,0.1,0.5,0.3,0.8,0.4c0.4,0.2,0.7,0.3,1,0.5c0.2,0.2,0.4,0.4,0.5,0.6c0.1,0.2,0.2,0.5,0.2,0.7
			C138.3,99.6,138.3,99.9,138.3,100.3L138.3,100.3z M132.7,102.8l-0.4-2.1h-2.1l-0.4,2.1h-1l2-9.3h1l2,9.3H132.7L132.7,102.8z
			 M131.2,95.4l-0.4,2.2l-0.4,2.2h1.7l-0.5-2.2L131.2,95.4L131.2,95.4L131.2,95.4z M127.6,102.8l-1.7-4.4l-0.9,1.8v2.7h-1.1v-9.3
			h1.1v4.6h0l2.2-4.6h1.1l-1.8,3.7l2.1,5.6H127.6L127.6,102.8z M121.7,102.8v-9.3h1.1v9.3H121.7L121.7,102.8z M117.1,102.8v-9.3h1.1
			v8.3h2.7v1H117.1L117.1,102.8z M115.2,97.9c0.4,0.1,0.7,0.4,0.8,0.8c0.1,0.4,0.2,0.8,0.2,1.4c0,1-0.2,1.7-0.6,2.1
			c-0.4,0.4-1,0.6-1.8,0.6H112v-9.3h2c0.8,0,1.4,0.2,1.7,0.6c0.3,0.4,0.5,1,0.5,1.8c0,0.5-0.1,0.9-0.2,1.2
			C115.8,97.4,115.5,97.7,115.2,97.9L115.2,97.9L115.2,97.9z M115.2,99.9c0-0.5-0.1-0.9-0.3-1.2c-0.2-0.3-0.6-0.4-1.1-0.4h-0.8v3.5
			h0.8c0.3,0,0.5-0.1,0.7-0.2s0.3-0.2,0.4-0.4c0.1-0.2,0.2-0.4,0.2-0.6C115.2,100.4,115.2,100.2,115.2,99.9L115.2,99.9z M115.1,96
			c0-0.5-0.1-0.8-0.3-1.1c-0.2-0.3-0.6-0.4-1-0.4h-0.7v3h0.7c0.5,0,0.8-0.1,1.1-0.4C115,96.8,115.1,96.4,115.1,96L115.1,96z
			 M110.8,93.5v6.8c0,0.8-0.2,1.5-0.5,1.9c-0.3,0.4-0.9,0.7-1.7,0.7c-0.8,0-1.3-0.2-1.6-0.6c-0.3-0.4-0.5-1-0.5-1.7v-7.1h1.1v7.1
			c0,0.1,0,0.3,0,0.4c0,0.2,0.1,0.3,0.2,0.4c0.1,0.1,0.2,0.2,0.3,0.3c0.1,0.1,0.3,0.1,0.5,0.1c0.2,0,0.4,0,0.5-0.1
			c0.1-0.1,0.3-0.2,0.3-0.3c0.1-0.1,0.1-0.3,0.2-0.5c0-0.2,0-0.4,0-0.5v-6.9H110.8L110.8,93.5z M103.5,93.5c0.5,0,0.9,0.1,1.2,0.2
			c0.3,0.1,0.5,0.3,0.7,0.5c0.2,0.2,0.3,0.5,0.4,0.9c0.1,0.3,0.1,0.7,0.1,1.2c0,0.4,0,0.8-0.1,1.1c-0.1,0.3-0.2,0.6-0.4,0.9
			c-0.2,0.3-0.4,0.5-0.7,0.6c-0.3,0.1-0.7,0.2-1.2,0.2h-0.8v3.7h-1.1v-9.3H103.5L103.5,93.5z M102.7,98.1h0.7c0.3,0,0.6,0,0.8-0.1
			c0.2-0.1,0.3-0.2,0.4-0.4c0.1-0.2,0.2-0.3,0.2-0.6c0-0.2,0-0.4,0-0.7c0-0.2,0-0.5,0-0.7c0-0.2-0.1-0.4-0.2-0.6
			c-0.1-0.2-0.2-0.3-0.4-0.4c-0.2-0.1-0.4-0.1-0.7-0.1h-0.7V98.1L102.7,98.1z M100.7,100.3c0,0.4,0,0.8-0.1,1.1
			c-0.1,0.3-0.2,0.6-0.4,0.8c-0.2,0.2-0.4,0.4-0.7,0.5c-0.3,0.1-0.6,0.2-1,0.2c-0.4,0-0.7-0.1-1-0.2c-0.3-0.1-0.5-0.3-0.7-0.4
			c-0.2-0.2-0.3-0.4-0.4-0.7c-0.1-0.3-0.1-0.5-0.1-0.8l1.1-0.2c0,0.2,0,0.3,0.1,0.5c0,0.2,0.1,0.3,0.2,0.4c0.1,0.1,0.2,0.2,0.3,0.3
			c0.1,0.1,0.3,0.1,0.5,0.1c0.3,0,0.5,0,0.6-0.1c0.2-0.1,0.3-0.2,0.3-0.3c0.1-0.1,0.1-0.3,0.1-0.5c0-0.2,0-0.4,0-0.6
			c0-0.3,0-0.5,0-0.7c0-0.2-0.1-0.3-0.2-0.5c-0.1-0.1-0.2-0.2-0.4-0.3c-0.2-0.1-0.4-0.2-0.7-0.3c-0.4-0.2-0.8-0.4-1-0.6
			c-0.3-0.2-0.5-0.4-0.6-0.6c-0.1-0.2-0.2-0.4-0.3-0.7c0-0.2-0.1-0.5-0.1-0.8c0-0.4,0-0.7,0.1-1c0.1-0.3,0.2-0.6,0.4-0.8
			c0.2-0.2,0.4-0.4,0.7-0.5c0.3-0.1,0.6-0.2,1-0.2c0.4,0,0.7,0.1,1,0.2c0.3,0.1,0.5,0.3,0.7,0.5c0.2,0.2,0.3,0.4,0.3,0.7
			c0.1,0.2,0.1,0.5,0.1,0.7l-1.1,0.3c0-0.4-0.1-0.7-0.3-1c-0.2-0.2-0.5-0.3-0.9-0.3c-0.2,0-0.4,0-0.6,0.1c-0.1,0.1-0.2,0.2-0.3,0.3
			c-0.1,0.1-0.1,0.3-0.2,0.5c0,0.2,0,0.3,0,0.5c0,0.2,0,0.4,0,0.5c0,0.1,0.1,0.3,0.2,0.4c0.1,0.1,0.2,0.3,0.4,0.4
			c0.2,0.1,0.5,0.3,0.8,0.4c0.4,0.2,0.7,0.3,1,0.5c0.2,0.2,0.4,0.4,0.5,0.6c0.1,0.2,0.2,0.5,0.2,0.7
			C100.7,99.6,100.7,99.9,100.7,100.3L100.7,100.3z M91.8,102.8v-9.3h4v1h-2.9v3.1h2.5v1h-2.5v3.2h2.9v1H91.8L91.8,102.8z
			 M89.7,96.1c0-0.2,0-0.5-0.1-0.7c0-0.2-0.1-0.4-0.2-0.5c-0.1-0.1-0.2-0.3-0.4-0.3c-0.2-0.1-0.4-0.1-0.7-0.1h-0.8v3.3h0.9
			c0.2,0,0.4,0,0.6-0.1c0.2-0.1,0.3-0.2,0.4-0.3c0.1-0.1,0.2-0.3,0.2-0.5C89.7,96.6,89.7,96.4,89.7,96.1L89.7,96.1z M77.9,96.4v6.3
			h-1.1v-9.3h1l1.9,4.7l0.6,1.7l0.1,0v-6.4h1.1v9.3h-1l-1.9-4.7L77.9,96.4L77.9,96.4L77.9,96.4z M75.8,100.3c0,0.8-0.2,1.5-0.5,1.9
			c-0.3,0.4-0.9,0.7-1.7,0.7c-0.8,0-1.3-0.2-1.6-0.6c-0.3-0.4-0.5-1-0.5-1.7V96c0-0.3,0-0.6,0.1-1c0.1-0.3,0.2-0.6,0.3-0.8
			c0.2-0.2,0.4-0.4,0.6-0.6c0.3-0.1,0.6-0.2,1.1-0.2c0.5,0,0.8,0.1,1.1,0.2c0.3,0.1,0.5,0.3,0.6,0.5c0.2,0.2,0.3,0.5,0.3,0.8
			c0,0.3,0.1,0.7,0.1,1V100.3L75.8,100.3z M74.8,95.8c0-0.2,0-0.3,0-0.5c0-0.2-0.1-0.3-0.1-0.5c-0.1-0.1-0.2-0.3-0.3-0.3
			c-0.1-0.1-0.3-0.1-0.6-0.1c-0.3,0-0.5,0.1-0.6,0.2c-0.1,0.1-0.2,0.3-0.3,0.5c-0.1,0.2-0.1,0.4-0.1,0.6c0,0.2,0,0.4,0,0.5v4.5
			c0,0.1,0,0.3,0,0.4c0,0.2,0.1,0.3,0.2,0.4c0.1,0.1,0.2,0.2,0.3,0.3c0.1,0.1,0.3,0.1,0.5,0.1c0.2,0,0.4,0,0.5-0.1
			c0.1-0.1,0.3-0.2,0.3-0.3c0.1-0.1,0.1-0.3,0.2-0.5c0-0.2,0-0.4,0-0.5V95.8L74.8,95.8z M69.5,94.5v8.3h-1.1v-8.3h-1.6v-1h4.2v1
			H69.5L69.5,94.5z M66.4,100.3c0,0.4,0,0.8-0.1,1.1c-0.1,0.3-0.2,0.6-0.4,0.8c-0.2,0.2-0.4,0.4-0.7,0.5c-0.3,0.1-0.6,0.2-1,0.2
			c-0.4,0-0.7-0.1-1-0.2c-0.3-0.1-0.5-0.3-0.7-0.4c-0.2-0.2-0.3-0.4-0.4-0.7c-0.1-0.3-0.1-0.5-0.1-0.8l1.1-0.2c0,0.2,0,0.3,0.1,0.5
			c0,0.2,0.1,0.3,0.2,0.4c0.1,0.1,0.2,0.2,0.3,0.3c0.1,0.1,0.3,0.1,0.5,0.1c0.3,0,0.5,0,0.6-0.1c0.2-0.1,0.3-0.2,0.3-0.3
			c0.1-0.1,0.1-0.3,0.1-0.5c0-0.2,0-0.4,0-0.6c0-0.3,0-0.5,0-0.7c0-0.2-0.1-0.3-0.2-0.5c-0.1-0.1-0.2-0.2-0.4-0.3
			c-0.2-0.1-0.4-0.2-0.7-0.3c-0.4-0.2-0.8-0.4-1-0.6c-0.3-0.2-0.5-0.4-0.6-0.6c-0.1-0.2-0.2-0.4-0.3-0.7c0-0.2-0.1-0.5-0.1-0.8
			c0-0.4,0-0.7,0.1-1c0.1-0.3,0.2-0.6,0.4-0.8c0.2-0.2,0.4-0.4,0.7-0.5c0.3-0.1,0.6-0.2,1-0.2c0.4,0,0.7,0.1,1,0.2
			c0.3,0.1,0.5,0.3,0.7,0.5c0.2,0.2,0.3,0.4,0.3,0.7c0.1,0.2,0.1,0.5,0.1,0.7l-1.1,0.3c0-0.4-0.1-0.7-0.3-1
			c-0.2-0.2-0.5-0.3-0.9-0.3c-0.2,0-0.4,0-0.6,0.1c-0.1,0.1-0.2,0.2-0.3,0.3c-0.1,0.1-0.1,0.3-0.2,0.5c0,0.2,0,0.3,0,0.5
			c0,0.2,0,0.4,0,0.5c0,0.1,0.1,0.3,0.2,0.4c0.1,0.1,0.2,0.3,0.4,0.4c0.2,0.1,0.5,0.3,0.8,0.4c0.4,0.2,0.7,0.3,1,0.5
			c0.2,0.2,0.4,0.4,0.5,0.6c0.1,0.2,0.2,0.5,0.2,0.7C66.4,99.6,66.4,99.9,66.4,100.3L66.4,100.3z M60.1,102.8v-9.3h1.1v9.3H60.1
			L60.1,102.8z M58.2,102.8l-1.7-4.4l-0.9,1.8v2.7h-1.1v-9.3h1.1v4.6h0l2.2-4.6h1.1l-1.8,3.7l2.1,5.6H58.2L58.2,102.8z M49.7,102.8
			v-9.3h4v1h-2.9v3.1h2.5v1h-2.5v3.2h2.9v1H49.7L49.7,102.8z M47.6,97.9c0.4,0.1,0.7,0.4,0.8,0.8c0.1,0.4,0.2,0.8,0.2,1.4
			c0,1-0.2,1.7-0.6,2.1c-0.4,0.4-1,0.6-1.8,0.6h-1.8v-9.3h2c0.8,0,1.4,0.2,1.7,0.6c0.3,0.4,0.5,1,0.5,1.8c0,0.5-0.1,0.9-0.2,1.2
			C48.2,97.4,48,97.7,47.6,97.9L47.6,97.9L47.6,97.9z M47.6,99.9c0-0.5-0.1-0.9-0.3-1.2c-0.2-0.3-0.6-0.4-1.1-0.4h-0.8v3.5h0.8
			c0.3,0,0.5-0.1,0.7-0.2c0.2-0.1,0.3-0.2,0.4-0.4c0.1-0.2,0.2-0.4,0.2-0.6C47.6,100.4,47.6,100.2,47.6,99.9L47.6,99.9z M47.6,96
			c0-0.5-0.1-0.8-0.3-1.1c-0.2-0.3-0.6-0.4-1-0.4h-0.7v3h0.7c0.5,0,0.8-0.1,1.1-0.4C47.5,96.8,47.6,96.4,47.6,96L47.6,96z
			 M43.5,94.5l-2.7,7.3h2.7v1h-3.7v-1l2.7-7.3h-2.6v-1h3.6V94.5L43.5,94.5z M38.3,93.4h0.6l-0.3,1.5h0.3v1.3h-1.2V95L38.3,93.4
			L38.3,93.4z M35.8,95.8c0-0.2,0-0.3,0-0.5c0-0.2-0.1-0.3-0.1-0.5c-0.1-0.1-0.2-0.3-0.3-0.3c-0.1-0.1-0.3-0.1-0.6-0.1
			c-0.3,0-0.5,0.1-0.6,0.2c-0.1,0.1-0.2,0.3-0.3,0.5c-0.1,0.2-0.1,0.4-0.1,0.6c0,0.2,0,0.4,0,0.5v4.5c0,0.1,0,0.3,0,0.4
			c0,0.2,0.1,0.3,0.2,0.4c0.1,0.1,0.2,0.2,0.3,0.3c0.1,0.1,0.3,0.1,0.5,0.1c0.2,0,0.4,0,0.5-0.1c0.1-0.1,0.3-0.2,0.3-0.3
			c0.1-0.1,0.1-0.3,0.2-0.5c0-0.2,0-0.4,0-0.5V95.8z"/>
		<path fill-rule="evenodd" clip-rule="evenodd" fill="#49B5DE" d="M102.8,133.1v-9.3h1.1v9.3H102.8L102.8,133.1z M99.8,133.2
			c-0.7,0-1.2-0.2-1.6-0.6c-0.3-0.4-0.5-0.9-0.5-1.7v-4.6c0-0.3,0-0.7,0.1-1c0.1-0.3,0.2-0.6,0.3-0.8c0.2-0.2,0.4-0.4,0.6-0.6
			c0.3-0.2,0.6-0.2,1.1-0.2c0.7,0,1.2,0.2,1.6,0.6c0.3,0.4,0.5,0.9,0.5,1.5l-1.1,0.3c0-0.4-0.1-0.7-0.2-1c-0.2-0.2-0.4-0.4-0.8-0.4
			c-0.2,0-0.4,0-0.5,0.1c-0.1,0.1-0.2,0.2-0.3,0.4c-0.1,0.1-0.1,0.3-0.2,0.5c0,0.2,0,0.3,0,0.5v4.7c0,0.1,0,0.3,0,0.4
			c0,0.2,0.1,0.3,0.2,0.4c0.1,0.1,0.2,0.2,0.3,0.3c0.1,0.1,0.3,0.1,0.5,0.1h0c0.3,0,0.6-0.1,0.8-0.3c0.2-0.2,0.3-0.4,0.3-0.7V129
			h-1.1v-0.9h2.1v3c0,0.3-0.1,0.6-0.2,0.9c-0.1,0.3-0.3,0.5-0.5,0.7c-0.2,0.2-0.4,0.3-0.7,0.4C100.4,133.1,100.1,133.2,99.8,133.2
			L99.8,133.2z M95.6,133.1v-9.3h1.1v9.3H95.6L95.6,133.1z M91.2,133.1v-9.3h1.1v8.3h2.7v1H91.2L91.2,133.1z M89.1,133.1l-1.3-4.1
			h-1v4.1h-1.1v-9.3h2c0.8,0,1.3,0.2,1.7,0.7c0.4,0.4,0.5,1.1,0.5,2c0,0.5-0.1,1-0.2,1.4c-0.2,0.4-0.5,0.7-1,0.9l1.4,4.3H89.1
			L89.1,133.1z M88.9,126.4c0-0.2,0-0.5-0.1-0.7c0-0.2-0.1-0.4-0.2-0.5c-0.1-0.1-0.2-0.3-0.4-0.3c-0.2-0.1-0.4-0.1-0.7-0.1h-0.8v3.3
			h0.9c0.2,0,0.4,0,0.6-0.1c0.2-0.1,0.3-0.2,0.4-0.3c0.1-0.1,0.2-0.3,0.2-0.5C88.9,126.9,88.9,126.7,88.9,126.4L88.9,126.4z
			 M83.5,133.1v-9.3h1.1v9.3H83.5L83.5,133.1z M82.4,124.8l-2.7,7.3h2.7v1h-3.7v-1l2.7-7.3h-2.6v-1h3.6V124.8L82.4,124.8z
			 M77.1,133.1l-0.4-2.1h-2.1l-0.4,2.1h-1l2-9.3h1l2,9.3H77.1L77.1,133.1z M75.6,125.7l-0.4,2.2l-0.4,2.2h1.7l-0.5-2.2L75.6,125.7
			L75.6,125.7L75.6,125.7z M71.8,133.1l1.8-9.3h-1.1l-0.7,3.9l-0.5,3.2h0l-0.5-3.2l-0.7-3.9h-1.1l1.7,9.3H71.8z"/>
		<path fill-rule="evenodd" clip-rule="evenodd" fill="#49B5DE" d="M3.4,111c0-0.5-0.1-0.8-0.3-1c-0.2-0.2-0.5-0.3-1-0.3H1.6v2.7
			h0.5c0.4,0,0.7-0.1,0.9-0.3C3.3,111.8,3.4,111.5,3.4,111L3.4,111z M100.2,116.4l-0.8-2l-0.6-1.8h-0.1v6.1H97v-10.5h1.6l1.1,3
			l0.8,2.3h0.1l0.8-2.3l1.1-2.9h1.6v10.5h-1.6v-6.1h-0.1l-0.7,1.9l-0.7,1.9H100.2L100.2,116.4z M171.1,118.7v-10.5h1.6v10.5H171.1
			L171.1,118.7z M167.4,108.1c0.9,0,1.5,0.2,2,0.7c0.5,0.5,0.7,1.3,0.7,2.3c0,0.7-0.1,1.2-0.3,1.7c-0.2,0.5-0.5,0.8-1,1.1l1.6,4.7
			h-1.7l-1.4-4.4h-0.8v4.4H165v-10.5H167.4L167.4,108.1z M166.7,109.7v3.1h0.7c0.4,0,0.7-0.1,0.9-0.4c0.2-0.2,0.3-0.6,0.3-1.2
			c0-0.5-0.1-0.9-0.3-1.1c-0.2-0.3-0.5-0.4-1-0.4H166.7L166.7,109.7z M162.6,118.7l-0.4-2.2h-1.9c-0.1,0.4-0.1,0.7-0.2,1.1
			c-0.1,0.4-0.1,0.7-0.2,1.1h-1.7c0.4-1.8,0.7-3.5,1.1-5.3c0.4-1.7,0.7-3.5,1.1-5.3h1.8l2.1,10.5H162.6L162.6,118.7z M161.2,110.6
			c-0.1,0.7-0.2,1.5-0.3,2.2c-0.1,0.7-0.2,1.5-0.4,2.2h1.4L161.2,110.6L161.2,110.6L161.2,110.6z M153.4,118.7v-10.5h1.6v9h2.9v1.5
			H153.4L153.4,118.7z M150.8,109.7v9h-1.6v-9h-1.7v-1.5h5v1.5H150.8L150.8,109.7z M146.2,118.7h1.7l-2.1-10.5h-1.8
			c-0.4,1.8-0.7,3.5-1.1,5.3c-0.4,1.7-0.7,3.5-1.1,5.3h1.7c0.1-0.4,0.1-0.7,0.2-1.1c0.1-0.4,0.1-0.7,0.2-1.1h1.9L146.2,118.7
			L146.2,118.7z M144.7,110.6L144.7,110.6l0.8,4.4h-1.4c0.1-0.7,0.3-1.5,0.4-2.2C144.5,112,144.6,111.3,144.7,110.6L144.7,110.6z
			 M139.8,111c0-0.5-0.1-0.8-0.3-1c-0.2-0.2-0.5-0.3-1-0.3h-0.5v2.7h0.5c0.4,0,0.7-0.1,0.9-0.3C139.7,111.8,139.8,111.5,139.8,111
			L139.8,111z M139.9,115.3c0-0.5-0.1-0.9-0.3-1.1c-0.2-0.2-0.5-0.4-1-0.4h-0.6v3.3h0.7c0.3,0,0.5,0,0.6-0.1
			c0.2-0.1,0.3-0.2,0.4-0.4c0.1-0.2,0.1-0.4,0.2-0.6C139.9,115.8,139.9,115.6,139.9,115.3L139.9,115.3z M140.3,113.2
			c0.5,0.2,0.8,0.4,1,0.9c0.2,0.4,0.3,0.9,0.3,1.5c0,1.1-0.2,1.9-0.7,2.4c-0.5,0.5-1.2,0.8-2.2,0.8h-2.2v-10.5h2.3
			c0.9,0,1.6,0.2,2,0.7c0.4,0.5,0.6,1.2,0.6,2.1c0,0.5-0.1,0.9-0.2,1.3C141,112.6,140.7,112.9,140.3,113.2L140.3,113.2L140.3,113.2z
			 M134.2,118.7l-0.4-2.2h-1.9c-0.1,0.4-0.1,0.7-0.2,1.1c-0.1,0.4-0.1,0.7-0.2,1.1h-1.7c0.4-1.8,0.7-3.5,1.1-5.3
			c0.4-1.7,0.7-3.5,1.1-5.3h1.8l2.1,10.5H134.2L134.2,118.7z M132.7,110.6c-0.1,0.7-0.2,1.5-0.3,2.2c-0.1,0.7-0.2,1.5-0.4,2.2h1.4
			L132.7,110.6L132.7,110.6L132.7,110.6z M129.5,115.7c0,0.5,0,0.9-0.1,1.3c-0.1,0.4-0.2,0.7-0.4,1c-0.2,0.3-0.5,0.5-0.8,0.6
			c-0.3,0.1-0.8,0.2-1.3,0.2c-0.5,0-0.8-0.1-1.2-0.2c-0.3-0.1-0.6-0.3-0.8-0.5c-0.2-0.2-0.4-0.5-0.5-0.8c-0.1-0.3-0.1-0.6-0.1-1
			l1.6-0.3c0,0.4,0.1,0.7,0.2,1c0.1,0.2,0.4,0.4,0.8,0.4c0.2,0,0.4,0,0.5-0.1c0.1-0.1,0.2-0.2,0.3-0.3c0.1-0.1,0.1-0.3,0.1-0.5
			c0-0.2,0-0.4,0-0.6c0-0.3,0-0.5,0-0.6c0-0.2-0.1-0.3-0.2-0.4c-0.1-0.1-0.2-0.2-0.4-0.3c-0.2-0.1-0.4-0.2-0.6-0.3
			c-0.5-0.2-0.9-0.4-1.2-0.7c-0.3-0.2-0.5-0.5-0.7-0.7c-0.2-0.2-0.3-0.5-0.3-0.8c-0.1-0.3-0.1-0.6-0.1-0.9c0-0.4,0.1-0.8,0.2-1.2
			s0.3-0.7,0.5-0.9c0.2-0.3,0.5-0.5,0.8-0.6c0.3-0.1,0.7-0.2,1.2-0.2c0.5,0,0.9,0.1,1.2,0.2c0.3,0.2,0.6,0.4,0.8,0.6
			c0.2,0.2,0.3,0.5,0.4,0.8c0.1,0.3,0.1,0.6,0.1,0.8l-1.6,0.4c0-0.4-0.1-0.7-0.2-0.9c-0.1-0.2-0.4-0.4-0.8-0.4c-0.2,0-0.4,0-0.5,0.1
			c-0.1,0.1-0.2,0.2-0.3,0.3c-0.1,0.1-0.1,0.3-0.1,0.4c0,0.2,0,0.3,0,0.5c0,0.2,0,0.3,0,0.5c0,0.1,0.1,0.3,0.2,0.4
			c0.1,0.1,0.2,0.2,0.4,0.4c0.2,0.1,0.5,0.2,0.8,0.4c0.5,0.2,0.8,0.4,1.1,0.6c0.3,0.2,0.5,0.4,0.6,0.7c0.1,0.2,0.2,0.5,0.3,0.8
			C129.5,114.9,129.5,115.3,129.5,115.7L129.5,115.7z M121.9,110.7c0-0.3-0.1-0.6-0.2-0.8c-0.1-0.2-0.4-0.3-0.7-0.3
			c-0.2,0-0.3,0-0.5,0.1c-0.1,0.1-0.2,0.2-0.3,0.3c-0.1,0.1-0.1,0.3-0.1,0.4c0,0.2,0,0.3,0,0.4v5.3c0,0.3,0.1,0.5,0.2,0.7
			c0.1,0.2,0.4,0.3,0.7,0.3c0.3,0,0.6-0.1,0.7-0.3c0.1-0.2,0.2-0.5,0.2-0.8V110.7L121.9,110.7z M123.5,116c0,0.9-0.2,1.6-0.6,2.1
			c-0.4,0.5-1.1,0.7-1.9,0.7c-0.9,0-1.5-0.2-1.9-0.7c-0.4-0.4-0.6-1.1-0.6-1.9v-5.3c0-0.4,0-0.8,0.1-1.1c0.1-0.3,0.2-0.6,0.4-0.9
			c0.2-0.2,0.5-0.4,0.8-0.6c0.3-0.1,0.7-0.2,1.2-0.2c0.5,0,0.9,0.1,1.2,0.2c0.3,0.1,0.6,0.3,0.8,0.6c0.2,0.2,0.3,0.5,0.4,0.9
			c0.1,0.3,0.1,0.7,0.1,1.2V116L123.5,116z M113.3,112.5v6.1h-1.6v-10.5h1.5l1.3,3.1c0.1,0.3,0.2,0.5,0.3,0.8
			c0.1,0.3,0.2,0.5,0.3,0.8l0.5,1.5c0,0,0,0,0,0c0,0,0,0,0,0v-6.1h1.6v10.5h-1.4l-1.3-3.1c-0.2-0.5-0.4-1-0.6-1.5
			C113.8,113.5,113.6,113,113.3,112.5L113.3,112.5L113.3,112.5z M110.5,108.1v7.8c0,0.9-0.2,1.6-0.6,2.1c-0.4,0.5-1.1,0.7-1.9,0.7
			c-0.9,0-1.5-0.2-1.9-0.7c-0.4-0.4-0.6-1.1-0.6-1.9v-8h1.6v8c0,0.3,0.1,0.5,0.2,0.7c0.1,0.2,0.4,0.3,0.7,0.3c0.3,0,0.6-0.1,0.7-0.3
			c0.1-0.2,0.2-0.5,0.2-0.8v-7.9H110.5L110.5,108.1z M60.2,116.4l-0.8-2l-0.6-1.8h-0.1v6.1h-1.6v-10.5h1.6l1.1,3l0.8,2.3h0.1
			l0.8-2.3l1.1-2.9h1.6v10.5h-1.6v-6.1h-0.1l-0.7,1.9l-0.7,1.9H60.2L60.2,116.4z M92,109.7v9h-1.6v-9h-1.7v-1.5h5v1.5H92L92,109.7z
			 M87.8,118.7h1.7l-2.1-10.5h-1.8c-0.4,1.8-0.7,3.5-1.1,5.3c-0.4,1.7-0.7,3.5-1.1,5.3H85c0.1-0.4,0.1-0.7,0.2-1.1
			c0.1-0.4,0.1-0.7,0.2-1.1h1.9L87.8,118.7L87.8,118.7z M86.3,110.6L86.3,110.6l0.8,4.4h-1.4c0.1-0.7,0.3-1.5,0.4-2.2
			C86.1,112,86.2,111.3,86.3,110.6L86.3,110.6z M78.9,112.5v6.1h-1.6v-10.5h1.5l1.3,3.1c0.1,0.3,0.2,0.5,0.3,0.8
			c0.1,0.3,0.2,0.5,0.3,0.8l0.5,1.5c0,0,0,0,0,0c0,0,0,0,0,0v-6.1h1.6v10.5h-1.4l-1.3-3.1c-0.2-0.5-0.4-1-0.6-1.5
			C79.4,113.5,79.2,113,78.9,112.5L78.9,112.5L78.9,112.5z M74.6,118.7v-4.6h-1.9v4.6h-1.6v-10.5h1.6v4.4h1.9v-4.4h1.6v10.5H74.6
			L74.6,118.7z M65.5,118.7v-10.5h4.7v1.5h-3v2.9h2.6v1.6h-2.6v3h3v1.5H65.5L65.5,118.7z M46.3,108.1H48l-2,10.5h-2l-2-10.5h1.7
			l0.7,4.3l0.5,3.3h0.1l0.5-3.3L46.3,108.1L46.3,108.1z M52.1,118.7h1.7l-2.1-10.5h-1.8c-0.4,1.8-0.7,3.5-1.1,5.3
			c-0.4,1.7-0.7,3.5-1.1,5.3h1.7c0.1-0.4,0.1-0.7,0.2-1.1c0.1-0.4,0.1-0.7,0.2-1.1h1.9L52.1,118.7L52.1,118.7z M50.6,110.6
			L50.6,110.6l0.8,4.4H50c0.1-0.7,0.3-1.5,0.4-2.2C50.4,112,50.5,111.3,50.6,110.6L50.6,110.6z M37.1,118.7l-1.7-4.5
			c-0.1,0.2-0.2,0.5-0.3,0.7c-0.1,0.2-0.2,0.5-0.4,0.7v3.1H33v-10.5h1.6v4.3h0.1l2-4.3h1.7c-0.4,0.7-0.7,1.4-1.1,2.1
			c-0.4,0.7-0.7,1.4-1.1,2.1l2.4,6.3H37.1L37.1,118.7z M30.2,118.7v-10.5h1.6v10.5H30.2L30.2,118.7z M24.8,118.7v-10.5h1.6v9h2.9
			v1.5H24.8L24.8,118.7z M22.1,110.9c0-0.4-0.1-0.7-0.2-0.9c-0.1-0.2-0.4-0.3-0.8-0.3h-0.7v7.5H21c0.4,0,0.7-0.1,0.8-0.3
			c0.2-0.2,0.2-0.5,0.2-0.9V110.9L22.1,110.9z M21.3,108.1c0.6,0,1.1,0.1,1.5,0.3c0.4,0.2,0.6,0.6,0.8,1.1c0.1,0.4,0.2,0.9,0.2,1.5
			c0,0.7,0,1.4,0,2.3c0,0.9,0,1.6,0,2.2c0,0.6-0.1,1.1-0.2,1.5c-0.2,0.6-0.5,1-0.9,1.2c-0.4,0.2-0.9,0.3-1.4,0.3h-2.5v-10.5H21.3
			L21.3,108.1z M13.6,112.5v6.1H12v-10.5h1.5l1.3,3.1c0.1,0.3,0.2,0.5,0.3,0.8c0.1,0.3,0.2,0.5,0.3,0.8l0.5,1.5c0,0,0,0,0,0
			c0,0,0,0,0,0v-6.1h1.6v10.5h-1.4l-1.3-3.1c-0.2-0.5-0.4-1-0.6-1.5C14.1,113.5,13.9,113,13.6,112.5L13.6,112.5L13.6,112.5z
			 M9.7,118.7l-0.4-2.2H7.3c-0.1,0.4-0.1,0.7-0.2,1.1c-0.1,0.4-0.1,0.7-0.2,1.1H5.3c0.4-1.8,0.7-3.5,1.1-5.3
			c0.4-1.7,0.7-3.5,1.1-5.3h1.8l2.1,10.5H9.7L9.7,118.7z M8.3,110.6c-0.1,0.7-0.2,1.5-0.3,2.2c-0.1,0.7-0.2,1.5-0.4,2.2H9L8.3,110.6
			L8.3,110.6L8.3,110.6z M3.5,115.3c0-0.5-0.1-0.9-0.3-1.1c-0.2-0.2-0.5-0.4-1-0.4H1.6v3.3h0.7c0.3,0,0.5,0,0.6-0.1
			c0.2-0.1,0.3-0.2,0.4-0.4c0.1-0.2,0.1-0.4,0.2-0.6C3.5,115.8,3.5,115.6,3.5,115.3L3.5,115.3z M3.8,113.2c0.5,0.2,0.8,0.4,1,0.9
			c0.2,0.4,0.3,0.9,0.3,1.5c0,1.1-0.2,1.9-0.7,2.4s-1.2,0.8-2.2,0.8H0v-10.5h2.3c0.9,0,1.6,0.2,2,0.7c0.4,0.5,0.6,1.2,0.6,2.1
			c0,0.5-0.1,0.9-0.2,1.3C4.5,112.6,4.2,112.9,3.8,113.2L3.8,113.2z"/>
	</g>
</g>
</svg>
