<?xml version="1.0" encoding="utf-8"?>
<!-- Generator: Adobe Illustrator 17.1.0, SVG Export Plug-In . SVG Version: 6.00 Build 0)  -->
<!DOCTYPE svg PUBLIC "-//W3C//DTD SVG 1.1//EN" "http://www.w3.org/Graphics/SVG/1.1/DTD/svg11.dtd">
<svg version="1.1" id="Слой_1" xmlns="http://www.w3.org/2000/svg" xmlns:xlink="http://www.w3.org/1999/xlink" x="0px" y="0px"
	 viewBox="0 0 201.1 133.2" enable-background="new 0 0 201.1 133.2" xml:space="preserve" width='220px' height='144px'>
<g>
	<g>
		<path fill-rule="evenodd" clip-rule="evenodd" fill="#49B5DE" d="M104,42.8c0.8,0,1.5,0.7,1.5,1.5c0,0.5-0.3,1-0.7,1.2V49
			l-2.5,2.5v4.8c0,0.4-0.4,0.8-0.8,0.8c-0.4,0-0.8-0.4-0.8-0.8v-5.2l0,0v0c0-0.1,0-0.1,0-0.2l0,0l0,0l0,0l0,0l0,0l0,0l0,0l0,0l0,0
			l0,0l0,0l0,0l0,0l0,0l0,0l0,0l0,0l0,0l0,0l0,0l0,0l0,0l0,0l0,0c0,0,0,0,0.1-0.1l0,0l0,0l0,0l0,0l0,0l0,0l2.2-2.2v-2.9
			c-0.4-0.3-0.7-0.7-0.7-1.2C102.5,43.4,103.2,42.8,104,42.8L104,42.8z M96,0c-3.6,1.3-7.1,3.2-9.9,5.7c-3.1,2.7-5.6,6.1-7.2,9.9
			c-1,2.4-1.7,4.9-2,7.5c-0.7,7.1,2.1,13.3,7.5,17.9c0.8,0.7,1.6,1.4,2.3,2.1c0.5,0.6,1,1.1,1.3,1.9c0,0,0,0.1,0.1,0.1
			c-0.3,0.4-0.6,0.8-0.9,1.1c0-0.3-0.1-0.6-0.2-0.8c-0.2-0.6-0.6-1-1-1.5c-0.7-0.7-1.5-1.4-2.3-2C78,37,75.1,30.4,75.8,22.9
			c0.3-2.7,1-5.3,2-7.8c2.6-5.9,6.2-10,11.8-13.1c-7.5,2.4-19.3,9.8-21.3,20.2c-0.1-0.2-0.4-0.7-0.6-1.1c-2.9,6.5-4.2,16.9-1,22.1
			c-0.5-0.2-0.9-0.4-1.1-0.7c0.8,3.9,2.2,10.7,7.9,10.6c-1.4,0.3-2.9,0.3-3.9,0.1c1.4,2.5,3.7,6,7.1,5.8c-0.5,0.4-1.6,0.7-2.2,0.8
			c1.1,1.2,3.1,3.6,6.3,3.2c-0.4,0.4-1.1,0.6-2,0.7c1.5,1.2,3.1,2.2,4.8,3.1c0.2,0.5,0.5,1.1,0.7,1.6c-2.7-1.3-5.3-3-7.6-5
			c0.3,0,0.5,0,0.7-0.1c-2.5-0.9-3.7-2.7-4.8-4c0.3,0,0.5,0,0.7-0.1c-2.6-1.3-4.4-4.8-5.6-7c0.3,0.1,0.8,0.1,1,0
			c-3.1-2.9-4.1-7.7-4.7-11.6c0.2,0.1,0.3,0.2,0.4,0.2c-1.3-5.7-1.1-13.3,3.1-21.7c0.1,0.2,0.2,0.3,0.4,0.4C72.1,8.5,83.9,1,96,0
			L96,0z M111.6,79.4c-0.6,0.4-1.2,0.8-1.4,1.6c-0.9,0.5-1.6,0.8-2.9,1c1.3,0.2,2.5,0.1,3.8-0.2C111,80.9,111.2,80,111.6,79.4
			L111.6,79.4z M114.5,75.8c0,0.4,0,0.9,0,1.2c-0.4,0.3-1.2,0.6-1.9,0.7c1.3,0.2,2.5,0.1,3.6-0.4C115.5,77,115,76.6,114.5,75.8
			L114.5,75.8z M111.9,78.7c2,0.6,4.3,0.6,6.5-1.1c-1.9-1.1-3.5-2.6-4.5-4.5l0.9-0.8c1.1,2.3,3.1,4,5.6,5c-1.6,2-4.2,3.1-6.4,2.9
			c-0.8,0.9-1.1,2.6-0.3,3.7c-4.1,0.5-6.5,1.2-9.3-1l0.2-1.3c1,0.7,1.7,1.3,2.9,1.5c0.8,0.1,1.7,0.1,2.5,0c0.7-0.1,1.3-0.2,2-0.2
			c-0.1-1.1,0.1-2.3,0.8-3.1C112.5,79.4,112.1,79.2,111.9,78.7L111.9,78.7z M89.5,79.4c0.6,0.4,1.2,0.8,1.4,1.6
			c0.9,0.5,1.6,0.8,2.9,1c-1.3,0.2-2.5,0.1-3.8-0.2C90,80.9,89.8,80,89.5,79.4L89.5,79.4z M86.6,75.8c0,0.4,0,0.9,0,1.2
			c0.4,0.3,1.2,0.6,1.9,0.7c-1.3,0.2-2.5,0.1-3.6-0.4C85.6,77,86,76.6,86.6,75.8L86.6,75.8z M89.1,78.7c-2,0.6-4.3,0.6-6.5-1.1
			c1.9-1.1,3.5-2.6,4.5-4.5l-0.9-0.8c-1.1,2.3-3.1,4-5.6,5c1.6,2,4.2,3.1,6.4,2.9c0.8,0.9,1.1,2.6,0.3,3.7c4.1,0.5,6.5,1.2,9.3-1
			l-0.2-1.3c-1,0.7-1.7,1.3-2.9,1.5c-0.8,0.1-1.7,0.1-2.5,0c-0.7-0.1-1.3-0.2-2-0.2c0.1-1.1-0.1-2.3-0.8-3.1
			C88.6,79.4,89,79.2,89.1,78.7L89.1,78.7z M112.9,45.1c0.3,0.4,0.6,0.8,0.9,1.1c0-0.3,0.1-0.6,0.2-0.8c0.2-0.6,0.6-1,1-1.5
			c0.7-0.7,1.5-1.4,2.3-2c5.7-4.9,8.6-11.4,7.9-18.9c-0.3-2.7-1-5.3-2-7.8c-2.6-5.9-6.2-10-11.8-13.1c7.5,2.4,19.3,9.8,21.3,20.2
			c0.1-0.2,0.4-0.7,0.6-1.1c2.9,6.5,4.2,16.9,1,22.1c0.5-0.2,0.9-0.4,1.1-0.7c-0.8,3.9-2.2,10.7-7.9,10.6c1.4,0.3,2.9,0.3,3.9,0.1
			c-1.4,2.5-3.7,6-7.1,5.8c0.5,0.4,1.6,0.7,2.2,0.8c-1.1,1.2-3.1,3.6-6.3,3.2c0.4,0.4,1.1,0.6,2,0.7c-1.5,1.2-3.1,2.2-4.8,3.1
			c-0.2,0.5-0.5,1.1-0.7,1.6c2.7-1.3,5.3-3,7.6-5c-0.3,0-0.5,0-0.7-0.1c2.5-0.9,3.7-2.7,4.8-4c-0.3,0-0.5,0-0.7-0.1
			c2.6-1.3,4.4-4.8,5.6-7c-0.3,0.1-0.8,0.1-1,0c3.1-2.9,4.1-7.7,4.7-11.6c-0.2,0.1-0.3,0.2-0.4,0.2c1.3-5.7,1.1-13.3-3.1-21.7
			c-0.1,0.2-0.2,0.3-0.4,0.4C129,8.5,117.2,1,105.1,0c3.6,1.3,7.1,3.2,9.9,5.7c3.1,2.7,5.6,6.1,7.2,9.9c1,2.4,1.7,4.9,2,7.5
			c0.7,7.1-2.1,13.3-7.5,17.9c-0.8,0.7-1.6,1.4-2.3,2.1c-0.5,0.6-1,1.1-1.3,1.9C113,45,113,45,112.9,45.1L112.9,45.1z M99.2,36.8
			c-1.2-0.4-1.6-1.6-1.1-2.9c0,0.9,0.3,1.6,1,1.9c0.7-0.5,0.9-1.2,0.7-2.1C100.5,35,100.3,36.3,99.2,36.8L99.2,36.8z M107.9,31.2
			c-0.6-0.3-1.2-0.4-1.8-0.4c-0.3,0-0.6-0.2-0.5-0.8c-0.6,1.4-0.8,2.2-2.6,1.8c-1-0.2-1.5,0.6-1.3,1.5c0.1,0.5,0.3,1.3-0.2,1.8
			c-0.2-0.8-0.7-1.2-1.2-1.5c0.8,1.3,0.5,2.1,0.3,2.5c2.1-0.4,2.1,1.3,1.8,2.1c0.5,0,1,0.1,1.4,0.1c-0.5-1.7-0.9-3.4-1.1-5.2
			c0-0.3,0-0.4,0.2-0.3c1.2,0.2,2.3,0,3-1c1.2-0.1,2.1,0.3,3,0.9c0.2-1.9,0.3-3.7-2-4.4c-0.3-1.1-1.2-1.5-2.3-1.4
			c-1.5-2.3-6.8,0.1-8.9-1.4c-0.7-0.5-0.9-1.4-1-2.2c-0.7,0.7-1.3,1.2-1.6,2.2c-0.5,1.4-0.2,3.1,0.7,4.3c0.6,0.8,1.5,1.4,2.4,1.6
			c-0.1,0.1-0.2,0.2-0.2,0.3c-1.2,1.9-1,4.7-1,6.9c0.3-0.1,0.7-0.1,1-0.2c-0.3-1,0-2.2,1.5-2.3c-0.2-0.4-0.5-1.2,0.3-2.5
			c-0.5,0.2-1,0.7-1.2,1.5c-0.4-0.6-0.4-1.2-0.2-1.7c0.1-0.3,0.2-0.5,0.3-0.7c0,0,0-0.1,0-0.1c1-2,4.6-0.7,5.6-3.8
			c-0.3,0.4-0.7,0.7-1.1,0.9c-0.6,0.3-1.1-0.9-1.9-0.9c0.3,0.2,0.4,0.6,0.4,1c-0.1,0.4-0.3,0.5-0.6,0.2c-0.3-0.3-0.5-0.9-1.1-1
			c0.3,0.3,0.3,0.7,0.2,1c-0.1,0.4-0.4,0.6-0.7,0.2c-0.2-0.2-0.3-0.6-0.6-0.8c0.1,0.5-0.4,1-1,0.7c-0.9-0.4-1.5-1-1.9-1.9
			c-0.3-0.9-0.3-1.9,0.1-2.7c0,0,0,0,0-0.1c1.9,3.5,8.7,0.1,9.6,2.3L104,28l0.4,0c0.7-0.1,1.5-0.1,1.6,0.8l0,0.4l0.3,0.1
			C107.4,29.5,107.9,30.2,107.9,31.2L107.9,31.2z M97,38.3c0.2-0.4,0.5-0.6,0.7-0.8c-0.1,0.3-0.2,0.5-0.3,0.8
			C97.3,38.3,97.2,38.3,97,38.3L97,38.3z M101.2,38.2c-0.1-0.3-0.4-0.7-0.7-1.1c0.5,0.1,1,0.4,1.4,1.1
			C101.7,38.2,101.4,38.2,101.2,38.2L101.2,38.2z M98.1,38.2c0-0.2,0.1-0.4,0.1-0.6c0,0.2,0,0.4,0.1,0.5L98.1,38.2L98.1,38.2z
			 M100.2,38.2c0-0.2-0.1-0.5-0.1-0.8c0.2,0.3,0.3,0.5,0.4,0.8L100.2,38.2L100.2,38.2z M74.8,26.8c-0.2,6.5,2.5,12,8.2,17.3
			c1.2,1.3,1.3,2.7,1.7,4c0.2-0.1,0.4-0.2,0.6-0.4c-0.1-0.6-0.1-1.1-0.2-1.5c0.3,0.2,0.5,0.6,0.7,1.2c0.2-0.1,0.3-0.3,0.5-0.4
			c0-0.2-0.1-0.4-0.1-0.6c0-0.2-0.1-0.5-0.2-0.7c-0.4-1-2.2-2.4-3-3.1C78.2,38.4,75.2,33,74.8,26.8L74.8,26.8z M75.1,36.6
			c-6.9-6.2-5.2-16.9,0.1-21.4c-0.6,2.5-0.7,5-0.4,7.6c0.3-2.8,1-5.5,2.1-8.1c1.3-3,3.2-6,5.6-8.6c-5.2,3.3-10.5,8.3-12.5,14
			C68.3,25.3,69.1,32.9,75.1,36.6L75.1,36.6z M67.6,25.5c-2.9,9.5-2,21.1,7.1,18.6c-5.6,0.2-7.6-3.3-7.1-11c1.4,3.4,4.4,5.2,7.2,6.1
			C70.3,36.1,67.8,32.7,67.6,25.5L67.6,25.5z M67.5,45.4c1.4,7.1,6,7.4,8.7,4.8c-3.2,1.7-5.4,0.2-6.4-2.2c2.6,0.2,3.9-0.5,5.2-1.6
			C72.6,47.1,70.2,47.2,67.5,45.4L67.5,45.4z M71.8,54.8c3.3,5.1,6.7,2.6,7.6,0.8c-1.5,1.3-3.7,1.5-4.8,0.1c1.4-0.6,2.4-1.7,2.9-2.8
			C75.8,54.2,73.9,54.8,71.8,54.8L71.8,54.8z M80.6,56.9c-0.9,1.8-2.3,3-4.1,3.5c1.7,1.9,4.4,2.2,5.5,0.7c0-0.3-0.1-0.5-0.1-0.8
			c-0.7,0.8-1.8,1.1-2.9,0.3C79.9,59.5,80.4,58.3,80.6,56.9L80.6,56.9z M82.9,64.6c-0.1-0.4-0.2-0.8-0.3-1.1
			c-0.4,0.5-0.8,0.7-1.4,0.8C82,64.8,82.6,64.9,82.9,64.6L82.9,64.6z M75.6,38.7c-1.2,6.4,2,5.7,3.9,5.5c-1.8-0.3-3.3-1-3.2-2.9
			c0.9,0.6,2.2,0.8,3.2,0.8C77.2,41.1,76.1,39.3,75.6,38.7L75.6,38.7z M75.7,45.1c-0.1,5.7,3.4,4.3,4.6,3.1
			c-1.7,0.6-3.1,0.3-3.2-1.3c1.4,0.1,2.3-0.5,2.9-1.1C77.4,46.5,76.3,45.6,75.7,45.1L75.7,45.1z M77,50.8c1.6,4,3.4,2.9,4.4,1.5
			c0-0.2,0-0.3,0-0.5c-1.1,0.9-2.1,1-2.5,0.1c1.3-0.6,1.8-1.6,2-2.4C79.1,51.2,77.7,50.9,77,50.8L77,50.8z M79.5,54.8
			c0.8,1.2,1.5,1.8,2,2.1c-0.1-0.8-0.1-1.7-0.1-2.5C80.6,54.9,79.9,54.8,79.5,54.8L79.5,54.8z M80.3,44.1c0.1,4.2,2.1,3.4,3.2,2.9
			c-1.1,0.1-2.2-0.1-2.2-1.4c0.7,0.2,1.3,0.1,1.9,0C81.6,45.4,80.7,44.4,80.3,44.1L80.3,44.1z M81,48.2c0.2,0.7,0.4,1.2,0.6,1.6
			l0-0.3l0.5-0.2c0-0.1,0-0.1-0.1-0.2c0.9-0.2,1.3-0.7,1.6-1.2C82.3,48.8,81.4,48.4,81,48.2L81,48.2z M73.2,20.4
			c-1.7,3.2-2,9.6,1.8,14.1c-0.9-1.2-2.2-5.4-1.7-8.8C72.8,24.2,72.7,22.3,73.2,20.4L73.2,20.4z M69,38.2c0.6,2.8,2.1,4.5,4.8,4.6
			c-1.1-0.5-2-1-2.5-1.8c0.7,0.1,1.5,0.1,2.3-0.2C71.7,40.5,70.2,39.5,69,38.2L69,38.2z M72.7,49.2c0.7,0.6,1.6,0.7,2.5,0.3
			c-0.3,0-0.6-0.1-0.8-0.3c0.2-0.2,0.3-0.5,0.3-0.7C74.2,49,73.5,49.2,72.7,49.2L72.7,49.2z M76.5,55.5c0.7,0.1,1.5,0.2,2.1-0.5
			c-0.3,0.1-0.5,0.1-0.7,0c0.1-0.3,0.1-0.6,0-0.9C77.7,54.7,77.2,55.2,76.5,55.5L76.5,55.5z M80.4,59.9c0.5-0.1,1-0.3,1.3-0.7
			c0-0.1,0-0.2,0-0.4c-0.1,0-0.2,0.1-0.3,0c0-0.2-0.2-0.6-0.4-0.8C81.1,58.7,80.8,59.4,80.4,59.9L80.4,59.9z M126.3,26.8
			c0.2,6.5-2.5,12-8.2,17.3c-1.2,1.3-1.3,2.7-1.7,4c-0.2-0.1-0.4-0.2-0.6-0.4c0.1-0.6,0.1-1.1,0.2-1.5c-0.3,0.2-0.5,0.6-0.7,1.2
			c-0.2-0.1-0.3-0.3-0.5-0.4c0-0.2,0.1-0.4,0.1-0.6c0-0.2,0.1-0.5,0.2-0.7c0.4-1,2.2-2.4,3-3.1C122.9,38.4,125.8,33,126.3,26.8
			L126.3,26.8z M125.9,36.6c6.9-6.2,5.2-16.9-0.1-21.4c0.6,2.5,0.7,5,0.4,7.6c-0.3-2.8-1-5.5-2.1-8.1c-1.3-3-3.2-6-5.6-8.6
			c5.2,3.3,10.5,8.3,12.5,14C132.8,25.3,132,32.9,125.9,36.6L125.9,36.6z M133.5,25.5c2.9,9.5,2,21.1-7.1,18.6
			c5.6,0.2,7.6-3.3,7.1-11c-1.4,3.4-4.4,5.2-7.2,6.1C130.7,36.1,133.3,32.7,133.5,25.5L133.5,25.5z M133.6,45.4
			c-1.4,7.1-6,7.4-8.7,4.8c3.2,1.7,5.4,0.2,6.4-2.2c-2.6,0.2-3.9-0.5-5.2-1.6C128.5,47.1,130.9,47.2,133.6,45.4L133.6,45.4z
			 M129.2,54.8c-3.3,5.1-6.7,2.6-7.6,0.8c1.5,1.3,3.7,1.5,4.8,0.1c-1.4-0.6-2.4-1.7-2.9-2.8C125.3,54.2,127.2,54.8,129.2,54.8
			L129.2,54.8z M120.5,56.9c0.9,1.8,2.3,3,4.1,3.5c-1.7,1.9-4.4,2.2-5.5,0.7c0-0.3,0.1-0.5,0.1-0.8c0.7,0.8,1.8,1.1,2.9,0.3
			C121.2,59.5,120.7,58.3,120.5,56.9L120.5,56.9z M118.2,64.6c0.1-0.4,0.2-0.8,0.3-1.1c0.4,0.5,0.8,0.7,1.4,0.8
			C119,64.8,118.5,64.9,118.2,64.6L118.2,64.6z M125.5,38.7c1.2,6.4-2,5.7-3.9,5.5c1.8-0.3,3.3-1,3.2-2.9c-0.9,0.6-2.2,0.8-3.2,0.8
			C123.9,41.1,125,39.3,125.5,38.7L125.5,38.7z M125.4,45.1c0.1,5.7-3.4,4.3-4.6,3.1c1.7,0.6,3.1,0.3,3.2-1.3
			c-1.4,0.1-2.3-0.5-2.9-1.1C123.6,46.5,124.8,45.6,125.4,45.1L125.4,45.1z M124.1,50.8c-1.6,4-3.4,2.9-4.4,1.5c0-0.2,0-0.3,0-0.5
			c1.1,0.9,2.1,1,2.5,0.1c-1.3-0.6-1.8-1.6-2-2.4C121.9,51.2,123.3,50.9,124.1,50.8L124.1,50.8z M121.6,54.8c-0.8,1.2-1.5,1.8-2,2.1
			c0.1-0.8,0.1-1.7,0.1-2.5C120.5,54.9,121.1,54.8,121.6,54.8L121.6,54.8z M120.8,44.1c-0.1,4.2-2.1,3.4-3.2,2.9
			c1.1,0.1,2.2-0.1,2.2-1.4c-0.7,0.2-1.3,0.1-1.9,0C119.5,45.4,120.4,44.4,120.8,44.1L120.8,44.1z M120.1,48.2
			c-0.2,0.7-0.4,1.2-0.6,1.6l0-0.3l-0.5-0.2c0-0.1,0-0.1,0.1-0.2c-0.9-0.2-1.3-0.7-1.6-1.2C118.8,48.8,119.7,48.4,120.1,48.2
			L120.1,48.2z M127.8,20.4c1.7,3.2,2,9.6-1.8,14.1c0.9-1.2,2.2-5.4,1.7-8.8C128.2,24.2,128.4,22.3,127.8,20.4L127.8,20.4z
			 M132,38.2c-0.6,2.8-2.1,4.5-4.8,4.6c1.1-0.5,2-1,2.5-1.8c-0.7,0.1-1.5,0.1-2.3-0.2C129.4,40.5,130.9,39.5,132,38.2L132,38.2z
			 M128.4,49.2c-0.7,0.6-1.6,0.7-2.5,0.3c0.3,0,0.6-0.1,0.8-0.3c-0.2-0.2-0.3-0.5-0.3-0.7C126.9,49,127.6,49.2,128.4,49.2
			L128.4,49.2z M124.6,55.5c-0.7,0.1-1.5,0.2-2.1-0.5c0.3,0.1,0.5,0.1,0.7,0c-0.1-0.3-0.1-0.6,0-0.9
			C123.4,54.7,123.9,55.2,124.6,55.5L124.6,55.5z M120.7,59.9c-0.5-0.1-1-0.3-1.3-0.7c0-0.1,0-0.2,0-0.4c0.1,0,0.2,0.1,0.3,0
			c0-0.2,0.2-0.6,0.4-0.8C120,58.7,120.2,59.4,120.7,59.9L120.7,59.9z M100.6,27.5c1.4,0.7,2.4,0.1,3.2,0.5c0.6,0.3,0.9,1.5,0.1,1.7
			c0-0.6-0.5-0.5-0.8-0.5c-0.3,0-0.6-0.3-0.6-0.6c0-0.1,0-0.2,0.1-0.3C101.9,28.3,101.1,28.2,100.6,27.5L100.6,27.5z M94.9,27.2
			c-0.1,1,0.3,1.8,1.2,2.3c-0.2-0.4-0.3-0.8-0.4-1.3c1.5,0.2,3.1-0.1,4.4-0.7C98.1,28,96.4,27.8,94.9,27.2L94.9,27.2z M112.1,63.3
			c0.8,0.4,1.6,0.4,2.4,0.2c0.8-0.2,1.5-0.6,2-1.3c0.7-0.8,0.9-1.8,0.8-2.7c-0.1-0.7-0.4-1.5-0.9-2.1c0.2-0.4,0.3-0.8,0.4-1.3
			c0.1-0.8,0.1-1.6-0.2-2.3c-0.3-0.7-0.7-1.3-1.3-1.9c-0.6-0.5-1.4-0.8-2.1-1c-0.8-0.1-1.6,0-2.3,0.2c-0.5,0.2-1,0.5-1.4,0.8
			c-0.7-0.4-1.4-0.5-2.1-0.4c-0.9,0.1-1.9,0.5-2.5,1.3c-0.5,0.6-0.8,1.4-0.9,2.2c0,0.8,0.2,1.6,0.7,2.3c0.2,0.4,0.7,0.4,1.1,0.2
			c0.4-0.2,0.4-0.7,0.2-1.1c-0.3-0.4-0.4-0.9-0.4-1.3c0-0.5,0.2-0.9,0.5-1.3c0.4-0.5,0.9-0.7,1.5-0.8c0.3,0,0.7,0,1,0.1
			c-0.2,0.4-0.4,0.9-0.5,1.3c-0.1,0.4,0.2,0.8,0.6,0.9c0.4,0.1,0.8-0.2,0.9-0.6c0.1-0.5,0.3-1,0.6-1.3c0.3-0.4,0.8-0.7,1.2-0.9
			c0.5-0.2,1-0.2,1.5-0.1c0.5,0.1,0.9,0.3,1.3,0.6c0.4,0.3,0.7,0.8,0.9,1.2c0.2,0.5,0.2,1,0.1,1.5c-0.1,0.5-0.3,1-0.6,1.4
			c-0.3,0.4-0.7,0.7-1.2,0.8c-0.4,0.1-0.6,0.6-0.5,1c0.1,0.4,0.6,0.6,1,0.5c0.6-0.2,1-0.5,1.4-0.9c0.2,0.3,0.3,0.6,0.3,0.9
			c0.1,0.6-0.1,1.1-0.5,1.6c-0.3,0.4-0.7,0.6-1.2,0.7c-0.5,0.1-0.9,0.1-1.4-0.1c-0.4-0.2-0.9,0-1,0.4
			C111.6,62.7,111.7,63.2,112.1,63.3L112.1,63.3z M111.3,64.9c0,0.3,0,0.5,0,0.8l0,0.3l-2.3,1l-0.1,0.4c-0.1,0.3-0.2,0.6-0.3,0.9
			c-0.1,0.3-0.3,0.6-0.4,0.9l-0.2,0.3l0.9,2.3c-0.2,0.3-0.5,0.6-0.7,0.8c-0.3,0.3-0.5,0.5-0.8,0.7l-2.3-0.9l-0.3,0.2
			c-0.3,0.1-0.6,0.3-0.9,0.4c-0.3,0.1-0.6,0.2-0.9,0.3l-0.4,0.1l-1,2.3l-0.3,0c-0.2,0-0.5,0-0.8,0c-0.3,0-0.5,0-0.8,0l-0.3,0l-1-2.3
			l-0.4-0.1c-0.3-0.1-0.6-0.2-0.9-0.3c-0.3-0.1-0.6-0.3-0.9-0.4l-0.3-0.2l-2.3,0.9c-0.3-0.2-0.6-0.5-0.8-0.7
			c-0.3-0.3-0.5-0.5-0.7-0.8l0.9-2.3l-0.2-0.3c-0.1-0.3-0.3-0.6-0.4-0.9c-0.1-0.3-0.2-0.6-0.3-0.9l-0.1-0.4l-2.3-1l0-0.3
			c0-0.2,0-0.5,0-0.8c0-0.4-0.4-0.8-0.8-0.8c-0.4,0-0.8,0.4-0.8,0.8c0,0.3,0,0.6,0,0.9c0,0.3,0.1,0.6,0.1,0.9l0.1,0.4l2.4,1.1
			c0.1,0.2,0.2,0.5,0.3,0.7c0.1,0.2,0.2,0.5,0.3,0.7l-1,2.4l0.3,0.4c0.4,0.5,0.7,0.9,1.2,1.3c0.4,0.4,0.9,0.8,1.3,1.2l0.3,0.3l2.5-1
			c0.2,0.1,0.5,0.2,0.7,0.3c0.2,0.1,0.5,0.2,0.7,0.3l1,2.4l0.4,0.1c0.3,0,0.6,0.1,0.9,0.1c0.3,0,0.6,0,0.9,0c0.3,0,0.6,0,0.9,0
			c0.3,0,0.6-0.1,0.9-0.1l0.4-0.1l1.1-2.4c0.2-0.1,0.5-0.2,0.7-0.3c0.2-0.1,0.5-0.2,0.7-0.3l2.4,1l0.4-0.3c0.5-0.4,0.9-0.7,1.3-1.2
			c0.4-0.4,0.8-0.9,1.2-1.3l0.3-0.3l-1-2.5c0.1-0.2,0.2-0.5,0.3-0.7c0.1-0.2,0.2-0.5,0.3-0.7l2.4-1l0.1-0.4c0-0.3,0.1-0.6,0.1-0.9
			c0-0.3,0-0.6,0-0.9c0-0.4-0.4-0.8-0.8-0.8C111.7,64.2,111.3,64.5,111.3,64.9L111.3,64.9z M89.7,56.8c1.3-4.4-1.9-4.1-2.9-6.1
			C87.7,52.8,85.4,55,89.7,56.8L89.7,56.8z M109.6,57.9c-0.3,0.4-0.6,0.8-0.8,1.1c-0.1,0.2-0.3,0.4-0.4,0.5
			c-0.3-0.2-0.5-0.3-0.8-0.5c-0.5-0.2-1.1-0.4-1.7-0.5c-0.4-0.1-0.8,0.2-0.9,0.6c-0.1,0.4,0.2,0.8,0.6,0.9c0.4,0.1,0.9,0.2,1.3,0.4
			c0.2,0.1,0.3,0.2,0.5,0.3c-1.4,1.6-3,3.1-4.8,4.4c-0.7,0.6-1.5,1.1-2.3,1.6c-0.2-0.1-0.4-0.3-0.6-0.4c-0.4-0.2-0.8-0.2-1.1,0.2
			c-0.2,0.4-0.2,0.8,0.2,1.1c-0.8,0.5-1.7,0.9-2.6,1.3c-0.4,0.2-0.6,0.6-0.4,1c0.2,0.4,0.6,0.6,1,0.4c1.2-0.5,2.3-1.1,3.4-1.7
			c0.4,0.2,0.8,0.5,1.2,0.7c0.9,0.5,1.8,1,2.8,1.4c0.4,0.2,0.9,0,1-0.4c0.2-0.4,0-0.9-0.4-1c-0.9-0.4-1.8-0.8-2.7-1.3
			c-0.1-0.1-0.3-0.2-0.4-0.2c0.6-0.4,1.2-0.8,1.8-1.2c1.8-1.4,3.5-3,5-4.7c0.1,0.1,0.2,0.3,0.4,0.4c0.3,0.4,0.5,0.8,0.6,1.2
			c0.1,0.4,0.6,0.6,1,0.5c0.4-0.1,0.6-0.6,0.5-1c-0.2-0.5-0.5-1.1-0.8-1.5c-0.2-0.3-0.4-0.5-0.6-0.8c0.2-0.2,0.3-0.4,0.5-0.6
			c0.3-0.4,0.6-0.8,0.9-1.2c0.2-0.4,0.2-0.8-0.2-1.1C110.4,57.5,109.9,57.5,109.6,57.9L109.6,57.9z M98.7,61.5
			c1.9,2.9-0.4,3.2-0.6,4.8C96.8,63.5,98.5,63.1,98.7,61.5L98.7,61.5z M92,65.7c3,2.8,3.8,0.2,5.7,0.3C94.8,63.9,93.9,65.8,92,65.7
			L92,65.7z M89.4,62.7c2.7,3.6,4,1,6,1.5C92.7,61.3,91.4,63.2,89.4,62.7L89.4,62.7z M95,57.7c-0.1,1.8-2,2.4-0.3,5.5
			C94.8,61.4,97.4,60.9,95,57.7L95,57.7z M93.6,55.1c-0.2,1.9-2.3,2.4-0.7,5.8C93.2,59,95.9,58.7,93.6,55.1L93.6,55.1z M87.4,59.8
			c2.3,3.9,3.9,1.4,5.9,2.1C90.8,58.8,89.3,60.5,87.4,59.8L87.4,59.8z M85.7,56.6c1.7,4.2,3.7,2,5.5,2.9
			C89.3,56.1,87.5,57.6,85.7,56.6L85.7,56.6z M91.5,52.7c-0.1,2.1-2.2,2.8-0.2,6.2C91.3,56.8,94.2,56.3,91.5,52.7L91.5,52.7z
			 M97.1,59.4c-0.2,1.8-2.2,2.3-0.6,5.5C96.7,63,99.2,62.8,97.1,59.4L97.1,59.4z M97.4,54.2v3.9l4.4,4.4c0.3,0.3,0.8,0.3,1.1,0
			c0.3-0.3,0.3-0.8,0-1.1L99,57.4v-7.2l2.5-2.5v-2.3c0.4-0.3,0.7-0.7,0.7-1.2c0-0.8-0.7-1.5-1.5-1.5c-0.8,0-1.5,0.7-1.5,1.5
			c0,0.5,0.3,1,0.7,1.2v1.7l-2.5,2.5V52l-1.8-1.8v-4.7c0.4-0.3,0.7-0.7,0.7-1.2c0-0.8-0.7-1.5-1.5-1.5c-0.8,0-1.5,0.7-1.5,1.5
			c0,0.5,0.3,1,0.7,1.2v5.4L97.4,54.2L97.4,54.2z M104,43.8c-0.3,0-0.5,0.2-0.5,0.5c0,0.3,0.2,0.5,0.5,0.5c0.3,0,0.5-0.2,0.5-0.5
			C104.5,44,104.3,43.8,104,43.8L104,43.8z M100.7,43.8c-0.3,0-0.5,0.2-0.5,0.5c0,0.3,0.2,0.5,0.5,0.5c0.3,0,0.5-0.2,0.5-0.5
			C101.1,44,100.9,43.8,100.7,43.8L100.7,43.8z M94.8,43.8c-0.3,0-0.5,0.2-0.5,0.5c0,0.3,0.2,0.5,0.5,0.5c0.3,0,0.5-0.2,0.5-0.5
			C95.3,44,95.1,43.8,94.8,43.8z"/>
		<path fill-rule="evenodd" clip-rule="evenodd" fill="#49B5DE" d="M100.5,85.1c14.4-6.9,22.5-18.2,20.3-36.8
			c-5.1-1.3-8.1-4.3-8.5-9.4c-3.5-1.5-7.5-2.3-11.8-2.3c-4.3,0-8.3,0.7-11.8,2.3c-0.5,5-3.5,8.1-8.5,9.4
			C78,66.9,86.1,78.2,100.5,85.1L100.5,85.1z M91,40.6c3-1.1,6.3-1.6,9.6-1.6c3.2,0,6.5,0.5,9.6,1.6c0.9,4.8,4,7.9,8.5,9.5
			c1.3,15.1-4.6,25.5-18,32.3c-13.4-6.8-19.4-17.2-18-32.3C87,48.5,90.1,45.4,91,40.6z"/>
	</g>
	<g>
		<path fill-rule="evenodd" clip-rule="evenodd" fill="#49B5DE" d="M86.6,96.5l-0.8,2l-1,2.3h-0.5l-1-2.3l-0.8-2h-0.1v6.6h-1.1v-9.6
			h1.1l1.1,3l0.9,2.3h0l0.9-2.4l1.1-2.9h1.1v9.6h-1.1L86.6,96.5L86.6,96.5L86.6,96.5z M117.2,97.5l1.2-4h1.1l-1.9,5.5v4.1h-1.1V99
			l-1.9-5.5h1.1l0.7,2.2L117.2,97.5L117.2,97.5L117.2,97.5z M113.5,103.1l-1.4-4.2h-1v4.2H110v-9.6h2.1c0.8,0,1.3,0.2,1.7,0.7
			c0.4,0.4,0.5,1.1,0.5,2c0,0.5-0.1,1-0.2,1.5c-0.2,0.4-0.5,0.7-1,1l1.5,4.4H113.5L113.5,103.1z M113.3,96.2c0-0.3,0-0.5-0.1-0.7
			c0-0.2-0.1-0.4-0.2-0.5c-0.1-0.2-0.2-0.3-0.4-0.4c-0.2-0.1-0.4-0.1-0.7-0.1h-0.8v3.4h0.9c0.2,0,0.5,0,0.6-0.1
			c0.2-0.1,0.3-0.2,0.4-0.3c0.1-0.1,0.2-0.3,0.2-0.5C113.3,96.7,113.3,96.5,113.3,96.2L113.3,96.2z M107.7,94.5v8.6h-1.1v-8.6h-1.6
			v-1h4.3v1H107.7L107.7,94.5z M104.7,100.5c0,0.4,0,0.8-0.1,1.1c-0.1,0.3-0.2,0.6-0.4,0.9c-0.2,0.2-0.4,0.4-0.7,0.5
			c-0.3,0.1-0.6,0.2-1.1,0.2c-0.4,0-0.7-0.1-1-0.2c-0.3-0.1-0.5-0.3-0.7-0.5c-0.2-0.2-0.3-0.4-0.4-0.7c-0.1-0.3-0.1-0.6-0.1-0.9
			l1.1-0.2c0,0.2,0,0.4,0.1,0.5c0,0.2,0.1,0.3,0.2,0.4c0.1,0.1,0.2,0.2,0.4,0.3c0.2,0.1,0.3,0.1,0.6,0.1c0.3,0,0.5,0,0.7-0.1
			c0.2-0.1,0.3-0.2,0.4-0.4c0.1-0.2,0.1-0.3,0.1-0.5c0-0.2,0-0.4,0-0.6c0-0.3,0-0.5,0-0.7c0-0.2-0.1-0.3-0.2-0.5
			c-0.1-0.1-0.2-0.2-0.4-0.4c-0.2-0.1-0.4-0.2-0.7-0.3c-0.4-0.2-0.8-0.4-1.1-0.6c-0.3-0.2-0.5-0.4-0.6-0.6c-0.1-0.2-0.2-0.4-0.3-0.7
			c0-0.2-0.1-0.5-0.1-0.8c0-0.4,0-0.7,0.1-1c0.1-0.3,0.2-0.6,0.4-0.8c0.2-0.2,0.4-0.4,0.7-0.5c0.3-0.1,0.6-0.2,1-0.2
			c0.4,0,0.8,0.1,1,0.2c0.3,0.1,0.5,0.3,0.7,0.5c0.2,0.2,0.3,0.4,0.4,0.7c0.1,0.2,0.1,0.5,0.1,0.7l-1.1,0.3c0-0.4-0.1-0.8-0.3-1
			c-0.2-0.2-0.5-0.4-0.9-0.4c-0.2,0-0.4,0-0.6,0.1c-0.1,0.1-0.3,0.2-0.3,0.4c-0.1,0.1-0.1,0.3-0.2,0.5c0,0.2,0,0.3,0,0.5
			c0,0.2,0,0.4,0,0.5c0,0.2,0.1,0.3,0.2,0.4c0.1,0.1,0.3,0.3,0.4,0.4c0.2,0.1,0.5,0.3,0.8,0.4c0.4,0.2,0.7,0.3,1,0.5
			c0.2,0.2,0.4,0.4,0.6,0.6c0.1,0.2,0.2,0.5,0.2,0.7C104.7,99.8,104.7,100.1,104.7,100.5L104.7,100.5z M98.2,103.1v-9.6h1.1v9.6
			H98.2L98.2,103.1z M92.9,96.5v6.5h-1.1v-9.6h1l2,4.9l0.7,1.7l0.1,0v-6.6h1.1v9.6h-1l-2-4.8L92.9,96.5L92.9,96.5L92.9,96.5z
			 M89.2,103.1v-9.6h1.1v9.6H89.2z"/>
		<path fill-rule="evenodd" clip-rule="evenodd" fill="#49B5DE" d="M3.6,110.5c0-0.3-0.1-0.6-0.2-0.8c-0.1-0.2-0.4-0.4-0.8-0.4
			c-0.2,0-0.4,0-0.5,0.1c-0.1,0.1-0.2,0.2-0.3,0.3c-0.1,0.1-0.1,0.3-0.1,0.4c0,0.2,0,0.3,0,0.5v5.6c0,0.3,0.1,0.5,0.2,0.8
			c0.1,0.2,0.4,0.3,0.7,0.3s0.6-0.1,0.7-0.4c0.1-0.2,0.2-0.5,0.2-0.9V110.5L3.6,110.5z M201.1,115.7c0,0.5,0,0.9-0.1,1.3
			c-0.1,0.4-0.2,0.7-0.5,1c-0.2,0.3-0.5,0.5-0.9,0.7c-0.4,0.2-0.8,0.2-1.3,0.2c-0.5,0-0.9-0.1-1.2-0.2c-0.3-0.1-0.6-0.3-0.9-0.6
			c-0.2-0.2-0.4-0.5-0.5-0.9c-0.1-0.3-0.2-0.7-0.2-1l1.7-0.3c0,0.4,0.1,0.7,0.2,1c0.1,0.3,0.4,0.4,0.8,0.4c0.2,0,0.4,0,0.6-0.1
			c0.1-0.1,0.2-0.2,0.3-0.4c0.1-0.1,0.1-0.3,0.1-0.5c0-0.2,0-0.4,0-0.6c0-0.3,0-0.5,0-0.7c0-0.2-0.1-0.3-0.2-0.5
			c-0.1-0.1-0.2-0.2-0.4-0.3c-0.2-0.1-0.4-0.2-0.6-0.3c-0.5-0.2-1-0.5-1.3-0.7c-0.3-0.2-0.6-0.5-0.7-0.7c-0.2-0.3-0.3-0.5-0.3-0.8
			c-0.1-0.3-0.1-0.6-0.1-1c0-0.4,0.1-0.9,0.2-1.2c0.1-0.4,0.3-0.7,0.5-1c0.2-0.3,0.5-0.5,0.9-0.6c0.3-0.1,0.8-0.2,1.2-0.2
			c0.5,0,1,0.1,1.3,0.2c0.3,0.2,0.6,0.4,0.8,0.6c0.2,0.3,0.3,0.5,0.4,0.8c0.1,0.3,0.1,0.6,0.1,0.9l-1.7,0.4c0-0.4-0.1-0.7-0.2-1
			c-0.1-0.3-0.4-0.4-0.8-0.4c-0.2,0-0.4,0-0.5,0.1c-0.1,0.1-0.2,0.2-0.3,0.3c-0.1,0.1-0.1,0.3-0.1,0.4c0,0.2,0,0.3,0,0.5
			c0,0.2,0,0.4,0,0.5c0,0.1,0.1,0.3,0.2,0.4c0.1,0.1,0.3,0.3,0.5,0.4c0.2,0.1,0.5,0.3,0.8,0.4c0.5,0.2,0.9,0.4,1.2,0.6
			c0.3,0.2,0.5,0.5,0.7,0.7c0.1,0.3,0.2,0.6,0.3,0.9C201.1,114.9,201.1,115.3,201.1,115.7L201.1,115.7z M190.1,112.4v6.4h-1.7v-11.1
			h1.5l1.3,3.3c0.1,0.3,0.2,0.5,0.3,0.8c0.1,0.3,0.2,0.5,0.3,0.8l0.6,1.5c0,0,0,0,0,0c0,0,0,0,0,0v-6.4h1.7v11.1h-1.5l-1.3-3.3
			c-0.2-0.5-0.4-1.1-0.6-1.6C190.6,113.5,190.4,113,190.1,112.4L190.1,112.4L190.1,112.4z M185.2,110.5c0-0.3-0.1-0.6-0.2-0.8
			c-0.1-0.2-0.4-0.4-0.8-0.4c-0.2,0-0.4,0-0.5,0.1c-0.1,0.1-0.2,0.2-0.3,0.3c-0.1,0.1-0.1,0.3-0.1,0.4c0,0.2,0,0.3,0,0.5v5.6
			c0,0.3,0.1,0.5,0.2,0.8c0.1,0.2,0.4,0.3,0.7,0.3c0.3,0,0.6-0.1,0.7-0.4c0.1-0.2,0.2-0.5,0.2-0.9V110.5L185.2,110.5z M186.9,116
			c0,1-0.2,1.7-0.6,2.2c-0.4,0.5-1.1,0.7-2,0.7c-0.9,0-1.6-0.2-2-0.7c-0.4-0.5-0.6-1.2-0.6-2v-5.6c0-0.4,0.1-0.8,0.2-1.2
			s0.3-0.7,0.5-0.9c0.2-0.3,0.5-0.5,0.8-0.6c0.3-0.1,0.8-0.2,1.2-0.2c0.5,0,0.9,0.1,1.3,0.2c0.3,0.1,0.6,0.3,0.8,0.6
			c0.2,0.3,0.4,0.6,0.4,0.9c0.1,0.4,0.1,0.8,0.1,1.2V116L186.9,116z M178.2,118.9v-11.1h1.7v11.1H178.2L178.2,118.9z M175.5,109.4
			v9.5h-1.7v-9.5H172v-1.6h5.3v1.6H175.5L175.5,109.4z M170.5,118.9h1.7l-2.2-11.1h-1.9c-0.4,1.9-0.7,3.7-1.1,5.5
			c-0.4,1.8-0.7,3.7-1.1,5.5h1.7c0.1-0.4,0.1-0.8,0.2-1.2c0.1-0.4,0.1-0.8,0.2-1.2h2L170.5,118.9L170.5,118.9z M169,110.4L169,110.4
			l0.8,4.6h-1.5c0.1-0.8,0.3-1.6,0.4-2.3C168.8,111.9,168.9,111.1,169,110.4L169,110.4z M160.8,118.9v-11.1h1.7v9.5h3.1v1.6H160.8
			L160.8,118.9z M154.8,118.9v-11.1h4.9v1.6h-3.2v3h2.8v1.6h-2.8v3.2h3.2v1.6H154.8L154.8,118.9z M150.5,107.8
			c0.9,0,1.6,0.3,2.1,0.8c0.5,0.5,0.8,1.3,0.8,2.5c0,0.7-0.1,1.3-0.3,1.8c-0.2,0.5-0.5,0.9-1,1.1l1.6,4.9h-1.7l-1.4-4.6h-0.8v4.6
			H148v-11.1H150.5L150.5,107.8z M149.7,109.4v3.2h0.7c0.4,0,0.8-0.1,1-0.4c0.2-0.3,0.3-0.7,0.3-1.2c0-0.5-0.1-0.9-0.3-1.2
			c-0.2-0.3-0.5-0.4-1-0.4H149.7L149.7,109.4z M140.4,107.8c0.9,0,1.6,0.3,2.1,0.8c0.5,0.5,0.8,1.3,0.8,2.5c0,0.7-0.1,1.3-0.3,1.8
			c-0.2,0.5-0.5,0.9-1,1.1l1.6,4.9h-1.7l-1.4-4.6h-0.8v4.6h-1.7v-11.1H140.4L140.4,107.8z M139.6,109.4v3.2h0.7c0.4,0,0.8-0.1,1-0.4
			c0.2-0.3,0.3-0.7,0.3-1.2c0-0.5-0.1-0.9-0.3-1.2c-0.2-0.3-0.5-0.4-1-0.4H139.6L139.6,109.4z M134.6,110.5c0-0.3-0.1-0.6-0.2-0.8
			c-0.1-0.2-0.4-0.4-0.8-0.4c-0.2,0-0.4,0-0.5,0.1c-0.1,0.1-0.2,0.2-0.3,0.3c-0.1,0.1-0.1,0.3-0.1,0.4c0,0.2,0,0.3,0,0.5v5.6
			c0,0.3,0.1,0.5,0.2,0.8c0.1,0.2,0.4,0.3,0.7,0.3c0.3,0,0.6-0.1,0.7-0.4c0.1-0.2,0.2-0.5,0.2-0.9V110.5L134.6,110.5z M136.3,116
			c0,1-0.2,1.7-0.6,2.2c-0.4,0.5-1.1,0.7-2,0.7c-0.9,0-1.6-0.2-2-0.7c-0.4-0.5-0.6-1.2-0.6-2v-5.6c0-0.4,0.1-0.8,0.2-1.2
			c0.1-0.4,0.3-0.7,0.5-0.9c0.2-0.3,0.5-0.5,0.8-0.6c0.3-0.1,0.8-0.2,1.2-0.2c0.5,0,0.9,0.1,1.3,0.2c0.3,0.1,0.6,0.3,0.8,0.6
			c0.2,0.3,0.4,0.6,0.4,0.9c0.1,0.4,0.1,0.8,0.1,1.2V116L136.3,116z M127.8,110.8c0-0.5-0.1-0.9-0.3-1.1c-0.2-0.2-0.5-0.3-1-0.3
			h-0.5v2.9h0.6c0.4,0,0.8-0.1,1-0.4C127.6,111.7,127.8,111.3,127.8,110.8L127.8,110.8z M127.8,115.4c0-0.5-0.1-0.9-0.3-1.2
			c-0.2-0.3-0.5-0.4-1-0.4h-0.7v3.4h0.7c0.3,0,0.5-0.1,0.7-0.2c0.2-0.1,0.3-0.2,0.4-0.4c0.1-0.2,0.1-0.4,0.2-0.6
			C127.8,115.9,127.8,115.6,127.8,115.4L127.8,115.4z M128.2,113.1c0.5,0.2,0.8,0.5,1,0.9c0.2,0.4,0.3,1,0.3,1.5
			c0,1.2-0.2,2-0.7,2.5c-0.5,0.5-1.2,0.8-2.3,0.8h-2.3v-11.1h2.4c1,0,1.7,0.3,2.1,0.8c0.4,0.5,0.7,1.3,0.7,2.2c0,0.5-0.1,1-0.3,1.3
			C129,112.5,128.6,112.8,128.2,113.1L128.2,113.1L128.2,113.1z M121.5,118.9l-0.4-2.3h-2c-0.1,0.4-0.1,0.8-0.2,1.2
			c-0.1,0.4-0.1,0.8-0.2,1.2h-1.7c0.4-1.9,0.7-3.7,1.1-5.5c0.4-1.8,0.7-3.7,1.1-5.5h1.9l2.2,11.1H121.5L121.5,118.9z M120,110.4
			c-0.1,0.8-0.2,1.5-0.3,2.3c-0.1,0.8-0.2,1.5-0.4,2.3h1.5L120,110.4L120,110.4L120,110.4z M111.8,118.9v-11.1h1.7v9.5h3.1v1.6
			H111.8L111.8,118.9z M105.2,110.7c0-0.4-0.1-0.7-0.2-0.9c-0.2-0.2-0.4-0.3-0.9-0.3h-0.7v7.9h0.7c0.4,0,0.7-0.1,0.9-0.3
			c0.2-0.2,0.2-0.5,0.2-1V110.7L105.2,110.7z M104.3,107.8c0.7,0,1.2,0.1,1.6,0.3c0.4,0.2,0.6,0.6,0.8,1.2c0.1,0.4,0.2,0.9,0.2,1.6
			c0,0.7,0,1.5,0,2.4c0,0.9,0,1.7,0,2.4c0,0.7-0.1,1.2-0.2,1.6c-0.2,0.6-0.5,1.1-1,1.3c-0.4,0.2-0.9,0.3-1.5,0.3h-2.6v-11.1H104.3
			L104.3,107.8z M95.9,112.4v6.4h-1.7v-11.1h1.5l1.3,3.3c0.1,0.3,0.2,0.5,0.3,0.8c0.1,0.3,0.2,0.5,0.3,0.8l0.6,1.5c0,0,0,0,0,0
			c0,0,0,0,0,0v-6.4h1.7v11.1h-1.5l-1.3-3.3c-0.2-0.5-0.4-1.1-0.6-1.6C96.3,113.5,96.1,113,95.9,112.4L95.9,112.4L95.9,112.4z
			 M91.5,118.9l-0.4-2.3h-2c-0.1,0.4-0.1,0.8-0.2,1.2c-0.1,0.4-0.1,0.8-0.2,1.2h-1.7c0.4-1.9,0.7-3.7,1.1-5.5
			c0.4-1.8,0.7-3.7,1.1-5.5H91l2.2,11.1H91.5L91.5,118.9z M90,110.4c-0.1,0.8-0.2,1.5-0.3,2.3c-0.1,0.8-0.2,1.5-0.4,2.3h1.5
			L90,110.4L90,110.4L90,110.4z M81.5,109.4v9.5h-1.7v-9.5H78v-1.6h5.3v1.6H81.5L81.5,109.4z M73.1,112.4v6.4h-1.7v-11.1h1.5
			l1.3,3.3c0.1,0.3,0.2,0.5,0.3,0.8c0.1,0.3,0.2,0.5,0.3,0.8l0.6,1.5c0,0,0,0,0,0c0,0,0,0,0,0v-6.4h1.7v11.1h-1.5l-1.3-3.3
			c-0.2-0.5-0.4-1.1-0.6-1.6C73.6,113.5,73.4,113,73.1,112.4L73.1,112.4L73.1,112.4z M65.4,118.9v-11.1h4.9v1.6h-3.2v3h2.8v1.6h-2.8
			v3.2h3.2v1.6H65.4L65.4,118.9z M59.5,116.5l-0.8-2.1l-0.7-1.9h-0.1v6.4h-1.7v-11.1h1.7l1.2,3.1l0.9,2.4H60l0.9-2.5l1.2-3.1h1.7
			v11.1h-1.7v-6.4H62l-0.7,2l-0.8,2H59.5L59.5,116.5z M52.4,112.1l0.5-2l0.6-2.4h1.8l-2.1,6.5v4.6h-1.7v-4.6l-2.2-6.5h1.8l0.7,2.4
			L52.4,112.1L52.4,112.1L52.4,112.1z M47.2,110.5c0-0.3-0.1-0.6-0.2-0.8c-0.1-0.2-0.4-0.4-0.8-0.4c-0.2,0-0.4,0-0.5,0.1
			c-0.1,0.1-0.2,0.2-0.3,0.3c-0.1,0.1-0.1,0.3-0.1,0.4c0,0.2,0,0.3,0,0.5v5.6c0,0.3,0.1,0.5,0.2,0.8c0.1,0.2,0.4,0.3,0.7,0.3
			s0.6-0.1,0.7-0.4c0.1-0.2,0.2-0.5,0.2-0.9V110.5L47.2,110.5z M48.9,116c0,1-0.2,1.7-0.6,2.2c-0.4,0.5-1.1,0.7-2,0.7
			c-0.9,0-1.6-0.2-2-0.7c-0.4-0.5-0.6-1.2-0.6-2v-5.6c0-0.4,0.1-0.8,0.2-1.2c0.1-0.4,0.3-0.7,0.5-0.9c0.2-0.3,0.5-0.5,0.8-0.6
			c0.3-0.1,0.8-0.2,1.2-0.2c0.5,0,0.9,0.1,1.3,0.2c0.3,0.1,0.6,0.3,0.8,0.6c0.2,0.3,0.4,0.6,0.4,0.9c0.1,0.4,0.1,0.8,0.1,1.2V116
			L48.9,116z M37.9,118.9v-11.1h1.7v9.5h3.1v1.6H37.9L37.9,118.9z M33.8,107.8c1,0,1.8,0.3,2.2,0.8c0.5,0.5,0.7,1.4,0.7,2.6
			c0,0.5,0,1-0.1,1.4c-0.1,0.4-0.3,0.8-0.5,1.1c-0.2,0.3-0.5,0.5-0.9,0.7c-0.4,0.2-0.9,0.3-1.4,0.3h-0.7v4.2h-1.7v-11.1H33.8
			L33.8,107.8z M33.1,109.4v3.6h0.6c0.5,0,0.9-0.2,1.1-0.5c0.2-0.3,0.3-0.8,0.3-1.4c0-0.5-0.1-1-0.3-1.3c-0.2-0.3-0.6-0.5-1.1-0.5
			H33.1L33.1,109.4z M25.5,116.5l-0.8-2.1l-0.7-1.9h-0.1v6.4h-1.7v-11.1h1.7l1.2,3.1l0.9,2.4H26l0.9-2.5l1.2-3.1h1.7v11.1h-1.7v-6.4
			H28l-0.7,2l-0.8,2H25.5L25.5,116.5z M16.2,118.9v-11.1h4.9v1.6h-3.2v3h2.8v1.6h-2.8v3.2h3.2v1.6H16.2L16.2,118.9z M8.6,109.4v3
			h2.8v1.6H8.6v4.8H6.9v-11.1h4.9v1.6H8.6L8.6,109.4z M5.4,116c0,1-0.2,1.7-0.6,2.2c-0.4,0.5-1.1,0.7-2,0.7c-0.9,0-1.6-0.2-2-0.7
			c-0.4-0.5-0.6-1.2-0.6-2v-5.6c0-0.4,0.1-0.8,0.2-1.2c0.1-0.4,0.3-0.7,0.5-0.9c0.2-0.3,0.5-0.5,0.8-0.6c0.3-0.1,0.8-0.2,1.2-0.2
			c0.5,0,0.9,0.1,1.3,0.2c0.3,0.1,0.6,0.3,0.8,0.6c0.2,0.3,0.4,0.6,0.4,0.9c0.1,0.4,0.1,0.8,0.1,1.2V116z"/>
		<path fill-rule="evenodd" clip-rule="evenodd" fill="#49B5DE" d="M36.7,130.6c0,0.9-0.2,1.5-0.5,2c-0.3,0.5-0.9,0.7-1.7,0.7
			c-0.8,0-1.3-0.2-1.7-0.6c-0.3-0.4-0.5-1-0.5-1.7v-4.7c0-0.3,0-0.7,0.1-1c0.1-0.3,0.2-0.6,0.3-0.9c0.2-0.3,0.4-0.5,0.7-0.6
			c0.3-0.2,0.7-0.2,1.1-0.2c0.5,0,0.9,0.1,1.1,0.2c0.3,0.1,0.5,0.3,0.7,0.6c0.2,0.2,0.3,0.5,0.3,0.8c0.1,0.3,0.1,0.7,0.1,1.1V130.6
			L36.7,130.6z M165,126.6v6.5h-1.1v-9.6h1l2,4.9l0.7,1.7l0.1,0v-6.6h1.1v9.6h-1l-2-4.8L165,126.6L165,126.6L165,126.6z M162,133.1
			l-0.4-2.1h-2.1l-0.4,2.1h-1l2-9.6h1l2.1,9.6H162L162,133.1z M160.5,125.6l-0.4,2.2l-0.5,2.2h1.8l-0.5-2.3L160.5,125.6L160.5,125.6
			L160.5,125.6z M156.7,124.6h1.6v-1H154v1h1.6v8.6h1.1V124.6L156.7,124.6z M153.5,130.5c0,0.4,0,0.8-0.1,1.1
			c-0.1,0.3-0.2,0.6-0.4,0.9c-0.2,0.2-0.4,0.4-0.7,0.5c-0.3,0.1-0.6,0.2-1.1,0.2c-0.4,0-0.7-0.1-1-0.2c-0.3-0.1-0.5-0.3-0.7-0.5
			c-0.2-0.2-0.3-0.4-0.4-0.7c-0.1-0.3-0.1-0.6-0.1-0.9l1.1-0.2c0,0.2,0,0.4,0.1,0.5c0,0.2,0.1,0.3,0.2,0.4c0.1,0.1,0.2,0.2,0.4,0.3
			c0.2,0.1,0.3,0.1,0.6,0.1c0.3,0,0.5,0,0.7-0.1c0.2-0.1,0.3-0.2,0.4-0.4c0.1-0.2,0.1-0.3,0.1-0.5c0-0.2,0-0.4,0-0.6
			c0-0.3,0-0.5,0-0.7c0-0.2-0.1-0.3-0.2-0.5c-0.1-0.1-0.2-0.2-0.4-0.4c-0.2-0.1-0.4-0.2-0.7-0.3c-0.4-0.2-0.8-0.4-1.1-0.6
			c-0.3-0.2-0.5-0.4-0.6-0.6c-0.1-0.2-0.2-0.4-0.3-0.7c0-0.2-0.1-0.5-0.1-0.8c0-0.4,0-0.7,0.1-1c0.1-0.3,0.2-0.6,0.4-0.8
			c0.2-0.2,0.4-0.4,0.7-0.5c0.3-0.1,0.6-0.2,1-0.2c0.4,0,0.8,0.1,1,0.2c0.3,0.1,0.5,0.3,0.7,0.5c0.2,0.2,0.3,0.4,0.4,0.7
			c0.1,0.2,0.1,0.5,0.1,0.7l-1.1,0.3c0-0.4-0.1-0.8-0.3-1c-0.2-0.2-0.5-0.4-0.9-0.4c-0.2,0-0.4,0-0.6,0.1c-0.1,0.1-0.3,0.2-0.3,0.4
			c-0.1,0.1-0.1,0.3-0.2,0.5c0,0.2,0,0.3,0,0.5c0,0.2,0,0.4,0,0.5c0,0.2,0.1,0.3,0.2,0.4c0.1,0.1,0.3,0.3,0.4,0.4
			c0.2,0.1,0.5,0.3,0.8,0.4c0.4,0.2,0.7,0.3,1,0.5c0.2,0.2,0.4,0.4,0.6,0.6c0.1,0.2,0.2,0.5,0.2,0.7
			C153.5,129.9,153.5,130.2,153.5,130.5L153.5,130.5z M146.7,133.1v-9.6h1.1v9.6H146.7L146.7,133.1z M144.7,133.1l-1.7-4.6l-0.9,1.8
			v2.8H141v-9.6h1.1v4.8h0l2.3-4.8h1.1l-1.9,3.8l2.2,5.8H144.7L144.7,133.1z M135.9,133.1v-9.6h4.1v1h-3v3.2h2.6v1H137v3.4h3v1
			H135.9L135.9,133.1z M133.5,128.1c0.4,0.1,0.7,0.4,0.9,0.8c0.2,0.4,0.2,0.9,0.2,1.4c0,1-0.2,1.7-0.6,2.2c-0.4,0.4-1,0.7-1.9,0.7
			h-1.8v-9.6h2c0.8,0,1.4,0.2,1.7,0.7c0.3,0.4,0.5,1.1,0.5,1.9c0,0.5-0.1,0.9-0.2,1.2C134.2,127.6,133.9,127.9,133.5,128.1
			L133.5,128.1L133.5,128.1z M133.6,130.2c0-0.5-0.1-0.9-0.3-1.2c-0.2-0.3-0.6-0.4-1.1-0.4h-0.8v3.6h0.9c0.3,0,0.5-0.1,0.7-0.2
			c0.2-0.1,0.3-0.2,0.4-0.4c0.1-0.2,0.2-0.4,0.2-0.6C133.5,130.7,133.6,130.5,133.6,130.2L133.6,130.2z M133.5,126.1
			c0-0.5-0.1-0.9-0.3-1.1c-0.2-0.3-0.6-0.4-1.1-0.4h-0.7v3.1h0.7c0.5,0,0.9-0.1,1.1-0.4C133.4,127,133.5,126.6,133.5,126.1
			L133.5,126.1z M129.3,124.6l-2.8,7.6h2.7v1h-3.9v-1l2.8-7.6h-2.7v-1h3.7V124.6L129.3,124.6z M124.4,123.6v7c0,0.9-0.2,1.5-0.5,2
			c-0.3,0.5-0.9,0.7-1.7,0.7c-0.8,0-1.4-0.2-1.7-0.6c-0.3-0.4-0.5-1-0.5-1.7v-7.3h1.1v7.3c0,0.1,0,0.3,0,0.4c0,0.2,0.1,0.3,0.2,0.4
			c0.1,0.1,0.2,0.2,0.3,0.3c0.1,0.1,0.3,0.1,0.6,0.1c0.2,0,0.4,0,0.6-0.1c0.1-0.1,0.3-0.2,0.3-0.4s0.1-0.3,0.2-0.5
			c0-0.2,0-0.4,0-0.6v-7.1H124.4L124.4,123.6z M112.3,133.1v-9.6h4.1v1h-3v3.2h2.6v1h-2.6v4.4H112.3L112.3,133.1z M111,130.6
			c0,0.9-0.2,1.5-0.5,2c-0.3,0.5-0.9,0.7-1.7,0.7c-0.8,0-1.3-0.2-1.7-0.6c-0.3-0.4-0.5-1-0.5-1.7v-4.7c0-0.3,0-0.7,0.1-1
			s0.2-0.6,0.3-0.9c0.2-0.3,0.4-0.5,0.7-0.6c0.3-0.2,0.7-0.2,1.1-0.2c0.5,0,0.9,0.1,1.1,0.2c0.3,0.1,0.5,0.3,0.7,0.6
			c0.2,0.2,0.3,0.5,0.3,0.8c0.1,0.3,0.1,0.7,0.1,1.1V130.6L111,130.6z M109.9,126c0-0.2,0-0.3,0-0.5c0-0.2-0.1-0.3-0.1-0.5
			c-0.1-0.1-0.2-0.3-0.3-0.4c-0.2-0.1-0.4-0.1-0.6-0.1c-0.3,0-0.5,0.1-0.6,0.2c-0.1,0.1-0.3,0.3-0.3,0.5c-0.1,0.2-0.1,0.4-0.1,0.6
			c0,0.2,0,0.4,0,0.5v4.6c0,0.1,0,0.3,0,0.4c0,0.2,0.1,0.3,0.2,0.4c0.1,0.1,0.2,0.2,0.3,0.3c0.1,0.1,0.3,0.1,0.6,0.1
			c0.2,0,0.4,0,0.6-0.1c0.1-0.1,0.3-0.2,0.3-0.3c0.1-0.1,0.1-0.3,0.2-0.5c0-0.2,0-0.4,0-0.6V126L109.9,126z M100.8,123.5
			c0.7,0,1.3,0.2,1.6,0.6c0.3,0.4,0.5,0.9,0.5,1.6l-1.1,0.2c0-0.4-0.1-0.8-0.2-1c-0.2-0.2-0.4-0.4-0.8-0.4c-0.2,0-0.4,0.1-0.5,0.2
			c-0.1,0.1-0.2,0.2-0.3,0.4c-0.1,0.2-0.1,0.3-0.2,0.5c0,0.2,0,0.4,0,0.5v4.8c0,0.1,0,0.3,0,0.4c0,0.2,0.1,0.3,0.2,0.4
			c0.1,0.1,0.2,0.2,0.3,0.3c0.1,0.1,0.3,0.1,0.5,0.1c0.4,0,0.6-0.1,0.8-0.3c0.2-0.2,0.3-0.6,0.3-1l1.1,0.2c0,0.7-0.2,1.2-0.6,1.6
			c-0.4,0.4-0.9,0.6-1.6,0.6c-0.7,0-1.3-0.2-1.6-0.6c-0.4-0.4-0.5-1-0.5-1.7v-4.7c0-0.3,0-0.7,0.1-1c0.1-0.3,0.2-0.6,0.3-0.9
			c0.2-0.3,0.4-0.5,0.7-0.6C100,123.6,100.3,123.5,100.8,123.5L100.8,123.5z M96.1,133.1v-9.6h1.1v9.6H96.1L96.1,133.1z M91.4,133.1
			v-9.6h1.1v8.6h2.8v1H91.4L91.4,133.1z M89,128.1c0.4,0.1,0.7,0.4,0.9,0.8c0.2,0.4,0.2,0.9,0.2,1.4c0,1-0.2,1.7-0.6,2.2
			c-0.4,0.4-1,0.7-1.9,0.7h-1.8v-9.6h2c0.8,0,1.4,0.2,1.7,0.7c0.3,0.4,0.5,1.1,0.5,1.9c0,0.5-0.1,0.9-0.2,1.2
			C89.6,127.6,89.3,127.9,89,128.1L89,128.1L89,128.1z M89,130.2c0-0.5-0.1-0.9-0.3-1.2c-0.2-0.3-0.6-0.4-1.1-0.4h-0.8v3.6h0.9
			c0.3,0,0.5-0.1,0.7-0.2c0.2-0.1,0.3-0.2,0.4-0.4c0.1-0.2,0.2-0.4,0.2-0.6C89,130.7,89,130.5,89,130.2L89,130.2z M88.9,126.1
			c0-0.5-0.1-0.9-0.3-1.1c-0.2-0.3-0.6-0.4-1.1-0.4h-0.7v3.1h0.7c0.5,0,0.9-0.1,1.1-0.4C88.8,127,88.9,126.6,88.9,126.1L88.9,126.1z
			 M84.3,123.6v7c0,0.9-0.2,1.5-0.5,2c-0.3,0.5-0.9,0.7-1.7,0.7c-0.8,0-1.4-0.2-1.7-0.6c-0.3-0.4-0.5-1-0.5-1.7v-7.3H81v7.3
			c0,0.1,0,0.3,0,0.4c0,0.2,0.1,0.3,0.2,0.4c0.1,0.1,0.2,0.2,0.3,0.3c0.1,0.1,0.3,0.1,0.6,0.1c0.2,0,0.4,0,0.6-0.1
			c0.1-0.1,0.3-0.2,0.3-0.4c0.1-0.1,0.1-0.3,0.2-0.5c0-0.2,0-0.4,0-0.6v-7.1H84.3L84.3,123.6z M76.5,123.6c0.5,0,0.9,0.1,1.2,0.2
			c0.3,0.1,0.6,0.3,0.7,0.6c0.2,0.2,0.3,0.5,0.4,0.9c0.1,0.4,0.1,0.8,0.1,1.2c0,0.4,0,0.8-0.1,1.1c-0.1,0.3-0.2,0.7-0.4,0.9
			c-0.2,0.3-0.4,0.5-0.8,0.6c-0.3,0.1-0.7,0.2-1.3,0.2h-0.8v3.8h-1.1v-9.6H76.5L76.5,123.6z M75.6,128.3h0.7c0.3,0,0.6-0.1,0.8-0.2
			c0.2-0.1,0.3-0.2,0.5-0.4c0.1-0.2,0.2-0.4,0.2-0.6c0-0.2,0-0.5,0-0.7c0-0.3,0-0.5,0-0.7c0-0.2-0.1-0.4-0.2-0.6
			c-0.1-0.2-0.2-0.3-0.4-0.4c-0.2-0.1-0.4-0.1-0.8-0.1h-0.8V128.3L75.6,128.3z M69.5,133.1v-9.6h4.1v1h-3v3.2h2.6v1h-2.6v3.4h3v1
			H69.5L69.5,133.1z M67.3,133.1l-1.4-4.2h-1v4.2h-1.1v-9.6h2.1c0.8,0,1.3,0.2,1.7,0.7c0.4,0.4,0.5,1.1,0.5,2c0,0.5-0.1,1-0.2,1.5
			c-0.2,0.4-0.5,0.7-1,1l1.5,4.4H67.3L67.3,133.1z M67.1,126.3c0-0.3,0-0.5-0.1-0.7c0-0.2-0.1-0.4-0.2-0.5c-0.1-0.2-0.2-0.3-0.4-0.4
			c-0.2-0.1-0.4-0.1-0.7-0.1h-0.8v3.4h0.9c0.2,0,0.5,0,0.6-0.1c0.2-0.1,0.3-0.2,0.4-0.3c0.1-0.1,0.2-0.3,0.2-0.5
			C67,126.8,67.1,126.6,67.1,126.3L67.1,126.3z M56.1,133.1v-9.6h4.1v1h-3v3.2h2.6v1h-2.6v3.4h3v1H56.1L56.1,133.1z M53.5,133.1
			v-4.4h-2.2v4.4h-1.1v-9.6h1.1v4.2h2.2v-4.2h1.1v9.6H53.5L53.5,133.1z M47.8,124.6v8.6h-1.1v-8.6h-1.6v-1h4.3v1H47.8L47.8,124.6z
			 M38.1,133.1v-9.6h4.1v1h-3v3.2h2.6v1h-2.6v4.4H38.1L38.1,133.1z M35.6,126c0-0.2,0-0.3,0-0.5c0-0.2-0.1-0.3-0.1-0.5
			c-0.1-0.1-0.2-0.3-0.3-0.4c-0.2-0.1-0.4-0.1-0.6-0.1c-0.3,0-0.5,0.1-0.6,0.2c-0.1,0.1-0.3,0.3-0.3,0.5c-0.1,0.2-0.1,0.4-0.1,0.6
			c0,0.2,0,0.4,0,0.5v4.6c0,0.1,0,0.3,0,0.4c0,0.2,0.1,0.3,0.2,0.4c0.1,0.1,0.2,0.2,0.3,0.3c0.1,0.1,0.3,0.1,0.6,0.1s0.4,0,0.6-0.1
			c0.1-0.1,0.3-0.2,0.3-0.3s0.1-0.3,0.2-0.5c0-0.2,0-0.4,0-0.6V126z"/>
	</g>
</g>
</svg>
