<?xml version="1.0" encoding="iso-8859-1"?>
<!-- Generator: Adobe Illustrator 19.0.0, SVG Export Plug-In . SVG Version: 6.00 Build 0)  -->
<svg version="1.1" id="Capa_1" xmlns="http://www.w3.org/2000/svg" xmlns:xlink="http://www.w3.org/1999/xlink" x="0px" y="0px"
	 viewBox="0 0 472.48 472.48" style="enable-background:new 0 0 472.48 472.48;" xml:space="preserve" width='30px' height='30px'>
<g>
	<g>
		<path d="M389.198,188.16L309.838,4.8c-1.276-2.925-4.169-4.811-7.36-4.8H89.838c-4.418-0.015-8.012,3.554-8.028,7.972
			c-0.004,1.111,0.224,2.21,0.668,3.228l79.36,183.12v41.04c0,4.418,3.582,8,8,8h7.28l-22.48,136l-4.48,28.8
			c-0.406,2.599,0.491,5.231,2.4,7.04l58,55.04c1.483,1.429,3.46,2.232,5.52,2.24h84.16c4.418,0,8-3.582,8-8V435.6c0,0,0-0.48,0-0.8
			c-0.004-2.618-1.289-5.068-3.44-6.56l-50.72-49.76l22.16-135.12h106.24c4.418,0,8-3.582,8-8v-41.92
			C390.975,191.577,390.493,189.589,389.198,188.16z M175.118,184.64L101.998,16h195.2l73.04,168.64H175.118z M292.238,456.64h-72.8
			l-52.88-49.92l1.44-9.28l44.24,43.12c1.49,1.478,3.501,2.311,5.6,2.32h74.4V456.64z M280.638,426.8h-59.84l-38.72-38h59.68
			L280.638,426.8z M238.958,372.8h-66.72l21.36-129.52h66.64L238.958,372.8z M177.838,227.28v-26.64h196.64l0.48,26.64H177.838z"/>
	</g>
</g>
<g>
	<g>
		<path d="M327.678,156.88l-49.12-119.2c-1.227-2.987-4.13-4.944-7.36-4.96h-119.2c-4.418,0.022-7.982,3.622-7.96,8.04
			c0.005,1.029,0.209,2.048,0.6,3l49.12,119.2c1.227,2.987,4.13,4.944,7.36,4.96h119.2c4.418-0.022,7.982-3.622,7.96-8.04
			C328.273,158.851,328.069,157.832,327.678,156.88z M206.478,151.92l-42.24-103.2h101.6l42.4,103.2H206.478z"/>
	</g>
</g>
<g>
</g>
<g>
</g>
<g>
</g>
<g>
</g>
<g>
</g>
<g>
</g>
<g>
</g>
<g>
</g>
<g>
</g>
<g>
</g>
<g>
</g>
<g>
</g>
<g>
</g>
<g>
</g>
<g>
</g>
</svg>
