<!-- Generated by IcoMoon.io -->
<svg version="1.1" xmlns="http://www.w3.org/2000/svg" width="60" height="60" viewBox="0 0 1024 1024">
<title></title>
<g id="icomoon-ignore">
</g>
<path fill="#2F2F2F" d="M957.917 810.655l-255.99-85.33h-21.322c0 0-21.322 0-21.322 21.322v170.66l-128.016-42.686 64.008-42.686v-21.322l-21.322-21.322h-106.652c0 0-21.322 0-21.322 21.322v21.322l64.008 42.686-128.016 42.686v-170.66c0 0 0-21.322-21.322-21.322h-21.322l-255.99 85.33c-85.414 42.686-128.099 64.008-128.099 149.338v42.686c0 21.322 21.322 21.322 21.322 21.322h1066.685c21.322 0 21.322-21.322 21.322-21.322v-42.686c21.364-85.33-42.644-106.652-106.652-149.338zM915.273 959.993h-192.024c-21.322 0-21.322 0-21.322-21.322s21.322-21.322 21.322-21.322h192.024c21.322 0 21.322 0 21.322 21.322 0 0 0 21.322-21.322 21.322zM296.558 554.666c21.322 21.322 64.008 85.33 85.33 106.652s21.322 21.322 42.686 21.322c21.322 0 64.008 21.322 85.33 21.322s64.008 0 85.33-21.322c21.322 0 42.686-21.322 42.686-21.322 42.686-21.322 85.33-85.33 106.652-106.652 21.322 0 64.008-21.322 85.33-85.33 0-42.686 0-64.008 0-85.33l-21.322-21.322c0-21.322 0-21.322 0-42.686s0-170.66-85.33-234.668c-64.008-64.008-128.016-85.33-192.024-85.33-42.686 0-85.33 21.322-128.016 42.686-21.322 21.322-42.686 42.686-64.008 64.008-21.28-0.042-85.288 21.322-106.61 85.288s0 106.652 0 128.016 0 21.322 0 21.322l-21.322 21.322c0 21.322 0 64.008 0 85.33 21.322 85.372 63.966 106.694 85.288 106.694zM275.236 384.006v0c21.322 0 42.686-21.322 42.686-42.686 0 0 0-21.322 0-42.686 21.322 0 42.686-21.322 85.33-42.686 0 0 0-21.322 0-42.686 21.322 21.322 42.686 42.686 85.33 42.686 64.008 21.322 192.024 42.686 234.668 42.686 0 21.322 0 42.686 0 42.686 0 21.322 0 21.322 21.322 21.322v0c0 0 0 21.322 0 42.686 21.322 85.33 0 85.33-21.322 85.33v0c-21.322 0-21.322 0-21.322 21.322-21.322 21.322-64.008 85.33-85.33 106.652s-21.322 21.322-42.686 21.322c-42.686 21.322-85.33 21.322-106.652 0-21.322 0-42.686 0-42.686-21.322-21.322-21.322-64.008-85.33-85.33-106.652l-21.322-21.322c-21.322 0-42.686 0-42.686-42.686-21.322-21.322-21.322-42.644 0-63.966z"></path>
</svg>
