<!-- Generated by IcoMoon.io -->
<svg version="1.1" xmlns="http://www.w3.org/2000/svg" width="60" height="60" viewBox="0 0 1024 1024">
<title></title>
<g id="icomoon-ignore">
</g>
<path fill="#2F2F2F" d="M750.931 273.068v-273.067h-477.865v273.067h-273.067v409.595h34.135v-375.461h238.933v682.661h-136.539v-70.909c39.413-12.328 68.27-66.698 68.27-133.889 0-76.563-37.548-136.528-85.325-136.528-47.789 0-85.337 59.965-85.337 136.528 0 67.19 28.856 121.56 68.27 133.889v70.909h-102.405v34.135h1023.998v-750.931zM68.269 785.068c0-60.352 26.98-102.405 51.203-102.405 24.211 0 51.191 42.052 51.191 102.405s-26.98 102.405-51.191 102.405c-24.223 0-51.203-42.064-51.203-102.405zM443.729 989.866v-204.797h136.539v204.797zM716.796 989.866h-102.405v-238.933h-204.797v238.933h-102.393v-955.728h409.595zM819.201 955.73c0-46.252 23.449-85.325 51.203-85.325 27.742 0 51.191 39.073 51.191 85.325 0.023 11.531-1.501 23.003-4.504 34.135h-93.384c-3.003-11.132-4.516-22.604-4.504-34.135zM989.864 989.866h-37.818c2.404-11.214 3.648-22.662 3.683-34.135 0-66.979-37.548-119.461-85.325-119.461-47.789 0-85.337 52.48-85.337 119.461 0.047 11.472 1.279 22.921 3.683 34.135h-37.818v-682.661h238.933z"></path>
<path fill="#2F2F2F" d="M341.336 682.663h341.337v34.135h-341.337z"></path>
<path fill="#2F2F2F" d="M477.864 102.406h-102.405v102.393h102.405zM443.729 170.664h-34.135v-34.135h34.135z"></path>
<path fill="#2F2F2F" d="M648.527 102.406h-102.393v102.393h102.393zM614.403 170.664h-34.135v-34.135h34.135z"></path>
<path fill="#2F2F2F" d="M477.864 238.934h-102.405v102.405h102.405zM443.729 307.204h-34.135v-34.135h34.135z"></path>
<path fill="#2F2F2F" d="M648.527 238.934h-102.393v102.405h102.393zM614.403 307.204h-34.135v-34.135h34.135z"></path>
<path fill="#2F2F2F" d="M477.864 375.473h-102.405v102.393h102.405zM443.729 443.731h-34.135v-34.135h34.135z"></path>
<path fill="#2F2F2F" d="M648.527 375.473h-102.393v102.393h102.393zM614.403 443.731h-34.135v-34.135h34.135z"></path>
<path fill="#2F2F2F" d="M477.864 512.001h-102.405v102.405h102.405zM443.729 580.271h-34.135v-34.135h34.135z"></path>
<path fill="#2F2F2F" d="M204.796 375.473h-102.393v102.393h102.393zM170.662 443.731h-34.135v-34.135h34.135z"></path>
<path fill="#2F2F2F" d="M102.404 614.405h102.393v-102.405h-102.393zM136.527 546.135h34.135v34.135h-34.135z"></path>
<path fill="#2F2F2F" d="M648.527 512.001h-102.393v102.405h102.393zM614.403 580.271h-34.135v-34.135h34.135z"></path>
<path fill="#2F2F2F" d="M921.594 375.473h-102.393v102.393h102.393zM887.47 443.731h-34.135v-34.135h34.135z"></path>
<path fill="#2F2F2F" d="M921.594 512.001h-102.393v102.405h102.393zM887.47 580.271h-34.135v-34.135h34.135z"></path>
<path fill="#2F2F2F" d="M921.594 648.529h-102.393v102.405h102.393zM887.47 716.798h-34.135v-34.135h34.135z"></path>
</svg>
