<!-- Generated by IcoMoon.io -->
<svg version="1.1" xmlns="http://www.w3.org/2000/svg" width="60" height="60" viewBox="0 0 1024 1024">
<title></title>
<g id="icomoon-ignore">
</g>
<path fill="#2F2F2F" d="M928.728 858.607c-97.269-51.188-171.661-79.625-237.737-90.823l7.204-9.884c2.831-3.893 3.766-8.797 2.629-13.448l-15.066-60.211c40.343-56.875 64.154-127.905 64.154-195.295v-64.837h48.635c8.974 0 16.203-7.255 16.203-16.229s-7.255-16.203-16.203-16.203h-16.203v-16.229c0-45.146-10.642-87.689-29.701-125.529l-145.574 27.982c-1.011 0.202-2.048 0.278-3.059 0.278-4.247 0-8.392-1.694-11.451-4.727-3.792-3.817-5.485-9.252-4.474-14.535l26.567-139.608c-13.726-6.168-28.083-11.527-43.099-15.799v-3.413c0-26.971-21.941-100.099-48.887-100.099h-64.306c-26.971 0-48.913 73.128-48.913 100.099v3.438c-14.99 4.272-29.347 9.606-43.073 15.799l26.592 139.583c1.011 5.283-0.683 10.718-4.474 14.535-3.059 3.059-7.204 4.727-11.476 4.727-1.011 0-2.048-0.076-3.059-0.278l-145.574-28.007c-19.060 37.841-29.726 80.383-29.726 125.529v16.229h-16.229c-8.949 0-16.203 7.255-16.203 16.203s7.255 16.229 16.203 16.229h48.635v64.837c0 67.365 23.862 138.42 64.18 195.295l-15.041 60.211c-1.163 4.651-0.202 9.555 2.629 13.448l7.204 9.884c-66.076 11.224-140.468 39.635-237.737 90.823-29.701 15.647-48.18 46.233-48.18 79.852v69.336c0 8.949 7.255 16.229 16.203 16.229h395.191c0.025 0 0.025-0.025 0.051-0.025l149.214-0.126c0.253 0 0.455 0.152 0.733 0.152h395.166c8.974 0 16.203-7.28 16.203-16.229v-69.336c0-33.619-18.453-64.205-48.154-79.827zM313.52 744.933l7.28-29.094c0.025 0.076 0.076 0.101 0.101 0.126 39.18 42.618 89.054 72.648 145.245 79.473 0.025 0 0.076 0.025 0.101 0.025l7.204 150.175-159.932-200.705zM358.843 707.876c-4.070-3.817-8.165-7.508-12.108-11.679-0.025-0.025-0.076-0.051-0.101-0.101-5.94-6.294-11.729-13.044-17.316-20.171-0.48-0.632-1.213-0.986-1.795-1.542-38.195-48.205-64.028-112.435-64.028-185.437v-64.837h453.962v64.837c0 73.002-25.833 137.258-64.028 185.437-0.556 0.556-1.314 0.885-1.795 1.542-5.587 7.128-11.35 13.853-17.265 20.171-0.025 0.051-0.076 0.076-0.101 0.101-3.943 4.171-8.039 7.862-12.134 11.679-39.61 35.743-86.677 56.673-131.647 56.673-44.919 0-91.986-20.929-131.647-56.673zM507.577 945.613l7.103-148.304c25.176-1.036 91.986-13.802 145.422-81.344 0.025-0.025 0.076-0.051 0.101-0.126l7.28 29.094-159.907 200.68zM644.683 135.059l-20.272 106.444 110.944-21.334c-23.053-34.226-53.867-63.219-90.671-85.11zM336.345 135.059c-36.804 21.89-67.618 50.884-90.671 85.11l110.944 21.334-20.272-106.444z"></path>
</svg>
