<svg id="Icons" height="512" viewBox="0 0 74 74" width="512" xmlns="http://www.w3.org/2000/svg"><path d="m61 72h-48a1 1 0 0 1 -1-1v-68a1 1 0 0 1 1-1h33.33a1 1 0 0 1 .71.29l14.67 14.71a1.05 1.05 0 0 1 .29.71v53.29a1 1 0 0 1 -1 1zm-47-2h46v-51.93l-14.08-14.07h-31.92z"/><path d="m61 18.66h-14.67a1 1 0 0 1 -1-1v-14.66a1 1 0 0 1 2 0v13.66h13.67a1 1 0 0 1 0 2z"/><path d="m53 34.7h-33a1 1 0 0 1 0-2h33a1 1 0 0 1 0 2z"/><path d="m53 24.9h-33a1 1 0 0 1 0-2h33a1 1 0 0 1 0 2z"/><path d="m39 15h-19a1 1 0 0 1 0-2h19a1 1 0 0 1 0 2z"/><path d="m37 65a11.5 11.5 0 1 1 11.5-11.5 11.51 11.51 0 0 1 -11.5 11.5zm0-21a9.5 9.5 0 1 0 9.5 9.5 9.51 9.51 0 0 0 -9.5-9.5z"/><path d="m35.49 57.65a1 1 0 0 1 -.71-.29l-2.92-2.92a1 1 0 0 1 1.41-1.44l2.22 2.22 5.59-5.6a1 1 0 0 1 1.42 0 1 1 0 0 1 0 1.41l-6.31 6.31a1 1 0 0 1 -.7.31z"/></svg>