<?xml version="1.0" encoding="utf-8"?>
<!-- Generator: Adobe Illustrator 17.1.0, SVG Export Plug-In . SVG Version: 6.00 Build 0)  -->
<!DOCTYPE svg PUBLIC "-//W3C//DTD SVG 1.1//EN" "http://www.w3.org/Graphics/SVG/1.1/DTD/svg11.dtd">
<svg version="1.1" id="Слой_1" xmlns="http://www.w3.org/2000/svg" xmlns:xlink="http://www.w3.org/1999/xlink" x="0px" y="0px"
	 viewBox="0 0 471.2 223.9" enable-background="new 0 0 471.2 223.9" xml:space="preserve">
<g>
	<path d="M237,112.4c0,30.8,0,61.6,0,92.4c0,10-8.7,19-18.7,19c-48.6,0.1-97.3,0.1-145.9,0c-10,0-19-8.9-19-18.8
		c0.1-32.6,0.2-65.3,0.3-97.9c0-15.3-0.3-30.6-0.2-46c0-2.2,1-5.1,2.6-6.6c18.8-17.7,37.7-35.3,56.7-52.7c1.3-1.2,3.6-1.7,5.4-1.7
		c33.3-0.1,66.6-0.1,99.9,0c10.3,0,18.9,9.1,18.9,19.4C237,50.4,237,81.4,237,112.4C237,112.4,237,112.4,237,112.4z M63.8,65.8
		c-0.1,1.7-0.2,2.7-0.2,3.6c0,44.3,0,88.6,0,132.9c0,9.9,1.9,11.6,11.7,11.6c46.6,0,93.3,0,139.9,0c1.2,0,2.3,0,3.5,0
		c5.3-0.3,7.9-2.9,8.1-8.1c0.1-2,0.1-4,0.1-6c0-58.5,0-117,0-175.4c0-2.3,0-4.7-0.1-7c-0.2-4.1-2.5-6.5-6.5-7.1
		c-2.3-0.3-4.7-0.3-7-0.3c-27.8,0-55.6,0-83.5,0c-1.6,0-3.2,0.2-5.1,0.2c-0.2,1.4-0.4,2.6-0.4,3.7c0,12.2-0.1,24.3,0,36.5
		c0.1,9.8-5.4,15.4-15.3,15.4C94.2,65.7,79.3,65.8,63.8,65.8z M114.1,14.3c-15.1,14-29.4,27.2-44.3,41c15.4,0,29.6,0,44.3,0
		C114.1,41.7,114.1,28.6,114.1,14.3z"/>
	<path d="M356.4,196.9c-29.5,0-59,0-88.4-0.1c-2.3,0-5.2-0.7-6.6-2.2c-2.8-3,0-7.5,4.7-7.6c9.2-0.2,18.3-0.2,27.5-0.2
		c48.6,0,97.3-0.1,145.9,0.1c14.9,0,22.1-2,21.7-21.6c-0.6-28.6-0.2-57.3-0.3-85.9c0-8.7-5.2-14.1-13.9-14.2
		c-16.5-0.3-33-0.2-49.5-0.2c-42.6,0-85.3,0-127.9,0c-1.7,0-3.7,0.4-4.9-0.4c-1.5-0.9-3.2-3-3-4.5c0.2-1.7,1.9-3.7,3.5-4.7
		c1.2-0.8,3.2-0.3,4.9-0.3c58.1,0,116.3,0,174.4,0c16.2,0,27,12,26.8,28.2c-0.4,28.6-0.4,57.3,0,85.9c0.2,15-10.9,27.6-25.9,27.6
		c-14.8,0-29.6,0-44.5,0c-14.8,0-29.6,0-44.5,0C356.4,196.8,356.4,196.9,356.4,196.9z"/>
	<path d="M378.8,126c0.1,14.8-5.2,24.3-16.3,27.9c-15.9,5.2-38.5,1-38.8-26.4c0-2.8-0.1-5.7,0.3-8.5c2.4-15.8,12.7-23.8,29.5-23
		c15,0.7,24.2,10,25.2,25.5C378.9,123,378.8,124.5,378.8,126z M336.1,126c0.5,3.3,0.8,6.7,1.7,9.9c1.9,6.8,6.5,10.2,13.6,10.2
		c7.1,0,12.3-3.1,13.5-10.1c1.1-6.4,1.1-13.2,0.1-19.6c-1.1-7.1-6.2-10.4-13.2-10.5c-7.3-0.1-12.1,3.3-14,10.3
		C336.8,119.3,336.6,122.6,336.1,126z"/>
	<path d="M266.6,154.8c0-19.7,0-39,0-59.3c9.7,0.6,19.2,0.4,28.4,2.1c11.3,2.1,17.6,10.4,19.3,22.6c2.3,16.7-5.4,29.5-20.1,33.2
		c-3.5,0.9-7.2,1.2-10.8,1.4C277.9,154.9,272.4,154.8,266.6,154.8z M278.8,106c0,13.2,0,25.9,0,38.9c8,0.4,15.8,0.7,20.1-7
		c4.7-8.3,4.7-17.4-0.2-25.7C294.3,104.6,286.4,105.6,278.8,106z"/>
	<path d="M0.1,126c0-15.2,0.1-30.3,0-45.5C0,68.2,11.1,56,23.3,55.1c3.3-0.3,6.2,0.5,6.6,4.4c0.4,3.8-1.9,5.1-5.5,5.5
		c-9.7,1.1-13.7,5.5-13.7,15.6c-0.1,30.8,0,61.6,0.1,92.5c0,7.3,5.1,12.7,12.7,13.6c4,0.5,7.2,1.4,6.3,6.1c-0.9,4.4-4.5,4.2-8,3.7
		C9,194.4-0.3,183,0,170c0.2-7.3,0.4-14.6,0.4-22c0.1-7.3,0-14.7,0-22C0.4,126,0.2,126,0.1,126z"/>
	<path d="M433,99.9c-1.4,3.4-2.6,6.3-3.9,9.4c-8.6-3.2-17.3-7.1-24.2,2.1c-5,6.6-5.4,21.8-0.6,28.6c7.2,10.2,16.9,5,26,3.5
		c0.1,0.6,0.3,1,0.4,1.5c0.3,8.7,0.3,8.9-8.6,10c-3.8,0.5-7.7,0.9-11.4,0.4c-12.2-1.7-18.9-8.1-21-20.5c-0.9-5-1.1-10.3-0.4-15.3
		c2.6-18.3,17.7-27.4,36.5-22.3C427.9,98,430.1,98.9,433,99.9z"/>
	<path d="M142,174.2c0-2.9,0-4.7,0-6.5c0-32.1,0-64.3,0-96.4c0-1.5-0.5-3.4,0.2-4.4c1.3-1.8,3.3-4.3,5-4.3c1.6,0,3.4,2.8,4.5,4.7
		c0.7,1.1,0.2,2.9,0.2,4.4c0,32,0,63.9,0,95.9c0,1.8,0,3.6,0,6.7c1.9-1.6,3.1-2.5,4.2-3.6c7.9-7.9,15.8-15.7,23.7-23.7
		c2.5-2.5,5.3-4.8,8.5-1.5c3.1,3.2,1.1,6-1.4,8.6c-11.9,11.9-23.7,23.8-35.6,35.8c-2.7,2.7-5.6,2.9-8.3,0.2
		c-13.3-13.3-26.5-26.7-39.6-40.2c-1.4-1.4-2.1-4-2.2-6.1c0-1,2.2-3,3.3-2.9c2.1,0.2,4.5,1,6,2.5c9.8,9.5,19.4,19.2,29,28.9
		C140,172.7,140.5,173.1,142,174.2z"/>
</g>
</svg>
