<?xml version="1.0" encoding="utf-8"?>
<!-- Generator: Adobe Illustrator 17.1.0, SVG Export Plug-In . SVG Version: 6.00 Build 0)  -->
<!DOCTYPE svg PUBLIC "-//W3C//DTD SVG 1.1//EN" "http://www.w3.org/Graphics/SVG/1.1/DTD/svg11.dtd">
<svg version="1.1" id="Слой_1" xmlns="http://www.w3.org/2000/svg" xmlns:xlink="http://www.w3.org/1999/xlink" x="0px" y="0px"
	 viewBox="0 0 8.2 10.1" enable-background="new 0 0 8.2 10.1" xml:space="preserve">
<g id="Rectangle_13_copy_14">
	<g>
		<path fill="#FFFFFF" d="M6.7,4.3h0.5V3.8H6.7V4.3z M5.8,3.4h0.5V2.9H5.8V3.4z M4.8,2.4h0.5V1.9H4.8V2.4z M3.8,1.4h0.5V1H3.8V1.4z
			 M2.9,0.5h0.5V0H2.9V0.5z M5.8,4.3h0.5V3.8H5.8V4.3z M4.8,3.4h0.5V2.9H4.8V3.4z M3.8,2.4h0.5V1.9H3.8V2.4z M2.9,1.4h0.5V1H2.9V1.4
			z M1.9,0.5h0.5V0H1.9V0.5z M4.8,4.3h0.5V3.8H4.8V4.3z M3.8,3.4h0.5V2.9H3.8V3.4z M2.9,2.4h0.5V1.9H2.9V2.4z M1.9,1.4h0.5V1H1.9
			V1.4z M1,0.5h0.5V0H1V0.5z M3.8,4.3h0.5V3.8H3.8V4.3z M2.9,3.4h0.5V2.9H2.9V3.4z M1.9,2.4h0.5V1.9H1.9V2.4z M1,1.4h0.5V1H1V1.4z
			 M0,0.5h0.5V0H0V0.5z M1.9,8.2h0.5V7.7H1.9V8.2z M6.7,6.2h0.5V5.8H6.7V6.2z M1.9,9.1h0.5V8.6H1.9V9.1z M2.9,10.1h0.5V9.6H2.9V10.1
			z M1,10.1h0.5V9.6H1V10.1z M0,10.1h0.5V9.6H0V10.1z M1.9,10.1h0.5V9.6H1.9V10.1z M2.9,9.1h0.5V8.6H2.9V9.1z M1,9.1h0.5V8.6H1V9.1z
			 M5.8,6.2h0.5V5.8H5.8V6.2z M3.8,7.2h0.5V6.7H3.8V7.2z M3.8,8.2h0.5V7.7H3.8V8.2z M3.8,9.1h0.5V8.6H3.8V9.1z M3.8,6.2h0.5V5.8H3.8
			V6.2z M2.9,8.2h0.5V7.7H2.9V8.2z M4.8,7.2h0.5V6.7H4.8V7.2z M4.8,6.2h0.5V5.8H4.8V6.2z M2.9,7.2h0.5V6.7H2.9V7.2z M4.8,8.2h0.5
			V7.7H4.8V8.2z M5.8,7.2h0.5V6.7H5.8V7.2z M7.7,4.8v0.5h0.5V4.8H7.7z M6.7,5.3h0.5V4.8H6.7V5.3z M5.8,5.3h0.5V4.8H5.8V5.3z
			 M4.8,5.3h0.5V4.8H4.8V5.3z"/>
	</g>
</g>
</svg>
