<?xml version="1.0" encoding="utf-8"?>
<!-- Generator: Adobe Illustrator 17.1.0, SVG Export Plug-In . SVG Version: 6.00 Build 0)  -->
<!DOCTYPE svg PUBLIC "-//W3C//DTD SVG 1.1//EN" "http://www.w3.org/Graphics/SVG/1.1/DTD/svg11.dtd">
<svg version="1.1" id="Слой_1" xmlns="http://www.w3.org/2000/svg" xmlns:xlink="http://www.w3.org/1999/xlink" x="0px" y="0px"
	 viewBox="0 151.4 2658.2 2444.5" enable-background="new 0 151.4 2658.2 2444.5" xml:space="preserve">
<g id="Forma_1_4_">
	<g>
		<path fill="#FFFFFF" d="M2393.6,2086.6l-611.1-203.7h-50.9c0,0-50.9,0-50.9,50.9l0,407.4l-305.6-101.9l152.8-101.9v-50.9
			l-50.9-50.9h-254.6c0,0-50.9,0-50.9,50.9v50.9l152.8,101.9l-305.6,101.9v-407.4c0,0,0-50.9-50.9-50.9h-50.9l-611.1,203.7
			C101.9,2188.5,0,2239.4,0,2443.1V2545c0,50.9,50.9,50.9,50.9,50.9h2546.4c50.9,0,50.9-50.9,50.9-50.9v-101.9
			C2699.2,2239.4,2546.4,2188.5,2393.6,2086.6z M2291.8,2443.1h-458.4c-50.9,0-50.9,0-50.9-50.9s50.9-50.9,50.9-50.9h458.4
			c50.9,0,50.9,0,50.9,50.9C2342.7,2392.2,2342.7,2443.1,2291.8,2443.1z M814.8,1475.5c50.9,50.9,152.8,203.7,203.7,254.6
			c50.9,50.9,50.9,50.9,101.9,50.9c50.9,0,152.8,50.9,203.7,50.9s152.8,0,203.7-50.9c50.9,0,101.9-50.9,101.9-50.9
			c101.9-50.9,203.7-203.7,254.6-254.6c50.9,0,152.8-50.9,203.7-203.7c0-101.9,0-152.8,0-203.7l-50.9-50.9c0-50.9,0-50.9,0-101.9
			s0-407.4-203.7-560.2c-152.8-152.8-305.6-203.7-458.4-203.7c-101.9,0-203.7,50.9-305.6,101.9c-50.9,50.9-101.9,101.9-152.8,152.8
			C865.8,406,713,457,662.1,609.7s0,254.6,0,305.6s0,50.9,0,50.9l-50.9,50.9c0,50.9,0,152.8,0,203.7
			C662.1,1424.6,763.9,1475.5,814.8,1475.5z M763.9,1068.1L763.9,1068.1c50.9,0,101.9-50.9,101.9-101.9c0,0,0-50.9,0-101.9
			c50.9,0,101.9-50.9,203.7-101.9c0,0,0-50.9,0-101.9c50.9,50.9,101.9,101.9,203.7,101.9c152.8,50.9,458.4,101.9,560.2,101.9
			c0,50.9,0,101.9,0,101.9c0,50.9,0,50.9,50.9,50.9l0,0c0,0,0,50.9,0,101.9c50.9,203.7,0,203.7-50.9,203.7l0,0
			c-50.9,0-50.9,0-50.9,50.9c-50.9,50.9-152.8,203.7-203.7,254.6c-50.9,50.9-50.9,50.9-101.9,50.9c-101.9,50.9-203.7,50.9-254.6,0
			c-50.9,0-101.9,0-101.9-50.9c-50.9-50.9-152.8-203.7-203.7-254.6l-50.9-50.9l0,0l0,0c-50.9,0-101.9,0-101.9-101.9
			C713,1169.9,713,1119,763.9,1068.1z"/>
	</g>
</g>
</svg>
