<?xml version="1.0" encoding="utf-8"?>
<!-- Generator: Adobe Illustrator 17.1.0, SVG Export Plug-In . SVG Version: 6.00 Build 0)  -->
<!DOCTYPE svg PUBLIC "-//W3C//DTD SVG 1.1//EN" "http://www.w3.org/Graphics/SVG/1.1/DTD/svg11.dtd">
<svg version="1.1" id="Слой_1" xmlns="http://www.w3.org/2000/svg" xmlns:xlink="http://www.w3.org/1999/xlink" x="0px" y="0px"
	 viewBox="0 0 1290.8 1290.4" enable-background="new 0 0 1290.8 1290.4" xml:space="preserve">
<g id="Forma_1_copy_6">
	<g>
		<path fill-rule="evenodd" clip-rule="evenodd" fill="#FFFFFF" d="M1269.6,538.6L692.7,17.4c-26.2-23.6-68.2-23.2-93.8,1.1
			L20.1,566.4c-25.6,24.2-26.9,64.9-2.8,90.8l14.5,15.6c24.1,25.9,63,29,86.9,6.9l43.3-40v585.6c0,35.9,28.2,65,63,65h225.6
			c34.8,0,63-29.1,63-65V815.7h287.8v409.7c-0.5,35.9,24.4,65,59.1,65h239.1c34.8,0,63-29.1,63-65V647.9c0,0,11.9,10.8,26.7,24.2
			c14.7,13.4,45.6,2.6,69-23.9l16.4-18.6C1298,603,1295.8,562.3,1269.6,538.6z"/>
	</g>
</g>
</svg>
