<?xml version="1.0" encoding="utf-8"?>
<!-- Generator: Adobe Illustrator 17.1.0, SVG Export Plug-In . SVG Version: 6.00 Build 0)  -->
<!DOCTYPE svg PUBLIC "-//W3C//DTD SVG 1.1//EN" "http://www.w3.org/Graphics/SVG/1.1/DTD/svg11.dtd">
<svg version="1.1" id="Слой_1" xmlns="http://www.w3.org/2000/svg" xmlns:xlink="http://www.w3.org/1999/xlink" x="0px" y="0px"
	 viewBox="0 0 1725 1553.3" enable-background="new 0 0 1725 1553.3" xml:space="preserve">
<g id="Forma_1_copy_5">
	<g>
		<path fill-rule="evenodd" clip-rule="evenodd" fill="#576775" d="M1708.7,1376.9L970.2,62.6c-10.9-19.3-26-34.6-45.2-45.7
			C905.8,5.6,884.9,0,862.5,0S819.2,5.6,800,16.8c-19.2,11.2-34.3,26.4-45.2,45.7L16.4,1376.9c-22.4,39.2-21.8,78.4,1.9,117.6
			c10.9,18,25.8,32.4,44.7,42.9c18.9,10.6,39.3,15.9,61.1,15.9H1601c21.8,0,42.2-5.3,61.1-15.9c18.9-10.5,33.8-24.9,44.7-42.9
			C1730.5,1455.3,1731.1,1416.1,1708.7,1376.9z M985.6,1283.5c0,8.7-3.1,16.1-9.1,22c-6.1,5.9-13.3,8.8-21.6,8.8H770.2
			c-8.4,0-15.6-2.9-21.7-8.8c-6.1-5.9-9.1-13.2-9.1-22v-177.3c0-8.7,3-16,9.1-22c6.1-5.9,13.3-8.9,21.7-8.9h184.6
			c8.3,0,15.6,3,21.6,8.9c6.1,5.9,9.1,13.2,9.1,22V1283.5z M983.7,934.4c-0.6,6.2-4,11.4-10.1,15.4c-6.1,4.1-13.6,6.1-22.6,6.1
			H773.1c-9,0-16.6-2-23.1-6.1c-6.4-4.1-9.6-9.2-9.6-15.4l-16.3-426.6c0-8.7,3.2-15.2,9.6-19.6c8.3-6.8,16-10.2,23.1-10.2h211.5
			c7.1,0,14.8,3.4,23.1,10.2c6.4,4.4,9.6,10.3,9.6,17.8L983.7,934.4z"/>
	</g>
</g>
</svg>
