<?xml version="1.0" encoding="utf-8"?>
<!-- Generator: Adobe Illustrator 17.1.0, SVG Export Plug-In . SVG Version: 6.00 Build 0)  -->
<!DOCTYPE svg PUBLIC "-//W3C//DTD SVG 1.1//EN" "http://www.w3.org/Graphics/SVG/1.1/DTD/svg11.dtd">
<svg version="1.1" id="Слой_1" xmlns="http://www.w3.org/2000/svg" xmlns:xlink="http://www.w3.org/1999/xlink" x="0px" y="0px"
	 viewBox="0 0 595.4 282.8" enable-background="new 0 0 595.4 282.8" xml:space="preserve">
<g>
	<path fill="#0D0F0F" d="M299.4,142c0,38.9,0,77.8,0,116.7c0,12.6-11,24-23.6,24c-61.4,0.1-122.9,0.1-184.3,0
		c-12.6,0-24-11.2-24-23.8c0.1-41.2,0.3-82.5,0.4-123.7c0-19.3-0.4-38.7-0.3-58.1c0-2.8,1.3-6.4,3.3-8.3
		c23.8-22.4,47.6-44.6,71.6-66.6c1.6-1.5,4.5-2.1,6.8-2.1c42.1-0.1,84.1-0.1,126.2,0c13,0,23.9,11.5,23.9,24.5
		C299.4,63.6,299.4,102.8,299.4,142L299.4,142z M80.6,83.1c-0.1,2.1-0.3,3.4-0.3,4.5c0,56,0,111.9,0,167.9
		c0,12.5,2.4,14.7,14.8,14.7c58.9,0,117.9,0,176.7,0c1.5,0,2.9,0,4.4,0c6.7-0.4,10-3.7,10.2-10.2c0.1-2.5,0.1-5.1,0.1-7.6
		c0-73.9,0-147.8,0-221.6c0-2.9,0-5.9-0.1-8.8c-0.3-5.2-3.2-8.2-8.2-9c-2.9-0.4-5.9-0.4-8.8-0.4c-35.1,0-70.2,0-105.5,0
		c-2,0-4,0.3-6.4,0.3c-0.3,1.8-0.5,3.3-0.5,4.7c0,15.4-0.1,30.7,0,46.1c0.1,12.4-6.8,19.5-19.3,19.5C119,83,100.2,83.1,80.6,83.1z
		 M144.2,18c-19.1,17.7-37.1,34.4-56,51.8c19.5,0,37.4,0,56,0C144.2,52.6,144.2,36.1,144.2,18z"/>
	<path fill="#0D0F0F" d="M450.3,248.7c-37.3,0-74.5,0-111.7-0.1c-2.9,0-6.6-0.9-8.3-2.8c-3.5-3.8,0-9.5,5.9-9.6
		c11.6-0.3,23.1-0.3,34.7-0.3c61.4,0,122.9-0.1,184.3,0.1c18.8,0,27.9-2.5,27.4-27.3c-0.8-36.1-0.3-72.4-0.4-108.5
		c0-11-6.6-17.8-17.6-17.9c-20.8-0.4-41.7-0.3-62.5-0.3c-53.8,0-107.8,0-161.6,0c-2.1,0-4.7,0.5-6.2-0.5c-1.9-1.1-4-3.8-3.8-5.7
		c0.3-2.1,2.4-4.7,4.4-5.9c1.5-1,4-0.4,6.2-0.4c73.4,0,146.9,0,220.3,0c20.5,0,34.1,15.2,33.9,35.6c-0.5,36.1-0.5,72.4,0,108.5
		c0.3,18.9-13.8,34.9-32.7,34.9c-18.7,0-37.4,0-56.2,0c-18.7,0-37.4,0-56.2,0C450.3,248.6,450.3,248.7,450.3,248.7z"/>
	<path fill="#0D0F0F" d="M0.1,159.1c0-19.2,0.1-38.3,0-57.5C0,86.1,14,70.7,29.4,69.6c4.2-0.4,7.8,0.6,8.3,5.6
		c0.5,4.8-2.4,6.4-6.9,6.9c-12.3,1.4-17.3,6.9-17.3,19.7c-0.1,38.9,0,77.8,0.1,116.9c0,9.2,6.4,16,16,17.2c5.1,0.6,9.1,1.8,8,7.7
		c-1.1,5.6-5.7,5.3-10.1,4.7C11.4,245.6-0.4,231.2,0,214.7c0.3-9.2,0.5-18.4,0.5-27.8c0.1-9.2,0-18.6,0-27.8
		C0.5,159.1,0.3,159.1,0.1,159.1z"/>
	<path fill="#0D0F0F" d="M179.4,220c0-3.7,0-5.9,0-8.2c0-40.6,0-81.2,0-121.8c0-1.9-0.6-4.3,0.3-5.6c1.6-2.3,4.2-5.4,6.3-5.4
		c2,0,4.3,3.5,5.7,5.9c0.9,1.4,0.3,3.7,0.3,5.6c0,40.4,0,80.7,0,121.2c0,2.3,0,4.5,0,8.5c2.4-2,3.9-3.2,5.3-4.5
		c10-10,20-19.8,29.9-29.9c3.2-3.2,6.7-6.1,10.7-1.9c3.9,4,1.4,7.6-1.8,10.9c-15,15-29.9,30.1-45,45.2c-3.4,3.4-7.1,3.7-10.5,0.3
		c-16.8-16.8-33.5-33.7-50-50.8c-1.8-1.8-2.7-5.1-2.8-7.7c0-1.3,2.8-3.8,4.2-3.7c2.7,0.3,5.7,1.3,7.6,3.2
		c12.4,12,24.5,24.3,36.6,36.5C176.9,218.1,177.5,218.7,179.4,220z"/>
</g>
<path d="M411.2,197.7c0-24.2,0-46.8,0-69.4c0-2.1,0-4.1,0-8c15,1.1,29.5,0.7,43.4,3.5c17,3.5,26,18.2,25.2,36.5
	c-0.8,19-10.8,32.4-28.2,35C438.6,197.3,425.3,197,411.2,197.7z M423.7,132.1c0,17.7-0.1,33.8,0.2,49.9c0,1.2,2.5,3.3,3.9,3.3
	c6.5,0,13.1,0.1,19.4-0.9c12.7-2,19.4-10.6,19.9-24.4c0.5-13.9-6.1-23.6-18.7-26C440.6,132.6,432.6,132.8,423.7,132.1z"/>
<path d="M336.8,122.3c12.9,0,25.6-1.2,37.9,0.3c15.5,2,21.6,11.5,20.8,28.3c-0.6,13.4-8.8,21.8-23.4,23.1c-7.4,0.7-15,0.1-23,0.1
	c0,8.2,0,15,0,22.4c-4.4,0-8.2,0-12.3,0C336.8,171.7,336.8,147,336.8,122.3z M349.4,132.1c0,11.1,0,20.8,0,31.2
	c4.3,0,8.3,0.1,12.2,0c3.1-0.1,6.3,0,9.4-0.4c7.7-1.2,11.5-6,11.9-14.5c0.4-8-2.8-13.3-10.6-14.6C365,132.5,357.4,132.6,349.4,132.1
	z"/>
<path d="M542.7,165.7c-11.2,0-22,0-33.5,0c0,10.6,0,20.6,0,31c-4.3,0-8,0-12.1,0c0-24.9,0-49.7,0-75c16.4,0,32.7,0,49.5,0
	c0,3.5,0,6.9,0,10.9c-12.3,0-24.4,0-37,0c0,7.2,0,13.8,0,21.3c10.8,0,21.8,0,33.1,0C542.7,158,542.7,161.3,542.7,165.7z"/>
</svg>
