<?xml version="1.0" encoding="utf-8"?>
<!-- Generator: Adobe Illustrator 17.1.0, SVG Export Plug-In . SVG Version: 6.00 Build 0)  -->
<!DOCTYPE svg PUBLIC "-//W3C//DTD SVG 1.1//EN" "http://www.w3.org/Graphics/SVG/1.1/DTD/svg11.dtd">
<svg version="1.1" id="Слой_1" xmlns="http://www.w3.org/2000/svg" xmlns:xlink="http://www.w3.org/1999/xlink" x="0px" y="0px"
	 viewBox="0 0 1680.9 1680.9" enable-background="new 0 0 1680.9 1680.9" xml:space="preserve">
<g id="Forma_1_5_">
	<g>
		<path fill-rule="evenodd" clip-rule="evenodd" fill="#576775" d="M1643.5,1361.9l-346.5-247.6c83.5-120.5,125.3-254.9,125.3-403.1
			c0-96.3-18.7-188.4-56.1-276.2c-37.3-87.9-87.9-163.7-151.5-227.3C1151.1,144,1075.4,93.5,987.5,56.1C899.6,18.7,807.5,0,711.2,0
			c-96.3,0-188.4,18.7-276.3,56.1C347,93.5,271.2,144,207.6,207.6C144,271.3,93.5,347,56.1,434.9C18.7,522.8,0,614.9,0,711.2
			c0,96.3,18.7,188.4,56.1,276.3c37.4,87.9,87.9,163.6,151.5,227.2c63.6,63.6,139.4,114.2,227.3,151.6
			c87.9,37.4,180,56.1,276.3,56.1c148.2,0,282.6-41.8,403.1-125.3l247.6,345.4c24.2,25.6,153.4,38.4,189.8,38.4
			c35,0,65.3-12.8,90.9-38.4c25.6-25.6,38.4-55.9,38.4-90.9C1680.9,1515.9,1668.5,1386.8,1643.5,1361.9z M932,932
			c-88.6,88.6-96.2,132.9-220.9,132.9c-124.6,0-132.3-44.3-220.8-132.9c-88.5-88.6-132.8-96.2-132.8-220.8
			c0-124.5,44.3-132.3,132.8-220.8c88.5-88.6,96.3-132.8,220.8-132.8c124.6,0,132.3,44.3,220.9,132.8
			c88.6,88.5,132.9,96.3,132.9,220.8C1064.9,835.8,1020.6,843.4,932,932z"/>
	</g>
</g>
</svg>
