<?xml version="1.0" encoding="utf-8"?>
<!-- Generator: Adobe Illustrator 17.1.0, SVG Export Plug-In . SVG Version: 6.00 Build 0)  -->
<!DOCTYPE svg PUBLIC "-//W3C//DTD SVG 1.1//EN" "http://www.w3.org/Graphics/SVG/1.1/DTD/svg11.dtd">
<svg version="1.1" id="Слой_1" xmlns="http://www.w3.org/2000/svg" xmlns:xlink="http://www.w3.org/1999/xlink" x="0px" y="0px"
	 viewBox="0 0 29.6 27.6" enable-background="new 0 0 29.6 27.6" xml:space="preserve" width='30px' height='28px'>
<g id="Forma_1_3_">
	<g>
		<path fill="#576775" d="M23.8,14.3c-1-1-2.3-1.6-3.8-1.6c-1.4,0-2.8,0.6-3.8,1.6c-1,1-1.6,2.3-1.6,3.8c0,1.4,0.6,2.8,1.6,3.8
			c1,1,2.3,1.6,3.8,1.6c1.4,0,2.7-0.6,3.8-1.6c1-1,1.6-2.3,1.6-3.8C25.3,16.6,24.8,15.3,23.8,14.3z M23,21c-0.8,0.8-1.8,1.2-2.9,1.2
			s-2.2-0.4-2.9-1.2c-0.8-0.8-1.2-1.8-1.2-2.9s0.4-2.2,1.2-2.9s1.8-1.2,2.9-1.2s2.2,0.4,2.9,1.2c0.8,0.8,1.2,1.8,1.2,2.9
			S23.7,20.2,23,21z M14.2,9c0,0,0,0.1,0.1,0.1c0,0,0,0.1,0.1,0.1c0,0,0.1,0.1,0.1,0.1c0,0,0.1,0,0.1,0.1c0,0,0.1,0,0.1,0
			c0,0,0.1,0,0.1,0c0,0,0.1,0,0.1,0c0,0,0.1,0,0.1,0c0,0,0.1,0,0.1-0.1c0,0,0.1,0,0.1-0.1s0.1-0.1,0.1-0.1c0,0,0-0.1,0.1-0.1
			c0,0,0-0.1,0-0.1c0,0,0-0.1,0-0.1c0,0,0-0.1,0-0.1c0,0,0-0.1,0-0.1c0,0,0-0.1-0.1-0.1c0,0,0-0.1-0.1-0.1s-0.1-0.1-0.1-0.1
			c0,0-0.1,0-0.1-0.1c0,0-0.1,0-0.1,0c-0.1,0-0.2,0-0.2,0c0,0-0.1,0-0.1,0c0,0-0.1,0-0.1,0.1c0,0-0.1,0-0.1,0.1c0,0-0.1,0.1-0.1,0.1
			c0,0,0,0.1-0.1,0.1c0,0,0,0.1,0,0.1c0,0,0,0.1,0,0.1c0,0,0,0.1,0,0.1C14.2,9,14.2,9,14.2,9z M5.4,9.4h7.2c0.3,0,0.6-0.3,0.6-0.6
			c0-0.3-0.3-0.6-0.6-0.6H5.4c-0.3,0-0.6,0.3-0.6,0.6C4.8,9.1,5.1,9.4,5.4,9.4z M5.4,14.8h6.2c0.3,0,0.6-0.3,0.6-0.6
			c0-0.3-0.3-0.6-0.6-0.6H5.4c-0.3,0-0.6,0.3-0.6,0.6C4.8,14.5,5.1,14.8,5.4,14.8z M5.9,11.2C5.8,11.1,5.8,11.1,5.9,11.2
			C5.8,11.1,5.7,11,5.7,11c0,0-0.1,0-0.1-0.1c0,0-0.1,0-0.1,0c-0.1,0-0.2,0-0.2,0c0,0-0.1,0-0.1,0c0,0-0.1,0-0.1,0.1
			c0,0-0.1,0-0.1,0.1c0,0-0.1,0.1-0.1,0.1c0,0,0,0.1-0.1,0.1c0,0,0,0.1,0,0.1c0,0,0,0.1,0,0.1c0,0,0,0.1,0,0.1c0,0,0,0.1,0,0.1
			c0,0,0,0.1,0.1,0.1c0,0,0,0.1,0.1,0.1C5,11.9,5,12,5.1,12c0,0,0.1,0,0.1,0.1c0,0,0.1,0,0.1,0c0,0,0.1,0,0.1,0c0,0,0.1,0,0.1,0
			c0,0,0.1,0,0.1,0c0,0,0.1,0,0.1-0.1c0,0,0.1,0,0.1-0.1c0,0,0.1-0.1,0.1-0.1c0,0,0-0.1,0.1-0.1c0,0,0-0.1,0-0.1c0,0,0-0.1,0-0.1
			c0,0,0-0.1,0-0.1c0,0,0-0.1,0-0.1C5.9,11.2,5.9,11.2,5.9,11.2z M14.7,10.9H7.5c-0.3,0-0.6,0.3-0.6,0.6c0,0.3,0.3,0.6,0.6,0.6h7.2
			c0.3,0,0.6-0.3,0.6-0.6C15.3,11.2,15.1,10.9,14.7,10.9z M10.1,2.2c-0.9,0-1.7,0.8-1.7,1.7c0,0.9,0.8,1.7,1.7,1.7
			c0.9,0,1.7-0.8,1.7-1.7C11.8,2.9,11,2.2,10.1,2.2z M10.1,4.4c-0.3,0-0.5-0.2-0.5-0.5c0-0.3,0.2-0.5,0.5-0.5c0.3,0,0.5,0.2,0.5,0.5
			C10.6,4.2,10.4,4.4,10.1,4.4z M29,24.3l-2.5-2.5c0.7-1.1,1-2.4,1-3.8c0-2-0.8-3.9-2.2-5.3c-1.4-1.4-3.3-2.2-5.2-2.2V5
			c0-0.3-0.3-0.6-0.6-0.6h-2.6V4.2c0-0.3-0.3-0.6-0.6-0.6h-2.2c-0.3-2-2-3.6-4.1-3.6C8,0,6.2,1.6,5.9,3.6H3.8
			c-0.3,0-0.6,0.3-0.6,0.6v0.3H0.6C0.3,4.5,0,4.7,0,5v19.7c0,0.3,0.3,0.6,0.6,0.6H18c0.6,0.2,1.3,0.3,2,0.3c1.3,0,2.6-0.3,3.8-1
			l2.5,2.5c0.4,0.4,0.8,0.6,1.3,0.6c0.5,0,1-0.2,1.3-0.6c0.4-0.4,0.6-0.8,0.6-1.3C29.6,25.2,29.4,24.7,29,24.3z M16.9,5.6h2v5
			c-0.4,0.1-0.8,0.1-1.2,0.3V6.3c0-0.3-0.3-0.6-0.6-0.6h-0.3V5.6z M4.4,4.7h2.1c0.3,0,0.6-0.3,0.6-0.6c0-1.7,1.4-3,3-3
			c1.7,0,3,1.4,3,3c0,0.3,0.3,0.6,0.6,0.6h2.1v1.8H4.4V4.7z M3.5,7.7c0.1,0.1,0.2,0.1,0.3,0.1h12.6c0.1,0,0.2,0,0.3-0.1v3.6
			c-0.7,0.4-1.4,0.8-1.9,1.4c-1,1-1.7,2.2-2,3.6H5.4c-0.3,0-0.6,0.3-0.6,0.6c0,0.3,0.3,0.6,0.6,0.6h7.1c0,0.2,0,0.4,0,0.6
			c0,0.3,0,0.6,0.1,1H5.4c-0.3,0-0.6,0.3-0.6,0.6c0,0.3,0.3,0.6,0.6,0.6h7.4c0.2,0.6,0.4,1.1,0.7,1.7H3.5V7.7z M1.2,24.1V5.6h2v0.2
			H2.9C2.6,5.8,2.3,6,2.3,6.3v16.1c0,0.3,0.3,0.6,0.6,0.6h11.5c0.1,0.1,0.2,0.3,0.4,0.4c0.3,0.3,0.6,0.5,0.9,0.8H1.2z M20,24.4
			c-1.6,0-3.3-0.6-4.5-1.9c-0.2-0.2-0.3-0.3-0.4-0.5c0,0,0,0,0,0c-0.9-1.1-1.4-2.5-1.4-4c0-1.7,0.7-3.3,1.9-4.5
			c1.2-1.2,2.9-1.9,4.5-1.9c1.6,0,3.3,0.6,4.5,1.9c1.2,1.2,1.9,2.8,1.9,4.5c0,1.3-0.4,2.5-1.1,3.5c0,0,0,0,0,0
			c-0.2,0.3-0.5,0.6-0.8,0.9C23.3,23.8,21.7,24.4,20,24.4z M28.2,26.2c-0.1,0.1-0.3,0.2-0.5,0.2c-0.2,0-0.4-0.1-0.5-0.2l-2.4-2.4
			c0.2-0.2,0.4-0.3,0.6-0.5c0.2-0.2,0.3-0.4,0.5-0.6l2.4,2.4c0.1,0.1,0.2,0.3,0.2,0.5C28.5,25.9,28.4,26.1,28.2,26.2z"/>
	</g>
</g>
</svg>
