<?xml version="1.0" encoding="utf-8"?>
<!-- Generator: Adobe Illustrator 17.1.0, SVG Export Plug-In . SVG Version: 6.00 Build 0)  -->
<!DOCTYPE svg PUBLIC "-//W3C//DTD SVG 1.1//EN" "http://www.w3.org/Graphics/SVG/1.1/DTD/svg11.dtd">
<svg version="1.1" id="Слой_1" xmlns="http://www.w3.org/2000/svg" xmlns:xlink="http://www.w3.org/1999/xlink" x="0px" y="0px"
	 viewBox="0 0 29.6 27.2" enable-background="new 0 0 29.6 27.2" xml:space="preserve" width='30px' height='28px'>
<g id="Forma_1_2_">
	<g>
		<path fill="#576775" d="M17,11.7H3.5v-3c0-2.9,2.4-5.2,5.3-5.2c2.9,0,5.3,2.4,5.3,5.2v1.5c0,0.3,0.2,0.5,0.5,0.5H17
			c0.3,0,0.5-0.2,0.5-0.5V8.7c0-4.8-3.9-8.7-8.8-8.7C3.9,0,0,3.9,0,8.7v17.9c0,0.3,0.2,0.5,0.5,0.5H17c0.3,0,0.5-0.2,0.5-0.5V12.2
			C17.5,11.9,17.3,11.7,17,11.7z M1.1,8.7c0-4.2,3.4-7.6,7.7-7.6c4.2,0,7.7,3.4,7.7,7.6v1h-1.3v-1c0-3.5-2.9-6.3-6.4-6.3
			c-3.5,0-6.4,2.8-6.4,6.3v3H1.1V8.7z M16.4,26.1H1.1V12.8h15.3V26.1z M7,20.1v1.4c0,0.9,0.8,1.7,1.7,1.7c1,0,1.7-0.8,1.7-1.7v-1.4
			c0.6-0.5,0.9-1.2,0.9-2c0-1.4-1.2-2.6-2.6-2.6c-1.4,0-2.6,1.2-2.6,2.6C6.2,18.9,6.5,19.6,7,20.1z M8.8,16.6c0.8,0,1.5,0.7,1.5,1.5
			c0,0.5-0.2,1-0.7,1.2c-0.1,0.1-0.2,0.3-0.2,0.4v1.7c0,0.3-0.3,0.6-0.6,0.6c-0.3,0-0.6-0.3-0.6-0.6v-1.7c0-0.2-0.1-0.3-0.2-0.4
			c-0.4-0.3-0.7-0.7-0.7-1.2C7.2,17.3,7.9,16.6,8.8,16.6z M15.1,21.3c-0.3,0-0.5,0.2-0.5,0.5v2.3H8.6c-0.3,0-0.5,0.2-0.5,0.5
			c0,0.3,0.2,0.5,0.5,0.5h6.5c0.3,0,0.5-0.2,0.5-0.5v-2.8C15.6,21.5,15.4,21.3,15.1,21.3z M11.6,14.7h2.9V17c0,0.3,0.2,0.5,0.5,0.5
			c0.3,0,0.5-0.2,0.5-0.5v-2.8c0-0.3-0.2-0.5-0.5-0.5h-3.4c-0.3,0-0.5,0.2-0.5,0.5C11.1,14.5,11.3,14.7,11.6,14.7z M2.5,17.6
			C2.8,17.6,3,17.3,3,17v-2.3h2.9c0.3,0,0.5-0.2,0.5-0.5c0-0.3-0.2-0.5-0.5-0.5H2.5c-0.3,0-0.5,0.2-0.5,0.5V17
			C1.9,17.3,2.2,17.6,2.5,17.6z M2.5,25.2h2.3c0.3,0,0.5-0.2,0.5-0.5c0-0.3-0.2-0.5-0.5-0.5H3v-2.3c0-0.3-0.2-0.5-0.5-0.5
			c-0.3,0-0.5,0.2-0.5,0.5v2.8C1.9,25,2.2,25.2,2.5,25.2z M7.2,24.5C7.2,24.4,7.2,24.4,7.2,24.5c-0.1-0.1-0.1-0.2-0.1-0.2
			c0,0-0.1,0-0.1-0.1c0,0-0.1,0-0.1,0c0,0-0.1,0-0.1,0c-0.1,0-0.1,0-0.2,0c0,0-0.1,0-0.1,0c0,0-0.1,0-0.1,0c0,0-0.1,0-0.1,0.1
			c0,0,0,0.1-0.1,0.1c0,0,0,0.1-0.1,0.1c0,0,0,0.1,0,0.1c0,0,0,0.1,0,0.1c0,0,0,0.1,0,0.1c0,0,0,0.1,0,0.1c0,0,0,0.1,0.1,0.1
			c0,0,0,0.1,0.1,0.1c0,0,0.1,0,0.1,0.1c0,0,0.1,0,0.1,0.1c0,0,0.1,0,0.1,0c0,0,0.1,0,0.1,0c0,0,0.1,0,0.1,0c0,0,0.1,0,0.1,0
			c0,0,0.1,0,0.1-0.1c0,0,0.1,0,0.1-0.1c0,0,0-0.1,0.1-0.1c0,0,0-0.1,0.1-0.1c0,0,0-0.1,0-0.1c0,0,0-0.1,0-0.1c0,0,0-0.1,0-0.1
			C7.3,24.5,7.2,24.5,7.2,24.5z M25,11.2c-1.3,0-2.3,1-2.3,2.3c0,1.3,1,2.3,2.3,2.3c1.3,0,2.3-1,2.3-2.3
			C27.3,12.3,26.3,11.2,25,11.2z M25,14.7c-0.7,0-1.2-0.5-1.2-1.2c0-0.7,0.5-1.2,1.2-1.2s1.2,0.5,1.2,1.2
			C26.2,14.2,25.7,14.7,25,14.7z M25,9c-2.5,0-4.6,2-4.6,4.5c0,1.9,1.2,3.6,2.9,4.2v5.7h-2.5c-0.3,0-0.5,0.2-0.5,0.5v2.7
			c0,0.3,0.2,0.5,0.5,0.5h5.2c0.3,0,0.5-0.2,0.5-0.5v-8.9c1.7-0.7,2.9-2.3,2.9-4.2C29.6,11,27.5,9,25,9z M23.4,26.1h-2v-1.6h2V26.1z
			 M25.6,26.1h-1.1v-8.1c0.2,0,0.4,0,0.5,0c0.2,0,0.4,0,0.5,0V26.1z M25,17c-1.9,0-3.5-1.6-3.5-3.5c0-1.9,1.6-3.5,3.5-3.5
			s3.5,1.6,3.5,3.5C28.5,15.4,26.9,17,25,17z"/>
	</g>
</g>
</svg>
