<?xml version="1.0" encoding="utf-8"?>
<!-- Generator: Adobe Illustrator 17.1.0, SVG Export Plug-In . SVG Version: 6.00 Build 0)  -->
<!DOCTYPE svg PUBLIC "-//W3C//DTD SVG 1.1//EN" "http://www.w3.org/Graphics/SVG/1.1/DTD/svg11.dtd">
<svg version="1.1" id="Слой_1" xmlns="http://www.w3.org/2000/svg" xmlns:xlink="http://www.w3.org/1999/xlink" x="0px" y="0px"
	 viewBox="0 0 29.6 27.2" enable-background="new 0 0 29.6 27.2" xml:space="preserve" width='30px' height='28px'>
<g id="Forma_1_copy">
	<g>
		<path fill="#576775" d="M22.7,8.7h-1V1.8c0-1-0.8-1.8-1.8-1.8H1.7C0.7,0,0,0.8,0,1.7v23.8c0,0.9,0.7,1.7,1.7,1.7h19.9
			c1.4,0,1.7-1.1,1.7-2.5V9.2C23.2,8.9,23,8.7,22.7,8.7z M1.7,26.1c-0.3,0-0.6-0.3-0.6-0.6V1.7c0-0.3,0.3-0.6,0.6-0.6h18.3
			c0.4,0,0.8,0.3,0.8,0.8v22.9c0,0.5,0.2,1,0.4,1.4H1.7z M21.5,26.1c-0.8,0,0.2-0.6,0.2-1.4v-15h0.4v15
			C22.2,25.5,22.3,26.1,21.5,26.1z M17.5,2.8H3.9c-0.3,0-0.5,0.2-0.5,0.5v2.2c0,0.3,0.2,0.5,0.5,0.5h13.6c0.3,0,0.5-0.2,0.5-0.5V3.4
			C18,3.1,17.8,2.8,17.5,2.8z M17,5H4.5V3.9H17V5z M17.5,7.5H3.9C3.6,7.5,3.4,7.7,3.4,8v2.1c0,0.3,0.2,0.5,0.5,0.5h13.6
			c0.3,0,0.5-0.2,0.5-0.5V8C18,7.7,17.8,7.5,17.5,7.5z M17,9.6H4.5V8.5H17V9.6z M17.7,17.8C17.7,17.8,17.6,17.8,17.7,17.8
			c-0.1-0.1-0.1-0.1-0.1-0.2c0,0-0.1,0-0.1-0.1c0,0-0.1,0-0.1,0c0,0-0.1,0-0.1,0c-0.1,0-0.1,0-0.2,0c0,0-0.1,0-0.1,0
			c0,0-0.1,0-0.1,0c0,0-0.1,0-0.1,0.1c0,0,0,0.1-0.1,0.1c0,0,0,0.1,0,0.1c0,0,0,0.1,0,0.1c0,0,0,0.1,0,0.1c0,0,0,0.1,0,0.1
			c0,0,0,0.1,0,0.1c0,0,0,0.1,0,0.1c0,0,0,0.1,0.1,0.1c0,0,0.1,0,0.1,0.1c0,0,0.1,0,0.1,0c0,0,0.1,0,0.1,0c0,0,0.1,0,0.1,0
			c0,0,0.1,0,0.1,0c0,0,0.1,0,0.1,0c0,0,0.1,0,0.1,0c0,0,0.1,0,0.1-0.1c0,0,0-0.1,0.1-0.1c0,0,0-0.1,0-0.1c0,0,0-0.1,0-0.1
			c0,0,0-0.1,0-0.1C17.7,18,17.7,18,17.7,17.8C17.7,17.9,17.7,17.9,17.7,17.8z M3.4,18.1c0,0.3,0.2,0.5,0.5,0.5h11.3
			c0.3,0,0.5-0.2,0.5-0.5s-0.2-0.5-0.5-0.5H4C3.7,17.5,3.4,17.8,3.4,18.1z M17.7,23C17.7,22.9,17.6,22.9,17.7,23
			c-0.1-0.1-0.1-0.1-0.1-0.2c-0.1-0.1-0.3-0.2-0.5-0.1c0,0-0.1,0-0.1,0c0,0-0.1,0-0.1,0c0,0-0.1,0-0.1,0.1c0,0,0,0.1-0.1,0.1
			c0,0,0,0.1,0,0.1c0,0,0,0.1,0,0.1c0,0,0,0.1,0,0.1c0,0,0,0.1,0,0.1c0,0,0,0.1,0,0.1c0,0,0,0.1,0,0.1c0,0,0,0.1,0.1,0.1
			c0,0,0.1,0,0.1,0.1c0,0,0.1,0,0.1,0c0,0,0.1,0,0.1,0c0,0,0.1,0,0.1,0c0,0,0.1,0,0.1,0c0,0,0.1,0,0.1,0c0,0,0.1,0,0.1,0
			c0,0,0.1,0,0.1-0.1c0.1-0.1,0.2-0.2,0.2-0.4C17.7,23.1,17.7,23.1,17.7,23C17.7,23,17.7,23,17.7,23z M15.2,22.6H4
			c-0.3,0-0.5,0.2-0.5,0.5c0,0.3,0.2,0.5,0.5,0.5h11.3c0.3,0,0.5-0.2,0.5-0.5C15.8,22.9,15.5,22.6,15.2,22.6z M3.5,20.7
			C3.5,20.7,3.5,20.8,3.5,20.7c0,0.1,0.1,0.2,0.1,0.2c0,0,0,0.1,0.1,0.1c0.1,0.1,0.2,0.2,0.4,0.2c0.1,0,0.3-0.1,0.4-0.2
			c0.1-0.1,0.2-0.2,0.2-0.4c0,0,0-0.1,0-0.1c0,0,0-0.1,0-0.1c0,0,0-0.1,0-0.1c0,0,0-0.1-0.1-0.1c0,0-0.1,0-0.1-0.1c0,0-0.1,0-0.1,0
			c0,0-0.1,0-0.1,0c-0.2,0-0.4,0-0.5,0.1c0,0,0,0.1-0.1,0.1c0,0,0,0.1,0,0.1c0,0,0,0.1,0,0.1c0,0,0,0.1,0,0.1
			C3.4,20.6,3.5,20.7,3.5,20.7z M17.2,20.1H5.9c-0.3,0-0.5,0.2-0.5,0.5s0.2,0.5,0.5,0.5h11.3c0.3,0,0.5-0.2,0.5-0.5
			S17.5,20.1,17.2,20.1z M4,13.5h11.3c0.3,0,0.5-0.2,0.5-0.5c0-0.3-0.2-0.5-0.5-0.5H4c-0.3,0-0.5,0.2-0.5,0.5
			C3.4,13.2,3.7,13.5,4,13.5z M17.2,15H5.9c-0.3,0-0.5,0.2-0.5,0.5c0,0.3,0.2,0.5,0.5,0.5h11.3c0.3,0,0.5-0.2,0.5-0.5
			C17.7,15.2,17.5,15,17.2,15z M17.7,12.7C17.7,12.7,17.6,12.7,17.7,12.7c-0.1-0.1-0.1-0.1-0.1-0.2c0,0-0.1,0-0.1-0.1
			c0,0-0.1,0-0.1,0c0,0-0.1,0-0.1,0c-0.1,0-0.1,0-0.2,0c0,0-0.1,0-0.1,0c0,0-0.1,0-0.1,0c0,0-0.1,0-0.1,0.1c0,0,0,0.1-0.1,0.1
			c0,0,0,0.1,0,0.1c0,0,0,0.1,0,0.1c0,0,0,0.1,0,0.1c0,0,0,0.1,0,0.1c0,0,0,0.1,0,0.1c0,0,0,0.1,0,0.1c0,0,0,0.1,0.1,0.1
			c0,0,0.1,0,0.1,0.1c0,0,0.1,0,0.1,0c0,0,0.1,0,0.1,0c0,0,0.1,0,0.1,0c0,0,0.1,0,0.1,0c0,0,0.1,0,0.1,0c0,0,0.1,0,0.1,0
			c0,0,0.1,0,0.1-0.1c0,0,0-0.1,0.1-0.1c0,0,0-0.1,0-0.1c0,0,0-0.1,0-0.1c0,0,0-0.1,0-0.1C17.7,12.9,17.7,12.9,17.7,12.7
			C17.7,12.8,17.7,12.8,17.7,12.7z M3.5,15.6C3.5,15.6,3.5,15.7,3.5,15.6c0,0.1,0.1,0.2,0.1,0.2c0,0,0,0.1,0.1,0.1
			C3.7,16,3.8,16,4,16c0.1,0,0.3-0.1,0.4-0.2c0.1-0.1,0.2-0.2,0.2-0.4c0,0,0-0.1,0-0.1c0,0,0-0.1,0-0.1c0,0,0-0.1,0-0.1
			c0,0,0-0.1-0.1-0.1c0,0-0.1,0-0.1-0.1c0,0-0.1,0-0.1,0c0,0-0.1,0-0.1,0c-0.2,0-0.4,0-0.5,0.1c0,0,0,0.1-0.1,0.1c0,0,0,0.1,0,0.1
			c0,0,0,0.1,0,0.1c0,0,0,0.1,0,0.1C3.4,15.5,3.5,15.6,3.5,15.6z M29,0h-4.5C24.2,0,24,0.2,24,0.5v22.6c0,0.1,0,0.2,0.1,0.3l2.2,3.5
			c0.1,0.2,0.3,0.3,0.5,0.3s0.4-0.1,0.5-0.3l2.2-3.5c0.1-0.1,0.1-0.2,0.1-0.3V0.5C29.6,0.2,29.4,0,29,0z M25.1,4.1h1.1v18.4h-1.1
			V4.1z M26.8,25.6l-1.3-2.1h2.6L26.8,25.6z M28.5,22.5h-1.1V4.1h1.1V22.5z M28.5,3h-3.4V1.1h3.4V3z"/>
	</g>
</g>
</svg>
