<?xml version="1.0" encoding="utf-8"?>
<!-- Generator: Adobe Illustrator 17.1.0, SVG Export Plug-In . SVG Version: 6.00 Build 0)  -->
<!DOCTYPE svg PUBLIC "-//W3C//DTD SVG 1.1//EN" "http://www.w3.org/Graphics/SVG/1.1/DTD/svg11.dtd">
<svg version="1.1" id="Слой_1" xmlns="http://www.w3.org/2000/svg" xmlns:xlink="http://www.w3.org/1999/xlink" x="0px" y="0px"
	 viewBox="0 0 29.6 27.2" enable-background="new 0 0 29.6 27.2" xml:space="preserve" width='30px' height='28px'>
<g id="Forma_1_4_">
	<g>
		<path fill="#576775" d="M3.4,24C3.4,24,3.4,24,3.4,24c-0.1-0.1-0.1-0.2-0.1-0.2c0,0-0.1,0-0.1-0.1c0,0-0.1,0-0.1-0.1
			c0,0-0.1,0-0.1,0c-0.1,0-0.1,0-0.2,0c0,0-0.1,0-0.1,0c0,0-0.1,0-0.1,0.1c0,0-0.1,0-0.1,0.1c0,0,0,0.1-0.1,0.1c0,0,0,0.1-0.1,0.1
			c0,0,0,0.1,0,0.1c0,0,0,0.1,0,0.1c0,0,0,0.1,0,0.1c0,0,0,0.1,0,0.1c0,0,0,0.1,0.1,0.1c0,0,0,0.1,0.1,0.1c0,0,0.1,0,0.1,0.1
			c0,0,0.1,0,0.1,0.1c0,0,0.1,0,0.1,0c0,0,0.1,0,0.1,0c0,0,0.1,0,0.1,0c0,0,0.1,0,0.1,0c0,0,0.1,0,0.1-0.1c0,0,0.1,0,0.1-0.1
			s0-0.1,0.1-0.1c0,0,0-0.1,0.1-0.1c0,0,0-0.1,0-0.1c0,0,0-0.1,0-0.1c0,0,0-0.1,0-0.1C3.5,24.1,3.4,24.1,3.4,24z M20.6,3.7
			C20.6,3.7,20.6,3.6,20.6,3.7c-0.1-0.1-0.1-0.2-0.1-0.2c-0.1-0.1-0.2-0.2-0.4-0.2c-0.1,0-0.3,0.1-0.4,0.2c0,0,0,0.1-0.1,0.1
			c0,0,0,0.1-0.1,0.1c0,0,0,0.1,0,0.1c0,0,0,0.1,0,0.1c0,0,0,0.1,0,0.1c0,0,0,0.1,0,0.1c0,0,0,0.1,0.1,0.1c0,0,0,0.1,0.1,0.1
			c0.1,0.1,0.2,0.2,0.4,0.2c0.1,0,0.3-0.1,0.4-0.2c0,0,0-0.1,0.1-0.1c0,0,0-0.1,0.1-0.1c0,0,0-0.1,0-0.1c0,0,0-0.1,0-0.1
			c0,0,0-0.1,0-0.1C20.6,3.8,20.6,3.7,20.6,3.7z M28.6,18.6c-0.7-0.7-5.5-1-6.5-1h-1c0-0.3-0.2-0.6-0.4-0.8c-0.3-0.3-0.6-0.5-1-0.6
			c1-0.8,1.8-2,2.2-3.4c0.2-0.8,0.4-1.6,0.4-2.4c0,0,0-1.5,0-1.5h0.2c0.9,0,1.7-0.8,1.7-1.7c0-1-0.8-1.7-1.7-1.7h-0.4V3
			c0-0.4-0.1-0.8-0.2-1.2c-0.5-1.3-2-2.1-3.4-1.8c0,0,0,0,0,0l-2.1,0.5c-0.8,0.2-1.6,0.2-2.4,0l-2.1-0.5c0,0,0,0,0,0
			c-1.4-0.3-2.8,0.5-3.4,1.8C8.4,2.2,8.3,2.6,8.3,3v2.2H7.9C6.9,5.3,6.2,6,6.2,7c0,1,0.8,1.7,1.7,1.7H8l0,1.7c0,0.8,0.1,1.5,0.2,2.2
			c0.4,1.5,1.1,2.7,2.2,3.5c-0.4,0.1-0.7,0.3-0.9,0.6c-0.2,0.2-0.3,0.5-0.4,0.8h-1c-0.9,0-6.6,0.4-7.3,1c-0.7,0.7-1,1.6-1,2.5l0,5.5
			c0,0.3,0.2,0.6,0.6,0.6H29c0.3,0,0.6-0.3,0.6-0.6l0-5.5C29.6,20.2,29.2,19.3,28.6,18.6z M19.9,17.4c0.1,0.1,0.2,0.3,0.1,0.5l0,0
			c0,0,0,0,0,0l-0.5,2.2l-3.7,1.3v-1.3l1.7-3h2C19.6,17.2,19.8,17.3,19.9,17.4z M9.4,4.5h8.8c0.3,0,0.6-0.3,0.6-0.6
			c0-0.3-0.2-0.6-0.6-0.6H9.4V3c0-0.3,0.1-0.5,0.2-0.8c0.3-0.8,1.2-1.3,2.1-1.1l2.1,0.5c0,0,0,0,0,0c0.9,0.2,1.9,0.2,2.9,0
			c0,0,0,0,0,0l2.1-0.5c0.9-0.2,1.8,0.3,2.1,1.1C20.9,2.5,21,2.8,21,3v2.2H9.4V4.5z M7.9,7.6C7.6,7.6,7.3,7.3,7.3,7
			c0-0.3,0.3-0.6,0.6-0.6h14.6c0.3,0,0.6,0.3,0.6,0.6c0,0.3-0.3,0.6-0.6,0.6H7.9z M19.7,8.7v1.1c0,0.3-0.2,0.5-0.5,0.5h-2.9
			c-0.3,0-0.5-0.2-0.5-0.5V8.7H19.7z M14.6,8.7v1.1c0,0.3-0.2,0.5-0.5,0.5h-2.9c-0.3,0-0.5-0.2-0.5-0.5V8.7H14.6z M9.4,12.4
			c-0.1-0.6-0.2-1.2-0.2-1.9l0-1.7h0.4v1.1c0,0.9,0.7,1.7,1.6,1.7h2.9c0.4,0,0.8-0.2,1.1-0.4c0.3,0.3,0.7,0.4,1.1,0.4h2.9
			c0.9,0,1.6-0.7,1.6-1.7V8.7h0.4l0,1.5c0,0,0,0,0,0c0,0.8-0.1,1.5-0.3,2.1c-0.6,1.9-1.9,3.3-3.6,3.7h-0.2c-0.2,0-0.4,0.1-0.5,0.3
			l-1.4,2.5l-1.4-2.5c-0.1-0.2-0.3-0.3-0.5-0.3h-0.2C11.1,15.5,9.8,14.3,9.4,12.4z M10.5,17.4c0.1-0.1,0.3-0.2,0.5-0.2h2l1.7,3v1.3
			l-3.7-1.3L10.4,18c0,0,0,0,0,0l0,0C10.4,17.7,10.4,17.5,10.5,17.4z M28.5,23.7H5c-0.3,0-0.6,0.3-0.6,0.6c0,0.3,0.2,0.6,0.6,0.6
			h23.5l0,1.2H1.1l0-5c0-0.6,0.2-1.3,0.7-1.7c0.5-0.5,5.9-0.7,6.5-0.7h1.1l0.5,2c0,0.2,0.2,0.3,0.4,0.4l4.8,1.6c0.1,0,0.1,0,0.2,0
			c0.1,0,0.1,0,0.2,0l4.8-1.6c0.2-0.1,0.3-0.2,0.4-0.4l0.5-2h1.1c0.6,0,5.2,0.3,5.7,0.7c0.5,0.5,0.7,1.1,0.7,1.7L28.5,23.7z M13,15
			c0.7,0.2,1.6,0.1,2.2-0.4c0.4,0.3,1,0.5,1.5,0.5c0.3,0,0.5,0,0.7-0.1c1.2-0.4,1.7-1.5,1.8-1.5c0.1-0.2,0.1-0.4-0.1-0.6
			c-0.1-0.2-0.4-0.2-0.6-0.2c-0.1,0.1-0.4,0.1-0.6,0.1c-0.1,0-0.2-0.1-0.2-0.2C17.3,12.4,16.8,12,16,12c0,0,0,0,0,0
			c-0.3,0-0.5,0.1-0.7,0.2C15,12.1,14.7,12,14.5,12c0,0,0,0,0,0c-0.8,0-1.3,0.4-1.7,0.6c-0.1,0.1-0.2,0.1-0.2,0.2
			c-0.2,0-0.5-0.1-0.6-0.1c-0.2-0.1-0.4,0-0.6,0.2c-0.1,0.2-0.2,0.4-0.1,0.6C11.2,13.5,11.8,14.6,13,15z M15.6,13.3
			c0.1-0.1,0.2-0.1,0.3-0.1l0,0c0.4,0,0.8,0.2,1.1,0.4c0.1,0.1,0.2,0.2,0.3,0.2c-0.1,0-0.2,0.1-0.3,0.1c-0.5,0.2-1.2,0-1.5-0.4
			C15.6,13.5,15.6,13.4,15.6,13.3C15.6,13.4,15.6,13.3,15.6,13.3z M13.4,13.6c0.3-0.2,0.6-0.4,1.1-0.4l0,0c0.1,0,0.3,0.1,0.3,0.1
			c0,0,0.1,0.1,0.1,0.1c0,0-0.1,0.1-0.1,0.1c-0.2,0.3-0.9,0.5-1.5,0.4c-0.1,0-0.2-0.1-0.3-0.1C13.1,13.7,13.2,13.7,13.4,13.6z"/>
	</g>
</g>
</svg>
