<?xml version="1.0" encoding="utf-8"?>
<!-- Generator: Adobe Illustrator 17.1.0, SVG Export Plug-In . SVG Version: 6.00 Build 0)  -->
<!DOCTYPE svg PUBLIC "-//W3C//DTD SVG 1.1//EN" "http://www.w3.org/Graphics/SVG/1.1/DTD/svg11.dtd">
<svg version="1.1" id="Слой_1" xmlns="http://www.w3.org/2000/svg" xmlns:xlink="http://www.w3.org/1999/xlink" x="0px" y="0px"
	 viewBox="0 0 30 28" enable-background="new 0 0 30 28" xml:space="preserve" width='30px' height='28px'>
<g id="Rectangle_14_4_">
	<g>
		<path fill="#576775" d="M29,1v26H1V1H29 M30,0H0v28h30V0L30,0z"/>
	</g>
</g>
<g>
	<g>
		<path fill="#576775" d="M5.7,17.1c-0.6,0-0.9,0-1.4,0c0-2.8,0-4.3,0-7.1c0.6,0,0.9,0,1.4,0C5.7,12.8,5.7,14.2,5.7,17.1z"/>
		<path fill="#576775" d="M12.5,14.7C12.5,14.7,12.5,14.7,12.5,14.7c0,0.8-0.2,1.4-0.7,1.9s-1.1,0.7-2,0.7c-0.9,0-1.6-0.3-2.1-0.8
			c-0.5-0.5-0.8-1.3-0.8-2.1c0-0.6,0-0.8,0-1.4c0-0.9,0.3-1.6,0.8-2.1s1.2-0.8,2-0.8c0.9,0,1.6,0.2,2.1,0.7c0.5,0.5,0.7,1.1,0.7,1.8
			c0,0,0,0,0,0c-0.6,0-0.8,0-1.4,0c0-0.5-0.1-0.8-0.3-1.1c-0.2-0.3-0.6-0.4-1-0.4c-0.4,0-0.8,0.2-1,0.5s-0.4,0.8-0.4,1.3
			c0,0.6,0,0.9,0,1.4c0,0.5,0.1,1,0.4,1.3s0.6,0.5,1.1,0.5c0.4,0,0.8-0.1,1-0.4c0.2-0.2,0.3-0.6,0.3-1.1
			C11.7,14.7,12,14.7,12.5,14.7z"/>
		<path fill="#576775" d="M19.3,14.2c0,0.9-0.3,1.6-0.8,2.2c-0.6,0.6-1.3,0.9-2.2,0.9c-0.9,0-1.6-0.3-2.1-0.9
			c-0.5-0.6-0.8-1.3-0.8-2.2c0-0.5,0-0.8,0-1.3c0-0.9,0.3-1.6,0.8-2.2c0.5-0.6,1.3-0.9,2.1-0.9c0.9,0,1.6,0.3,2.2,0.9
			c0.6,0.6,0.8,1.3,0.8,2.2C19.3,13.4,19.3,13.7,19.3,14.2z M17.8,12.9c0-0.6-0.1-1-0.4-1.4S16.8,11,16.3,11s-0.9,0.2-1.1,0.5
			c-0.3,0.4-0.4,0.8-0.4,1.4c0,0.5,0,0.8,0,1.3c0,0.6,0.1,1,0.4,1.4s0.6,0.5,1.1,0.5c0.5,0,0.9-0.2,1.1-0.5s0.4-0.8,0.4-1.4
			C17.8,13.7,17.8,13.4,17.8,12.9z"/>
		<path fill="#576775" d="M26.1,17.1c-0.6,0-0.9,0-1.4,0c-1.1-1.9-1.7-2.9-2.9-4.9c0,0,0,0,0,0c0,1.9,0,2.9,0,4.9
			c-0.6,0-0.9,0-1.4,0c0-2.8,0-4.3,0-7.1c0.6,0,0.9,0,1.4,0c1.1,1.9,1.7,2.9,2.9,4.9c0,0,0,0,0,0c0-1.9,0-2.9,0-4.8
			c0.6,0,0.9,0,1.4,0C26.1,12.8,26.1,14.2,26.1,17.1z"/>
	</g>
</g>
</svg>
