<?xml version="1.0" encoding="utf-8"?>
<!-- Generator: Adobe Illustrator 17.1.0, SVG Export Plug-In . SVG Version: 6.00 Build 0)  -->
<!DOCTYPE svg PUBLIC "-//W3C//DTD SVG 1.1//EN" "http://www.w3.org/Graphics/SVG/1.1/DTD/svg11.dtd">
<svg version="1.1" id="Слой_1" xmlns="http://www.w3.org/2000/svg" xmlns:xlink="http://www.w3.org/1999/xlink" x="0px" y="0px"
	 viewBox="0 0 29.6 27.2" enable-background="new 0 0 29.6 27.2" xml:space="preserve" width='30px' height='28px'>
<g id="Forma_1_2_">
	<g>
		<path fill="#576775" d="M14.8,10.6h-11c-0.3,0-0.5,0.2-0.5,0.5v12.8c0,0.3,0.2,0.5,0.5,0.5h11c0.3,0,0.5-0.2,0.5-0.5V11.1
			C15.4,10.8,15.1,10.6,14.8,10.6z M14.3,23.4H4.4V11.6h9.9V23.4z M10.7,18.1h0.2c0.3,0,0.5-0.2,0.5-0.5c0-0.3-0.2-0.5-0.5-0.5h-0.2
			c-0.3,0-0.5,0.2-0.5,0.5C10.2,17.9,10.4,18.1,10.7,18.1z M7.7,18.1h0.2c0.3,0,0.5-0.2,0.5-0.5c0-0.3-0.2-0.5-0.5-0.5H7.7
			c-0.3,0-0.5,0.2-0.5,0.5C7.1,17.9,7.4,18.1,7.7,18.1z M7.8,21.7c0,0,0,0.1,0,0.1H7.7c-0.3,0-0.5,0.2-0.5,0.5
			c0,0.3,0.2,0.5,0.5,0.5h3.2c0.3,0,0.5-0.2,0.5-0.5c0-0.3-0.2-0.5-0.5-0.5h-0.1c0,0,0-0.1,0-0.1c0.7-0.3,1.3-0.7,1.7-1.3
			c0.5-0.7,0.8-1.5,0.8-2.4v-3.3c0-1.4-1.1-2.5-2.5-2.5h-3c-1.4,0-2.5,1.1-2.5,2.5V18c0,0.9,0.3,1.7,0.8,2.4
			C6.5,21,7.1,21.4,7.8,21.7z M6.4,14.7c0-0.8,0.6-1.4,1.4-1.4h3c0.8,0,1.4,0.6,1.4,1.4v0.9h-0.2l-0.5-0.9c-0.1-0.3-0.5-0.4-0.7-0.2
			l-2.1,1.1H6.4V14.7z M6.4,16.6h2.6c0.1,0,0.2,0,0.3-0.1l1.7-0.9l0.4,0.7c0.1,0.2,0.3,0.3,0.5,0.3h0.5V18c0,1.3-0.9,2.4-2.1,2.8
			c-0.2,0.1-0.4,0.3-0.4,0.5v0c0,0.2-0.2,0.4-0.5,0.4c-0.3,0-0.5-0.2-0.5-0.4v0c0-0.2-0.2-0.4-0.4-0.5c-1.2-0.4-2.1-1.5-2.1-2.8
			V16.6z M25.8,20.8h-8.1c-0.3,0-0.5,0.2-0.5,0.5v2.3c0,0.3,0.2,0.5,0.5,0.5h8.1c0.3,0,0.5-0.2,0.5-0.5v-2.3
			C26.3,21.1,26.1,20.8,25.8,20.8z M25.2,23.2h-7v-1.2h7V23.2z M17.7,13.2c-0.3,0-0.5,0.2-0.5,0.5v2.3c0,0.3,0.2,0.5,0.5,0.5h8.1
			c0.3,0,0.5-0.2,0.5-0.5v-2.3c0-0.3-0.2-0.5-0.5-0.5H17.7z M25.2,15.5h-7v-1.2h7V15.5z M25.1,19C25.2,19,25.2,19.1,25.1,19
			c0.2,0.2,0.3,0.2,0.5,0.2c0,0,0.1,0,0.1,0c0,0,0.1,0,0.1,0c0,0,0.1,0,0.1,0c0,0,0.1,0,0.1-0.1c0,0,0-0.1,0.1-0.1
			c0,0,0-0.1,0.1-0.1c0,0,0-0.1,0-0.1c0,0,0-0.1,0-0.1c0-0.1-0.1-0.3-0.2-0.4c0,0-0.1,0-0.1-0.1c0,0-0.1,0-0.1,0c0,0-0.1,0-0.1,0
			c-0.2,0-0.4,0-0.5,0.1c0,0,0,0.1-0.1,0.1c0,0,0,0.1-0.1,0.1c0,0,0,0.1,0,0.1c0,0,0,0.1,0,0.1s0,0.1,0,0.1
			C25.1,18.9,25.1,18.9,25.1,19C25.1,19,25.1,19,25.1,19z M23.6,19.3c0.3,0,0.5-0.2,0.5-0.5c0-0.3-0.2-0.5-0.5-0.5h-5.7
			c-0.3,0-0.5,0.2-0.5,0.5c0,0.3,0.2,0.5,0.5,0.5H23.6z M25.1,11.3C25.1,11.3,25.1,11.4,25.1,11.3c0.1,0.1,0.1,0.1,0.1,0.2
			c0,0,0.1,0,0.1,0.1c0,0,0.1,0,0.1,0c0,0,0.1,0,0.1,0c0,0,0.1,0,0.1,0c0,0,0.1,0,0.1,0c0,0,0.1,0,0.1,0c0,0,0.1,0,0.1,0
			c0,0,0.1,0,0.1-0.1c0,0,0-0.1,0.1-0.1c0,0,0-0.1,0.1-0.1c0,0,0-0.1,0-0.1c0,0,0-0.1,0-0.1c0,0,0-0.1,0-0.1c0,0,0-0.1,0-0.1
			c0,0,0-0.1-0.1-0.1c0,0,0-0.1-0.1-0.1c0,0-0.1,0-0.1-0.1c0,0-0.1,0-0.1,0c0,0-0.1,0-0.1,0c-0.1,0-0.1,0-0.2,0c0,0-0.1,0-0.1,0
			c0,0-0.1,0-0.1,0c0,0-0.1,0-0.1,0.1s0,0.1-0.1,0.1c0,0,0,0.1-0.1,0.1c0,0,0,0.1,0,0.1c0,0,0,0.1,0,0.1c0,0,0,0.1,0,0.1
			C25.1,11.2,25.1,11.3,25.1,11.3z M17.4,11.1c0,0.3,0.2,0.5,0.5,0.5h5.7c0.3,0,0.5-0.2,0.5-0.5c0-0.3-0.2-0.5-0.5-0.5h-5.7
			C17.6,10.6,17.4,10.8,17.4,11.1z M29.1,7.1h-8V5.6c0-0.3-0.2-0.5-0.5-0.5H18l-0.4-4.6c0-0.3-0.3-0.5-0.5-0.5h-4.6
			C12.2,0,12,0.2,12,0.5l-0.4,4.6H9.1c-0.3,0-0.5,0.2-0.5,0.5v1.5h-8C0.2,7.1,0,7.3,0,7.6v19c0,0.3,0.2,0.5,0.5,0.5h28.5
			c0.3,0,0.5-0.2,0.5-0.5v-19C29.6,7.3,29.4,7.1,29.1,7.1z M13,1.1h3.6l0.5,5.8h-4.5L13,1.1z M9.7,6.2h1.9l-0.1,1.2
			c0,0.1,0,0.3,0.1,0.4C11.7,7.9,11.8,8,12,8h5.7c0.2,0,0.3-0.1,0.4-0.2s0.2-0.3,0.1-0.4l-0.1-1.2h1.8v2.5H9.7V6.2z M28.5,26.1H1.1
			v-18h7.5v1.1c0,0.3,0.2,0.5,0.5,0.5h11.4c0.3,0,0.5-0.2,0.5-0.5V8.2h7.5V26.1z"/>
	</g>
</g>
</svg>
