<?xml version="1.0" encoding="utf-8"?>
<!-- Generator: Adobe Illustrator 17.1.0, SVG Export Plug-In . SVG Version: 6.00 Build 0)  -->
<!DOCTYPE svg PUBLIC "-//W3C//DTD SVG 1.1//EN" "http://www.w3.org/Graphics/SVG/1.1/DTD/svg11.dtd">
<svg version="1.1" id="Слой_1" xmlns="http://www.w3.org/2000/svg" xmlns:xlink="http://www.w3.org/1999/xlink" x="0px" y="0px"
	 viewBox="0 0 1.7 2.9" enable-background="new 0 0 1.7 2.9" xml:space="preserve">
<g id="Forma_1_1_">
	<g>
		<path fill-rule="evenodd" clip-rule="evenodd" fill="#495D85" d="M1.3,0.6l0.3,0c0,0,0.1,0,0.1-0.1V0.1c0,0,0-0.1-0.1-0.1L1.2,0
			C0.8,0,0.5,0.3,0.5,0.7V1H0.1C0,1,0,1.1,0,1.1v0.5c0,0,0,0.1,0.1,0.1h0.4v1.2c0,0,0,0.1,0.1,0.1h0.5c0,0,0.1,0,0.1-0.1V1.6h0.5
			c0,0,0.1,0,0.1-0.1l0-0.5c0,0,0,0,0,0c0,0,0,0,0,0H1.1V0.8C1.1,0.6,1.2,0.6,1.3,0.6z"/>
	</g>
</g>
</svg>
