<?xml version="1.0" encoding="utf-8"?>
<!-- Generator: Adobe Illustrator 17.1.0, SVG Export Plug-In . SVG Version: 6.00 Build 0)  -->
<!DOCTYPE svg PUBLIC "-//W3C//DTD SVG 1.1//EN" "http://www.w3.org/Graphics/SVG/1.1/DTD/svg11.dtd">
<svg version="1.1" id="Слой_1" xmlns="http://www.w3.org/2000/svg" xmlns:xlink="http://www.w3.org/1999/xlink" x="0px" y="0px"
	 viewBox="0 0 2403 2403" enable-background="new 0 0 2403 2403" xml:space="preserve">
<g id="Forma_1_3_">
	<g>
		<path fill-rule="evenodd" clip-rule="evenodd" fill="#AFD299" d="M2162.7,0H240.3C108.1,0,0,108.1,0,240.4v1922.4
			C0,2295,108.1,2403,240.3,2403h1922.5c132.1,0,240.3-108.1,240.3-240.3V240.4C2403,108.1,2294.9,0,2162.7,0z M1201.5,720.9
			c264.3,0,480.6,216.3,480.6,480.6c0,264.3-216.3,480.6-480.6,480.6c-264.3,0-480.6-216.3-480.6-480.6
			C720.9,937.2,937.2,720.9,1201.5,720.9z M2162.7,2102.7c0,36-24,60.1-60.1,60.1H300.4c-36.1,0-60.1-24-60.1-60.1V1081.4h252.3
			c-12,36.1-12,84.2-12,120.2c0,396.6,324.4,720.9,720.9,720.9c396.5,0,720.9-324.4,720.9-720.9c0-36,0-84.1-12-120.2h252.3V2102.7z
			 M2162.7,540.7c0,36-24,60.1-60.1,60.1h-240.3c-36.1,0-60.1-24.1-60.1-60.1V300.4c0-36.1,24-60,60.1-60h240.3
			c36.1,0,60.1,24,60.1,60V540.7z"/>
	</g>
</g>
</svg>
