<?xml version="1.0" encoding="utf-8"?>
<!-- Generator: Adobe Illustrator 17.1.0, SVG Export Plug-In . SVG Version: 6.00 Build 0)  -->
<!DOCTYPE svg PUBLIC "-//W3C//DTD SVG 1.1//EN" "http://www.w3.org/Graphics/SVG/1.1/DTD/svg11.dtd">
<svg version="1.1" id="Слой_1" xmlns="http://www.w3.org/2000/svg" xmlns:xlink="http://www.w3.org/1999/xlink" x="0px" y="0px"
	 viewBox="0 0 2788.1 2440.1" enable-background="new 0 0 2788.1 2440.1" xml:space="preserve">
<g id="Shape_1">
	<g>
		<path fill-rule="evenodd" clip-rule="evenodd" fill="#495D85" d="M2685,5.2L48.5,1027.6c-65.1,25.3-64.5,117.8,0.7,142.4
			L691.7,1411l248.7,803.8c15.9,51.5,78.5,70.5,120.1,36.4l358.1-293.4c37.6-30.8,91-32.3,130.3-3.7l645.9,471.4
			c44.5,32.5,107.5,7.9,118.6-46L2786.4,91.8C2798.6,32.7,2740.9-16.5,2685,5.2z M2182.2,540.2L1146,1508.4
			c-36.4,34.1-59.9,79.7-66.6,129.2l-35.3,262.9c-4.7,35.1-53.7,38.6-63.3,4.6L845,1425.7c-15.5-54.7,7.1-113.1,55.2-143
			l1255.5-777.2C2178.4,491.5,2201.6,522.2,2182.2,540.2z"/>
	</g>
</g>
</svg>
