<?xml version="1.0" encoding="utf-8"?>
<!-- Generator: Adobe Illustrator 17.1.0, SVG Export Plug-In . SVG Version: 6.00 Build 0)  -->
<!DOCTYPE svg PUBLIC "-//W3C//DTD SVG 1.1//EN" "http://www.w3.org/Graphics/SVG/1.1/DTD/svg11.dtd">
<svg version="1.1" id="Слой_1" xmlns="http://www.w3.org/2000/svg" xmlns:xlink="http://www.w3.org/1999/xlink" x="0px" y="0px"
	 viewBox="0 0 3.6 2.9" enable-background="new 0 0 3.6 2.9" xml:space="preserve">
<g id="Forma_1_2_">
	<g>
		<path fill-rule="evenodd" clip-rule="evenodd" fill="#495D85" d="M3.6,0.3C3.5,0.4,3.3,0.4,3.2,0.5c0.2-0.1,0.3-0.2,0.3-0.4
			C3.4,0.1,3.2,0.2,3,0.2C2.9,0.1,2.7,0,2.5,0C2.1,0,1.8,0.3,1.8,0.7c0,0.1,0,0.1,0,0.2c-0.6,0-1.2-0.3-1.5-0.8
			C0.2,0.2,0.2,0.4,0.2,0.5c0,0.3,0.1,0.5,0.3,0.6c-0.1,0-0.2,0-0.3-0.1v0c0,0.4,0.3,0.6,0.6,0.7c-0.1,0-0.1,0-0.2,0
			c0,0-0.1,0-0.1,0C0.5,2,0.8,2.2,1.1,2.3C0.8,2.4,0.5,2.6,0.2,2.6c-0.1,0-0.1,0-0.2,0c0.3,0.2,0.7,0.3,1.1,0.3
			c1.4,0,2.1-1.1,2.1-2.1l0-0.1C3.4,0.6,3.5,0.5,3.6,0.3z"/>
	</g>
</g>
</svg>
