<?xml version="1.0" encoding="utf-8"?>
<!-- Generator: Adobe Illustrator 17.1.0, SVG Export Plug-In . SVG Version: 6.00 Build 0)  -->
<!DOCTYPE svg PUBLIC "-//W3C//DTD SVG 1.1//EN" "http://www.w3.org/Graphics/SVG/1.1/DTD/svg11.dtd">
<svg version="1.1" id="Слой_1" xmlns="http://www.w3.org/2000/svg" xmlns:xlink="http://www.w3.org/1999/xlink" x="0px" y="0px"
	 viewBox="0 0 35.2 15.9" enable-background="new 0 0 35.2 15.9" xml:space="preserve">
<g id="Forma_1">
	<g>
		<path fill="#7ABFE8" d="M10.9,8.3c0,0,0,1-0.7,1.6c-0.3,0.3-0.8,0.7-1.6,0.7c-0.4,0-0.7,0.3-0.7,0.7c0,0.4,0.3,0.7,0.7,0.7
			c1.2,0,2-0.6,2.5-1.1c1.1-1.1,1.1-2.6,1.1-2.6c0-0.4-0.3-0.6-0.7-0.6C11.2,7.6,10.9,7.9,10.9,8.3z M6.7,9.6
			c-0.5,0-0.9,0.4-0.9,0.9c0,0.5,0.4,0.9,0.9,0.9s0.9-0.4,0.9-0.9C7.6,10,7.2,9.6,6.7,9.6z M30.4,8.3c0,0,0,1-0.7,1.6
			c-0.3,0.3-0.9,0.7-1.6,0.7c-0.4,0-0.7,0.3-0.7,0.7c0,0.4,0.3,0.7,0.7,0.7c1.2,0,2-0.6,2.5-1.1c1.1-1.1,1.1-2.6,1.1-2.6
			c0-0.4-0.4-0.7-0.7-0.6C30.7,7.6,30.4,7.9,30.4,8.3z M26.2,9.6c-0.5,0-0.9,0.4-0.9,0.9c0,0.5,0.4,0.9,0.9,0.9
			c0.5,0,0.9-0.4,0.9-0.9C27.1,10,26.7,9.6,26.2,9.6z M27.4,0C23.9,0,21,2.3,20,5.6c-0.9-0.4-1.7-0.6-2.6-0.6c-0.8,0-1.5,0.3-2,0.6
			c-1-3.2-4-5.5-7.4-5.5C3.5,0,0,3.6,0,7.9c0,4.4,3.5,7.9,7.8,7.9c4.1,0,7.5-3.3,7.8-7.4c0.4-0.3,1-0.8,1.9-0.9
			c0.7-0.1,1.4,0.3,2.1,0.9c0.3,4.1,3.7,7.3,7.8,7.3c4.3,0,7.8-3.6,7.8-7.9C35.2,3.6,31.7,0,27.4,0z M7.8,13.2
			c-2.9,0-5.2-2.4-5.2-5.3C2.6,5,5,2.7,7.8,2.7C10.7,2.7,13,5,13,7.9C13,10.9,10.7,13.2,7.8,13.2z M27.4,13.2
			c-2.9,0-5.2-2.4-5.2-5.3c0-2.9,2.3-5.3,5.2-5.3c2.9,0,5.2,2.4,5.2,5.3C32.6,10.9,30.3,13.2,27.4,13.2z"/>
	</g>
</g>
</svg>
