<?xml version="1.0" encoding="utf-8"?>
<!-- Generator: Adobe Illustrator 17.1.0, SVG Export Plug-In . SVG Version: 6.00 Build 0)  -->
<!DOCTYPE svg PUBLIC "-//W3C//DTD SVG 1.1//EN" "http://www.w3.org/Graphics/SVG/1.1/DTD/svg11.dtd">
<svg version="1.1" id="Слой_1" xmlns="http://www.w3.org/2000/svg" xmlns:xlink="http://www.w3.org/1999/xlink" x="0px" y="0px"
	 viewBox="0 0 3037.6 2733.9" enable-background="new 0 0 3037.6 2733.9" xml:space="preserve">
<g id="Forma_1_copy_4">
	<g>
		<path fill-rule="evenodd" clip-rule="evenodd" fill="#495D85" d="M1894.5,1919.8c-74.9-11.1-76.7-203.5-76.7-203.5
			s220.3-203.5,268.2-477.2c129.1,0,208.9-290.9,79.8-393.3C2171.3,738.1,2331.9,0,1518.8,0c-813,0-652.4,738.1-647.1,845.9
			c-129.1,102.3-49.4,393.3,79.7,393.3c48,273.7,268.3,477.2,268.3,477.2s-1.7,192.4-76.7,203.5C901.6,1955.7,0,1814.2,0,2733.9
			h1518.8h1518.8C3037.6,1738.3,2136,1955.7,1894.5,1919.8z"/>
	</g>
</g>
</svg>
