<?xml version="1.0" encoding="utf-8"?>
<!-- Generator: Adobe Illustrator 17.1.0, SVG Export Plug-In . SVG Version: 6.00 Build 0)  -->
<!DOCTYPE svg PUBLIC "-//W3C//DTD SVG 1.1//EN" "http://www.w3.org/Graphics/SVG/1.1/DTD/svg11.dtd">
<svg version="1.1" id="Слой_1" xmlns="http://www.w3.org/2000/svg" xmlns:xlink="http://www.w3.org/1999/xlink" x="0px" y="0px"
	 viewBox="0 0 3848.3 4050.9" enable-background="new 0 0 3848.3 4050.9" xml:space="preserve">
<g id="Shape_1_1_">
	<g>
		<path fill="#495D85" d="M3657.8,3396.7c-384.8-202.5-679.1-315-940.5-359.3l28.5-39.1c11.2-15.4,14.9-34.8,10.4-53.2l-59.6-238.2
			c159.6-225,253.8-506,253.8-772.6v-256.5h192.4c35.5,0,64.1-28.7,64.1-64.2c0-35.5-28.7-64.1-64.1-64.1h-64.1v-64.2
			c0-178.6-42.1-346.9-117.5-496.6l-575.9,110.7c-4,0.8-8.1,1.1-12.1,1.1c-16.8,0-33.2-6.7-45.3-18.7c-15-15.1-21.7-36.6-17.7-57.5
			L2415.3,472c-54.3-24.4-111.1-45.6-170.5-62.5V396c0-106.7-86.8-396-193.4-396H1797c-106.7,0-193.5,289.3-193.5,396v13.6
			c-59.3,16.9-116.1,38-170.4,62.5l105.2,552.2c4,20.9-2.7,42.4-17.7,57.5c-12.1,12.1-28.5,18.7-45.4,18.7c-4,0-8.1-0.3-12.1-1.1
			L887.2,988.6c-75.4,149.7-117.6,318-117.6,496.6v64.2h-64.2c-35.4,0-64.1,28.7-64.1,64.1c0,35.4,28.7,64.2,64.1,64.2h192.4v256.5
			c0,266.5,94.4,547.6,253.9,772.6l-59.5,238.2c-4.6,18.4-0.8,37.8,10.4,53.2l28.5,39.1c-261.4,44.4-555.7,156.8-940.5,359.3
			C73.1,3458.5,0,3579.5,0,3712.5v274.3c0,35.4,28.7,64.2,64.1,64.2h1563.4c0.1,0,0.1-0.1,0.2-0.1l590.3-0.5c1,0,1.8,0.6,2.9,0.6
			h1563.3c35.5,0,64.1-28.8,64.1-64.2v-274.3C3848.3,3579.5,3775.3,3458.5,3657.8,3396.7z M1224,2947l28.8-115.1
			c0.1,0.3,0.3,0.4,0.4,0.5c155,168.6,352.3,287.4,574.6,314.4c0.1,0,0.3,0.1,0.4,0.1l28.5,594.1L1224,2947z M1403.3,2800.4
			c-16.1-15.1-32.3-29.7-47.9-46.2c-0.1-0.1-0.3-0.2-0.4-0.4c-23.5-24.9-46.4-51.6-68.5-79.8c-1.9-2.5-4.8-3.9-7.1-6.1
			c-151.1-190.7-253.3-444.8-253.3-733.6v-256.5h1795.9v256.5c0,288.8-102.2,543-253.3,733.6c-2.2,2.2-5.2,3.5-7.1,6.1
			c-22.1,28.2-44.9,54.8-68.3,79.8c-0.1,0.2-0.3,0.3-0.4,0.4c-15.6,16.5-31.8,31.1-48,46.2c-156.7,141.4-342.9,224.2-520.8,224.2
			C1746.4,3024.6,1560.2,2941.8,1403.3,2800.4z M1991.7,3740.9l28.1-586.7c99.6-4.1,363.9-54.6,575.3-321.8c0.1-0.1,0.3-0.2,0.4-0.5
			l28.8,115.1L1991.7,3740.9z M2534.1,534.3l-80.2,421.1l438.9-84.4C2801.6,735.6,2679.7,620.9,2534.1,534.3z M1314.3,534.3
			c-145.6,86.6-267.5,201.3-358.7,336.7l438.9,84.4L1314.3,534.3z"/>
	</g>
</g>
</svg>
